<?xml version="1.0" encoding="UTF-8" standalone="no"?>
<!DOCTYPE svg PUBLIC "-//W3C//DTD SVG 1.1//EN"
 "http://www.w3.org/Graphics/SVG/1.1/DTD/svg11.dtd">
<!-- Generated by graphviz version 14.1.2 (20260124.0452)
 -->
<!-- Title: echo_issue_dependencies Pages: 1 -->
<svg width="775pt" height="756pt"
 viewBox="0.00 0.00 775.00 756.00" xmlns="http://www.w3.org/2000/svg" xmlns:xlink="http://www.w3.org/1999/xlink">
<g id="graph0" class="graph" transform="scale(1 1) rotate(0) translate(4 752)">
<title>echo_issue_dependencies</title>
<polygon fill="white" stroke="none" points="-4,4 -4,-752 771.3,-752 771.3,4 -4,4"/>
<text xml:space="preserve" text-anchor="middle" x="383.65" y="-726.9" font-family="Helvetica,sans-Serif" font-size="18.00">Echo — Issue Dependency Sketch</text>
<text xml:space="preserve" text-anchor="middle" x="383.65" y="-708.15" font-family="Helvetica,sans-Serif" font-size="18.00">Edge direction: prerequisite → dependent (do tail before head)</text>
<text xml:space="preserve" text-anchor="middle" x="383.65" y="-685.65" font-family="Helvetica,sans-Serif" font-size="18.00">Edge styles encode confidence (solid=strong, dashed=medium, dotted=weak).</text>
<g id="clust1" class="cluster">
<title>cluster_legend</title>
<path fill="none" stroke="#b3b3b3" d="M149.08,-8C149.08,-8 747.3,-8 747.3,-8 753.3,-8 759.3,-14 759.3,-20 759.3,-20 759.3,-75 759.3,-75 759.3,-81 753.3,-87 747.3,-87 747.3,-87 149.08,-87 149.08,-87 143.08,-87 137.08,-81 137.08,-75 137.08,-75 137.08,-20 137.08,-20 137.08,-14 143.08,-8 149.08,-8"/>
<text xml:space="preserve" text-anchor="middle" x="448.19" y="-65.9" font-family="Helvetica,sans-Serif" font-size="18.00" fill="#4d4d4d">Legend</text>
</g>
<g id="clust2" class="cluster">
<title>cluster_1C___Rhai_TS_Bindings</title>
<path fill="none" stroke="#b3b3b3" d="M368.15,-138C368.15,-138 657.3,-138 657.3,-138 663.3,-138 669.3,-144 669.3,-150 669.3,-150 669.3,-205 669.3,-205 669.3,-211 663.3,-217 657.3,-217 657.3,-217 368.15,-217 368.15,-217 362.15,-217 356.15,-211 356.15,-205 356.15,-205 356.15,-150 356.15,-150 356.15,-144 362.15,-138 368.15,-138"/>
<text xml:space="preserve" text-anchor="middle" x="512.72" y="-195.9" font-family="Helvetica,sans-Serif" font-size="18.00">1C – Rhai/TS Bindings</text>
</g>
<g id="clust3" class="cluster">
<title>cluster_1E___Networking___Confluence_MVP</title>
<path fill="none" stroke="#b3b3b3" d="M33.33,-182C33.33,-182 311.83,-182 311.83,-182 317.83,-182 323.83,-188 323.83,-194 323.83,-194 323.83,-249 323.83,-249 323.83,-255 317.83,-261 311.83,-261 311.83,-261 33.33,-261 33.33,-261 27.33,-261 21.33,-255 21.33,-249 21.33,-249 21.33,-194 21.33,-194 21.33,-188 27.33,-182 33.33,-182"/>
<text xml:space="preserve" text-anchor="middle" x="172.58" y="-239.9" font-family="Helvetica,sans-Serif" font-size="18.00">1E – Networking &amp; Confluence MVP</text>
</g>
<g id="clust4" class="cluster">
<title>cluster_1F___Tooling_Integration</title>
<path fill="none" stroke="#b3b3b3" d="M83.75,-269C83.75,-269 597.3,-269 597.3,-269 603.3,-269 609.3,-275 609.3,-281 609.3,-281 609.3,-660 609.3,-660 609.3,-666 603.3,-672 597.3,-672 597.3,-672 83.75,-672 83.75,-672 77.75,-672 71.75,-666 71.75,-660 71.75,-660 71.75,-281 71.75,-281 71.75,-275 77.75,-269 83.75,-269"/>
<text xml:space="preserve" text-anchor="middle" x="340.52" y="-650.9" font-family="Helvetica,sans-Serif" font-size="18.00">1F – Tooling Integration</text>
</g>
<g id="clust5" class="cluster">
<title>cluster_W1___Wesley_as_a_Boundary_Grammar</title>
<path fill="none" stroke="#b3b3b3" d="M20,-95C20,-95 324.15,-95 324.15,-95 330.15,-95 336.15,-101 336.15,-107 336.15,-107 336.15,-162 336.15,-162 336.15,-168 330.15,-174 324.15,-174 324.15,-174 20,-174 20,-174 14,-174 8,-168 8,-162 8,-162 8,-107 8,-107 8,-101 14,-95 20,-95"/>
<text xml:space="preserve" text-anchor="middle" x="172.08" y="-152.9" font-family="Helvetica,sans-Serif" font-size="18.00">W1 – Wesley as a Boundary Grammar</text>
</g>
<!-- L1 -->
<g id="node1" class="node">
<title>L1</title>
<path fill="#ffffff" stroke="black" d="M187.08,-52C187.08,-52 157.08,-52 157.08,-52 151.08,-52 145.08,-46 145.08,-40 145.08,-40 145.08,-28 145.08,-28 145.08,-22 151.08,-16 157.08,-16 157.08,-16 187.08,-16 187.08,-16 193.08,-16 199.08,-22 199.08,-28 199.08,-28 199.08,-40 199.08,-40 199.08,-46 193.08,-52 187.08,-52"/>
<text xml:space="preserve" text-anchor="middle" x="172.08" y="-30.12" font-family="Helvetica,sans-Serif" font-size="10.00">strong</text>
</g>
<!-- L2 -->
<g id="node2" class="node">
<title>L2</title>
<path fill="#ffffff" stroke="black" d="M527.72,-52C527.72,-52 497.72,-52 497.72,-52 491.72,-52 485.72,-46 485.72,-40 485.72,-40 485.72,-28 485.72,-28 485.72,-22 491.72,-16 497.72,-16 497.72,-16 527.72,-16 527.72,-16 533.72,-16 539.72,-22 539.72,-28 539.72,-28 539.72,-40 539.72,-40 539.72,-46 533.72,-52 527.72,-52"/>
<text xml:space="preserve" text-anchor="middle" x="512.72" y="-30.12" font-family="Helvetica,sans-Serif" font-size="10.00">medium</text>
</g>
<!-- L1&#45;&gt;L2 -->
<g id="edge1" class="edge">
<title>L1&#45;&gt;L2</title>
<path fill="none" stroke="black" stroke-width="1.4" d="M199.37,-34C262.62,-34 422.69,-34 485.68,-34"/>
</g>
<!-- L3 -->
<g id="node3" class="node">
<title>L3</title>
<path fill="#ffffff" stroke="black" d="M739.3,-52C739.3,-52 709.3,-52 709.3,-52 703.3,-52 697.3,-46 697.3,-40 697.3,-40 697.3,-28 697.3,-28 697.3,-22 703.3,-16 709.3,-16 709.3,-16 739.3,-16 739.3,-16 745.3,-16 751.3,-22 751.3,-28 751.3,-28 751.3,-40 751.3,-40 751.3,-46 745.3,-52 739.3,-52"/>
<text xml:space="preserve" text-anchor="middle" x="724.3" y="-30.12" font-family="Helvetica,sans-Serif" font-size="10.00">weak</text>
</g>
<!-- L2&#45;&gt;L3 -->
<g id="edge2" class="edge">
<title>L2&#45;&gt;L3</title>
<path fill="none" stroke="#666666" stroke-width="1.2" stroke-dasharray="5,2" d="M539.84,-34C580,-34 656.49,-34 696.85,-34"/>
</g>
<!-- i173 -->
<g id="node4" class="node">
<title>i173</title>
<g id="a_node4"><a xlink:href="https://github.com/flyingrobots/echo/issues/173" xlink:title="S1: Deterministic Rhai surface (sandbox + claims/effects)">
<path fill="#dcfce7" stroke="black" d="M649.3,-182C649.3,-182 376.15,-182 376.15,-182 370.15,-182 364.15,-176 364.15,-170 364.15,-170 364.15,-158 364.15,-158 364.15,-152 370.15,-146 376.15,-146 376.15,-146 649.3,-146 649.3,-146 655.3,-146 661.3,-152 661.3,-158 661.3,-158 661.3,-170 661.3,-170 661.3,-176 655.3,-182 649.3,-182"/>
<text xml:space="preserve" text-anchor="middle" x="512.72" y="-160.12" font-family="Helvetica,sans-Serif" font-size="10.00">#173\nS1: Deterministic Rhai surface (sandbox + claims/effects)</text>
</a>
</g>
</g>
<!-- i21 -->
<g id="node5" class="node">
<title>i21</title>
<g id="a_node5"><a xlink:href="https://github.com/flyingrobots/echo/issues/21" xlink:title="Spec: Security Contexts (FFI/WASM/CLI)">
<path fill="#ffedd5" stroke="black" d="M271.15,-226C271.15,-226 73,-226 73,-226 67,-226 61,-220 61,-214 61,-214 61,-202 61,-202 61,-196 67,-190 73,-190 73,-190 271.15,-190 271.15,-190 277.15,-190 283.15,-196 283.15,-202 283.15,-202 283.15,-214 283.15,-214 283.15,-220 277.15,-226 271.15,-226"/>
<text xml:space="preserve" text-anchor="middle" x="172.08" y="-204.12" font-family="Helvetica,sans-Serif" font-size="10.00">#21\nSpec: Security Contexts (FFI/WASM/CLI)</text>
</a>
</g>
</g>
<!-- i21&#45;&gt;i173 -->
<g id="edge3" class="edge">
<title>i21&#45;&gt;i173</title>
<g id="a_edge3"><a xlink:title="security contexts likely required">
<path fill="none" stroke="#666666" stroke-width="1.2" stroke-dasharray="5,2" d="M283.49,-193.65C307.9,-190.48 334.18,-187.07 359.91,-183.72"/>
<polygon fill="#666666" stroke="#666666" stroke-width="1.2" points="359.99,-186.54 367.56,-182.73 359.27,-180.99 359.99,-186.54"/>
</a>
</g>
</g>
<!-- i20 -->
<g id="node6" class="node">
<title>i20</title>
<g id="a_node6"><a xlink:href="https://github.com/flyingrobots/echo/issues/20" xlink:title="Spec: Commit/Manifest Signing">
<path fill="#f3f4f6" stroke="black" d="M589.3,-394C589.3,-394 436.15,-394 436.15,-394 430.15,-394 424.15,-388 424.15,-382 424.15,-382 424.15,-370 424.15,-370 424.15,-364 430.15,-358 436.15,-358 436.15,-358 589.3,-358 589.3,-358 595.3,-358 601.3,-364 601.3,-370 601.3,-370 601.3,-382 601.3,-382 601.3,-388 595.3,-394 589.3,-394"/>
<text xml:space="preserve" text-anchor="middle" x="512.72" y="-372.12" font-family="Helvetica,sans-Serif" font-size="10.00">#20\nSpec: Commit/Manifest Signing</text>
</a>
</g>
</g>
<!-- i24 -->
<g id="node7" class="node">
<title>i24</title>
<g id="a_node7"><a xlink:href="https://github.com/flyingrobots/echo/issues/24" xlink:title="Editor Hot&#45;Reload (spec + impl)">
<path fill="#f3f4f6" stroke="black" d="M588.92,-583C588.92,-583 436.52,-583 436.52,-583 430.52,-583 424.52,-577 424.52,-571 424.52,-571 424.52,-559 424.52,-559 424.52,-553 430.52,-547 436.52,-547 436.52,-547 588.92,-547 588.92,-547 594.92,-547 600.92,-553 600.92,-559 600.92,-559 600.92,-571 600.92,-571 600.92,-577 594.92,-583 588.92,-583"/>
<text xml:space="preserve" text-anchor="middle" x="512.72" y="-561.12" font-family="Helvetica,sans-Serif" font-size="10.00">#24\nEditor Hot&#45;Reload (spec + impl)</text>
</a>
</g>
</g>
<!-- i33 -->
<g id="node8" class="node">
<title>i33</title>
<g id="a_node8"><a xlink:href="https://github.com/flyingrobots/echo/issues/33" xlink:title="CI: sign release artifacts (dry run)">
<path fill="#f3f4f6" stroke="black" d="M252.4,-313C252.4,-313 91.75,-313 91.75,-313 85.75,-313 79.75,-307 79.75,-301 79.75,-301 79.75,-289 79.75,-289 79.75,-283 85.75,-277 91.75,-277 91.75,-277 252.4,-277 252.4,-277 258.4,-277 264.4,-283 264.4,-289 264.4,-289 264.4,-301 264.4,-301 264.4,-307 258.4,-313 252.4,-313"/>
<text xml:space="preserve" text-anchor="middle" x="172.08" y="-291.12" font-family="Helvetica,sans-Serif" font-size="10.00">#33\nCI: sign release artifacts (dry run)</text>
</a>
</g>
</g>
<!-- i33&#45;&gt;i20 -->
<g id="edge5" class="edge">
<title>i33&#45;&gt;i20</title>
<g id="a_edge5"><a xlink:title="ci sign dry run feeds epic">
<path fill="none" stroke="black" stroke-width="1.4" d="M264.5,-307.92C287.98,-311.84 313.11,-316.57 336.15,-322 374.01,-330.91 415.65,-343.59 448.87,-354.42"/>
<polygon fill="black" stroke="black" stroke-width="1.4" points="447.96,-357.07 456.43,-356.91 449.71,-351.75 447.96,-357.07"/>
</a>
</g>
</g>
<!-- i34 -->
<g id="node9" class="node">
<title>i34</title>
<g id="a_node9"><a xlink:href="https://github.com/flyingrobots/echo/issues/34" xlink:title="CLI verify path">
<path fill="#f3f4f6" stroke="black" d="M211.53,-367C211.53,-367 132.63,-367 132.63,-367 126.63,-367 120.63,-361 120.63,-355 120.63,-355 120.63,-343 120.63,-343 120.63,-337 126.63,-331 132.63,-331 132.63,-331 211.53,-331 211.53,-331 217.53,-331 223.53,-337 223.53,-343 223.53,-343 223.53,-355 223.53,-355 223.53,-361 217.53,-367 211.53,-367"/>
<text xml:space="preserve" text-anchor="middle" x="172.08" y="-345.12" font-family="Helvetica,sans-Serif" font-size="10.00">#34\nCLI verify path</text>
</a>
</g>
</g>
<!-- i34&#45;&gt;i20 -->
<g id="edge6" class="edge">
<title>i34&#45;&gt;i20</title>
<g id="a_edge6"><a xlink:title="cli verify path feeds epic">
<path fill="none" stroke="black" stroke-width="1.4" d="M223.77,-353.04C273.87,-357.04 351.79,-363.25 413.95,-368.2"/>
<polygon fill="black" stroke="black" stroke-width="1.4" points="413.48,-370.98 421.68,-368.82 413.92,-365.39 413.48,-370.98"/>
</a>
</g>
</g>
<!-- i35 -->
<g id="node10" class="node">
<title>i35</title>
<g id="a_node10"><a xlink:href="https://github.com/flyingrobots/echo/issues/35" xlink:title="Key management doc">
<path fill="#f3f4f6" stroke="black" d="M226.9,-421C226.9,-421 117.25,-421 117.25,-421 111.25,-421 105.25,-415 105.25,-409 105.25,-409 105.25,-397 105.25,-397 105.25,-391 111.25,-385 117.25,-385 117.25,-385 226.9,-385 226.9,-385 232.9,-385 238.9,-391 238.9,-397 238.9,-397 238.9,-409 238.9,-409 238.9,-415 232.9,-421 226.9,-421"/>
<text xml:space="preserve" text-anchor="middle" x="172.08" y="-399.12" font-family="Helvetica,sans-Serif" font-size="10.00">#35\nKey management doc</text>
</a>
</g>
</g>
<!-- i35&#45;&gt;i20 -->
<g id="edge7" class="edge">
<title>i35&#45;&gt;i20</title>
<g id="a_edge7"><a xlink:title="key mgmt doc feeds epic">
<path fill="none" stroke="black" stroke-width="1.4" d="M239.17,-397.73C288.84,-393.77 357.66,-388.28 413.72,-383.81"/>
<polygon fill="black" stroke="black" stroke-width="1.4" points="413.81,-386.62 421.56,-383.19 413.36,-381.03 413.81,-386.62"/>
</a>
</g>
</g>
<!-- i36 -->
<g id="node11" class="node">
<title>i36</title>
<g id="a_node11"><a xlink:href="https://github.com/flyingrobots/echo/issues/36" xlink:title="CI: verify signatures">
<path fill="#f3f4f6" stroke="black" d="M223.53,-475C223.53,-475 120.63,-475 120.63,-475 114.63,-475 108.63,-469 108.63,-463 108.63,-463 108.63,-451 108.63,-451 108.63,-445 114.63,-439 120.63,-439 120.63,-439 223.53,-439 223.53,-439 229.53,-439 235.53,-445 235.53,-451 235.53,-451 235.53,-463 235.53,-463 235.53,-469 229.53,-475 223.53,-475"/>
<text xml:space="preserve" text-anchor="middle" x="172.08" y="-453.12" font-family="Helvetica,sans-Serif" font-size="10.00">#36\nCI: verify signatures</text>
</a>
</g>
</g>
<!-- i36&#45;&gt;i20 -->
<g id="edge8" class="edge">
<title>i36&#45;&gt;i20</title>
<g id="a_edge8"><a xlink:title="ci verify feeds epic">
<path fill="none" stroke="black" stroke-width="1.4" d="M235.8,-448.63C266.28,-444.05 303.33,-437.73 336.15,-430 374.01,-421.09 415.65,-408.41 448.87,-397.58"/>
<polygon fill="black" stroke="black" stroke-width="1.4" points="449.71,-400.25 456.43,-395.09 447.96,-394.93 449.71,-400.25"/>
</a>
</g>
</g>
<!-- i75 -->
<g id="node12" class="node">
<title>i75</title>
<g id="a_node12"><a xlink:href="https://github.com/flyingrobots/echo/issues/75" xlink:title="Draft hot&#45;reload spec">
<path fill="#f3f4f6" stroke="black" d="M225.03,-529C225.03,-529 119.13,-529 119.13,-529 113.13,-529 107.13,-523 107.13,-517 107.13,-517 107.13,-505 107.13,-505 107.13,-499 113.13,-493 119.13,-493 119.13,-493 225.03,-493 225.03,-493 231.03,-493 237.03,-499 237.03,-505 237.03,-505 237.03,-517 237.03,-517 237.03,-523 231.03,-529 225.03,-529"/>
<text xml:space="preserve" text-anchor="middle" x="172.08" y="-507.12" font-family="Helvetica,sans-Serif" font-size="10.00">#75\nDraft hot&#45;reload spec</text>
</a>
</g>
</g>
<!-- i75&#45;&gt;i24 -->
<g id="edge9" class="edge">
<title>i75&#45;&gt;i24</title>
<g id="a_edge9"><a xlink:title="spec feeds epic">
<path fill="none" stroke="black" stroke-width="1.4" d="M237.17,-521.22C287.2,-529.2 357.54,-540.41 414.49,-549.5"/>
<polygon fill="black" stroke="black" stroke-width="1.4" points="413.8,-552.22 422.14,-550.72 414.68,-546.69 413.8,-552.22"/>
</a>
</g>
</g>
<!-- i76 -->
<g id="node13" class="node">
<title>i76</title>
<g id="a_node13"><a xlink:href="https://github.com/flyingrobots/echo/issues/76" xlink:title="File watcher/debounce">
<path fill="#f3f4f6" stroke="black" d="M228.4,-583C228.4,-583 115.75,-583 115.75,-583 109.75,-583 103.75,-577 103.75,-571 103.75,-571 103.75,-559 103.75,-559 103.75,-553 109.75,-547 115.75,-547 115.75,-547 228.4,-547 228.4,-547 234.4,-547 240.4,-553 240.4,-559 240.4,-559 240.4,-571 240.4,-571 240.4,-577 234.4,-583 228.4,-583"/>
<text xml:space="preserve" text-anchor="middle" x="172.08" y="-561.12" font-family="Helvetica,sans-Serif" font-size="10.00">#76\nFile watcher/debounce</text>
</a>
</g>
</g>
<!-- i76&#45;&gt;i24 -->
<g id="edge10" class="edge">
<title>i76&#45;&gt;i24</title>
<g id="a_edge10"><a xlink:title="watcher feeds epic">
<path fill="none" stroke="black" stroke-width="1.4" d="M240.79,-565C290.5,-565 358.75,-565 414.31,-565"/>
<polygon fill="black" stroke="black" stroke-width="1.4" points="414.06,-567.8 422.06,-565 414.06,-562.2 414.06,-567.8"/>
</a>
</g>
</g>
<!-- i79 -->
<g id="node14" class="node">
<title>i79</title>
<g id="a_node14"><a xlink:href="https://github.com/flyingrobots/echo/issues/79" xlink:title="Docs/logging">
<path fill="#f3f4f6" stroke="black" d="M207.78,-637C207.78,-637 136.38,-637 136.38,-637 130.38,-637 124.38,-631 124.38,-625 124.38,-625 124.38,-613 124.38,-613 124.38,-607 130.38,-601 136.38,-601 136.38,-601 207.78,-601 207.78,-601 213.78,-601 219.78,-607 219.78,-613 219.78,-613 219.78,-625 219.78,-625 219.78,-631 213.78,-637 207.78,-637"/>
<text xml:space="preserve" text-anchor="middle" x="172.08" y="-615.12" font-family="Helvetica,sans-Serif" font-size="10.00">#79\nDocs/logging</text>
</a>
</g>
</g>
<!-- i79&#45;&gt;i24 -->
<g id="edge11" class="edge">
<title>i79&#45;&gt;i24</title>
<g id="a_edge11"><a xlink:title="docs/logging feed epic">
<path fill="none" stroke="black" stroke-width="1.4" d="M220.16,-611.49C270.21,-603.51 350.76,-590.67 414.52,-580.5"/>
<polygon fill="black" stroke="black" stroke-width="1.4" points="414.65,-583.31 422.11,-579.29 413.77,-577.78 414.65,-583.31"/>
</a>
</g>
</g>
<!-- i174 -->
<g id="node15" class="node">
<title>i174</title>
<g id="a_node15"><a xlink:href="https://github.com/flyingrobots/echo/issues/174" xlink:title="W1: Wesley as a boundary grammar (hashable view artifacts)">
<path fill="#ccfbf1" stroke="black" d="M316.15,-139C316.15,-139 28,-139 28,-139 22,-139 16,-133 16,-127 16,-127 16,-115 16,-115 16,-109 22,-103 28,-103 28,-103 316.15,-103 316.15,-103 322.15,-103 328.15,-109 328.15,-115 328.15,-115 328.15,-127 328.15,-127 328.15,-133 322.15,-139 316.15,-139"/>
<text xml:space="preserve" text-anchor="middle" x="172.08" y="-117.12" font-family="Helvetica,sans-Serif" font-size="10.00">#174\nW1: Wesley as a boundary grammar (hashable view artifacts)</text>
</a>
</g>
</g>
<!-- i174&#45;&gt;i173 -->
<g id="edge4" class="edge">
<title>i174&#45;&gt;i173</title>
<g id="a_edge4"><a xlink:title="Wesley grammar maybe required">
<path fill="none" stroke="#b3b3b3" stroke-width="1.2" stroke-dasharray="1,5" d="M318.66,-139.49C331.23,-141.08 343.98,-142.7 356.62,-144.31"/>
<polygon fill="#b3b3b3" stroke="#b3b3b3" stroke-width="1.2" points="356.17,-147.07 364.46,-145.3 356.88,-141.52 356.17,-147.07"/>
</a>
</g>
</g>
</g>
</svg>
