<?xml version="1.0" encoding="UTF-8" standalone="no"?>
<!DOCTYPE svg PUBLIC "-//W3C//DTD SVG 1.1//EN"
 "http://www.w3.org/Graphics/SVG/1.1/DTD/svg11.dtd">
<!-- Generated by graphviz version 14.1.1 (20251213.1925)
 -->
<!-- Title: echo_issue_dependencies Pages: 1 -->
<svg width="2052pt" height="2936pt"
 viewBox="0.00 0.00 2052.00 2936.00" xmlns="http://www.w3.org/2000/svg" xmlns:xlink="http://www.w3.org/1999/xlink">
<g id="graph0" class="graph" transform="scale(1 1) rotate(0) translate(4 2931.75)">
<title>echo_issue_dependencies</title>
<polygon fill="white" stroke="none" points="-4,4 -4,-2931.75 2048.25,-2931.75 2048.25,4 -4,4"/>
<text xml:space="preserve" text-anchor="middle" x="1022.12" y="-2906.65" font-family="Helvetica,sans-Serif" font-size="18.00">Echo — Issue Dependency Sketch</text>
<text xml:space="preserve" text-anchor="middle" x="1022.12" y="-2887.9" font-family="Helvetica,sans-Serif" font-size="18.00">Edge direction: prerequisite → dependent (do tail before head)</text>
<text xml:space="preserve" text-anchor="middle" x="1022.12" y="-2865.4" font-family="Helvetica,sans-Serif" font-size="18.00">Edge styles encode confidence (solid=strong, dashed=medium, dotted=weak).</text>
<text xml:space="preserve" text-anchor="middle" x="1022.12" y="-2846.65" font-family="Helvetica,sans-Serif" font-size="18.00">Green = Confirmed in Issue Body; Red = In Issue Body but missing from Plan.</text>
<g id="clust1" class="cluster">
<title>cluster_legend</title>
<path fill="none" stroke="#b3b3b3" d="M159.88,-8C159.88,-8 1065,-8 1065,-8 1071,-8 1077,-14 1077,-20 1077,-20 1077,-183 1077,-183 1077,-189 1071,-195 1065,-195 1065,-195 159.87,-195 159.87,-195 153.88,-195 147.88,-189 147.88,-183 147.88,-183 147.88,-20 147.88,-20 147.88,-14 153.88,-8 159.88,-8"/>
<text xml:space="preserve" text-anchor="middle" x="612.44" y="-173.9" font-family="Helvetica,sans-Serif" font-size="18.00" fill="#4d4d4d">Legend</text>
</g>
<g id="clust2" class="cluster">
<title>cluster__no_milestone_</title>
<path fill="none" stroke="#b3b3b3" d="M451.02,-888C451.02,-888 780.67,-888 780.67,-888 786.67,-888 792.67,-894 792.67,-900 792.67,-900 792.67,-1117 792.67,-1117 792.67,-1123 786.67,-1129 780.67,-1129 780.67,-1129 451.02,-1129 451.02,-1129 445.02,-1129 439.02,-1123 439.02,-1117 439.02,-1117 439.02,-900 439.02,-900 439.02,-894 445.02,-888 451.02,-888"/>
<text xml:space="preserve" text-anchor="middle" x="615.85" y="-1107.9" font-family="Helvetica,sans-Serif" font-size="18.00">(no milestone)</text>
</g>
<g id="clust3" class="cluster">
<title>cluster_1C___Rhai_TS_Bindings</title>
<path fill="none" stroke="#b3b3b3" d="M136.62,-539C136.62,-539 668.92,-539 668.92,-539 674.92,-539 680.92,-545 680.92,-551 680.92,-551 680.92,-822 680.92,-822 680.92,-828 674.92,-834 668.92,-834 668.92,-834 136.63,-834 136.63,-834 130.62,-834 124.62,-828 124.62,-822 124.62,-822 124.62,-551 124.62,-551 124.62,-545 130.62,-539 136.62,-539"/>
<text xml:space="preserve" text-anchor="middle" x="402.77" y="-812.9" font-family="Helvetica,sans-Serif" font-size="18.00">1C – Rhai/TS Bindings</text>
</g>
<g id="clust4" class="cluster">
<title>cluster_1E___Networking___Confluence_MVP</title>
<path fill="none" stroke="#b3b3b3" d="M125,-290C125,-290 722.92,-290 722.92,-290 728.92,-290 734.92,-296 734.92,-302 734.92,-302 734.92,-519 734.92,-519 734.92,-525 728.92,-531 722.92,-531 722.92,-531 125,-531 125,-531 119,-531 113,-525 113,-519 113,-519 113,-302 113,-302 113,-296 119,-290 125,-290"/>
<text xml:space="preserve" text-anchor="middle" x="423.96" y="-509.9" font-family="Helvetica,sans-Serif" font-size="18.00">1E – Networking &amp; Confluence MVP</text>
</g>
<g id="clust5" class="cluster">
<title>cluster_1F___Tooling_Integration</title>
<path fill="none" stroke="#b3b3b3" d="M56.38,-1137C56.38,-1137 1132.57,-1137 1132.57,-1137 1138.57,-1137 1144.57,-1143 1144.57,-1149 1144.57,-1149 1144.57,-1960 1144.57,-1960 1144.57,-1966 1138.57,-1972 1132.57,-1972 1132.57,-1972 56.37,-1972 56.37,-1972 50.37,-1972 44.38,-1966 44.38,-1960 44.38,-1960 44.38,-1149 44.38,-1149 44.38,-1143 50.38,-1137 56.38,-1137"/>
<text xml:space="preserve" text-anchor="middle" x="594.47" y="-1950.9" font-family="Helvetica,sans-Serif" font-size="18.00">1F – Tooling Integration</text>
</g>
<g id="clust6" class="cluster">
<title>cluster_Demo_2___Splash_Guy__Deterministic_Lockstep_</title>
<path fill="none" stroke="#b3b3b3" d="M20,-1980C20,-1980 770.17,-1980 770.17,-1980 776.17,-1980 782.17,-1986 782.17,-1992 782.17,-1992 782.17,-2209 782.17,-2209 782.17,-2215 776.17,-2221 770.17,-2221 770.17,-2221 20,-2221 20,-2221 14,-2221 8,-2215 8,-2209 8,-2209 8,-1992 8,-1992 8,-1986 14,-1980 20,-1980"/>
<text xml:space="preserve" text-anchor="middle" x="395.09" y="-2199.9" font-family="Helvetica,sans-Serif" font-size="18.00">Demo 2 — Splash Guy (Deterministic Lockstep)</text>
</g>
<g id="clust7" class="cluster">
<title>cluster_Demo_3___Tumble_Tower__Deterministic_Physics_</title>
<path fill="none" stroke="#b3b3b3" d="M44.75,-2229C44.75,-2229 1991.62,-2229 1991.62,-2229 1997.62,-2229 2003.62,-2235 2003.62,-2241 2003.62,-2241 2003.62,-2518 2003.62,-2518 2003.62,-2524 1997.62,-2530 1991.62,-2530 1991.62,-2530 44.75,-2530 44.75,-2530 38.75,-2530 32.75,-2524 32.75,-2518 32.75,-2518 32.75,-2241 32.75,-2241 32.75,-2235 38.75,-2229 44.75,-2229"/>
<text xml:space="preserve" text-anchor="middle" x="1018.19" y="-2508.9" font-family="Helvetica,sans-Serif" font-size="18.00">Demo 3 — Tumble Tower (Deterministic Physics)</text>
</g>
<g id="clust8" class="cluster">
<title>cluster_M2_2___Playground_Slice</title>
<path fill="none" stroke="#b3b3b3" d="M126.12,-2538C126.12,-2538 685.8,-2538 685.8,-2538 691.8,-2538 697.8,-2544 697.8,-2550 697.8,-2550 697.8,-2821 697.8,-2821 697.8,-2827 691.8,-2833 685.8,-2833 685.8,-2833 126.13,-2833 126.13,-2833 120.13,-2833 114.12,-2827 114.12,-2821 114.12,-2821 114.12,-2550 114.12,-2550 114.12,-2544 120.12,-2538 126.12,-2538"/>
<text xml:space="preserve" text-anchor="middle" x="405.96" y="-2811.9" font-family="Helvetica,sans-Serif" font-size="18.00">M2.2 – Playground Slice</text>
</g>
<g id="clust9" class="cluster">
<title>cluster_S1___Deterministic_Rhai_Surface</title>
<path fill="none" stroke="#b3b3b3" d="M897.42,-539C897.42,-539 1186.57,-539 1186.57,-539 1192.57,-539 1198.57,-545 1198.57,-551 1198.57,-551 1198.57,-606 1198.57,-606 1198.57,-612 1192.57,-618 1186.57,-618 1186.57,-618 897.42,-618 897.42,-618 891.42,-618 885.42,-612 885.42,-606 885.42,-606 885.42,-551 885.42,-551 885.42,-545 891.42,-539 897.42,-539"/>
<text xml:space="preserve" text-anchor="middle" x="1042" y="-596.9" font-family="Helvetica,sans-Serif" font-size="18.00">S1 – Deterministic Rhai Surface</text>
</g>
<g id="clust10" class="cluster">
<title>cluster_TT1___Streams_Inspector_Frame</title>
<path fill="none" stroke="#b3b3b3" d="M847.55,-942C847.55,-942 1236.45,-942 1236.45,-942 1242.45,-942 1248.45,-948 1248.45,-954 1248.45,-954 1248.45,-1009 1248.45,-1009 1248.45,-1015 1242.45,-1021 1236.45,-1021 1236.45,-1021 847.55,-1021 847.55,-1021 841.55,-1021 835.55,-1015 835.55,-1009 835.55,-1009 835.55,-954 835.55,-954 835.55,-948 841.55,-942 847.55,-942"/>
<text xml:space="preserve" text-anchor="middle" x="1042" y="-999.9" font-family="Helvetica,sans-Serif" font-size="18.00">TT1 – Streams Inspector Frame</text>
</g>
<g id="clust11" class="cluster">
<title>cluster_TT2___Time_Travel_MVP</title>
<path fill="none" stroke="#b3b3b3" d="M1280.45,-888C1280.45,-888 1636.35,-888 1636.35,-888 1642.35,-888 1648.35,-894 1648.35,-900 1648.35,-900 1648.35,-1009 1648.35,-1009 1648.35,-1015 1642.35,-1021 1636.35,-1021 1636.35,-1021 1280.45,-1021 1280.45,-1021 1274.45,-1021 1268.45,-1015 1268.45,-1009 1268.45,-1009 1268.45,-900 1268.45,-900 1268.45,-894 1274.45,-888 1280.45,-888"/>
<text xml:space="preserve" text-anchor="middle" x="1458.4" y="-999.9" font-family="Helvetica,sans-Serif" font-size="18.00">TT2 – Time Travel MVP</text>
</g>
<g id="clust12" class="cluster">
<title>cluster_TT3___Rulial_Diff___Worldline_Compare</title>
<path fill="none" stroke="#b3b3b3" d="M1680.35,-834C1680.35,-834 2024.25,-834 2024.25,-834 2030.25,-834 2036.25,-840 2036.25,-846 2036.25,-846 2036.25,-1009 2036.25,-1009 2036.25,-1015 2030.25,-1021 2024.25,-1021 2024.25,-1021 1680.35,-1021 1680.35,-1021 1674.35,-1021 1668.35,-1015 1668.35,-1009 1668.35,-1009 1668.35,-846 1668.35,-846 1668.35,-840 1674.35,-834 1680.35,-834"/>
<text xml:space="preserve" text-anchor="middle" x="1852.3" y="-999.9" font-family="Helvetica,sans-Serif" font-size="18.00">TT3 – Rulial Diff / Worldline Compare</text>
</g>
<g id="clust13" class="cluster">
<title>cluster_W1___Wesley_as_a_Boundary_Grammar</title>
<path fill="none" stroke="#b3b3b3" d="M463.77,-203C463.77,-203 767.92,-203 767.92,-203 773.92,-203 779.92,-209 779.92,-215 779.92,-215 779.92,-270 779.92,-270 779.92,-276 773.92,-282 767.92,-282 767.92,-282 463.77,-282 463.77,-282 457.77,-282 451.77,-276 451.77,-270 451.77,-270 451.77,-215 451.77,-215 451.77,-209 457.77,-203 463.77,-203"/>
<text xml:space="preserve" text-anchor="middle" x="615.85" y="-260.9" font-family="Helvetica,sans-Serif" font-size="18.00">W1 – Wesley as a Boundary Grammar</text>
</g>
<!-- L1 -->
<g id="node1" class="node">
<title>L1</title>
<path fill="#ffffff" stroke="black" d="M217.08,-52C217.08,-52 187.08,-52 187.08,-52 181.08,-52 175.08,-46 175.08,-40 175.08,-40 175.08,-28 175.08,-28 175.08,-22 181.08,-16 187.08,-16 187.08,-16 217.08,-16 217.08,-16 223.08,-16 229.08,-22 229.08,-28 229.08,-28 229.08,-40 229.08,-40 229.08,-46 223.08,-52 217.08,-52"/>
<text xml:space="preserve" text-anchor="middle" x="202.08" y="-30.12" font-family="Helvetica,sans-Serif" font-size="10.00">strong</text>
</g>
<!-- L2 -->
<g id="node2" class="node">
<title>L2</title>
<path fill="#ffffff" stroke="black" d="M630.85,-52C630.85,-52 600.85,-52 600.85,-52 594.85,-52 588.85,-46 588.85,-40 588.85,-40 588.85,-28 588.85,-28 588.85,-22 594.85,-16 600.85,-16 600.85,-16 630.85,-16 630.85,-16 636.85,-16 642.85,-22 642.85,-28 642.85,-28 642.85,-40 642.85,-40 642.85,-46 636.85,-52 630.85,-52"/>
<text xml:space="preserve" text-anchor="middle" x="615.85" y="-30.12" font-family="Helvetica,sans-Serif" font-size="10.00">medium</text>
</g>
<!-- L1&#45;&gt;L2 -->
<g id="edge1" class="edge">
<title>L1&#45;&gt;L2</title>
<path fill="none" stroke="black" stroke-width="1.4" d="M229.46,-34C303.75,-34 514.08,-34 588.42,-34"/>
</g>
<!-- L3 -->
<g id="node3" class="node">
<title>L3</title>
<path fill="#ffffff" stroke="black" d="M1057,-52C1057,-52 1027,-52 1027,-52 1021,-52 1015,-46 1015,-40 1015,-40 1015,-28 1015,-28 1015,-22 1021,-16 1027,-16 1027,-16 1057,-16 1057,-16 1063,-16 1069,-22 1069,-28 1069,-28 1069,-40 1069,-40 1069,-46 1063,-52 1057,-52"/>
<text xml:space="preserve" text-anchor="middle" x="1042" y="-30.12" font-family="Helvetica,sans-Serif" font-size="10.00">weak</text>
</g>
<!-- L2&#45;&gt;L3 -->
<g id="edge2" class="edge">
<title>L2&#45;&gt;L3</title>
<path fill="none" stroke="#666666" stroke-width="1.2" stroke-dasharray="5,2" d="M643.06,-34C719.01,-34 938.62,-34 1014.69,-34"/>
</g>
<!-- LG -->
<g id="node4" class="node">
<title>LG</title>
<path fill="green" stroke="green" d="M236.28,-106C236.28,-106 167.88,-106 167.88,-106 161.88,-106 155.88,-100 155.88,-94 155.88,-94 155.88,-82 155.88,-82 155.88,-76 161.88,-70 167.88,-70 167.88,-70 236.28,-70 236.28,-70 242.28,-70 248.28,-76 248.28,-82 248.28,-82 248.28,-94 248.28,-94 248.28,-100 242.28,-106 236.28,-106"/>
<text xml:space="preserve" text-anchor="middle" x="202.08" y="-84.12" font-family="Helvetica,sans-Serif" font-size="10.00" fill="green">confirmed (reality)</text>
</g>
<!-- LR -->
<g id="node5" class="node">
<title>LR</title>
<path fill="red" stroke="red" d="M235.9,-160C235.9,-160 168.25,-160 168.25,-160 162.25,-160 156.25,-154 156.25,-148 156.25,-148 156.25,-136 156.25,-136 156.25,-130 162.25,-124 168.25,-124 168.25,-124 235.9,-124 235.9,-124 241.9,-124 247.9,-130 247.9,-136 247.9,-136 247.9,-148 247.9,-148 247.9,-154 241.9,-160 235.9,-160"/>
<text xml:space="preserve" text-anchor="middle" x="202.08" y="-138.12" font-family="Helvetica,sans-Serif" font-size="10.00" fill="red">missing from plan</text>
</g>
<!-- i243 -->
<g id="node6" class="node">
<title>i243</title>
<g id="a_node6"><a xlink:href="https://github.com/flyingrobots/echo/issues/243" xlink:title="TT1: dt policy (fixed timestep vs admitted dt stream)">
<path fill="#ffffff" stroke="black" d="M740.05,-932C740.05,-932 491.65,-932 491.65,-932 485.65,-932 479.65,-926 479.65,-920 479.65,-920 479.65,-908 479.65,-908 479.65,-902 485.65,-896 491.65,-896 491.65,-896 740.05,-896 740.05,-896 746.05,-896 752.05,-902 752.05,-908 752.05,-908 752.05,-920 752.05,-920 752.05,-926 746.05,-932 740.05,-932"/>
<text xml:space="preserve" text-anchor="middle" x="615.85" y="-910.12" font-family="Helvetica,sans-Serif" font-size="10.00">#243\nTT1: dt policy (fixed timestep vs admitted dt stream)</text>
</a>
</g>
</g>
<!-- i170 -->
<g id="node61" class="node">
<title>i170</title>
<g id="a_node61"><a xlink:href="https://github.com/flyingrobots/echo/issues/170" xlink:title="TT1: StreamsFrame inspector support (backlog + cursors + admission decisions)">
<path fill="#dbeafe" stroke="black" d="M1228.45,-986C1228.45,-986 855.55,-986 855.55,-986 849.55,-986 843.55,-980 843.55,-974 843.55,-974 843.55,-962 843.55,-962 843.55,-956 849.55,-950 855.55,-950 855.55,-950 1228.45,-950 1228.45,-950 1234.45,-950 1240.45,-956 1240.45,-962 1240.45,-962 1240.45,-974 1240.45,-974 1240.45,-980 1234.45,-986 1228.45,-986"/>
<text xml:space="preserve" text-anchor="middle" x="1042" y="-964.12" font-family="Helvetica,sans-Serif" font-size="10.00">#170\nTT1: StreamsFrame inspector support (backlog + cursors + admission decisions)</text>
</a>
</g>
</g>
<!-- i243&#45;&gt;i170 -->
<g id="edge49" class="edge">
<title>i243&#45;&gt;i170</title>
<g id="a_edge49"><a xlink:title="Inferred from Issue Body (missing from Plan)">
<path fill="none" stroke="red" stroke-width="2" stroke-dasharray="5,2" d="M752.51,-931.27C794.72,-936.65 841.59,-942.61 885.07,-948.15"/>
<polygon fill="red" stroke="red" stroke-width="2" points="884.45,-950.89 892.74,-949.12 885.16,-945.34 884.45,-950.89"/>
</a>
</g>
</g>
<!-- i244 -->
<g id="node7" class="node">
<title>i244</title>
<g id="a_node7"><a xlink:href="https://github.com/flyingrobots/echo/issues/244" xlink:title="TT1: TimeStream retention + spool compaction + wormhole density">
<path fill="#ffffff" stroke="black" d="M772.67,-986C772.67,-986 459.02,-986 459.02,-986 453.02,-986 447.02,-980 447.02,-974 447.02,-974 447.02,-962 447.02,-962 447.02,-956 453.02,-950 459.02,-950 459.02,-950 772.67,-950 772.67,-950 778.67,-950 784.67,-956 784.67,-962 784.67,-962 784.67,-974 784.67,-974 784.67,-980 778.67,-986 772.67,-986"/>
<text xml:space="preserve" text-anchor="middle" x="615.85" y="-964.12" font-family="Helvetica,sans-Serif" font-size="10.00">#244\nTT1: TimeStream retention + spool compaction + wormhole density</text>
</a>
</g>
</g>
<!-- i244&#45;&gt;i170 -->
<g id="edge48" class="edge">
<title>i244&#45;&gt;i170</title>
<g id="a_edge48"><a xlink:title="Inferred from Issue Body (missing from Plan)">
<path fill="none" stroke="red" stroke-width="2" stroke-dasharray="5,2" d="M785.09,-968C800.6,-968 816.43,-968 832.23,-968"/>
<polygon fill="red" stroke="red" stroke-width="2" points="832.14,-970.8 840.14,-968 832.14,-965.2 832.14,-970.8"/>
</a>
</g>
</g>
<!-- i245 -->
<g id="node8" class="node">
<title>i245</title>
<g id="a_node8"><a xlink:href="https://github.com/flyingrobots/echo/issues/245" xlink:title="TT1: Merge semantics for admitted stream facts across worldlines">
<path fill="#ffffff" stroke="black" d="M770.42,-1040C770.42,-1040 461.27,-1040 461.27,-1040 455.27,-1040 449.27,-1034 449.27,-1028 449.27,-1028 449.27,-1016 449.27,-1016 449.27,-1010 455.27,-1004 461.27,-1004 461.27,-1004 770.42,-1004 770.42,-1004 776.42,-1004 782.42,-1010 782.42,-1016 782.42,-1016 782.42,-1028 782.42,-1028 782.42,-1034 776.42,-1040 770.42,-1040"/>
<text xml:space="preserve" text-anchor="middle" x="615.85" y="-1018.12" font-family="Helvetica,sans-Serif" font-size="10.00">#245\nTT1: Merge semantics for admitted stream facts across worldlines</text>
</a>
</g>
</g>
<!-- i245&#45;&gt;i170 -->
<g id="edge47" class="edge">
<title>i245&#45;&gt;i170</title>
<g id="a_edge47"><a xlink:title="Inferred from Issue Body (missing from Plan)">
<path fill="none" stroke="red" stroke-width="2" stroke-dasharray="5,2" d="M761.93,-1003.53C801.68,-998.47 844.93,-992.96 885.25,-987.83"/>
<polygon fill="red" stroke="red" stroke-width="2" points="885.4,-990.63 892.98,-986.84 884.69,-985.08 885.4,-990.63"/>
</a>
</g>
</g>
<!-- i246 -->
<g id="node9" class="node">
<title>i246</title>
<g id="a_node9"><a xlink:href="https://github.com/flyingrobots/echo/issues/246" xlink:title="TT1: Security/capabilities for fork/rewind/merge in multiplayer">
<path fill="#ffffff" stroke="black" d="M759.17,-1094C759.17,-1094 472.52,-1094 472.52,-1094 466.52,-1094 460.52,-1088 460.52,-1082 460.52,-1082 460.52,-1070 460.52,-1070 460.52,-1064 466.52,-1058 472.52,-1058 472.52,-1058 759.17,-1058 759.17,-1058 765.17,-1058 771.17,-1064 771.17,-1070 771.17,-1070 771.17,-1082 771.17,-1082 771.17,-1088 765.17,-1094 759.17,-1094"/>
<text xml:space="preserve" text-anchor="middle" x="615.85" y="-1072.12" font-family="Helvetica,sans-Serif" font-size="10.00">#246\nTT1: Security/capabilities for fork/rewind/merge in multiplayer</text>
</a>
</g>
</g>
<!-- i246&#45;&gt;i170 -->
<g id="edge46" class="edge">
<title>i246&#45;&gt;i170</title>
<g id="a_edge46"><a xlink:title="Inferred from Issue Body (missing from Plan)">
<path fill="none" stroke="red" stroke-width="2" stroke-dasharray="5,2" d="M767.02,-1057.53C780.79,-1055 794.47,-1052.16 807.55,-1049 869.96,-1033.9 939.2,-1008.77 985.94,-990.5"/>
<polygon fill="red" stroke="red" stroke-width="2" points="986.92,-993.12 993.33,-987.59 984.86,-987.91 986.92,-993.12"/>
</a>
</g>
</g>
<!-- i26 -->
<g id="node10" class="node">
<title>i26</title>
<g id="a_node10"><a xlink:href="https://github.com/flyingrobots/echo/issues/26" xlink:title="Plugin ABI (C) v0">
<path fill="#dcfce7" stroke="black" d="M660.92,-664C660.92,-664 570.77,-664 570.77,-664 564.77,-664 558.77,-658 558.77,-652 558.77,-652 558.77,-640 558.77,-640 558.77,-634 564.77,-628 570.77,-628 570.77,-628 660.92,-628 660.92,-628 666.92,-628 672.92,-634 672.92,-640 672.92,-640 672.92,-652 672.92,-652 672.92,-658 666.92,-664 660.92,-664"/>
<text xml:space="preserve" text-anchor="middle" x="615.85" y="-642.12" font-family="Helvetica,sans-Serif" font-size="10.00">#26\nPlugin ABI (C) v0</text>
</a>
</g>
</g>
<!-- i173 -->
<g id="node60" class="node">
<title>i173</title>
<g id="a_node60"><a xlink:href="https://github.com/flyingrobots/echo/issues/173" xlink:title="S1: Deterministic Rhai surface (sandbox + claims/effects)">
<path fill="#ede9fe" stroke="black" d="M1178.58,-583C1178.58,-583 905.42,-583 905.42,-583 899.42,-583 893.42,-577 893.42,-571 893.42,-571 893.42,-559 893.42,-559 893.42,-553 899.42,-547 905.42,-547 905.42,-547 1178.58,-547 1178.58,-547 1184.58,-547 1190.58,-553 1190.58,-559 1190.58,-559 1190.58,-571 1190.58,-571 1190.58,-577 1184.58,-583 1178.58,-583"/>
<text xml:space="preserve" text-anchor="middle" x="1042" y="-561.12" font-family="Helvetica,sans-Serif" font-size="10.00">#173\nS1: Deterministic Rhai surface (sandbox + claims/effects)</text>
</a>
</g>
</g>
<!-- i26&#45;&gt;i173 -->
<g id="edge8" class="edge">
<title>i26&#45;&gt;i173</title>
<g id="a_edge8"><a xlink:title="plugin ABI likely required">
<path fill="none" stroke="#666666" stroke-width="1.2" stroke-dasharray="5,2" d="M673.17,-635.24C739.68,-622.54 851.73,-601.15 934.72,-585.3"/>
<polygon fill="#666666" stroke="#666666" stroke-width="1.2" points="935.06,-588.08 942.4,-583.83 934.01,-582.58 935.06,-588.08"/>
</a>
</g>
</g>
<!-- i85 -->
<g id="node11" class="node">
<title>i85</title>
<g id="a_node11"><a xlink:href="https://github.com/flyingrobots/echo/issues/85" xlink:title="Draft C ABI spec">
<path fill="#dcfce7" stroke="black" d="M246.78,-637C246.78,-637 157.38,-637 157.38,-637 151.38,-637 145.38,-631 145.38,-625 145.38,-625 145.38,-613 145.38,-613 145.38,-607 151.38,-601 157.38,-601 157.38,-601 246.78,-601 246.78,-601 252.78,-601 258.78,-607 258.78,-613 258.78,-613 258.78,-625 258.78,-625 258.78,-631 252.78,-637 246.78,-637"/>
<text xml:space="preserve" text-anchor="middle" x="202.08" y="-615.12" font-family="Helvetica,sans-Serif" font-size="10.00">#85\nDraft C ABI spec</text>
</a>
</g>
</g>
<!-- i85&#45;&gt;i26 -->
<g id="edge39" class="edge">
<title>i85&#45;&gt;i26</title>
<g id="a_edge39"><a xlink:title="draft spec feeds epic">
<path fill="none" stroke="black" stroke-width="1.4" d="M259.04,-622.67C334.32,-627.61 468.01,-636.37 548.34,-641.64"/>
<polygon fill="black" stroke="black" stroke-width="1.4" points="548.07,-644.43 556.23,-642.16 548.44,-638.84 548.07,-644.43"/>
</a>
</g>
</g>
<!-- i86 -->
<g id="node12" class="node">
<title>i86</title>
<g id="a_node12"><a xlink:href="https://github.com/flyingrobots/echo/issues/86" xlink:title="C header + host loader">
<path fill="#dcfce7" stroke="black" d="M259.15,-691C259.15,-691 145,-691 145,-691 139,-691 133,-685 133,-679 133,-679 133,-667 133,-667 133,-661 139,-655 145,-655 145,-655 259.15,-655 259.15,-655 265.15,-655 271.15,-661 271.15,-667 271.15,-667 271.15,-679 271.15,-679 271.15,-685 265.15,-691 259.15,-691"/>
<text xml:space="preserve" text-anchor="middle" x="202.08" y="-669.12" font-family="Helvetica,sans-Serif" font-size="10.00">#86\nC header + host loader</text>
</a>
</g>
</g>
<!-- i86&#45;&gt;i26 -->
<g id="edge40" class="edge">
<title>i86&#45;&gt;i26</title>
<g id="a_edge40"><a xlink:title="header+loader feeds epic">
<path fill="none" stroke="black" stroke-width="1.4" d="M271.53,-668.51C348.46,-663.47 472.51,-655.33 548.55,-650.35"/>
<polygon fill="black" stroke="black" stroke-width="1.4" points="548.57,-653.15 556.37,-649.83 548.21,-647.56 548.57,-653.15"/>
</a>
</g>
</g>
<!-- i87 -->
<g id="node13" class="node">
<title>i87</title>
<g id="a_node13"><a xlink:href="https://github.com/flyingrobots/echo/issues/87" xlink:title="Version negotiation">
<path fill="#dcfce7" stroke="black" d="M250.9,-745C250.9,-745 153.25,-745 153.25,-745 147.25,-745 141.25,-739 141.25,-733 141.25,-733 141.25,-721 141.25,-721 141.25,-715 147.25,-709 153.25,-709 153.25,-709 250.9,-709 250.9,-709 256.9,-709 262.9,-715 262.9,-721 262.9,-721 262.9,-733 262.9,-733 262.9,-739 256.9,-745 250.9,-745"/>
<text xml:space="preserve" text-anchor="middle" x="202.08" y="-723.12" font-family="Helvetica,sans-Serif" font-size="10.00">#87\nVersion negotiation</text>
</a>
</g>
</g>
<!-- i87&#45;&gt;i26 -->
<g id="edge41" class="edge">
<title>i87&#45;&gt;i26</title>
<g id="a_edge41"><a xlink:title="negotiation feeds epic">
<path fill="none" stroke="black" stroke-width="1.4" d="M263.31,-719.59C299.61,-714.78 346.69,-707.95 388.15,-700 442.57,-689.57 503.64,-674.85 548.68,-663.41"/>
<polygon fill="black" stroke="black" stroke-width="1.4" points="549.21,-666.16 556.27,-661.47 547.82,-660.73 549.21,-666.16"/>
</a>
</g>
</g>
<!-- i88 -->
<g id="node14" class="node">
<title>i88</title>
<g id="a_node14"><a xlink:href="https://github.com/flyingrobots/echo/issues/88" xlink:title="Capability tokens">
<path fill="#dcfce7" stroke="black" d="M247.15,-583C247.15,-583 157,-583 157,-583 151,-583 145,-577 145,-571 145,-571 145,-559 145,-559 145,-553 151,-547 157,-547 157,-547 247.15,-547 247.15,-547 253.15,-547 259.15,-553 259.15,-559 259.15,-559 259.15,-571 259.15,-571 259.15,-577 253.15,-583 247.15,-583"/>
<text xml:space="preserve" text-anchor="middle" x="202.08" y="-561.12" font-family="Helvetica,sans-Serif" font-size="10.00">#88\nCapability tokens</text>
</a>
</g>
</g>
<!-- i88&#45;&gt;i26 -->
<g id="edge42" class="edge">
<title>i88&#45;&gt;i26</title>
<g id="a_edge42"><a xlink:title="capability tokens feed epic">
<path fill="none" stroke="black" stroke-width="1.4" d="M259.58,-571.92C296.35,-576.74 345.26,-583.78 388.15,-592 442.57,-602.43 503.64,-617.15 548.68,-628.59"/>
<polygon fill="black" stroke="black" stroke-width="1.4" points="547.82,-631.27 556.27,-630.53 549.21,-625.84 547.82,-631.27"/>
</a>
</g>
</g>
<!-- i88&#45;&gt;i173 -->
<g id="edge6" class="edge">
<title>i88&#45;&gt;i173</title>
<g id="a_edge6"><a xlink:title="capability tokens for deterministic surface">
<path fill="none" stroke="black" stroke-width="1.4" d="M259.35,-565C385.26,-565 693.44,-565 883.06,-565"/>
<polygon fill="black" stroke="black" stroke-width="1.4" points="883,-567.8 891,-565 883,-562.2 883,-567.8"/>
</a>
</g>
</g>
<!-- i89 -->
<g id="node15" class="node">
<title>i89</title>
<g id="a_node15"><a xlink:href="https://github.com/flyingrobots/echo/issues/89" xlink:title="Example plugin + tests">
<path fill="#dcfce7" stroke="black" d="M259.53,-799C259.53,-799 144.63,-799 144.63,-799 138.63,-799 132.63,-793 132.63,-787 132.63,-787 132.63,-775 132.63,-775 132.63,-769 138.63,-763 144.63,-763 144.63,-763 259.53,-763 259.53,-763 265.53,-763 271.53,-769 271.53,-775 271.53,-775 271.53,-787 271.53,-787 271.53,-793 265.53,-799 259.53,-799"/>
<text xml:space="preserve" text-anchor="middle" x="202.08" y="-777.12" font-family="Helvetica,sans-Serif" font-size="10.00">#89\nExample plugin + tests</text>
</a>
</g>
</g>
<!-- i89&#45;&gt;i26 -->
<g id="edge43" class="edge">
<title>i89&#45;&gt;i26</title>
<g id="a_edge43"><a xlink:title="example plugin feeds epic">
<path fill="none" stroke="black" stroke-width="1.4" d="M271.83,-775.92C307.15,-772.07 350.55,-765.41 388.15,-754 457.03,-733.09 531.37,-694.22 575.47,-669.26"/>
<polygon fill="black" stroke="black" stroke-width="1.4" points="576.74,-671.76 582.3,-665.36 573.97,-666.9 576.74,-671.76"/>
</a>
</g>
</g>
<!-- i21 -->
<g id="node16" class="node">
<title>i21</title>
<g id="a_node16"><a xlink:href="https://github.com/flyingrobots/echo/issues/21" xlink:title="Spec: Security Contexts (FFI/WASM/CLI)">
<path fill="#ffedd5" stroke="black" d="M714.92,-442C714.92,-442 516.77,-442 516.77,-442 510.77,-442 504.77,-436 504.77,-430 504.77,-430 504.77,-418 504.77,-418 504.77,-412 510.77,-406 516.77,-406 516.77,-406 714.92,-406 714.92,-406 720.92,-406 726.92,-412 726.92,-418 726.92,-418 726.92,-430 726.92,-430 726.92,-436 720.92,-442 714.92,-442"/>
<text xml:space="preserve" text-anchor="middle" x="615.85" y="-420.12" font-family="Helvetica,sans-Serif" font-size="10.00">#21\nSpec: Security Contexts (FFI/WASM/CLI)</text>
</a>
</g>
</g>
<!-- i21&#45;&gt;i173 -->
<g id="edge7" class="edge">
<title>i21&#45;&gt;i173</title>
<g id="a_edge7"><a xlink:title="security contexts likely required">
<path fill="none" stroke="#666666" stroke-width="1.2" stroke-dasharray="5,2" d="M672.3,-442.43C750.65,-468.48 893.44,-515.95 976.46,-543.54"/>
<polygon fill="#666666" stroke="#666666" stroke-width="1.2" points="975.34,-546.12 983.81,-545.99 977.1,-540.81 975.34,-546.12"/>
</a>
</g>
</g>
<!-- i37 -->
<g id="node17" class="node">
<title>i37</title>
<g id="a_node17"><a xlink:href="https://github.com/flyingrobots/echo/issues/37" xlink:title="Draft security contexts spec">
<path fill="#ffedd5" stroke="black" d="M271.15,-334C271.15,-334 133,-334 133,-334 127,-334 121,-328 121,-322 121,-322 121,-310 121,-310 121,-304 127,-298 133,-298 133,-298 271.15,-298 271.15,-298 277.15,-298 283.15,-304 283.15,-310 283.15,-310 283.15,-322 283.15,-322 283.15,-328 277.15,-334 271.15,-334"/>
<text xml:space="preserve" text-anchor="middle" x="202.08" y="-312.12" font-family="Helvetica,sans-Serif" font-size="10.00">#37\nDraft security contexts spec</text>
</a>
</g>
</g>
<!-- i37&#45;&gt;i21 -->
<g id="edge11" class="edge">
<title>i37&#45;&gt;i21</title>
<g id="a_edge11"><a xlink:title="draft spec feeds epic">
<path fill="none" stroke="#00cd00" stroke-width="2" d="M283.46,-324.2C316.22,-328.45 354.28,-334.57 388.15,-343 448.73,-358.08 515.79,-383.14 561.15,-401.4"/>
<polygon fill="#00cd00" stroke="#00cd00" stroke-width="2" points="560.07,-403.98 568.53,-404.39 562.17,-398.79 560.07,-403.98"/>
</a>
</g>
</g>
<!-- i38 -->
<g id="node18" class="node">
<title>i38</title>
<g id="a_node18"><a xlink:href="https://github.com/flyingrobots/echo/issues/38" xlink:title="FFI limits and validation">
<path fill="#ffedd5" stroke="black" d="M261.4,-388C261.4,-388 142.75,-388 142.75,-388 136.75,-388 130.75,-382 130.75,-376 130.75,-376 130.75,-364 130.75,-364 130.75,-358 136.75,-352 142.75,-352 142.75,-352 261.4,-352 261.4,-352 267.4,-352 273.4,-358 273.4,-364 273.4,-364 273.4,-376 273.4,-376 273.4,-382 267.4,-388 261.4,-388"/>
<text xml:space="preserve" text-anchor="middle" x="202.08" y="-366.12" font-family="Helvetica,sans-Serif" font-size="10.00">#38\nFFI limits and validation</text>
</a>
</g>
</g>
<!-- i38&#45;&gt;i21 -->
<g id="edge12" class="edge">
<title>i38&#45;&gt;i21</title>
<g id="a_edge12"><a xlink:title="ffi limits feed epic">
<path fill="none" stroke="#00cd00" stroke-width="2" d="M273.86,-379.28C334.12,-387.19 422.02,-398.71 493.48,-408.08"/>
<polygon fill="#00cd00" stroke="#00cd00" stroke-width="2" points="493.05,-410.85 501.35,-409.12 493.78,-405.3 493.05,-410.85"/>
</a>
</g>
</g>
<!-- i39 -->
<g id="node19" class="node">
<title>i39</title>
<g id="a_node19"><a xlink:href="https://github.com/flyingrobots/echo/issues/39" xlink:title="WASM input validation">
<path fill="#ffedd5" stroke="black" d="M258.78,-442C258.78,-442 145.38,-442 145.38,-442 139.38,-442 133.38,-436 133.38,-430 133.38,-430 133.38,-418 133.38,-418 133.38,-412 139.38,-406 145.38,-406 145.38,-406 258.78,-406 258.78,-406 264.78,-406 270.78,-412 270.78,-418 270.78,-418 270.78,-430 270.78,-430 270.78,-436 264.78,-442 258.78,-442"/>
<text xml:space="preserve" text-anchor="middle" x="202.08" y="-420.12" font-family="Helvetica,sans-Serif" font-size="10.00">#39\nWASM input validation</text>
</a>
</g>
</g>
<!-- i39&#45;&gt;i21 -->
<g id="edge13" class="edge">
<title>i39&#45;&gt;i21</title>
<g id="a_edge13"><a xlink:title="wasm validation feed epic">
<path fill="none" stroke="#00cd00" stroke-width="2" d="M271.07,-424C331.49,-424 421.23,-424 493.87,-424"/>
<polygon fill="#00cd00" stroke="#00cd00" stroke-width="2" points="493.43,-426.8 501.43,-424 493.43,-421.2 493.43,-426.8"/>
</a>
</g>
</g>
<!-- i40 -->
<g id="node20" class="node">
<title>i40</title>
<g id="a_node20"><a xlink:href="https://github.com/flyingrobots/echo/issues/40" xlink:title="Unit tests for denials">
<path fill="#ffedd5" stroke="black" d="M254.65,-496C254.65,-496 149.5,-496 149.5,-496 143.5,-496 137.5,-490 137.5,-484 137.5,-484 137.5,-472 137.5,-472 137.5,-466 143.5,-460 149.5,-460 149.5,-460 254.65,-460 254.65,-460 260.65,-460 266.65,-466 266.65,-472 266.65,-472 266.65,-484 266.65,-484 266.65,-490 260.65,-496 254.65,-496"/>
<text xml:space="preserve" text-anchor="middle" x="202.08" y="-474.12" font-family="Helvetica,sans-Serif" font-size="10.00">#40\nUnit tests for denials</text>
</a>
</g>
</g>
<!-- i40&#45;&gt;i21 -->
<g id="edge14" class="edge">
<title>i40&#45;&gt;i21</title>
<g id="a_edge14"><a xlink:title="denial tests feed epic">
<path fill="none" stroke="#00cd00" stroke-width="2" d="M266.96,-469.62C327.36,-461.7 419.54,-449.61 493.84,-439.87"/>
<polygon fill="#00cd00" stroke="#00cd00" stroke-width="2" points="494.09,-442.66 501.66,-438.84 493.37,-437.11 494.09,-442.66"/>
</a>
</g>
</g>
<!-- i19 -->
<g id="node21" class="node">
<title>i19</title>
<g id="a_node21"><a xlink:href="https://github.com/flyingrobots/echo/issues/19" xlink:title="Spec: Persistent Store (on&#45;disk)">
<path fill="#f3f4f6" stroke="black" d="M692.8,-1181C692.8,-1181 538.9,-1181 538.9,-1181 532.9,-1181 526.9,-1175 526.9,-1169 526.9,-1169 526.9,-1157 526.9,-1157 526.9,-1151 532.9,-1145 538.9,-1145 538.9,-1145 692.8,-1145 692.8,-1145 698.8,-1145 704.8,-1151 704.8,-1157 704.8,-1157 704.8,-1169 704.8,-1169 704.8,-1175 698.8,-1181 692.8,-1181"/>
<text xml:space="preserve" text-anchor="middle" x="615.85" y="-1159.12" font-family="Helvetica,sans-Serif" font-size="10.00">#19\nSpec: Persistent Store (on&#45;disk)</text>
</a>
</g>
</g>
<!-- i20 -->
<g id="node22" class="node">
<title>i20</title>
<g id="a_node22"><a xlink:href="https://github.com/flyingrobots/echo/issues/20" xlink:title="Spec: Commit/Manifest Signing">
<path fill="#f3f4f6" stroke="black" d="M692.42,-1343C692.42,-1343 539.27,-1343 539.27,-1343 533.27,-1343 527.27,-1337 527.27,-1331 527.27,-1331 527.27,-1319 527.27,-1319 527.27,-1313 533.27,-1307 539.27,-1307 539.27,-1307 692.42,-1307 692.42,-1307 698.42,-1307 704.42,-1313 704.42,-1319 704.42,-1319 704.42,-1331 704.42,-1331 704.42,-1337 698.42,-1343 692.42,-1343"/>
<text xml:space="preserve" text-anchor="middle" x="615.85" y="-1321.12" font-family="Helvetica,sans-Serif" font-size="10.00">#20\nSpec: Commit/Manifest Signing</text>
</a>
</g>
</g>
<!-- i24 -->
<g id="node23" class="node">
<title>i24</title>
<g id="a_node23"><a xlink:href="https://github.com/flyingrobots/echo/issues/24" xlink:title="Editor Hot&#45;Reload (spec + impl)">
<path fill="#f3f4f6" stroke="black" d="M692.05,-1613C692.05,-1613 539.65,-1613 539.65,-1613 533.65,-1613 527.65,-1607 527.65,-1601 527.65,-1601 527.65,-1589 527.65,-1589 527.65,-1583 533.65,-1577 539.65,-1577 539.65,-1577 692.05,-1577 692.05,-1577 698.05,-1577 704.05,-1583 704.05,-1589 704.05,-1589 704.05,-1601 704.05,-1601 704.05,-1607 698.05,-1613 692.05,-1613"/>
<text xml:space="preserve" text-anchor="middle" x="615.85" y="-1591.12" font-family="Helvetica,sans-Serif" font-size="10.00">#24\nEditor Hot&#45;Reload (spec + impl)</text>
</a>
</g>
</g>
<!-- i25 -->
<g id="node24" class="node">
<title>i25</title>
<g id="a_node24"><a xlink:href="https://github.com/flyingrobots/echo/issues/25" xlink:title="Importer: TurtlGraph → Echo store">
<path fill="#f3f4f6" stroke="black" d="M1124.58,-1854C1124.58,-1854 959.42,-1854 959.42,-1854 953.42,-1854 947.42,-1848 947.42,-1842 947.42,-1842 947.42,-1830 947.42,-1830 947.42,-1824 953.42,-1818 959.42,-1818 959.42,-1818 1124.58,-1818 1124.58,-1818 1130.58,-1818 1136.58,-1824 1136.58,-1830 1136.58,-1830 1136.58,-1842 1136.58,-1842 1136.58,-1848 1130.58,-1854 1124.58,-1854"/>
<text xml:space="preserve" text-anchor="middle" x="1042" y="-1832.88" font-family="Helvetica,sans-Serif" font-size="10.00">#25\nImporter: TurtlGraph → Echo store</text>
</a>
</g>
</g>
<!-- i28 -->
<g id="node25" class="node">
<title>i28</title>
<g id="a_node25"><a xlink:href="https://github.com/flyingrobots/echo/issues/28" xlink:title="Draft spec document (header/ULEB128/property/string&#45;pool)">
<path fill="#f3f4f6" stroke="black" d="M339.78,-1181C339.78,-1181 64.38,-1181 64.38,-1181 58.38,-1181 52.38,-1175 52.38,-1169 52.38,-1169 52.38,-1157 52.38,-1157 52.38,-1151 58.38,-1145 64.38,-1145 64.38,-1145 339.78,-1145 339.78,-1145 345.78,-1145 351.78,-1151 351.78,-1157 351.78,-1157 351.78,-1169 351.78,-1169 351.78,-1175 345.78,-1181 339.78,-1181"/>
<text xml:space="preserve" text-anchor="middle" x="202.08" y="-1159.12" font-family="Helvetica,sans-Serif" font-size="10.00">#28\nDraft spec document (header/ULEB128/property/string&#45;pool)</text>
</a>
</g>
</g>
<!-- i28&#45;&gt;i19 -->
<g id="edge44" class="edge">
<title>i28&#45;&gt;i19</title>
<g id="a_edge44"><a xlink:title="Inferred from Issue Body (missing from Plan)">
<path fill="none" stroke="red" stroke-width="2" stroke-dasharray="5,2" d="M352.03,-1163C406.4,-1163 466.53,-1163 515.53,-1163"/>
<polygon fill="red" stroke="red" stroke-width="2" points="515.42,-1165.8 523.42,-1163 515.42,-1160.2 515.42,-1165.8"/>
</a>
</g>
</g>
<!-- i32 -->
<g id="node26" class="node">
<title>i32</title>
<g id="a_node26"><a xlink:href="https://github.com/flyingrobots/echo/issues/32" xlink:title="Draft signing spec">
<path fill="#f3f4f6" stroke="black" d="M249.03,-1235C249.03,-1235 155.13,-1235 155.13,-1235 149.13,-1235 143.13,-1229 143.13,-1223 143.13,-1223 143.13,-1211 143.13,-1211 143.13,-1205 149.13,-1199 155.13,-1199 155.13,-1199 249.03,-1199 249.03,-1199 255.03,-1199 261.03,-1205 261.03,-1211 261.03,-1211 261.03,-1223 261.03,-1223 261.03,-1229 255.03,-1235 249.03,-1235"/>
<text xml:space="preserve" text-anchor="middle" x="202.08" y="-1213.12" font-family="Helvetica,sans-Serif" font-size="10.00">#32\nDraft signing spec</text>
</a>
</g>
</g>
<!-- i32&#45;&gt;i20 -->
<g id="edge15" class="edge">
<title>i32&#45;&gt;i20</title>
<g id="a_edge15"><a xlink:title="draft spec feeds epic">
<path fill="none" stroke="#00cd00" stroke-width="2" d="M261.17,-1222.48C297.93,-1226.69 346.24,-1233.57 388.15,-1244 448.73,-1259.08 515.79,-1284.14 561.15,-1302.4"/>
<polygon fill="#00cd00" stroke="#00cd00" stroke-width="2" points="560.07,-1304.98 568.53,-1305.39 562.17,-1299.79 560.07,-1304.98"/>
</a>
</g>
</g>
<!-- i33 -->
<g id="node27" class="node">
<title>i33</title>
<g id="a_node27"><a xlink:href="https://github.com/flyingrobots/echo/issues/33" xlink:title="CI: sign release artifacts (dry run)">
<path fill="#f3f4f6" stroke="black" d="M282.4,-1289C282.4,-1289 121.75,-1289 121.75,-1289 115.75,-1289 109.75,-1283 109.75,-1277 109.75,-1277 109.75,-1265 109.75,-1265 109.75,-1259 115.75,-1253 121.75,-1253 121.75,-1253 282.4,-1253 282.4,-1253 288.4,-1253 294.4,-1259 294.4,-1265 294.4,-1265 294.4,-1277 294.4,-1277 294.4,-1283 288.4,-1289 282.4,-1289"/>
<text xml:space="preserve" text-anchor="middle" x="202.08" y="-1267.12" font-family="Helvetica,sans-Serif" font-size="10.00">#33\nCI: sign release artifacts (dry run)</text>
</a>
</g>
</g>
<!-- i33&#45;&gt;i20 -->
<g id="edge16" class="edge">
<title>i33&#45;&gt;i20</title>
<g id="a_edge16"><a xlink:title="ci sign dry run feeds epic">
<path fill="none" stroke="#00cd00" stroke-width="2" d="M294.72,-1283.02C360.51,-1291.65 449.09,-1303.26 516.39,-1312.09"/>
<polygon fill="#00cd00" stroke="#00cd00" stroke-width="2" points="515.71,-1314.82 524,-1313.09 516.44,-1309.27 515.71,-1314.82"/>
</a>
</g>
</g>
<!-- i34 -->
<g id="node28" class="node">
<title>i34</title>
<g id="a_node28"><a xlink:href="https://github.com/flyingrobots/echo/issues/34" xlink:title="CLI verify path">
<path fill="#f3f4f6" stroke="black" d="M241.53,-1343C241.53,-1343 162.63,-1343 162.63,-1343 156.63,-1343 150.63,-1337 150.63,-1331 150.63,-1331 150.63,-1319 150.63,-1319 150.63,-1313 156.63,-1307 162.63,-1307 162.63,-1307 241.53,-1307 241.53,-1307 247.53,-1307 253.53,-1313 253.53,-1319 253.53,-1319 253.53,-1331 253.53,-1331 253.53,-1337 247.53,-1343 241.53,-1343"/>
<text xml:space="preserve" text-anchor="middle" x="202.08" y="-1321.12" font-family="Helvetica,sans-Serif" font-size="10.00">#34\nCLI verify path</text>
</a>
</g>
</g>
<!-- i34&#45;&gt;i20 -->
<g id="edge17" class="edge">
<title>i34&#45;&gt;i20</title>
<g id="a_edge17"><a xlink:title="cli verify path feeds epic">
<path fill="none" stroke="#00cd00" stroke-width="2" d="M253.98,-1325C319.16,-1325 433.52,-1325 516.06,-1325"/>
<polygon fill="#00cd00" stroke="#00cd00" stroke-width="2" points="515.95,-1327.8 523.95,-1325 515.95,-1322.2 515.95,-1327.8"/>
</a>
</g>
</g>
<!-- i35 -->
<g id="node29" class="node">
<title>i35</title>
<g id="a_node29"><a xlink:href="https://github.com/flyingrobots/echo/issues/35" xlink:title="Key management doc">
<path fill="#f3f4f6" stroke="black" d="M256.9,-1397C256.9,-1397 147.25,-1397 147.25,-1397 141.25,-1397 135.25,-1391 135.25,-1385 135.25,-1385 135.25,-1373 135.25,-1373 135.25,-1367 141.25,-1361 147.25,-1361 147.25,-1361 256.9,-1361 256.9,-1361 262.9,-1361 268.9,-1367 268.9,-1373 268.9,-1373 268.9,-1385 268.9,-1385 268.9,-1391 262.9,-1397 256.9,-1397"/>
<text xml:space="preserve" text-anchor="middle" x="202.08" y="-1375.12" font-family="Helvetica,sans-Serif" font-size="10.00">#35\nKey management doc</text>
</a>
</g>
</g>
<!-- i35&#45;&gt;i20 -->
<g id="edge18" class="edge">
<title>i35&#45;&gt;i20</title>
<g id="a_edge18"><a xlink:title="key mgmt doc feeds epic">
<path fill="none" stroke="#00cd00" stroke-width="2" d="M269.23,-1370.32C336,-1361.57 439.89,-1347.94 516.34,-1337.92"/>
<polygon fill="#00cd00" stroke="#00cd00" stroke-width="2" points="516.37,-1340.74 523.94,-1336.92 515.64,-1335.19 516.37,-1340.74"/>
</a>
</g>
</g>
<!-- i36 -->
<g id="node30" class="node">
<title>i36</title>
<g id="a_node30"><a xlink:href="https://github.com/flyingrobots/echo/issues/36" xlink:title="CI: verify signatures">
<path fill="#f3f4f6" stroke="black" d="M253.53,-1451C253.53,-1451 150.63,-1451 150.63,-1451 144.63,-1451 138.63,-1445 138.63,-1439 138.63,-1439 138.63,-1427 138.63,-1427 138.63,-1421 144.63,-1415 150.63,-1415 150.63,-1415 253.53,-1415 253.53,-1415 259.53,-1415 265.53,-1421 265.53,-1427 265.53,-1427 265.53,-1439 265.53,-1439 265.53,-1445 259.53,-1451 253.53,-1451"/>
<text xml:space="preserve" text-anchor="middle" x="202.08" y="-1429.12" font-family="Helvetica,sans-Serif" font-size="10.00">#36\nCI: verify signatures</text>
</a>
</g>
</g>
<!-- i36&#45;&gt;i20 -->
<g id="edge19" class="edge">
<title>i36&#45;&gt;i20</title>
<g id="a_edge19"><a xlink:title="ci verify feeds epic">
<path fill="none" stroke="#00cd00" stroke-width="2" d="M265.79,-1426.98C301.91,-1422.74 347.98,-1416 388.15,-1406 448.73,-1390.92 515.79,-1365.86 561.15,-1347.6"/>
<polygon fill="#00cd00" stroke="#00cd00" stroke-width="2" points="562.17,-1350.21 568.53,-1344.61 560.07,-1345.02 562.17,-1350.21"/>
</a>
</g>
</g>
<!-- i75 -->
<g id="node31" class="node">
<title>i75</title>
<g id="a_node31"><a xlink:href="https://github.com/flyingrobots/echo/issues/75" xlink:title="Draft hot&#45;reload spec">
<path fill="#f3f4f6" stroke="black" d="M255.03,-1505C255.03,-1505 149.13,-1505 149.13,-1505 143.13,-1505 137.13,-1499 137.13,-1493 137.13,-1493 137.13,-1481 137.13,-1481 137.13,-1475 143.13,-1469 149.13,-1469 149.13,-1469 255.03,-1469 255.03,-1469 261.03,-1469 267.03,-1475 267.03,-1481 267.03,-1481 267.03,-1493 267.03,-1493 267.03,-1499 261.03,-1505 255.03,-1505"/>
<text xml:space="preserve" text-anchor="middle" x="202.08" y="-1483.12" font-family="Helvetica,sans-Serif" font-size="10.00">#75\nDraft hot&#45;reload spec</text>
</a>
</g>
</g>
<!-- i75&#45;&gt;i24 -->
<g id="edge25" class="edge">
<title>i75&#45;&gt;i24</title>
<g id="a_edge25"><a xlink:title="spec feeds epic">
<path fill="none" stroke="black" stroke-width="1.4" d="M267.5,-1493.22C303.35,-1497.47 348.61,-1504.15 388.15,-1514 449.11,-1529.18 516.64,-1554.46 562,-1572.74"/>
<polygon fill="black" stroke="black" stroke-width="1.4" points="560.91,-1575.32 569.38,-1575.73 563.02,-1570.13 560.91,-1575.32"/>
</a>
</g>
</g>
<!-- i76 -->
<g id="node32" class="node">
<title>i76</title>
<g id="a_node32"><a xlink:href="https://github.com/flyingrobots/echo/issues/76" xlink:title="File watcher/debounce">
<path fill="#f3f4f6" stroke="black" d="M258.4,-1559C258.4,-1559 145.75,-1559 145.75,-1559 139.75,-1559 133.75,-1553 133.75,-1547 133.75,-1547 133.75,-1535 133.75,-1535 133.75,-1529 139.75,-1523 145.75,-1523 145.75,-1523 258.4,-1523 258.4,-1523 264.4,-1523 270.4,-1529 270.4,-1535 270.4,-1535 270.4,-1547 270.4,-1547 270.4,-1553 264.4,-1559 258.4,-1559"/>
<text xml:space="preserve" text-anchor="middle" x="202.08" y="-1537.12" font-family="Helvetica,sans-Serif" font-size="10.00">#76\nFile watcher/debounce</text>
</a>
</g>
</g>
<!-- i76&#45;&gt;i24 -->
<g id="edge26" class="edge">
<title>i76&#45;&gt;i24</title>
<g id="a_edge26"><a xlink:title="watcher feeds epic">
<path fill="none" stroke="black" stroke-width="1.4" d="M270.61,-1549.86C337.78,-1558.67 441.53,-1572.27 517.57,-1582.24"/>
<polygon fill="black" stroke="black" stroke-width="1.4" points="516.77,-1584.96 525.07,-1583.23 517.5,-1579.41 516.77,-1584.96"/>
</a>
</g>
</g>
<!-- i77 -->
<g id="node33" class="node">
<title>i77</title>
<g id="a_node33"><a xlink:href="https://github.com/flyingrobots/echo/issues/77" xlink:title="Atomic snapshot swap">
<path fill="#f3f4f6" stroke="black" d="M259.15,-1613C259.15,-1613 145,-1613 145,-1613 139,-1613 133,-1607 133,-1601 133,-1601 133,-1589 133,-1589 133,-1583 139,-1577 145,-1577 145,-1577 259.15,-1577 259.15,-1577 265.15,-1577 271.15,-1583 271.15,-1589 271.15,-1589 271.15,-1601 271.15,-1601 271.15,-1607 265.15,-1613 259.15,-1613"/>
<text xml:space="preserve" text-anchor="middle" x="202.08" y="-1591.12" font-family="Helvetica,sans-Serif" font-size="10.00">#77\nAtomic snapshot swap</text>
</a>
</g>
</g>
<!-- i77&#45;&gt;i24 -->
<g id="edge27" class="edge">
<title>i77&#45;&gt;i24</title>
<g id="a_edge27"><a xlink:title="snapshot swap feeds epic">
<path fill="none" stroke="black" stroke-width="1.4" d="M271.53,-1595C338.62,-1595 441.52,-1595 517.18,-1595"/>
<polygon fill="black" stroke="black" stroke-width="1.4" points="517.08,-1597.8 525.08,-1595 517.08,-1592.2 517.08,-1597.8"/>
</a>
</g>
</g>
<!-- i78 -->
<g id="node34" class="node">
<title>i78</title>
<g id="a_node34"><a xlink:href="https://github.com/flyingrobots/echo/issues/78" xlink:title="Editor gate + tests">
<path fill="#f3f4f6" stroke="black" d="M249.78,-1667C249.78,-1667 154.38,-1667 154.38,-1667 148.38,-1667 142.38,-1661 142.38,-1655 142.38,-1655 142.38,-1643 142.38,-1643 142.38,-1637 148.38,-1631 154.38,-1631 154.38,-1631 249.78,-1631 249.78,-1631 255.78,-1631 261.78,-1637 261.78,-1643 261.78,-1643 261.78,-1655 261.78,-1655 261.78,-1661 255.78,-1667 249.78,-1667"/>
<text xml:space="preserve" text-anchor="middle" x="202.08" y="-1645.12" font-family="Helvetica,sans-Serif" font-size="10.00">#78\nEditor gate + tests</text>
</a>
</g>
</g>
<!-- i78&#45;&gt;i24 -->
<g id="edge28" class="edge">
<title>i78&#45;&gt;i24</title>
<g id="a_edge28"><a xlink:title="gate+tests feed epic">
<path fill="none" stroke="black" stroke-width="1.4" d="M262.07,-1641.26C328.61,-1632.54 437.85,-1618.21 517.17,-1607.81"/>
<polygon fill="black" stroke="black" stroke-width="1.4" points="517.51,-1610.59 525.08,-1606.77 516.78,-1605.04 517.51,-1610.59"/>
</a>
</g>
</g>
<!-- i79 -->
<g id="node35" class="node">
<title>i79</title>
<g id="a_node35"><a xlink:href="https://github.com/flyingrobots/echo/issues/79" xlink:title="Docs/logging">
<path fill="#f3f4f6" stroke="black" d="M237.78,-1721C237.78,-1721 166.38,-1721 166.38,-1721 160.38,-1721 154.38,-1715 154.38,-1709 154.38,-1709 154.38,-1697 154.38,-1697 154.38,-1691 160.38,-1685 166.38,-1685 166.38,-1685 237.78,-1685 237.78,-1685 243.78,-1685 249.78,-1691 249.78,-1697 249.78,-1697 249.78,-1709 249.78,-1709 249.78,-1715 243.78,-1721 237.78,-1721"/>
<text xml:space="preserve" text-anchor="middle" x="202.08" y="-1699.12" font-family="Helvetica,sans-Serif" font-size="10.00">#79\nDocs/logging</text>
</a>
</g>
</g>
<!-- i79&#45;&gt;i24 -->
<g id="edge29" class="edge">
<title>i79&#45;&gt;i24</title>
<g id="a_edge29"><a xlink:title="docs/logging feed epic">
<path fill="none" stroke="black" stroke-width="1.4" d="M249.97,-1698.76C287.68,-1694.72 341.83,-1687.53 388.15,-1676 449.11,-1660.82 516.64,-1635.54 562,-1617.26"/>
<polygon fill="black" stroke="black" stroke-width="1.4" points="563.02,-1619.87 569.38,-1614.27 560.91,-1614.68 563.02,-1619.87"/>
</a>
</g>
</g>
<!-- i80 -->
<g id="node36" class="node">
<title>i80</title>
<g id="a_node36"><a xlink:href="https://github.com/flyingrobots/echo/issues/80" xlink:title="Draft importer spec">
<path fill="#f3f4f6" stroke="black" d="M665.05,-1854C665.05,-1854 566.65,-1854 566.65,-1854 560.65,-1854 554.65,-1848 554.65,-1842 554.65,-1842 554.65,-1830 554.65,-1830 554.65,-1824 560.65,-1818 566.65,-1818 566.65,-1818 665.05,-1818 665.05,-1818 671.05,-1818 677.05,-1824 677.05,-1830 677.05,-1830 677.05,-1842 677.05,-1842 677.05,-1848 671.05,-1854 665.05,-1854"/>
<text xml:space="preserve" text-anchor="middle" x="615.85" y="-1832.12" font-family="Helvetica,sans-Serif" font-size="10.00">#80\nDraft importer spec</text>
</a>
</g>
</g>
<!-- i80&#45;&gt;i25 -->
<g id="edge30" class="edge">
<title>i80&#45;&gt;i25</title>
<g id="a_edge30"><a xlink:title="spec feeds epic">
<path fill="none" stroke="black" stroke-width="1.4" d="M677.17,-1836C744.86,-1836 855.87,-1836 937.5,-1836"/>
<polygon fill="black" stroke="black" stroke-width="1.4" points="937.18,-1838.8 945.18,-1836 937.18,-1833.2 937.18,-1838.8"/>
</a>
</g>
</g>
<!-- i81 -->
<g id="node37" class="node">
<title>i81</title>
<g id="a_node37"><a xlink:href="https://github.com/flyingrobots/echo/issues/81" xlink:title="Minimal reader">
<path fill="#f3f4f6" stroke="black" d="M241.15,-1937C241.15,-1937 163,-1937 163,-1937 157,-1937 151,-1931 151,-1925 151,-1925 151,-1913 151,-1913 151,-1907 157,-1901 163,-1901 163,-1901 241.15,-1901 241.15,-1901 247.15,-1901 253.15,-1907 253.15,-1913 253.15,-1913 253.15,-1925 253.15,-1925 253.15,-1931 247.15,-1937 241.15,-1937"/>
<text xml:space="preserve" text-anchor="middle" x="202.08" y="-1915.12" font-family="Helvetica,sans-Serif" font-size="10.00">#81\nMinimal reader</text>
</a>
</g>
</g>
<!-- i81&#45;&gt;i25 -->
<g id="edge35" class="edge">
<title>i81&#45;&gt;i25</title>
<g id="a_edge35"><a xlink:title="reader likely part of epic">
<path fill="none" stroke="#666666" stroke-width="1.2" stroke-dasharray="5,2" d="M253.35,-1916.38C357.15,-1910.68 602.61,-1895.73 807.55,-1872 850.17,-1867.06 896.94,-1860.15 937.35,-1853.7"/>
<polygon fill="#666666" stroke="#666666" stroke-width="1.2" points="937.69,-1856.48 945.15,-1852.45 936.8,-1850.95 937.69,-1856.48"/>
</a>
</g>
</g>
<!-- i81&#45;&gt;i80 -->
<g id="edge31" class="edge">
<title>i81&#45;&gt;i80</title>
<g id="a_edge31"><a xlink:title="reader depends on spec">
<path fill="none" stroke="black" stroke-width="1.4" d="M253.57,-1912.98C290.91,-1908.2 342.9,-1900.87 388.15,-1892 441.15,-1881.61 500.38,-1866.87 545.01,-1855.12"/>
<polygon fill="black" stroke="black" stroke-width="1.4" points="545.52,-1857.88 552.54,-1853.13 544.09,-1852.47 545.52,-1857.88"/>
</a>
</g>
</g>
<!-- i82 -->
<g id="node38" class="node">
<title>i82</title>
<g id="a_node38"><a xlink:href="https://github.com/flyingrobots/echo/issues/82" xlink:title="Echo store loader">
<path fill="#f3f4f6" stroke="black" d="M247.53,-1883C247.53,-1883 156.63,-1883 156.63,-1883 150.63,-1883 144.63,-1877 144.63,-1871 144.63,-1871 144.63,-1859 144.63,-1859 144.63,-1853 150.63,-1847 156.63,-1847 156.63,-1847 247.53,-1847 247.53,-1847 253.53,-1847 259.53,-1853 259.53,-1859 259.53,-1859 259.53,-1871 259.53,-1871 259.53,-1877 253.53,-1883 247.53,-1883"/>
<text xml:space="preserve" text-anchor="middle" x="202.08" y="-1861.12" font-family="Helvetica,sans-Serif" font-size="10.00">#82\nEcho store loader</text>
</a>
</g>
</g>
<!-- i82&#45;&gt;i25 -->
<g id="edge36" class="edge">
<title>i82&#45;&gt;i25</title>
<g id="a_edge36"><a xlink:title="loader likely part of epic">
<path fill="none" stroke="#666666" stroke-width="1.2" stroke-dasharray="5,2" d="M259.81,-1866.92C366.96,-1870.09 606.41,-1874.93 807.55,-1863 850.16,-1860.47 896.93,-1855.5 937.34,-1850.51"/>
<polygon fill="#666666" stroke="#666666" stroke-width="1.2" points="937.54,-1853.31 945.13,-1849.53 936.84,-1847.75 937.54,-1853.31"/>
</a>
</g>
</g>
<!-- i82&#45;&gt;i80 -->
<g id="edge32" class="edge">
<title>i82&#45;&gt;i80</title>
<g id="a_edge32"><a xlink:title="loader depends on spec">
<path fill="none" stroke="black" stroke-width="1.4" d="M259.9,-1861C334.06,-1855.78 463.82,-1846.64 544.23,-1840.97"/>
<polygon fill="black" stroke="black" stroke-width="1.4" points="544.37,-1843.77 552.15,-1840.42 543.97,-1838.18 544.37,-1843.77"/>
</a>
</g>
</g>
<!-- i83 -->
<g id="node39" class="node">
<title>i83</title>
<g id="a_node39"><a xlink:href="https://github.com/flyingrobots/echo/issues/83" xlink:title="Integrity verification">
<path fill="#f3f4f6" stroke="black" d="M252.03,-1829C252.03,-1829 152.13,-1829 152.13,-1829 146.13,-1829 140.13,-1823 140.13,-1817 140.13,-1817 140.13,-1805 140.13,-1805 140.13,-1799 146.13,-1793 152.13,-1793 152.13,-1793 252.03,-1793 252.03,-1793 258.03,-1793 264.03,-1799 264.03,-1805 264.03,-1805 264.03,-1817 264.03,-1817 264.03,-1823 258.03,-1829 252.03,-1829"/>
<text xml:space="preserve" text-anchor="middle" x="202.08" y="-1807.12" font-family="Helvetica,sans-Serif" font-size="10.00">#83\nIntegrity verification</text>
</a>
</g>
</g>
<!-- i83&#45;&gt;i25 -->
<g id="edge37" class="edge">
<title>i83&#45;&gt;i25</title>
<g id="a_edge37"><a xlink:title="integrity likely part of epic">
<path fill="none" stroke="#666666" stroke-width="1.2" stroke-dasharray="5,2" d="M264.07,-1810.3C308.46,-1809.83 370.03,-1809.24 424.15,-1809 594.55,-1808.23 637.43,-1799.2 807.55,-1809 850.16,-1811.46 896.93,-1816.41 937.34,-1821.42"/>
<polygon fill="#666666" stroke="#666666" stroke-width="1.2" points="936.85,-1824.18 945.13,-1822.39 937.54,-1818.62 936.85,-1824.18"/>
</a>
</g>
</g>
<!-- i83&#45;&gt;i80 -->
<g id="edge33" class="edge">
<title>i83&#45;&gt;i80</title>
<g id="a_edge33"><a xlink:title="integrity depends on spec">
<path fill="none" stroke="black" stroke-width="1.4" d="M264.28,-1814.72C339.15,-1819.26 465.65,-1826.94 544.47,-1831.73"/>
<polygon fill="black" stroke="black" stroke-width="1.4" points="544.05,-1834.51 552.2,-1832.2 544.39,-1828.92 544.05,-1834.51"/>
</a>
</g>
</g>
<!-- i84 -->
<g id="node40" class="node">
<title>i84</title>
<g id="a_node40"><a xlink:href="https://github.com/flyingrobots/echo/issues/84" xlink:title="Sample + tests">
<path fill="#f3f4f6" stroke="black" d="M242.65,-1775C242.65,-1775 161.5,-1775 161.5,-1775 155.5,-1775 149.5,-1769 149.5,-1763 149.5,-1763 149.5,-1751 149.5,-1751 149.5,-1745 155.5,-1739 161.5,-1739 161.5,-1739 242.65,-1739 242.65,-1739 248.65,-1739 254.65,-1745 254.65,-1751 254.65,-1751 254.65,-1763 254.65,-1763 254.65,-1769 248.65,-1775 242.65,-1775"/>
<text xml:space="preserve" text-anchor="middle" x="202.08" y="-1753.12" font-family="Helvetica,sans-Serif" font-size="10.00">#84\nSample + tests</text>
</a>
</g>
</g>
<!-- i84&#45;&gt;i25 -->
<g id="edge38" class="edge">
<title>i84&#45;&gt;i25</title>
<g id="a_edge38"><a xlink:title="sample+tests likely part of epic">
<path fill="none" stroke="#666666" stroke-width="1.2" stroke-dasharray="5,2" d="M254.96,-1759.25C359.67,-1764.12 603.68,-1777.07 807.55,-1800 850.18,-1804.8 896.95,-1811.68 937.37,-1818.15"/>
<polygon fill="#666666" stroke="#666666" stroke-width="1.2" points="936.82,-1820.9 945.16,-1819.41 937.71,-1815.37 936.82,-1820.9"/>
</a>
</g>
</g>
<!-- i84&#45;&gt;i80 -->
<g id="edge34" class="edge">
<title>i84&#45;&gt;i80</title>
<g id="a_edge34"><a xlink:title="sample+tests depends on spec">
<path fill="none" stroke="black" stroke-width="1.4" d="M255.11,-1763.45C292.31,-1768.34 343.47,-1775.63 388.15,-1784 441.03,-1793.9 500.26,-1807.58 544.92,-1818.43"/>
<polygon fill="black" stroke="black" stroke-width="1.4" points="544.01,-1821.09 552.45,-1820.26 545.34,-1815.65 544.01,-1821.09"/>
</a>
</g>
</g>
<!-- i222 -->
<g id="node41" class="node">
<title>i222</title>
<g id="a_node41"><a xlink:href="https://github.com/flyingrobots/echo/issues/222" xlink:title="Demo 2: Splash Guy — deterministic rules + state model">
<path fill="#ffffff" stroke="black" d="M336.78,-2024C336.78,-2024 67.38,-2024 67.38,-2024 61.38,-2024 55.38,-2018 55.38,-2012 55.38,-2012 55.38,-2000 55.38,-2000 55.38,-1994 61.38,-1988 67.38,-1988 67.38,-1988 336.78,-1988 336.78,-1988 342.78,-1988 348.78,-1994 348.78,-2000 348.78,-2000 348.78,-2012 348.78,-2012 348.78,-2018 342.78,-2024 336.78,-2024"/>
<text xml:space="preserve" text-anchor="middle" x="202.08" y="-2002.12" font-family="Helvetica,sans-Serif" font-size="10.00">#222\nDemo 2: Splash Guy — deterministic rules + state model</text>
</a>
</g>
</g>
<!-- i226 -->
<g id="node45" class="node">
<title>i226</title>
<g id="a_node45"><a xlink:href="https://github.com/flyingrobots/echo/issues/226" xlink:title="Demo 2: Splash Guy — docs: networking&#45;first course modules">
<path fill="#ffffff" stroke="black" d="M762.17,-2105C762.17,-2105 469.52,-2105 469.52,-2105 463.52,-2105 457.52,-2099 457.52,-2093 457.52,-2093 457.52,-2081 457.52,-2081 457.52,-2075 463.52,-2069 469.52,-2069 469.52,-2069 762.17,-2069 762.17,-2069 768.17,-2069 774.17,-2075 774.17,-2081 774.17,-2081 774.17,-2093 774.17,-2093 774.17,-2099 768.17,-2105 762.17,-2105"/>
<text xml:space="preserve" text-anchor="middle" x="615.85" y="-2083.12" font-family="Helvetica,sans-Serif" font-size="10.00">#226\nDemo 2: Splash Guy — docs: networking&#45;first course modules</text>
</a>
</g>
</g>
<!-- i222&#45;&gt;i226 -->
<g id="edge53" class="edge">
<title>i222&#45;&gt;i226</title>
<g id="a_edge53"><a xlink:title="Inferred from Issue Body (missing from Plan)">
<path fill="none" stroke="red" stroke-width="2" stroke-dasharray="5,2" d="M339.5,-2024.5C355.93,-2027.14 372.44,-2029.99 388.15,-2033 436.88,-2042.34 490.95,-2055.12 534.06,-2065.91"/>
<polygon fill="red" stroke="red" stroke-width="2" points="533.11,-2068.56 541.55,-2067.79 534.48,-2063.13 533.11,-2068.56"/>
</a>
</g>
</g>
<!-- i223 -->
<g id="node42" class="node">
<title>i223</title>
<g id="a_node42"><a xlink:href="https://github.com/flyingrobots/echo/issues/223" xlink:title="Demo 2: Splash Guy — lockstep input protocol + two&#45;peer harness">
<path fill="#ffffff" stroke="black" d="M358.15,-2078C358.15,-2078 46,-2078 46,-2078 40,-2078 34,-2072 34,-2066 34,-2066 34,-2054 34,-2054 34,-2048 40,-2042 46,-2042 46,-2042 358.15,-2042 358.15,-2042 364.15,-2042 370.15,-2048 370.15,-2054 370.15,-2054 370.15,-2066 370.15,-2066 370.15,-2072 364.15,-2078 358.15,-2078"/>
<text xml:space="preserve" text-anchor="middle" x="202.08" y="-2056.12" font-family="Helvetica,sans-Serif" font-size="10.00">#223\nDemo 2: Splash Guy — lockstep input protocol + two&#45;peer harness</text>
</a>
</g>
</g>
<!-- i223&#45;&gt;i226 -->
<g id="edge54" class="edge">
<title>i223&#45;&gt;i226</title>
<g id="a_edge54"><a xlink:title="Inferred from Issue Body (missing from Plan)">
<path fill="none" stroke="red" stroke-width="2" stroke-dasharray="5,2" d="M370.56,-2070.98C395.6,-2072.62 421.42,-2074.32 446.47,-2075.96"/>
<polygon fill="red" stroke="red" stroke-width="2" points="445.97,-2078.73 454.14,-2076.46 446.34,-2073.14 445.97,-2078.73"/>
</a>
</g>
</g>
<!-- i224 -->
<g id="node43" class="node">
<title>i224</title>
<g id="a_node43"><a xlink:href="https://github.com/flyingrobots/echo/issues/224" xlink:title="Demo 2: Splash Guy — controlled desync lessons (make it fail on purpose)">
<path fill="#ffffff" stroke="black" d="M376.15,-2132C376.15,-2132 28,-2132 28,-2132 22,-2132 16,-2126 16,-2120 16,-2120 16,-2108 16,-2108 16,-2102 22,-2096 28,-2096 28,-2096 376.15,-2096 376.15,-2096 382.15,-2096 388.15,-2102 388.15,-2108 388.15,-2108 388.15,-2120 388.15,-2120 388.15,-2126 382.15,-2132 376.15,-2132"/>
<text xml:space="preserve" text-anchor="middle" x="202.08" y="-2110.12" font-family="Helvetica,sans-Serif" font-size="10.00">#224\nDemo 2: Splash Guy — controlled desync lessons (make it fail on purpose)</text>
</a>
</g>
</g>
<!-- i224&#45;&gt;i226 -->
<g id="edge55" class="edge">
<title>i224&#45;&gt;i226</title>
<g id="a_edge55"><a xlink:title="Inferred from Issue Body (missing from Plan)">
<path fill="none" stroke="red" stroke-width="2" stroke-dasharray="5,2" d="M388.48,-2101.84C407.76,-2100.58 427.27,-2099.3 446.34,-2098.05"/>
<polygon fill="red" stroke="red" stroke-width="2" points="446.38,-2100.85 454.18,-2097.54 446.01,-2095.26 446.38,-2100.85"/>
</a>
</g>
</g>
<!-- i225 -->
<g id="node44" class="node">
<title>i225</title>
<g id="a_node44"><a xlink:href="https://github.com/flyingrobots/echo/issues/225" xlink:title="Demo 2: Splash Guy — minimal rendering / visualization path">
<path fill="#ffffff" stroke="black" d="M346.15,-2186C346.15,-2186 58,-2186 58,-2186 52,-2186 46,-2180 46,-2174 46,-2174 46,-2162 46,-2162 46,-2156 52,-2150 58,-2150 58,-2150 346.15,-2150 346.15,-2150 352.15,-2150 358.15,-2156 358.15,-2162 358.15,-2162 358.15,-2174 358.15,-2174 358.15,-2180 352.15,-2186 346.15,-2186"/>
<text xml:space="preserve" text-anchor="middle" x="202.08" y="-2164.12" font-family="Helvetica,sans-Serif" font-size="10.00">#225\nDemo 2: Splash Guy — minimal rendering / visualization path</text>
</a>
</g>
</g>
<!-- i225&#45;&gt;i226 -->
<g id="edge56" class="edge">
<title>i225&#45;&gt;i226</title>
<g id="a_edge56"><a xlink:title="Inferred from Issue Body (missing from Plan)">
<path fill="none" stroke="red" stroke-width="2" stroke-dasharray="5,2" d="M339.5,-2149.5C355.93,-2146.86 372.44,-2144.01 388.15,-2141 436.88,-2131.66 490.95,-2118.88 534.06,-2108.09"/>
<polygon fill="red" stroke="red" stroke-width="2" points="534.48,-2110.87 541.55,-2106.21 533.11,-2105.44 534.48,-2110.87"/>
</a>
</g>
</g>
<!-- i231 -->
<g id="node46" class="node">
<title>i231</title>
<g id="a_node46"><a xlink:href="https://github.com/flyingrobots/echo/issues/231" xlink:title="Demo 3: Tumble Tower — Stage 0 physics (2D AABB stacking)">
<path fill="#ffffff" stroke="black" d="M351.4,-2331C351.4,-2331 52.75,-2331 52.75,-2331 46.75,-2331 40.75,-2325 40.75,-2319 40.75,-2319 40.75,-2307 40.75,-2307 40.75,-2301 46.75,-2295 52.75,-2295 52.75,-2295 351.4,-2295 351.4,-2295 357.4,-2295 363.4,-2301 363.4,-2307 363.4,-2307 363.4,-2319 363.4,-2319 363.4,-2325 357.4,-2331 351.4,-2331"/>
<text xml:space="preserve" text-anchor="middle" x="202.08" y="-2309.12" font-family="Helvetica,sans-Serif" font-size="10.00">#231\nDemo 3: Tumble Tower — Stage 0 physics (2D AABB stacking)</text>
</a>
</g>
</g>
<!-- i232 -->
<g id="node47" class="node">
<title>i232</title>
<g id="a_node47"><a xlink:href="https://github.com/flyingrobots/echo/issues/232" xlink:title="Demo 3: Tumble Tower — Stage 1 physics (rotation + angular, OBB contacts)">
<path fill="#ffffff" stroke="black" d="M795.55,-2313C795.55,-2313 436.15,-2313 436.15,-2313 430.15,-2313 424.15,-2307 424.15,-2301 424.15,-2301 424.15,-2289 424.15,-2289 424.15,-2283 430.15,-2277 436.15,-2277 436.15,-2277 795.55,-2277 795.55,-2277 801.55,-2277 807.55,-2283 807.55,-2289 807.55,-2289 807.55,-2301 807.55,-2301 807.55,-2307 801.55,-2313 795.55,-2313"/>
<text xml:space="preserve" text-anchor="middle" x="615.85" y="-2291.12" font-family="Helvetica,sans-Serif" font-size="10.00">#232\nDemo 3: Tumble Tower — Stage 1 physics (rotation + angular, OBB contacts)</text>
</a>
</g>
</g>
<!-- i231&#45;&gt;i232 -->
<g id="edge58" class="edge">
<title>i231&#45;&gt;i232</title>
<g id="a_edge58"><a xlink:title="Inferred from Issue Body (missing from Plan)">
<path fill="none" stroke="red" stroke-width="2" stroke-dasharray="5,2" d="M363.75,-2305.98C379.95,-2305.27 396.54,-2304.54 413.1,-2303.82"/>
<polygon fill="red" stroke="red" stroke-width="2" points="413.08,-2306.62 420.95,-2303.48 412.83,-2301.03 413.08,-2306.62"/>
</a>
</g>
</g>
<!-- i238 -->
<g id="node53" class="node">
<title>i238</title>
<g id="a_node53"><a xlink:href="https://github.com/flyingrobots/echo/issues/238" xlink:title="Demo 3: Tumble Tower — docs course (physics ladder)">
<path fill="#ffffff" stroke="black" d="M1983.62,-2350C1983.62,-2350 1720.97,-2350 1720.97,-2350 1714.97,-2350 1708.97,-2344 1708.97,-2338 1708.97,-2338 1708.97,-2326 1708.97,-2326 1708.97,-2320 1714.97,-2314 1720.97,-2314 1720.97,-2314 1983.62,-2314 1983.62,-2314 1989.62,-2314 1995.62,-2320 1995.62,-2326 1995.62,-2326 1995.62,-2338 1995.62,-2338 1995.62,-2344 1989.62,-2350 1983.62,-2350"/>
<text xml:space="preserve" text-anchor="middle" x="1852.3" y="-2328.12" font-family="Helvetica,sans-Serif" font-size="10.00">#238\nDemo 3: Tumble Tower — docs course (physics ladder)</text>
</a>
</g>
</g>
<!-- i231&#45;&gt;i238 -->
<g id="edge57" class="edge">
<title>i231&#45;&gt;i238</title>
<g id="a_edge57"><a xlink:title="Inferred from Issue Body (missing from Plan)">
<path fill="none" stroke="red" stroke-width="2" stroke-dasharray="5,2" d="M363.65,-2320.17C384.01,-2320.89 404.57,-2321.53 424.15,-2322 887.9,-2333.06 1436.63,-2333.29 1698.02,-2332.62"/>
<polygon fill="red" stroke="red" stroke-width="2" points="1697.7,-2335.42 1705.69,-2332.6 1697.69,-2329.82 1697.7,-2335.42"/>
</a>
</g>
</g>
<!-- i233 -->
<g id="node48" class="node">
<title>i233</title>
<g id="a_node48"><a xlink:href="https://github.com/flyingrobots/echo/issues/233" xlink:title="Demo 3: Tumble Tower — Stage 2 physics (friction + restitution)">
<path fill="#ffffff" stroke="black" d="M1192.45,-2293C1192.45,-2293 891.55,-2293 891.55,-2293 885.55,-2293 879.55,-2287 879.55,-2281 879.55,-2281 879.55,-2269 879.55,-2269 879.55,-2263 885.55,-2257 891.55,-2257 891.55,-2257 1192.45,-2257 1192.45,-2257 1198.45,-2257 1204.45,-2263 1204.45,-2269 1204.45,-2269 1204.45,-2281 1204.45,-2281 1204.45,-2287 1198.45,-2293 1192.45,-2293"/>
<text xml:space="preserve" text-anchor="middle" x="1042" y="-2271.12" font-family="Helvetica,sans-Serif" font-size="10.00">#233\nDemo 3: Tumble Tower — Stage 2 physics (friction + restitution)</text>
</a>
</g>
</g>
<!-- i232&#45;&gt;i233 -->
<g id="edge60" class="edge">
<title>i232&#45;&gt;i233</title>
<g id="a_edge60"><a xlink:title="Inferred from Issue Body (missing from Plan)">
<path fill="none" stroke="red" stroke-width="2" stroke-dasharray="5,2" d="M807.83,-2285.99C827.96,-2285.05 848.35,-2284.08 868.25,-2283.15"/>
<polygon fill="red" stroke="red" stroke-width="2" points="868.38,-2285.94 876.23,-2282.77 868.11,-2280.35 868.38,-2285.94"/>
</a>
</g>
</g>
<!-- i232&#45;&gt;i238 -->
<g id="edge59" class="edge">
<title>i232&#45;&gt;i238</title>
<g id="a_edge59"><a xlink:title="Inferred from Issue Body (missing from Plan)">
<path fill="none" stroke="red" stroke-width="2" stroke-dasharray="5,2" d="M807.99,-2301.15C817.31,-2301.44 826.53,-2301.72 835.55,-2302 1141.38,-2311.41 1499.03,-2321.84 1697.92,-2327.59"/>
<polygon fill="red" stroke="red" stroke-width="2" points="1697.63,-2330.38 1705.7,-2327.81 1697.79,-2324.78 1697.63,-2330.38"/>
</a>
</g>
</g>
<!-- i234 -->
<g id="node49" class="node">
<title>i234</title>
<g id="a_node49"><a xlink:href="https://github.com/flyingrobots/echo/issues/234" xlink:title="Demo 3: Tumble Tower — Stage 3 physics (sleeping + stack stability)">
<path fill="#ffffff" stroke="black" d="M1621.22,-2293C1621.22,-2293 1295.57,-2293 1295.57,-2293 1289.57,-2293 1283.57,-2287 1283.57,-2281 1283.57,-2281 1283.57,-2269 1283.57,-2269 1283.57,-2263 1289.57,-2257 1295.57,-2257 1295.57,-2257 1621.22,-2257 1621.22,-2257 1627.22,-2257 1633.22,-2263 1633.22,-2269 1633.22,-2269 1633.22,-2281 1633.22,-2281 1633.22,-2287 1627.22,-2293 1621.22,-2293"/>
<text xml:space="preserve" text-anchor="middle" x="1458.4" y="-2271.12" font-family="Helvetica,sans-Serif" font-size="10.00">#234\nDemo 3: Tumble Tower — Stage 3 physics (sleeping + stack stability)</text>
</a>
</g>
</g>
<!-- i233&#45;&gt;i234 -->
<g id="edge62" class="edge">
<title>i233&#45;&gt;i234</title>
<g id="a_edge62"><a xlink:title="Inferred from Issue Body (missing from Plan)">
<path fill="none" stroke="red" stroke-width="2" stroke-dasharray="5,2" d="M1204.7,-2275C1226.96,-2275 1249.95,-2275 1272.58,-2275"/>
<polygon fill="red" stroke="red" stroke-width="2" points="1272.27,-2277.8 1280.27,-2275 1272.27,-2272.2 1272.27,-2277.8"/>
</a>
</g>
</g>
<!-- i233&#45;&gt;i238 -->
<g id="edge61" class="edge">
<title>i233&#45;&gt;i238</title>
<g id="a_edge61"><a xlink:title="Inferred from Issue Body (missing from Plan)">
<path fill="none" stroke="red" stroke-width="2" stroke-dasharray="5,2" d="M1140.01,-2256.53C1260.47,-2236.83 1471.65,-2212.88 1648.35,-2248 1706.45,-2259.55 1768.76,-2288.01 1808.79,-2308.61"/>
<polygon fill="red" stroke="red" stroke-width="2" points="1807.4,-2311.04 1815.78,-2312.26 1809.99,-2306.07 1807.4,-2311.04"/>
</a>
</g>
</g>
<!-- i234&#45;&gt;i238 -->
<g id="edge63" class="edge">
<title>i234&#45;&gt;i238</title>
<g id="a_edge63"><a xlink:title="Inferred from Issue Body (missing from Plan)">
<path fill="none" stroke="red" stroke-width="2" stroke-dasharray="5,2" d="M1586.37,-2293.47C1626.99,-2299.37 1672.14,-2305.94 1713.49,-2311.96"/>
<polygon fill="red" stroke="red" stroke-width="2" points="1712.88,-2314.7 1721.2,-2313.08 1713.69,-2309.16 1712.88,-2314.7"/>
</a>
</g>
</g>
<!-- i235 -->
<g id="node50" class="node">
<title>i235</title>
<g id="a_node50"><a xlink:href="https://github.com/flyingrobots/echo/issues/235" xlink:title="Demo 3: Tumble Tower — lockstep harness + per&#45;tick fingerprinting">
<path fill="#ffffff" stroke="black" d="M1615.6,-2387C1615.6,-2387 1301.2,-2387 1301.2,-2387 1295.2,-2387 1289.2,-2381 1289.2,-2375 1289.2,-2375 1289.2,-2363 1289.2,-2363 1289.2,-2357 1295.2,-2351 1301.2,-2351 1301.2,-2351 1615.6,-2351 1615.6,-2351 1621.6,-2351 1627.6,-2357 1627.6,-2363 1627.6,-2363 1627.6,-2375 1627.6,-2375 1627.6,-2381 1621.6,-2387 1615.6,-2387"/>
<text xml:space="preserve" text-anchor="middle" x="1458.4" y="-2365.12" font-family="Helvetica,sans-Serif" font-size="10.00">#235\nDemo 3: Tumble Tower — lockstep harness + per&#45;tick fingerprinting</text>
</a>
</g>
</g>
<!-- i235&#45;&gt;i238 -->
<g id="edge64" class="edge">
<title>i235&#45;&gt;i238</title>
<g id="a_edge64"><a xlink:title="Inferred from Issue Body (missing from Plan)">
<path fill="none" stroke="red" stroke-width="2" stroke-dasharray="5,2" d="M1627.88,-2353.09C1651.07,-2350.9 1674.78,-2348.67 1697.69,-2346.5"/>
<polygon fill="red" stroke="red" stroke-width="2" points="1697.79,-2349.31 1705.49,-2345.77 1697.27,-2343.73 1697.79,-2349.31"/>
</a>
</g>
</g>
<!-- i236 -->
<g id="node51" class="node">
<title>i236</title>
<g id="a_node51"><a xlink:href="https://github.com/flyingrobots/echo/issues/236" xlink:title="Demo 3: Tumble Tower — controlled desync breakers (physics edition)">
<path fill="#ffffff" stroke="black" d="M1622.72,-2441C1622.72,-2441 1294.07,-2441 1294.07,-2441 1288.07,-2441 1282.07,-2435 1282.07,-2429 1282.07,-2429 1282.07,-2417 1282.07,-2417 1282.07,-2411 1288.07,-2405 1294.07,-2405 1294.07,-2405 1622.72,-2405 1622.72,-2405 1628.72,-2405 1634.72,-2411 1634.72,-2417 1634.72,-2417 1634.72,-2429 1634.72,-2429 1634.72,-2435 1628.72,-2441 1622.72,-2441"/>
<text xml:space="preserve" text-anchor="middle" x="1458.4" y="-2419.12" font-family="Helvetica,sans-Serif" font-size="10.00">#236\nDemo 3: Tumble Tower — controlled desync breakers (physics edition)</text>
</a>
</g>
</g>
<!-- i236&#45;&gt;i238 -->
<g id="edge65" class="edge">
<title>i236&#45;&gt;i238</title>
<g id="a_edge65"><a xlink:title="Inferred from Issue Body (missing from Plan)">
<path fill="none" stroke="red" stroke-width="2" stroke-dasharray="5,2" d="M1605.8,-2404.5C1620.24,-2401.96 1634.62,-2399.12 1648.35,-2396 1696.96,-2384.94 1750.72,-2367.76 1790.68,-2353.98"/>
<polygon fill="red" stroke="red" stroke-width="2" points="1791.56,-2356.64 1798.19,-2351.37 1789.72,-2351.35 1791.56,-2356.64"/>
</a>
</g>
</g>
<!-- i237 -->
<g id="node52" class="node">
<title>i237</title>
<g id="a_node52"><a xlink:href="https://github.com/flyingrobots/echo/issues/237" xlink:title="Demo 3: Tumble Tower — visualization (2D view + debug overlays)">
<path fill="#ffffff" stroke="black" d="M1615.6,-2495C1615.6,-2495 1301.2,-2495 1301.2,-2495 1295.2,-2495 1289.2,-2489 1289.2,-2483 1289.2,-2483 1289.2,-2471 1289.2,-2471 1289.2,-2465 1295.2,-2459 1301.2,-2459 1301.2,-2459 1615.6,-2459 1615.6,-2459 1621.6,-2459 1627.6,-2465 1627.6,-2471 1627.6,-2471 1627.6,-2483 1627.6,-2483 1627.6,-2489 1621.6,-2495 1615.6,-2495"/>
<text xml:space="preserve" text-anchor="middle" x="1458.4" y="-2473.12" font-family="Helvetica,sans-Serif" font-size="10.00">#237\nDemo 3: Tumble Tower — visualization (2D view + debug overlays)</text>
</a>
</g>
</g>
<!-- i237&#45;&gt;i238 -->
<g id="edge66" class="edge">
<title>i237&#45;&gt;i238</title>
<g id="a_edge66"><a xlink:title="Inferred from Issue Body (missing from Plan)">
<path fill="none" stroke="red" stroke-width="2" stroke-dasharray="5,2" d="M1619.71,-2458.53C1629.5,-2456.03 1639.12,-2453.21 1648.35,-2450 1712.69,-2427.65 1779.5,-2384.2 1818.15,-2356.72"/>
<polygon fill="red" stroke="red" stroke-width="2" points="1819.57,-2359.15 1824.43,-2352.21 1816.3,-2354.6 1819.57,-2359.15"/>
</a>
</g>
</g>
<!-- i23 -->
<g id="node54" class="node">
<title>i23</title>
<g id="a_node54"><a xlink:href="https://github.com/flyingrobots/echo/issues/23" xlink:title="CLI: verify/bench/inspect">
<path fill="#fef9c3" stroke="black" d="M677.8,-2690C677.8,-2690 553.9,-2690 553.9,-2690 547.9,-2690 541.9,-2684 541.9,-2678 541.9,-2678 541.9,-2666 541.9,-2666 541.9,-2660 547.9,-2654 553.9,-2654 553.9,-2654 677.8,-2654 677.8,-2654 683.8,-2654 689.8,-2660 689.8,-2666 689.8,-2666 689.8,-2678 689.8,-2678 689.8,-2684 683.8,-2690 677.8,-2690"/>
<text xml:space="preserve" text-anchor="middle" x="615.85" y="-2668.12" font-family="Helvetica,sans-Serif" font-size="10.00">#23\nCLI: verify/bench/inspect</text>
</a>
</g>
</g>
<!-- i47 -->
<g id="node55" class="node">
<title>i47</title>
<g id="a_node55"><a xlink:href="https://github.com/flyingrobots/echo/issues/47" xlink:title="Scaffold CLI subcommands">
<path fill="#fef9c3" stroke="black" d="M270.03,-2582C270.03,-2582 134.13,-2582 134.13,-2582 128.13,-2582 122.13,-2576 122.13,-2570 122.13,-2570 122.13,-2558 122.13,-2558 122.13,-2552 128.13,-2546 134.13,-2546 134.13,-2546 270.03,-2546 270.03,-2546 276.03,-2546 282.03,-2552 282.03,-2558 282.03,-2558 282.03,-2570 282.03,-2570 282.03,-2576 276.03,-2582 270.03,-2582"/>
<text xml:space="preserve" text-anchor="middle" x="202.08" y="-2560.12" font-family="Helvetica,sans-Serif" font-size="10.00">#47\nScaffold CLI subcommands</text>
</a>
</g>
</g>
<!-- i47&#45;&gt;i23 -->
<g id="edge20" class="edge">
<title>i47&#45;&gt;i23</title>
<g id="a_edge20"><a xlink:title="scaffold feeds epic">
<path fill="none" stroke="black" stroke-width="1.4" d="M282.09,-2572.03C315.15,-2576.28 353.8,-2582.45 388.15,-2591 449.11,-2606.18 516.64,-2631.46 562,-2649.74"/>
<polygon fill="black" stroke="black" stroke-width="1.4" points="560.91,-2652.32 569.38,-2652.73 563.02,-2647.13 560.91,-2652.32"/>
</a>
</g>
</g>
<!-- i48 -->
<g id="node56" class="node">
<title>i48</title>
<g id="a_node56"><a xlink:href="https://github.com/flyingrobots/echo/issues/48" xlink:title="Implement &#39;verify&#39;">
<path fill="#fef9c3" stroke="black" d="M247.9,-2636C247.9,-2636 156.25,-2636 156.25,-2636 150.25,-2636 144.25,-2630 144.25,-2624 144.25,-2624 144.25,-2612 144.25,-2612 144.25,-2606 150.25,-2600 156.25,-2600 156.25,-2600 247.9,-2600 247.9,-2600 253.9,-2600 259.9,-2606 259.9,-2612 259.9,-2612 259.9,-2624 259.9,-2624 259.9,-2630 253.9,-2636 247.9,-2636"/>
<text xml:space="preserve" text-anchor="middle" x="202.08" y="-2614.12" font-family="Helvetica,sans-Serif" font-size="10.00">#48\nImplement &#39;verify&#39;</text>
</a>
</g>
</g>
<!-- i48&#45;&gt;i23 -->
<g id="edge21" class="edge">
<title>i48&#45;&gt;i23</title>
<g id="a_edge21"><a xlink:title="verify subcommand feeds epic">
<path fill="none" stroke="black" stroke-width="1.4" d="M260.33,-2625.51C330.83,-2634.75 451.12,-2650.53 531.78,-2661.11"/>
<polygon fill="black" stroke="black" stroke-width="1.4" points="531.01,-2663.83 539.31,-2662.09 531.74,-2658.28 531.01,-2663.83"/>
</a>
</g>
</g>
<!-- i49 -->
<g id="node57" class="node">
<title>i49</title>
<g id="a_node57"><a xlink:href="https://github.com/flyingrobots/echo/issues/49" xlink:title="Implement &#39;bench&#39;">
<path fill="#fef9c3" stroke="black" d="M249.03,-2690C249.03,-2690 155.13,-2690 155.13,-2690 149.13,-2690 143.13,-2684 143.13,-2678 143.13,-2678 143.13,-2666 143.13,-2666 143.13,-2660 149.13,-2654 155.13,-2654 155.13,-2654 249.03,-2654 249.03,-2654 255.03,-2654 261.03,-2660 261.03,-2666 261.03,-2666 261.03,-2678 261.03,-2678 261.03,-2684 255.03,-2690 249.03,-2690"/>
<text xml:space="preserve" text-anchor="middle" x="202.08" y="-2668.12" font-family="Helvetica,sans-Serif" font-size="10.00">#49\nImplement &#39;bench&#39;</text>
</a>
</g>
</g>
<!-- i49&#45;&gt;i23 -->
<g id="edge22" class="edge">
<title>i49&#45;&gt;i23</title>
<g id="a_edge22"><a xlink:title="bench subcommand feeds epic">
<path fill="none" stroke="black" stroke-width="1.4" d="M261.2,-2672C331.78,-2672 451.33,-2672 531.66,-2672"/>
<polygon fill="black" stroke="black" stroke-width="1.4" points="531.63,-2674.8 539.63,-2672 531.63,-2669.2 531.63,-2674.8"/>
</a>
</g>
</g>
<!-- i50 -->
<g id="node58" class="node">
<title>i50</title>
<g id="a_node58"><a xlink:href="https://github.com/flyingrobots/echo/issues/50" xlink:title="Implement &#39;inspect&#39;">
<path fill="#fef9c3" stroke="black" d="M251.65,-2744C251.65,-2744 152.5,-2744 152.5,-2744 146.5,-2744 140.5,-2738 140.5,-2732 140.5,-2732 140.5,-2720 140.5,-2720 140.5,-2714 146.5,-2708 152.5,-2708 152.5,-2708 251.65,-2708 251.65,-2708 257.65,-2708 263.65,-2714 263.65,-2720 263.65,-2720 263.65,-2732 263.65,-2732 263.65,-2738 257.65,-2744 251.65,-2744"/>
<text xml:space="preserve" text-anchor="middle" x="202.08" y="-2722.12" font-family="Helvetica,sans-Serif" font-size="10.00">#50\nImplement &#39;inspect&#39;</text>
</a>
</g>
</g>
<!-- i50&#45;&gt;i23 -->
<g id="edge23" class="edge">
<title>i50&#45;&gt;i23</title>
<g id="a_edge23"><a xlink:title="inspect subcommand feeds epic">
<path fill="none" stroke="black" stroke-width="1.4" d="M263.83,-2718.03C334.74,-2708.73 452.37,-2693.31 531.7,-2682.9"/>
<polygon fill="black" stroke="black" stroke-width="1.4" points="532,-2685.69 539.57,-2681.87 531.27,-2680.14 532,-2685.69"/>
</a>
</g>
</g>
<!-- i51 -->
<g id="node59" class="node">
<title>i51</title>
<g id="a_node59"><a xlink:href="https://github.com/flyingrobots/echo/issues/51" xlink:title="Docs/man pages">
<path fill="#fef9c3" stroke="black" d="M246.4,-2798C246.4,-2798 157.75,-2798 157.75,-2798 151.75,-2798 145.75,-2792 145.75,-2786 145.75,-2786 145.75,-2774 145.75,-2774 145.75,-2768 151.75,-2762 157.75,-2762 157.75,-2762 246.4,-2762 246.4,-2762 252.4,-2762 258.4,-2768 258.4,-2774 258.4,-2774 258.4,-2786 258.4,-2786 258.4,-2792 252.4,-2798 246.4,-2798"/>
<text xml:space="preserve" text-anchor="middle" x="202.08" y="-2776.12" font-family="Helvetica,sans-Serif" font-size="10.00">#51\nDocs/man pages</text>
</a>
</g>
</g>
<!-- i51&#45;&gt;i23 -->
<g id="edge24" class="edge">
<title>i51&#45;&gt;i23</title>
<g id="a_edge24"><a xlink:title="docs/man pages feed epic">
<path fill="none" stroke="black" stroke-width="1.4" d="M258.7,-2774.8C295.74,-2770.62 345.3,-2763.67 388.15,-2753 449.11,-2737.82 516.64,-2712.54 562,-2694.26"/>
<polygon fill="black" stroke="black" stroke-width="1.4" points="563.02,-2696.87 569.38,-2691.27 560.91,-2691.68 563.02,-2696.87"/>
</a>
</g>
</g>
<!-- i171 -->
<g id="node62" class="node">
<title>i171</title>
<g id="a_node62"><a xlink:href="https://github.com/flyingrobots/echo/issues/171" xlink:title="TT2: Time Travel MVP (pause/rewind/buffer/catch&#45;up)">
<path fill="#dbeafe" stroke="black" d="M1585.6,-932C1585.6,-932 1331.2,-932 1331.2,-932 1325.2,-932 1319.2,-926 1319.2,-920 1319.2,-920 1319.2,-908 1319.2,-908 1319.2,-902 1325.2,-896 1331.2,-896 1331.2,-896 1585.6,-896 1585.6,-896 1591.6,-896 1597.6,-902 1597.6,-908 1597.6,-908 1597.6,-920 1597.6,-920 1597.6,-926 1591.6,-932 1585.6,-932"/>
<text xml:space="preserve" text-anchor="middle" x="1458.4" y="-910.12" font-family="Helvetica,sans-Serif" font-size="10.00">#171\nTT2: Time Travel MVP (pause/rewind/buffer/catch&#45;up)</text>
</a>
</g>
</g>
<!-- i170&#45;&gt;i171 -->
<g id="edge4" class="edge">
<title>i170&#45;&gt;i171</title>
<g id="a_edge4"><a xlink:title="TT1 &#45;&gt; TT2 (explicit)">
<path fill="none" stroke="#00cd00" stroke-width="2" d="M1184.74,-949.53C1224.55,-944.34 1267.94,-938.69 1308.17,-933.45"/>
<polygon fill="#00cd00" stroke="#00cd00" stroke-width="2" points="1308.3,-936.25 1315.87,-932.44 1307.58,-930.7 1308.3,-936.25"/>
</a>
</g>
</g>
<!-- i205 -->
<g id="node63" class="node">
<title>i205</title>
<g id="a_node63"><a xlink:href="https://github.com/flyingrobots/echo/issues/205" xlink:title="TT2: Reliving debugger MVP (scrub timeline + causal slice + fork branch)">
<path fill="#dbeafe" stroke="black" d="M1628.35,-986C1628.35,-986 1288.45,-986 1288.45,-986 1282.45,-986 1276.45,-980 1276.45,-974 1276.45,-974 1276.45,-962 1276.45,-962 1276.45,-956 1282.45,-950 1288.45,-950 1288.45,-950 1628.35,-950 1628.35,-950 1634.35,-950 1640.35,-956 1640.35,-962 1640.35,-962 1640.35,-974 1640.35,-974 1640.35,-980 1634.35,-986 1628.35,-986"/>
<text xml:space="preserve" text-anchor="middle" x="1458.4" y="-964.12" font-family="Helvetica,sans-Serif" font-size="10.00">#205\nTT2: Reliving debugger MVP (scrub timeline + causal slice + fork branch)</text>
</a>
</g>
</g>
<!-- i170&#45;&gt;i205 -->
<g id="edge45" class="edge">
<title>i170&#45;&gt;i205</title>
<g id="a_edge45"><a xlink:title="Inferred from Issue Body (missing from Plan)">
<path fill="none" stroke="red" stroke-width="2" stroke-dasharray="5,2" d="M1240.79,-968C1248.88,-968 1256.99,-968 1265.07,-968"/>
<polygon fill="red" stroke="red" stroke-width="2" points="1265.04,-970.8 1273.04,-968 1265.04,-965.2 1265.04,-970.8"/>
</a>
</g>
</g>
<!-- i172 -->
<g id="node64" class="node">
<title>i172</title>
<g id="a_node64"><a xlink:href="https://github.com/flyingrobots/echo/issues/172" xlink:title="TT3: Rulial diff / worldline compare MVP">
<path fill="#dbeafe" stroke="black" d="M1950.62,-878C1950.62,-878 1753.97,-878 1753.97,-878 1747.97,-878 1741.97,-872 1741.97,-866 1741.97,-866 1741.97,-854 1741.97,-854 1741.97,-848 1747.97,-842 1753.97,-842 1753.97,-842 1950.62,-842 1950.62,-842 1956.62,-842 1962.62,-848 1962.62,-854 1962.62,-854 1962.62,-866 1962.62,-866 1962.62,-872 1956.62,-878 1950.62,-878"/>
<text xml:space="preserve" text-anchor="middle" x="1852.3" y="-856.12" font-family="Helvetica,sans-Serif" font-size="10.00">#172\nTT3: Rulial diff / worldline compare MVP</text>
</a>
</g>
</g>
<!-- i171&#45;&gt;i172 -->
<g id="edge50" class="edge">
<title>i171&#45;&gt;i172</title>
<g id="a_edge50"><a xlink:title="Inferred from Issue Body (missing from Plan)">
<path fill="none" stroke="red" stroke-width="2" stroke-dasharray="5,2" d="M1593.45,-895.53C1637.99,-889.39 1687.3,-882.6 1730.76,-876.61"/>
<polygon fill="red" stroke="red" stroke-width="2" points="1731.14,-879.38 1738.68,-875.52 1730.37,-873.84 1731.14,-879.38"/>
</a>
</g>
</g>
<!-- i199 -->
<g id="node65" class="node">
<title>i199</title>
<g id="a_node65"><a xlink:href="https://github.com/flyingrobots/echo/issues/199" xlink:title="TT3: Wesley worldline diff (compare query outputs/proofs across ticks)">
<path fill="#dbeafe" stroke="black" d="M2016.25,-932C2016.25,-932 1688.35,-932 1688.35,-932 1682.35,-932 1676.35,-926 1676.35,-920 1676.35,-920 1676.35,-908 1676.35,-908 1676.35,-902 1682.35,-896 1688.35,-896 1688.35,-896 2016.25,-896 2016.25,-896 2022.25,-896 2028.25,-902 2028.25,-908 2028.25,-908 2028.25,-920 2028.25,-920 2028.25,-926 2022.25,-932 2016.25,-932"/>
<text xml:space="preserve" text-anchor="middle" x="1852.3" y="-910.12" font-family="Helvetica,sans-Serif" font-size="10.00">#199\nTT3: Wesley worldline diff (compare query outputs/proofs across ticks)</text>
</a>
</g>
</g>
<!-- i171&#45;&gt;i199 -->
<g id="edge52" class="edge">
<title>i171&#45;&gt;i199</title>
<g id="a_edge52"><a xlink:title="Inferred from Issue Body (missing from Plan)">
<path fill="none" stroke="red" stroke-width="2" stroke-dasharray="5,2" d="M1597.84,-914C1619.71,-914 1642.63,-914 1665.37,-914"/>
<polygon fill="red" stroke="red" stroke-width="2" points="1665.13,-916.8 1673.13,-914 1665.13,-911.2 1665.13,-916.8"/>
</a>
</g>
</g>
<!-- i204 -->
<g id="node66" class="node">
<title>i204</title>
<g id="a_node66"><a xlink:href="https://github.com/flyingrobots/echo/issues/204" xlink:title="TT3: Provenance heatmap (blast radius / cohesion over time)">
<path fill="#dbeafe" stroke="black" d="M1995.25,-986C1995.25,-986 1709.35,-986 1709.35,-986 1703.35,-986 1697.35,-980 1697.35,-974 1697.35,-974 1697.35,-962 1697.35,-962 1697.35,-956 1703.35,-950 1709.35,-950 1709.35,-950 1995.25,-950 1995.25,-950 2001.25,-950 2007.25,-956 2007.25,-962 2007.25,-962 2007.25,-974 2007.25,-974 2007.25,-980 2001.25,-986 1995.25,-986"/>
<text xml:space="preserve" text-anchor="middle" x="1852.3" y="-964.12" font-family="Helvetica,sans-Serif" font-size="10.00">#204\nTT3: Provenance heatmap (blast radius / cohesion over time)</text>
</a>
</g>
</g>
<!-- i171&#45;&gt;i204 -->
<g id="edge51" class="edge">
<title>i171&#45;&gt;i204</title>
<g id="a_edge51"><a xlink:title="Inferred from Issue Body (missing from Plan)">
<path fill="none" stroke="red" stroke-width="2" stroke-dasharray="5,2" d="M1593.45,-932.47C1629.86,-937.49 1669.46,-942.94 1706.44,-948.04"/>
<polygon fill="red" stroke="red" stroke-width="2" points="1706,-950.81 1714.31,-949.12 1706.77,-945.26 1706,-950.81"/>
</a>
</g>
</g>
<!-- i174 -->
<g id="node67" class="node">
<title>i174</title>
<g id="a_node67"><a xlink:href="https://github.com/flyingrobots/echo/issues/174" xlink:title="W1: Wesley as a boundary grammar (hashable view artifacts)">
<path fill="#ccfbf1" stroke="black" d="M759.92,-247C759.92,-247 471.77,-247 471.77,-247 465.77,-247 459.77,-241 459.77,-235 459.77,-235 459.77,-223 459.77,-223 459.77,-217 465.77,-211 471.77,-211 471.77,-211 759.92,-211 759.92,-211 765.92,-211 771.92,-217 771.92,-223 771.92,-223 771.92,-235 771.92,-235 771.92,-241 765.92,-247 759.92,-247"/>
<text xml:space="preserve" text-anchor="middle" x="615.85" y="-225.12" font-family="Helvetica,sans-Serif" font-size="10.00">#174\nW1: Wesley as a boundary grammar (hashable view artifacts)</text>
</a>
</g>
</g>
<!-- i174&#45;&gt;i173 -->
<g id="edge10" class="edge">
<title>i174&#45;&gt;i173</title>
<g id="a_edge10"><a xlink:title="Wesley grammar maybe required">
<path fill="none" stroke="#b3b3b3" stroke-width="1.2" stroke-dasharray="1,5" d="M717.69,-247.41C748.2,-255.97 780.71,-268.33 807.55,-286 911.45,-354.41 993.66,-482.71 1026.06,-538.24"/>
<polygon fill="#b3b3b3" stroke="#b3b3b3" stroke-width="1.2" points="1023.5,-539.41 1029.92,-544.94 1028.35,-536.61 1023.5,-539.41"/>
</a>
</g>
</g>
<!-- i166 -->
<g id="node68" class="node">
<title>i166</title>
<path fill="lightgrey" stroke="black" d="M630.85,-878C630.85,-878 600.85,-878 600.85,-878 594.85,-878 588.85,-872 588.85,-866 588.85,-866 588.85,-854 588.85,-854 588.85,-848 594.85,-842 600.85,-842 600.85,-842 630.85,-842 630.85,-842 636.85,-842 642.85,-848 642.85,-854 642.85,-854 642.85,-866 642.85,-866 642.85,-872 636.85,-878 630.85,-878"/>
<text xml:space="preserve" text-anchor="middle" x="615.85" y="-856.12" font-family="Helvetica,sans-Serif" font-size="10.00">i166</text>
</g>
<!-- i166&#45;&gt;i173 -->
<g id="edge9" class="edge">
<title>i166&#45;&gt;i173</title>
<g id="a_edge9"><a xlink:title="time model spec lock likely required">
<path fill="none" stroke="#666666" stroke-width="1.2" stroke-dasharray="5,2" d="M643.29,-862.79C681.83,-865.61 754.59,-866.18 807.55,-838 916.5,-780.01 996.52,-648.52 1027.22,-591.83"/>
<polygon fill="#666666" stroke="#666666" stroke-width="1.2" points="1029.57,-593.38 1030.87,-585 1024.63,-590.74 1029.57,-593.38"/>
</a>
</g>
</g>
<!-- i166&#45;&gt;i170 -->
<g id="edge3" class="edge">
<title>i166&#45;&gt;i170</title>
<g id="a_edge3"><a xlink:title="TT0 &#45;&gt; TT1">
<path fill="none" stroke="black" stroke-width="1.4" d="M643.09,-861.47C680.16,-863.96 749.79,-870.15 807.55,-884 871.82,-899.41 942.9,-926.52 989.55,-945.77"/>
<polygon fill="black" stroke="black" stroke-width="1.4" points="988.42,-948.33 996.88,-948.82 990.57,-943.16 988.42,-948.33"/>
</a>
</g>
</g>
<!-- i166&#45;&gt;i172 -->
<g id="edge5" class="edge">
<title>i166&#45;&gt;i172</title>
<g id="a_edge5"><a xlink:title="TT0 &#45;&gt; TT3">
<path fill="none" stroke="black" stroke-width="1.4" d="M643.2,-860C784.37,-860 1454.97,-860 1731.57,-860"/>
<polygon fill="black" stroke="black" stroke-width="1.4" points="1731.53,-862.8 1739.53,-860 1731.53,-857.2 1731.53,-862.8"/>
</a>
</g>
</g>
</g>
</svg>
