<?xml version="1.0" encoding="UTF-8" standalone="no"?>
<!DOCTYPE svg PUBLIC "-//W3C//DTD SVG 1.1//EN"
 "http://www.w3.org/Graphics/SVG/1.1/DTD/svg11.dtd">
<!-- Generated by graphviz version 14.1.1 (20251213.1925)
 -->
<!-- Title: echo_issue_dependencies Pages: 1 -->
<svg width="1329pt" height="2032pt"
 viewBox="0.00 0.00 1329.00 2032.00" xmlns="http://www.w3.org/2000/svg" xmlns:xlink="http://www.w3.org/1999/xlink">
<g id="graph0" class="graph" transform="scale(1 1) rotate(0) translate(4 2028)">
<title>echo_issue_dependencies</title>
<polygon fill="white" stroke="none" points="-4,4 -4,-2028 1325.1,-2028 1325.1,4 -4,4"/>
<text xml:space="preserve" text-anchor="middle" x="660.55" y="-2002.9" font-family="Helvetica,sans-Serif" font-size="18.00">Echo — Issue Dependency Sketch</text>
<text xml:space="preserve" text-anchor="middle" x="660.55" y="-1984.15" font-family="Helvetica,sans-Serif" font-size="18.00">Edge direction: prerequisite → dependent (do tail before head)</text>
<text xml:space="preserve" text-anchor="middle" x="660.55" y="-1961.65" font-family="Helvetica,sans-Serif" font-size="18.00">Edge styles encode confidence (solid=strong, dashed=medium, dotted=weak).</text>
<g id="clust1" class="cluster">
<title>cluster_legend</title>
<path fill="none" stroke="#b3b3b3" d="M85.33,-8C85.33,-8 815.25,-8 815.25,-8 821.25,-8 827.25,-14 827.25,-20 827.25,-20 827.25,-75 827.25,-75 827.25,-81 821.25,-87 815.25,-87 815.25,-87 85.33,-87 85.33,-87 79.33,-87 73.33,-81 73.33,-75 73.33,-75 73.33,-20 73.33,-20 73.33,-14 79.33,-8 85.33,-8"/>
<text xml:space="preserve" text-anchor="middle" x="450.29" y="-65.9" font-family="Helvetica,sans-Serif" font-size="18.00" fill="#4d4d4d">Legend</text>
</g>
<g id="clust2" class="cluster">
<title>cluster_1C___Rhai_TS_Bindings</title>
<path fill="none" stroke="#b3b3b3" d="M42.88,-561C42.88,-561 450.3,-561 450.3,-561 456.3,-561 462.3,-567 462.3,-573 462.3,-573 462.3,-844 462.3,-844 462.3,-850 456.3,-856 450.3,-856 450.3,-856 42.88,-856 42.88,-856 36.87,-856 30.88,-850 30.88,-844 30.88,-844 30.88,-573 30.88,-573 30.88,-567 36.88,-561 42.88,-561"/>
<text xml:space="preserve" text-anchor="middle" x="246.59" y="-834.9" font-family="Helvetica,sans-Serif" font-size="18.00">1C – Rhai/TS Bindings</text>
</g>
<g id="clust3" class="cluster">
<title>cluster_1E___Networking___Confluence_MVP</title>
<path fill="none" stroke="#b3b3b3" d="M31.25,-312C31.25,-312 504.3,-312 504.3,-312 510.3,-312 516.3,-318 516.3,-324 516.3,-324 516.3,-541 516.3,-541 516.3,-547 510.3,-553 504.3,-553 504.3,-553 31.25,-553 31.25,-553 25.25,-553 19.25,-547 19.25,-541 19.25,-541 19.25,-324 19.25,-324 19.25,-318 25.25,-312 31.25,-312"/>
<text xml:space="preserve" text-anchor="middle" x="267.78" y="-531.9" font-family="Helvetica,sans-Serif" font-size="18.00">1E – Networking &amp; Confluence MVP</text>
</g>
<g id="clust4" class="cluster">
<title>cluster_1F___Tooling_Integration</title>
<path fill="none" stroke="#b3b3b3" d="M20,-864C20,-864 882.83,-864 882.83,-864 888.83,-864 894.83,-870 894.83,-876 894.83,-876 894.83,-1633 894.83,-1633 894.83,-1639 888.83,-1645 882.83,-1645 882.83,-1645 20,-1645 20,-1645 14,-1645 8,-1639 8,-1633 8,-1633 8,-876 8,-876 8,-870 14,-864 20,-864"/>
<text xml:space="preserve" text-anchor="middle" x="451.41" y="-1623.9" font-family="Helvetica,sans-Serif" font-size="18.00">1F – Tooling Integration</text>
</g>
<g id="clust5" class="cluster">
<title>cluster_M2_2___Playground_Slice</title>
<path fill="none" stroke="#b3b3b3" d="M32.38,-1653C32.38,-1653 467.18,-1653 467.18,-1653 473.18,-1653 479.18,-1659 479.18,-1665 479.18,-1665 479.18,-1936 479.18,-1936 479.18,-1942 473.18,-1948 467.18,-1948 467.18,-1948 32.38,-1948 32.38,-1948 26.37,-1948 20.38,-1942 20.38,-1936 20.38,-1936 20.38,-1665 20.38,-1665 20.38,-1659 26.38,-1653 32.38,-1653"/>
<text xml:space="preserve" text-anchor="middle" x="249.78" y="-1926.9" font-family="Helvetica,sans-Serif" font-size="18.00">M2.2 – Playground Slice</text>
</g>
<g id="clust6" class="cluster">
<title>cluster_S1___Deterministic_Rhai_Surface</title>
<path fill="none" stroke="#b3b3b3" d="M647.67,-393C647.67,-393 936.83,-393 936.83,-393 942.83,-393 948.83,-399 948.83,-405 948.83,-405 948.83,-460 948.83,-460 948.83,-466 942.83,-472 936.83,-472 936.83,-472 647.67,-472 647.67,-472 641.67,-472 635.67,-466 635.67,-460 635.67,-460 635.67,-405 635.67,-405 635.67,-399 641.67,-393 647.67,-393"/>
<text xml:space="preserve" text-anchor="middle" x="792.25" y="-450.9" font-family="Helvetica,sans-Serif" font-size="18.00">S1 – Deterministic Rhai Surface</text>
</g>
<g id="clust7" class="cluster">
<title>cluster_TT0___Time_Model_Spec_Lock</title>
<path fill="none" stroke="#b3b3b3" d="M240.65,-138C240.65,-138 553.8,-138 553.8,-138 559.8,-138 565.8,-144 565.8,-150 565.8,-150 565.8,-205 565.8,-205 565.8,-211 559.8,-217 553.8,-217 553.8,-217 240.65,-217 240.65,-217 234.65,-217 228.65,-211 228.65,-205 228.65,-205 228.65,-150 228.65,-150 228.65,-144 234.65,-138 240.65,-138"/>
<text xml:space="preserve" text-anchor="middle" x="397.23" y="-195.9" font-family="Helvetica,sans-Serif" font-size="18.00">TT0 – Time Model Spec Lock</text>
</g>
<g id="clust8" class="cluster">
<title>cluster_TT1___Streams_Inspector_Frame</title>
<path fill="none" stroke="#b3b3b3" d="M597.8,-182C597.8,-182 986.7,-182 986.7,-182 992.7,-182 998.7,-188 998.7,-194 998.7,-194 998.7,-249 998.7,-249 998.7,-255 992.7,-261 986.7,-261 986.7,-261 597.8,-261 597.8,-261 591.8,-261 585.8,-255 585.8,-249 585.8,-249 585.8,-194 585.8,-194 585.8,-188 591.8,-182 597.8,-182"/>
<text xml:space="preserve" text-anchor="middle" x="792.25" y="-239.9" font-family="Helvetica,sans-Serif" font-size="18.00">TT1 – Streams Inspector Frame</text>
</g>
<g id="clust9" class="cluster">
<title>cluster_TT2___Time_Travel_MVP</title>
<path fill="none" stroke="#b3b3b3" d="M1030.7,-182C1030.7,-182 1301.1,-182 1301.1,-182 1307.1,-182 1313.1,-188 1313.1,-194 1313.1,-194 1313.1,-249 1313.1,-249 1313.1,-255 1307.1,-261 1301.1,-261 1301.1,-261 1030.7,-261 1030.7,-261 1024.7,-261 1018.7,-255 1018.7,-249 1018.7,-249 1018.7,-194 1018.7,-194 1018.7,-188 1024.7,-182 1030.7,-182"/>
<text xml:space="preserve" text-anchor="middle" x="1165.9" y="-239.9" font-family="Helvetica,sans-Serif" font-size="18.00">TT2 – Time Travel MVP</text>
</g>
<g id="clust10" class="cluster">
<title>cluster_TT3___Rulial_Diff___Worldline_Compare</title>
<path fill="none" stroke="#b3b3b3" d="M650.12,-95C650.12,-95 935.38,-95 935.38,-95 941.38,-95 947.38,-101 947.38,-107 947.38,-107 947.38,-162 947.38,-162 947.38,-168 941.38,-174 935.38,-174 935.38,-174 650.12,-174 650.12,-174 644.12,-174 638.12,-168 638.12,-162 638.12,-162 638.12,-107 638.12,-107 638.12,-101 644.12,-95 650.12,-95"/>
<text xml:space="preserve" text-anchor="middle" x="792.75" y="-152.9" font-family="Helvetica,sans-Serif" font-size="18.00">TT3 – Rulial Diff / Worldline Compare</text>
</g>
<g id="clust11" class="cluster">
<title>cluster_W1___Wesley_as_a_Boundary_Grammar</title>
<path fill="none" stroke="#b3b3b3" d="M245.15,-225C245.15,-225 549.3,-225 549.3,-225 555.3,-225 561.3,-231 561.3,-237 561.3,-237 561.3,-292 561.3,-292 561.3,-298 555.3,-304 549.3,-304 549.3,-304 245.15,-304 245.15,-304 239.15,-304 233.15,-298 233.15,-292 233.15,-292 233.15,-237 233.15,-237 233.15,-231 239.15,-225 245.15,-225"/>
<text xml:space="preserve" text-anchor="middle" x="397.23" y="-282.9" font-family="Helvetica,sans-Serif" font-size="18.00">W1 – Wesley as a Boundary Grammar</text>
</g>
<!-- L1 -->
<g id="node1" class="node">
<title>L1</title>
<path fill="#ffffff" stroke="black" d="M123.33,-52C123.33,-52 93.33,-52 93.33,-52 87.33,-52 81.33,-46 81.33,-40 81.33,-40 81.33,-28 81.33,-28 81.33,-22 87.33,-16 93.33,-16 93.33,-16 123.33,-16 123.33,-16 129.33,-16 135.33,-22 135.33,-28 135.33,-28 135.33,-40 135.33,-40 135.33,-46 129.33,-52 123.33,-52"/>
<text xml:space="preserve" text-anchor="middle" x="108.33" y="-30.12" font-family="Helvetica,sans-Serif" font-size="10.00">strong</text>
</g>
<!-- L2 -->
<g id="node2" class="node">
<title>L2</title>
<path fill="#ffffff" stroke="black" d="M412.23,-52C412.23,-52 382.23,-52 382.23,-52 376.23,-52 370.23,-46 370.23,-40 370.23,-40 370.23,-28 370.23,-28 370.23,-22 376.23,-16 382.23,-16 382.23,-16 412.23,-16 412.23,-16 418.23,-16 424.23,-22 424.23,-28 424.23,-28 424.23,-40 424.23,-40 424.23,-46 418.23,-52 412.23,-52"/>
<text xml:space="preserve" text-anchor="middle" x="397.23" y="-30.12" font-family="Helvetica,sans-Serif" font-size="10.00">medium</text>
</g>
<!-- L1&#45;&gt;L2 -->
<g id="edge1" class="edge">
<title>L1&#45;&gt;L2</title>
<path fill="none" stroke="black" stroke-width="1.4" d="M135.8,-34C190.46,-34 315.21,-34 369.81,-34"/>
</g>
<!-- L3 -->
<g id="node3" class="node">
<title>L3</title>
<path fill="#ffffff" stroke="black" d="M807.25,-52C807.25,-52 777.25,-52 777.25,-52 771.25,-52 765.25,-46 765.25,-40 765.25,-40 765.25,-28 765.25,-28 765.25,-22 771.25,-16 777.25,-16 777.25,-16 807.25,-16 807.25,-16 813.25,-16 819.25,-22 819.25,-28 819.25,-28 819.25,-40 819.25,-40 819.25,-46 813.25,-52 807.25,-52"/>
<text xml:space="preserve" text-anchor="middle" x="792.25" y="-30.12" font-family="Helvetica,sans-Serif" font-size="10.00">weak</text>
</g>
<!-- L2&#45;&gt;L3 -->
<g id="edge2" class="edge">
<title>L2&#45;&gt;L3</title>
<path fill="none" stroke="#666666" stroke-width="1.2" stroke-dasharray="5,2" d="M424.62,-34C496.22,-34 693.5,-34 764.97,-34"/>
</g>
<!-- i26 -->
<g id="node4" class="node">
<title>i26</title>
<g id="a_node4"><a xlink:href="https://github.com/flyingrobots/echo/issues/26" xlink:title="Plugin ABI (C) v0">
<path fill="#dcfce7" stroke="black" d="M442.3,-686C442.3,-686 352.15,-686 352.15,-686 346.15,-686 340.15,-680 340.15,-674 340.15,-674 340.15,-662 340.15,-662 340.15,-656 346.15,-650 352.15,-650 352.15,-650 442.3,-650 442.3,-650 448.3,-650 454.3,-656 454.3,-662 454.3,-662 454.3,-674 454.3,-674 454.3,-680 448.3,-686 442.3,-686"/>
<text xml:space="preserve" text-anchor="middle" x="397.23" y="-664.12" font-family="Helvetica,sans-Serif" font-size="10.00">#26\nPlugin ABI (C) v0</text>
</a>
</g>
</g>
<!-- i173 -->
<g id="node39" class="node">
<title>i173</title>
<g id="a_node39"><a xlink:href="https://github.com/flyingrobots/echo/issues/173" xlink:title="S1: Deterministic Rhai surface (sandbox + claims/effects)">
<path fill="#ede9fe" stroke="black" d="M928.83,-437C928.83,-437 655.67,-437 655.67,-437 649.67,-437 643.67,-431 643.67,-425 643.67,-425 643.67,-413 643.67,-413 643.67,-407 649.67,-401 655.67,-401 655.67,-401 928.83,-401 928.83,-401 934.83,-401 940.83,-407 940.83,-413 940.83,-413 940.83,-425 940.83,-425 940.83,-431 934.83,-437 928.83,-437"/>
<text xml:space="preserve" text-anchor="middle" x="792.25" y="-415.12" font-family="Helvetica,sans-Serif" font-size="10.00">#173\nS1: Deterministic Rhai surface (sandbox + claims/effects)</text>
</a>
</g>
</g>
<!-- i26&#45;&gt;i173 -->
<g id="edge8" class="edge">
<title>i26&#45;&gt;i173</title>
<g id="a_edge8"><a xlink:title="plugin ABI likely required">
<path fill="none" stroke="#666666" stroke-width="1.2" stroke-dasharray="5,2" d="M447.41,-649.57C481.64,-635.9 527.78,-615.74 565.8,-593 642.29,-547.24 722.86,-479.64 763.82,-443.65"/>
<polygon fill="#666666" stroke="#666666" stroke-width="1.2" points="765.5,-445.91 769.64,-438.52 761.79,-441.71 765.5,-445.91"/>
</a>
</g>
</g>
<!-- i85 -->
<g id="node5" class="node">
<title>i85</title>
<g id="a_node5"><a xlink:href="https://github.com/flyingrobots/echo/issues/85" xlink:title="Draft C ABI spec">
<path fill="#dcfce7" stroke="black" d="M153.03,-767C153.03,-767 63.63,-767 63.63,-767 57.63,-767 51.63,-761 51.63,-755 51.63,-755 51.63,-743 51.63,-743 51.63,-737 57.63,-731 63.63,-731 63.63,-731 153.03,-731 153.03,-731 159.03,-731 165.03,-737 165.03,-743 165.03,-743 165.03,-755 165.03,-755 165.03,-761 159.03,-767 153.03,-767"/>
<text xml:space="preserve" text-anchor="middle" x="108.33" y="-745.12" font-family="Helvetica,sans-Serif" font-size="10.00">#85\nDraft C ABI spec</text>
</a>
</g>
</g>
<!-- i85&#45;&gt;i26 -->
<g id="edge39" class="edge">
<title>i85&#45;&gt;i26</title>
<g id="a_edge39"><a xlink:title="draft spec feeds epic">
<path fill="none" stroke="black" stroke-width="1.4" d="M165.32,-733.19C212.56,-719.85 280.26,-700.74 330.15,-686.65"/>
<polygon fill="black" stroke="black" stroke-width="1.4" points="330.9,-689.35 337.84,-684.48 329.38,-683.96 330.9,-689.35"/>
</a>
</g>
</g>
<!-- i86 -->
<g id="node6" class="node">
<title>i86</title>
<g id="a_node6"><a xlink:href="https://github.com/flyingrobots/echo/issues/86" xlink:title="C header + host loader">
<path fill="#dcfce7" stroke="black" d="M165.4,-821C165.4,-821 51.25,-821 51.25,-821 45.25,-821 39.25,-815 39.25,-809 39.25,-809 39.25,-797 39.25,-797 39.25,-791 45.25,-785 51.25,-785 51.25,-785 165.4,-785 165.4,-785 171.4,-785 177.4,-791 177.4,-797 177.4,-797 177.4,-809 177.4,-809 177.4,-815 171.4,-821 165.4,-821"/>
<text xml:space="preserve" text-anchor="middle" x="108.33" y="-799.12" font-family="Helvetica,sans-Serif" font-size="10.00">#86\nC header + host loader</text>
</a>
</g>
</g>
<!-- i86&#45;&gt;i26 -->
<g id="edge40" class="edge">
<title>i86&#45;&gt;i26</title>
<g id="a_edge40"><a xlink:title="header+loader feeds epic">
<path fill="none" stroke="black" stroke-width="1.4" d="M177.72,-784.55C185.54,-781.92 193.33,-779.06 200.65,-776 258.37,-751.87 321,-715.27 359.43,-691.5"/>
<polygon fill="black" stroke="black" stroke-width="1.4" points="360.62,-694.06 365.93,-687.45 357.66,-689.3 360.62,-694.06"/>
</a>
</g>
</g>
<!-- i87 -->
<g id="node7" class="node">
<title>i87</title>
<g id="a_node7"><a xlink:href="https://github.com/flyingrobots/echo/issues/87" xlink:title="Version negotiation">
<path fill="#dcfce7" stroke="black" d="M157.15,-659C157.15,-659 59.5,-659 59.5,-659 53.5,-659 47.5,-653 47.5,-647 47.5,-647 47.5,-635 47.5,-635 47.5,-629 53.5,-623 59.5,-623 59.5,-623 157.15,-623 157.15,-623 163.15,-623 169.15,-629 169.15,-635 169.15,-635 169.15,-647 169.15,-647 169.15,-653 163.15,-659 157.15,-659"/>
<text xml:space="preserve" text-anchor="middle" x="108.33" y="-637.12" font-family="Helvetica,sans-Serif" font-size="10.00">#87\nVersion negotiation</text>
</a>
</g>
</g>
<!-- i87&#45;&gt;i26 -->
<g id="edge41" class="edge">
<title>i87&#45;&gt;i26</title>
<g id="a_edge41"><a xlink:title="negotiation feeds epic">
<path fill="none" stroke="black" stroke-width="1.4" d="M169.47,-646.66C216.41,-651.08 281.56,-657.21 329.99,-661.77"/>
<polygon fill="black" stroke="black" stroke-width="1.4" points="329.72,-664.55 337.95,-662.52 330.25,-658.98 329.72,-664.55"/>
</a>
</g>
</g>
<!-- i88 -->
<g id="node8" class="node">
<title>i88</title>
<g id="a_node8"><a xlink:href="https://github.com/flyingrobots/echo/issues/88" xlink:title="Capability tokens">
<path fill="#dcfce7" stroke="black" d="M153.4,-605C153.4,-605 63.25,-605 63.25,-605 57.25,-605 51.25,-599 51.25,-593 51.25,-593 51.25,-581 51.25,-581 51.25,-575 57.25,-569 63.25,-569 63.25,-569 153.4,-569 153.4,-569 159.4,-569 165.4,-575 165.4,-581 165.4,-581 165.4,-593 165.4,-593 165.4,-599 159.4,-605 153.4,-605"/>
<text xml:space="preserve" text-anchor="middle" x="108.33" y="-583.12" font-family="Helvetica,sans-Serif" font-size="10.00">#88\nCapability tokens</text>
</a>
</g>
</g>
<!-- i88&#45;&gt;i26 -->
<g id="edge42" class="edge">
<title>i88&#45;&gt;i26</title>
<g id="a_edge42"><a xlink:title="capability tokens feed epic">
<path fill="none" stroke="black" stroke-width="1.4" d="M165.66,-602.91C212.94,-616.25 280.53,-635.33 330.31,-649.39"/>
<polygon fill="black" stroke="black" stroke-width="1.4" points="329.51,-652.08 337.97,-651.55 331.04,-646.69 329.51,-652.08"/>
</a>
</g>
</g>
<!-- i88&#45;&gt;i173 -->
<g id="edge6" class="edge">
<title>i88&#45;&gt;i173</title>
<g id="a_edge6"><a xlink:title="capability tokens for deterministic surface">
<path fill="none" stroke="black" stroke-width="1.4" d="M165.72,-591.8C253.54,-597.41 427.28,-600.98 565.8,-557 643.1,-532.46 721.11,-476.04 762.01,-443.45"/>
<polygon fill="black" stroke="black" stroke-width="1.4" points="763.57,-445.79 768.04,-438.59 760.05,-441.43 763.57,-445.79"/>
</a>
</g>
</g>
<!-- i89 -->
<g id="node9" class="node">
<title>i89</title>
<g id="a_node9"><a xlink:href="https://github.com/flyingrobots/echo/issues/89" xlink:title="Example plugin + tests">
<path fill="#dcfce7" stroke="black" d="M165.78,-713C165.78,-713 50.88,-713 50.88,-713 44.88,-713 38.88,-707 38.88,-701 38.88,-701 38.88,-689 38.88,-689 38.88,-683 44.88,-677 50.88,-677 50.88,-677 165.78,-677 165.78,-677 171.78,-677 177.78,-683 177.78,-689 177.78,-689 177.78,-701 177.78,-701 177.78,-707 171.78,-713 165.78,-713"/>
<text xml:space="preserve" text-anchor="middle" x="108.33" y="-691.12" font-family="Helvetica,sans-Serif" font-size="10.00">#89\nExample plugin + tests</text>
</a>
</g>
</g>
<!-- i89&#45;&gt;i26 -->
<g id="edge43" class="edge">
<title>i89&#45;&gt;i26</title>
<g id="a_edge43"><a xlink:title="example plugin feeds epic">
<path fill="none" stroke="black" stroke-width="1.4" d="M178.04,-688.53C224.13,-684.2 284.48,-678.52 330.03,-674.23"/>
<polygon fill="black" stroke="black" stroke-width="1.4" points="330.29,-677.02 337.99,-673.48 329.76,-671.44 330.29,-677.02"/>
</a>
</g>
</g>
<!-- i21 -->
<g id="node10" class="node">
<title>i21</title>
<g id="a_node10"><a xlink:href="https://github.com/flyingrobots/echo/issues/21" xlink:title="Spec: Security Contexts (FFI/WASM/CLI)">
<path fill="#ffedd5" stroke="black" d="M496.3,-437C496.3,-437 298.15,-437 298.15,-437 292.15,-437 286.15,-431 286.15,-425 286.15,-425 286.15,-413 286.15,-413 286.15,-407 292.15,-401 298.15,-401 298.15,-401 496.3,-401 496.3,-401 502.3,-401 508.3,-407 508.3,-413 508.3,-413 508.3,-425 508.3,-425 508.3,-431 502.3,-437 496.3,-437"/>
<text xml:space="preserve" text-anchor="middle" x="397.23" y="-415.12" font-family="Helvetica,sans-Serif" font-size="10.00">#21\nSpec: Security Contexts (FFI/WASM/CLI)</text>
</a>
</g>
</g>
<!-- i21&#45;&gt;i173 -->
<g id="edge7" class="edge">
<title>i21&#45;&gt;i173</title>
<g id="a_edge7"><a xlink:title="security contexts likely required">
<path fill="none" stroke="#666666" stroke-width="1.2" stroke-dasharray="5,2" d="M508.75,-419C547.51,-419 591.82,-419 633.68,-419"/>
<polygon fill="#666666" stroke="#666666" stroke-width="1.2" points="633.6,-421.8 641.6,-419 633.6,-416.2 633.6,-421.8"/>
</a>
</g>
</g>
<!-- i37 -->
<g id="node11" class="node">
<title>i37</title>
<g id="a_node11"><a xlink:href="https://github.com/flyingrobots/echo/issues/37" xlink:title="Draft security contexts spec">
<path fill="#ffedd5" stroke="black" d="M177.4,-464C177.4,-464 39.25,-464 39.25,-464 33.25,-464 27.25,-458 27.25,-452 27.25,-452 27.25,-440 27.25,-440 27.25,-434 33.25,-428 39.25,-428 39.25,-428 177.4,-428 177.4,-428 183.4,-428 189.4,-434 189.4,-440 189.4,-440 189.4,-452 189.4,-452 189.4,-458 183.4,-464 177.4,-464"/>
<text xml:space="preserve" text-anchor="middle" x="108.33" y="-442.12" font-family="Helvetica,sans-Serif" font-size="10.00">#37\nDraft security contexts spec</text>
</a>
</g>
</g>
<!-- i37&#45;&gt;i21 -->
<g id="edge11" class="edge">
<title>i37&#45;&gt;i21</title>
<g id="a_edge11"><a xlink:title="draft spec feeds epic">
<path fill="none" stroke="black" stroke-width="1.4" d="M189.62,-438.44C216.43,-435.92 246.92,-433.05 276.08,-430.31"/>
<polygon fill="black" stroke="black" stroke-width="1.4" points="276.1,-433.12 283.8,-429.58 275.58,-427.54 276.1,-433.12"/>
</a>
</g>
</g>
<!-- i38 -->
<g id="node12" class="node">
<title>i38</title>
<g id="a_node12"><a xlink:href="https://github.com/flyingrobots/echo/issues/38" xlink:title="FFI limits and validation">
<path fill="#ffedd5" stroke="black" d="M167.65,-518C167.65,-518 49,-518 49,-518 43,-518 37,-512 37,-506 37,-506 37,-494 37,-494 37,-488 43,-482 49,-482 49,-482 167.65,-482 167.65,-482 173.65,-482 179.65,-488 179.65,-494 179.65,-494 179.65,-506 179.65,-506 179.65,-512 173.65,-518 167.65,-518"/>
<text xml:space="preserve" text-anchor="middle" x="108.33" y="-496.12" font-family="Helvetica,sans-Serif" font-size="10.00">#38\nFFI limits and validation</text>
</a>
</g>
</g>
<!-- i38&#45;&gt;i21 -->
<g id="edge12" class="edge">
<title>i38&#45;&gt;i21</title>
<g id="a_edge12"><a xlink:title="ffi limits feed epic">
<path fill="none" stroke="black" stroke-width="1.4" d="M174.79,-481.52C218.48,-469.18 276.05,-452.93 321.53,-440.09"/>
<polygon fill="black" stroke="black" stroke-width="1.4" points="322.07,-442.85 329.01,-437.98 320.55,-437.46 322.07,-442.85"/>
</a>
</g>
</g>
<!-- i39 -->
<g id="node13" class="node">
<title>i39</title>
<g id="a_node13"><a xlink:href="https://github.com/flyingrobots/echo/issues/39" xlink:title="WASM input validation">
<path fill="#ffedd5" stroke="black" d="M165.03,-356C165.03,-356 51.63,-356 51.63,-356 45.63,-356 39.63,-350 39.63,-344 39.63,-344 39.63,-332 39.63,-332 39.63,-326 45.63,-320 51.63,-320 51.63,-320 165.03,-320 165.03,-320 171.03,-320 177.03,-326 177.03,-332 177.03,-332 177.03,-344 177.03,-344 177.03,-350 171.03,-356 165.03,-356"/>
<text xml:space="preserve" text-anchor="middle" x="108.33" y="-334.12" font-family="Helvetica,sans-Serif" font-size="10.00">#39\nWASM input validation</text>
</a>
</g>
</g>
<!-- i39&#45;&gt;i21 -->
<g id="edge13" class="edge">
<title>i39&#45;&gt;i21</title>
<g id="a_edge13"><a xlink:title="wasm validation feed epic">
<path fill="none" stroke="black" stroke-width="1.4" d="M174.79,-356.48C218.48,-368.82 276.05,-385.07 321.53,-397.91"/>
<polygon fill="black" stroke="black" stroke-width="1.4" points="320.55,-400.54 329.01,-400.02 322.07,-395.15 320.55,-400.54"/>
</a>
</g>
</g>
<!-- i40 -->
<g id="node14" class="node">
<title>i40</title>
<g id="a_node14"><a xlink:href="https://github.com/flyingrobots/echo/issues/40" xlink:title="Unit tests for denials">
<path fill="#ffedd5" stroke="black" d="M160.9,-410C160.9,-410 55.75,-410 55.75,-410 49.75,-410 43.75,-404 43.75,-398 43.75,-398 43.75,-386 43.75,-386 43.75,-380 49.75,-374 55.75,-374 55.75,-374 160.9,-374 160.9,-374 166.9,-374 172.9,-380 172.9,-386 172.9,-386 172.9,-398 172.9,-398 172.9,-404 166.9,-410 160.9,-410"/>
<text xml:space="preserve" text-anchor="middle" x="108.33" y="-388.12" font-family="Helvetica,sans-Serif" font-size="10.00">#40\nUnit tests for denials</text>
</a>
</g>
</g>
<!-- i40&#45;&gt;i21 -->
<g id="edge14" class="edge">
<title>i40&#45;&gt;i21</title>
<g id="a_edge14"><a xlink:title="denial tests feed epic">
<path fill="none" stroke="black" stroke-width="1.4" d="M173.35,-398.03C203.62,-400.87 240.78,-404.37 276.01,-407.69"/>
<polygon fill="black" stroke="black" stroke-width="1.4" points="275.55,-410.46 283.78,-408.42 276.08,-404.88 275.55,-410.46"/>
</a>
</g>
</g>
<!-- i20 -->
<g id="node15" class="node">
<title>i20</title>
<g id="a_node15"><a xlink:href="https://github.com/flyingrobots/echo/issues/20" xlink:title="Spec: Commit/Manifest Signing">
<path fill="#f3f4f6" stroke="black" d="M473.8,-1016C473.8,-1016 320.65,-1016 320.65,-1016 314.65,-1016 308.65,-1010 308.65,-1004 308.65,-1004 308.65,-992 308.65,-992 308.65,-986 314.65,-980 320.65,-980 320.65,-980 473.8,-980 473.8,-980 479.8,-980 485.8,-986 485.8,-992 485.8,-992 485.8,-1004 485.8,-1004 485.8,-1010 479.8,-1016 473.8,-1016"/>
<text xml:space="preserve" text-anchor="middle" x="397.23" y="-994.12" font-family="Helvetica,sans-Serif" font-size="10.00">#20\nSpec: Commit/Manifest Signing</text>
</a>
</g>
</g>
<!-- i24 -->
<g id="node16" class="node">
<title>i24</title>
<g id="a_node16"><a xlink:href="https://github.com/flyingrobots/echo/issues/24" xlink:title="Editor Hot&#45;Reload (spec + impl)">
<path fill="#f3f4f6" stroke="black" d="M473.43,-1286C473.43,-1286 321.03,-1286 321.03,-1286 315.03,-1286 309.03,-1280 309.03,-1274 309.03,-1274 309.03,-1262 309.03,-1262 309.03,-1256 315.03,-1250 321.03,-1250 321.03,-1250 473.43,-1250 473.43,-1250 479.43,-1250 485.43,-1256 485.43,-1262 485.43,-1262 485.43,-1274 485.43,-1274 485.43,-1280 479.43,-1286 473.43,-1286"/>
<text xml:space="preserve" text-anchor="middle" x="397.23" y="-1264.12" font-family="Helvetica,sans-Serif" font-size="10.00">#24\nEditor Hot&#45;Reload (spec + impl)</text>
</a>
</g>
</g>
<!-- i25 -->
<g id="node17" class="node">
<title>i25</title>
<g id="a_node17"><a xlink:href="https://github.com/flyingrobots/echo/issues/25" xlink:title="Importer: TurtlGraph → Echo store">
<path fill="#f3f4f6" stroke="black" d="M874.83,-1527C874.83,-1527 709.67,-1527 709.67,-1527 703.67,-1527 697.67,-1521 697.67,-1515 697.67,-1515 697.67,-1503 697.67,-1503 697.67,-1497 703.67,-1491 709.67,-1491 709.67,-1491 874.83,-1491 874.83,-1491 880.83,-1491 886.83,-1497 886.83,-1503 886.83,-1503 886.83,-1515 886.83,-1515 886.83,-1521 880.83,-1527 874.83,-1527"/>
<text xml:space="preserve" text-anchor="middle" x="792.25" y="-1505.88" font-family="Helvetica,sans-Serif" font-size="10.00">#25\nImporter: TurtlGraph → Echo store</text>
</a>
</g>
</g>
<!-- i32 -->
<g id="node18" class="node">
<title>i32</title>
<g id="a_node18"><a xlink:href="https://github.com/flyingrobots/echo/issues/32" xlink:title="Draft signing spec">
<path fill="#f3f4f6" stroke="black" d="M155.28,-1124C155.28,-1124 61.38,-1124 61.38,-1124 55.38,-1124 49.38,-1118 49.38,-1112 49.38,-1112 49.38,-1100 49.38,-1100 49.38,-1094 55.38,-1088 61.38,-1088 61.38,-1088 155.28,-1088 155.28,-1088 161.28,-1088 167.28,-1094 167.28,-1100 167.28,-1100 167.28,-1112 167.28,-1112 167.28,-1118 161.28,-1124 155.28,-1124"/>
<text xml:space="preserve" text-anchor="middle" x="108.33" y="-1102.12" font-family="Helvetica,sans-Serif" font-size="10.00">#32\nDraft signing spec</text>
</a>
</g>
</g>
<!-- i32&#45;&gt;i20 -->
<g id="edge15" class="edge">
<title>i32&#45;&gt;i20</title>
<g id="a_edge15"><a xlink:title="draft spec feeds epic">
<path fill="none" stroke="black" stroke-width="1.4" d="M167.59,-1089.77C178.64,-1086.41 190.05,-1082.75 200.65,-1079 251.01,-1061.18 307.23,-1037.49 346.42,-1020.33"/>
<polygon fill="black" stroke="black" stroke-width="1.4" points="347.37,-1022.97 353.57,-1017.19 345.12,-1017.85 347.37,-1022.97"/>
</a>
</g>
</g>
<!-- i33 -->
<g id="node19" class="node">
<title>i33</title>
<g id="a_node19"><a xlink:href="https://github.com/flyingrobots/echo/issues/33" xlink:title="CI: sign release artifacts (dry run)">
<path fill="#f3f4f6" stroke="black" d="M188.65,-908C188.65,-908 28,-908 28,-908 22,-908 16,-902 16,-896 16,-896 16,-884 16,-884 16,-878 22,-872 28,-872 28,-872 188.65,-872 188.65,-872 194.65,-872 200.65,-878 200.65,-884 200.65,-884 200.65,-896 200.65,-896 200.65,-902 194.65,-908 188.65,-908"/>
<text xml:space="preserve" text-anchor="middle" x="108.33" y="-886.12" font-family="Helvetica,sans-Serif" font-size="10.00">#33\nCI: sign release artifacts (dry run)</text>
</a>
</g>
</g>
<!-- i33&#45;&gt;i20 -->
<g id="edge16" class="edge">
<title>i33&#45;&gt;i20</title>
<g id="a_edge16"><a xlink:title="ci sign dry run feeds epic">
<path fill="none" stroke="black" stroke-width="1.4" d="M174.94,-908.49C183.63,-911.21 192.39,-914.08 200.65,-917 251.01,-934.82 307.23,-958.51 346.42,-975.67"/>
<polygon fill="black" stroke="black" stroke-width="1.4" points="345.12,-978.15 353.57,-978.81 347.37,-973.03 345.12,-978.15"/>
</a>
</g>
</g>
<!-- i34 -->
<g id="node20" class="node">
<title>i34</title>
<g id="a_node20"><a xlink:href="https://github.com/flyingrobots/echo/issues/34" xlink:title="CLI verify path">
<path fill="#f3f4f6" stroke="black" d="M147.78,-962C147.78,-962 68.88,-962 68.88,-962 62.88,-962 56.88,-956 56.88,-950 56.88,-950 56.88,-938 56.88,-938 56.88,-932 62.88,-926 68.88,-926 68.88,-926 147.78,-926 147.78,-926 153.78,-926 159.78,-932 159.78,-938 159.78,-938 159.78,-950 159.78,-950 159.78,-956 153.78,-962 147.78,-962"/>
<text xml:space="preserve" text-anchor="middle" x="108.33" y="-940.12" font-family="Helvetica,sans-Serif" font-size="10.00">#34\nCLI verify path</text>
</a>
</g>
</g>
<!-- i34&#45;&gt;i20 -->
<g id="edge17" class="edge">
<title>i34&#45;&gt;i20</title>
<g id="a_edge17"><a xlink:title="cli verify path feeds epic">
<path fill="none" stroke="black" stroke-width="1.4" d="M159.96,-953.53C198.25,-960.74 252.02,-970.86 298.59,-979.62"/>
<polygon fill="black" stroke="black" stroke-width="1.4" points="297.94,-982.35 306.32,-981.08 298.98,-976.85 297.94,-982.35"/>
</a>
</g>
</g>
<!-- i35 -->
<g id="node21" class="node">
<title>i35</title>
<g id="a_node21"><a xlink:href="https://github.com/flyingrobots/echo/issues/35" xlink:title="Key management doc">
<path fill="#f3f4f6" stroke="black" d="M163.15,-1016C163.15,-1016 53.5,-1016 53.5,-1016 47.5,-1016 41.5,-1010 41.5,-1004 41.5,-1004 41.5,-992 41.5,-992 41.5,-986 47.5,-980 53.5,-980 53.5,-980 163.15,-980 163.15,-980 169.15,-980 175.15,-986 175.15,-992 175.15,-992 175.15,-1004 175.15,-1004 175.15,-1010 169.15,-1016 163.15,-1016"/>
<text xml:space="preserve" text-anchor="middle" x="108.33" y="-994.12" font-family="Helvetica,sans-Serif" font-size="10.00">#35\nKey management doc</text>
</a>
</g>
</g>
<!-- i35&#45;&gt;i20 -->
<g id="edge18" class="edge">
<title>i35&#45;&gt;i20</title>
<g id="a_edge18"><a xlink:title="key mgmt doc feeds epic">
<path fill="none" stroke="black" stroke-width="1.4" d="M175.51,-998C211.97,-998 257.92,-998 298.45,-998"/>
<polygon fill="black" stroke="black" stroke-width="1.4" points="298.23,-1000.8 306.23,-998 298.23,-995.2 298.23,-1000.8"/>
</a>
</g>
</g>
<!-- i36 -->
<g id="node22" class="node">
<title>i36</title>
<g id="a_node22"><a xlink:href="https://github.com/flyingrobots/echo/issues/36" xlink:title="CI: verify signatures">
<path fill="#f3f4f6" stroke="black" d="M159.78,-1070C159.78,-1070 56.88,-1070 56.88,-1070 50.88,-1070 44.88,-1064 44.88,-1058 44.88,-1058 44.88,-1046 44.88,-1046 44.88,-1040 50.88,-1034 56.88,-1034 56.88,-1034 159.78,-1034 159.78,-1034 165.78,-1034 171.78,-1040 171.78,-1046 171.78,-1046 171.78,-1058 171.78,-1058 171.78,-1064 165.78,-1070 159.78,-1070"/>
<text xml:space="preserve" text-anchor="middle" x="108.33" y="-1048.12" font-family="Helvetica,sans-Serif" font-size="10.00">#36\nCI: verify signatures</text>
</a>
</g>
</g>
<!-- i36&#45;&gt;i20 -->
<g id="edge19" class="edge">
<title>i36&#45;&gt;i20</title>
<g id="a_edge19"><a xlink:title="ci verify feeds epic">
<path fill="none" stroke="black" stroke-width="1.4" d="M171.93,-1040.22C208.87,-1033.26 256.43,-1024.31 298.24,-1016.44"/>
<polygon fill="black" stroke="black" stroke-width="1.4" points="298.75,-1019.2 306.09,-1014.96 297.71,-1013.69 298.75,-1019.2"/>
</a>
</g>
</g>
<!-- i75 -->
<g id="node23" class="node">
<title>i75</title>
<g id="a_node23"><a xlink:href="https://github.com/flyingrobots/echo/issues/75" xlink:title="Draft hot&#45;reload spec">
<path fill="#f3f4f6" stroke="black" d="M161.28,-1394C161.28,-1394 55.38,-1394 55.38,-1394 49.38,-1394 43.38,-1388 43.38,-1382 43.38,-1382 43.38,-1370 43.38,-1370 43.38,-1364 49.38,-1358 55.38,-1358 55.38,-1358 161.28,-1358 161.28,-1358 167.28,-1358 173.28,-1364 173.28,-1370 173.28,-1370 173.28,-1382 173.28,-1382 173.28,-1388 167.28,-1394 161.28,-1394"/>
<text xml:space="preserve" text-anchor="middle" x="108.33" y="-1372.12" font-family="Helvetica,sans-Serif" font-size="10.00">#75\nDraft hot&#45;reload spec</text>
</a>
</g>
</g>
<!-- i75&#45;&gt;i24 -->
<g id="edge25" class="edge">
<title>i75&#45;&gt;i24</title>
<g id="a_edge25"><a xlink:title="spec feeds epic">
<path fill="none" stroke="black" stroke-width="1.4" d="M173.47,-1357.97C182.64,-1355.12 191.92,-1352.09 200.65,-1349 251.01,-1331.18 307.23,-1307.49 346.42,-1290.33"/>
<polygon fill="black" stroke="black" stroke-width="1.4" points="347.37,-1292.97 353.57,-1287.19 345.12,-1287.85 347.37,-1292.97"/>
</a>
</g>
</g>
<!-- i76 -->
<g id="node24" class="node">
<title>i76</title>
<g id="a_node24"><a xlink:href="https://github.com/flyingrobots/echo/issues/76" xlink:title="File watcher/debounce">
<path fill="#f3f4f6" stroke="black" d="M164.65,-1178C164.65,-1178 52,-1178 52,-1178 46,-1178 40,-1172 40,-1166 40,-1166 40,-1154 40,-1154 40,-1148 46,-1142 52,-1142 52,-1142 164.65,-1142 164.65,-1142 170.65,-1142 176.65,-1148 176.65,-1154 176.65,-1154 176.65,-1166 176.65,-1166 176.65,-1172 170.65,-1178 164.65,-1178"/>
<text xml:space="preserve" text-anchor="middle" x="108.33" y="-1156.12" font-family="Helvetica,sans-Serif" font-size="10.00">#76\nFile watcher/debounce</text>
</a>
</g>
</g>
<!-- i76&#45;&gt;i24 -->
<g id="edge26" class="edge">
<title>i76&#45;&gt;i24</title>
<g id="a_edge26"><a xlink:title="watcher feeds epic">
<path fill="none" stroke="black" stroke-width="1.4" d="M174.94,-1178.49C183.63,-1181.21 192.39,-1184.08 200.65,-1187 251.01,-1204.82 307.23,-1228.51 346.42,-1245.67"/>
<polygon fill="black" stroke="black" stroke-width="1.4" points="345.12,-1248.15 353.57,-1248.81 347.37,-1243.03 345.12,-1248.15"/>
</a>
</g>
</g>
<!-- i77 -->
<g id="node25" class="node">
<title>i77</title>
<g id="a_node25"><a xlink:href="https://github.com/flyingrobots/echo/issues/77" xlink:title="Atomic snapshot swap">
<path fill="#f3f4f6" stroke="black" d="M165.4,-1232C165.4,-1232 51.25,-1232 51.25,-1232 45.25,-1232 39.25,-1226 39.25,-1220 39.25,-1220 39.25,-1208 39.25,-1208 39.25,-1202 45.25,-1196 51.25,-1196 51.25,-1196 165.4,-1196 165.4,-1196 171.4,-1196 177.4,-1202 177.4,-1208 177.4,-1208 177.4,-1220 177.4,-1220 177.4,-1226 171.4,-1232 165.4,-1232"/>
<text xml:space="preserve" text-anchor="middle" x="108.33" y="-1210.12" font-family="Helvetica,sans-Serif" font-size="10.00">#77\nAtomic snapshot swap</text>
</a>
</g>
</g>
<!-- i77&#45;&gt;i24 -->
<g id="edge27" class="edge">
<title>i77&#45;&gt;i24</title>
<g id="a_edge27"><a xlink:title="snapshot swap feeds epic">
<path fill="none" stroke="black" stroke-width="1.4" d="M177.68,-1226.87C213.89,-1233.68 259,-1242.17 298.81,-1249.66"/>
<polygon fill="black" stroke="black" stroke-width="1.4" points="298.08,-1252.38 306.46,-1251.1 299.11,-1246.87 298.08,-1252.38"/>
</a>
</g>
</g>
<!-- i78 -->
<g id="node26" class="node">
<title>i78</title>
<g id="a_node26"><a xlink:href="https://github.com/flyingrobots/echo/issues/78" xlink:title="Editor gate + tests">
<path fill="#f3f4f6" stroke="black" d="M156.03,-1286C156.03,-1286 60.63,-1286 60.63,-1286 54.63,-1286 48.63,-1280 48.63,-1274 48.63,-1274 48.63,-1262 48.63,-1262 48.63,-1256 54.63,-1250 60.63,-1250 60.63,-1250 156.03,-1250 156.03,-1250 162.03,-1250 168.03,-1256 168.03,-1262 168.03,-1262 168.03,-1274 168.03,-1274 168.03,-1280 162.03,-1286 156.03,-1286"/>
<text xml:space="preserve" text-anchor="middle" x="108.33" y="-1264.12" font-family="Helvetica,sans-Serif" font-size="10.00">#78\nEditor gate + tests</text>
</a>
</g>
</g>
<!-- i78&#45;&gt;i24 -->
<g id="edge28" class="edge">
<title>i78&#45;&gt;i24</title>
<g id="a_edge28"><a xlink:title="gate+tests feed epic">
<path fill="none" stroke="black" stroke-width="1.4" d="M168.42,-1268C205.94,-1268 255.38,-1268 298.62,-1268"/>
<polygon fill="black" stroke="black" stroke-width="1.4" points="298.49,-1270.8 306.49,-1268 298.49,-1265.2 298.49,-1270.8"/>
</a>
</g>
</g>
<!-- i79 -->
<g id="node27" class="node">
<title>i79</title>
<g id="a_node27"><a xlink:href="https://github.com/flyingrobots/echo/issues/79" xlink:title="Docs/logging">
<path fill="#f3f4f6" stroke="black" d="M144.03,-1340C144.03,-1340 72.63,-1340 72.63,-1340 66.63,-1340 60.63,-1334 60.63,-1328 60.63,-1328 60.63,-1316 60.63,-1316 60.63,-1310 66.63,-1304 72.63,-1304 72.63,-1304 144.03,-1304 144.03,-1304 150.03,-1304 156.03,-1310 156.03,-1316 156.03,-1316 156.03,-1328 156.03,-1328 156.03,-1334 150.03,-1340 144.03,-1340"/>
<text xml:space="preserve" text-anchor="middle" x="108.33" y="-1318.12" font-family="Helvetica,sans-Serif" font-size="10.00">#79\nDocs/logging</text>
</a>
</g>
</g>
<!-- i79&#45;&gt;i24 -->
<g id="edge29" class="edge">
<title>i79&#45;&gt;i24</title>
<g id="a_edge29"><a xlink:title="docs/logging feed epic">
<path fill="none" stroke="black" stroke-width="1.4" d="M156.38,-1313.14C194.9,-1305.89 250.68,-1295.39 298.75,-1286.35"/>
<polygon fill="black" stroke="black" stroke-width="1.4" points="299.14,-1289.12 306.49,-1284.89 298.11,-1283.62 299.14,-1289.12"/>
</a>
</g>
</g>
<!-- i80 -->
<g id="node28" class="node">
<title>i80</title>
<g id="a_node28"><a xlink:href="https://github.com/flyingrobots/echo/issues/80" xlink:title="Draft importer spec">
<path fill="#f3f4f6" stroke="black" d="M446.43,-1527C446.43,-1527 348.03,-1527 348.03,-1527 342.03,-1527 336.03,-1521 336.03,-1515 336.03,-1515 336.03,-1503 336.03,-1503 336.03,-1497 342.03,-1491 348.03,-1491 348.03,-1491 446.43,-1491 446.43,-1491 452.43,-1491 458.43,-1497 458.43,-1503 458.43,-1503 458.43,-1515 458.43,-1515 458.43,-1521 452.43,-1527 446.43,-1527"/>
<text xml:space="preserve" text-anchor="middle" x="397.23" y="-1505.12" font-family="Helvetica,sans-Serif" font-size="10.00">#80\nDraft importer spec</text>
</a>
</g>
</g>
<!-- i80&#45;&gt;i25 -->
<g id="edge30" class="edge">
<title>i80&#45;&gt;i25</title>
<g id="a_edge30"><a xlink:title="spec feeds epic">
<path fill="none" stroke="black" stroke-width="1.4" d="M458.77,-1509C519.67,-1509 614.73,-1509 687.63,-1509"/>
<polygon fill="black" stroke="black" stroke-width="1.4" points="687.19,-1511.8 695.19,-1509 687.19,-1506.2 687.19,-1511.8"/>
</a>
</g>
</g>
<!-- i81 -->
<g id="node29" class="node">
<title>i81</title>
<g id="a_node29"><a xlink:href="https://github.com/flyingrobots/echo/issues/81" xlink:title="Minimal reader">
<path fill="#f3f4f6" stroke="black" d="M147.4,-1556C147.4,-1556 69.25,-1556 69.25,-1556 63.25,-1556 57.25,-1550 57.25,-1544 57.25,-1544 57.25,-1532 57.25,-1532 57.25,-1526 63.25,-1520 69.25,-1520 69.25,-1520 147.4,-1520 147.4,-1520 153.4,-1520 159.4,-1526 159.4,-1532 159.4,-1532 159.4,-1544 159.4,-1544 159.4,-1550 153.4,-1556 147.4,-1556"/>
<text xml:space="preserve" text-anchor="middle" x="108.33" y="-1534.12" font-family="Helvetica,sans-Serif" font-size="10.00">#81\nMinimal reader</text>
</a>
</g>
</g>
<!-- i81&#45;&gt;i25 -->
<g id="edge35" class="edge">
<title>i81&#45;&gt;i25</title>
<g id="a_edge35"><a xlink:title="reader likely part of epic">
<path fill="none" stroke="#666666" stroke-width="1.2" stroke-dasharray="5,2" d="M159.71,-1539.67C243.9,-1542.03 418.48,-1545.11 565.8,-1536 605.79,-1533.53 649.56,-1528.76 687.81,-1523.91"/>
<polygon fill="#666666" stroke="#666666" stroke-width="1.2" points="688.03,-1526.71 695.61,-1522.91 687.32,-1521.15 688.03,-1526.71"/>
</a>
</g>
</g>
<!-- i81&#45;&gt;i80 -->
<g id="edge31" class="edge">
<title>i81&#45;&gt;i80</title>
<g id="a_edge31"><a xlink:title="reader depends on spec">
<path fill="none" stroke="black" stroke-width="1.4" d="M159.63,-1532.92C205.65,-1528.26 274.22,-1521.33 325.71,-1516.13"/>
<polygon fill="black" stroke="black" stroke-width="1.4" points="325.98,-1518.91 333.66,-1515.32 325.42,-1513.34 325.98,-1518.91"/>
</a>
</g>
</g>
<!-- i82 -->
<g id="node30" class="node">
<title>i82</title>
<g id="a_node30"><a xlink:href="https://github.com/flyingrobots/echo/issues/82" xlink:title="Echo store loader">
<path fill="#f3f4f6" stroke="black" d="M153.78,-1610C153.78,-1610 62.88,-1610 62.88,-1610 56.88,-1610 50.88,-1604 50.88,-1598 50.88,-1598 50.88,-1586 50.88,-1586 50.88,-1580 56.88,-1574 62.88,-1574 62.88,-1574 153.78,-1574 153.78,-1574 159.78,-1574 165.78,-1580 165.78,-1586 165.78,-1586 165.78,-1598 165.78,-1598 165.78,-1604 159.78,-1610 153.78,-1610"/>
<text xml:space="preserve" text-anchor="middle" x="108.33" y="-1588.12" font-family="Helvetica,sans-Serif" font-size="10.00">#82\nEcho store loader</text>
</a>
</g>
</g>
<!-- i82&#45;&gt;i25 -->
<g id="edge36" class="edge">
<title>i82&#45;&gt;i25</title>
<g id="a_edge36"><a xlink:title="loader likely part of epic">
<path fill="none" stroke="#666666" stroke-width="1.2" stroke-dasharray="5,2" d="M166,-1586.94C252.41,-1579.03 422.18,-1562.69 565.8,-1544 605.72,-1538.81 649.48,-1532.22 687.74,-1526.16"/>
<polygon fill="#666666" stroke="#666666" stroke-width="1.2" points="688.08,-1528.94 695.54,-1524.92 687.2,-1523.41 688.08,-1528.94"/>
</a>
</g>
</g>
<!-- i82&#45;&gt;i80 -->
<g id="edge32" class="edge">
<title>i82&#45;&gt;i80</title>
<g id="a_edge32"><a xlink:title="loader depends on spec">
<path fill="none" stroke="black" stroke-width="1.4" d="M166.01,-1575.6C211.94,-1562.31 276.87,-1543.53 326.08,-1529.29"/>
<polygon fill="black" stroke="black" stroke-width="1.4" points="326.76,-1532.01 333.66,-1527.1 325.2,-1526.63 326.76,-1532.01"/>
</a>
</g>
</g>
<!-- i83 -->
<g id="node31" class="node">
<title>i83</title>
<g id="a_node31"><a xlink:href="https://github.com/flyingrobots/echo/issues/83" xlink:title="Integrity verification">
<path fill="#f3f4f6" stroke="black" d="M158.28,-1448C158.28,-1448 58.38,-1448 58.38,-1448 52.38,-1448 46.38,-1442 46.38,-1436 46.38,-1436 46.38,-1424 46.38,-1424 46.38,-1418 52.38,-1412 58.38,-1412 58.38,-1412 158.28,-1412 158.28,-1412 164.28,-1412 170.28,-1418 170.28,-1424 170.28,-1424 170.28,-1436 170.28,-1436 170.28,-1442 164.28,-1448 158.28,-1448"/>
<text xml:space="preserve" text-anchor="middle" x="108.33" y="-1426.12" font-family="Helvetica,sans-Serif" font-size="10.00">#83\nIntegrity verification</text>
</a>
</g>
</g>
<!-- i83&#45;&gt;i25 -->
<g id="edge37" class="edge">
<title>i83&#45;&gt;i25</title>
<g id="a_edge37"><a xlink:title="integrity likely part of epic">
<path fill="none" stroke="#666666" stroke-width="1.2" stroke-dasharray="5,2" d="M170.73,-1434.78C258.5,-1441.88 424.79,-1456.27 565.8,-1474 605.74,-1479.02 649.51,-1485.57 687.76,-1491.65"/>
<polygon fill="#666666" stroke="#666666" stroke-width="1.2" points="687.23,-1494.4 695.57,-1492.89 688.11,-1488.87 687.23,-1494.4"/>
</a>
</g>
</g>
<!-- i83&#45;&gt;i80 -->
<g id="edge33" class="edge">
<title>i83&#45;&gt;i80</title>
<g id="a_edge33"><a xlink:title="integrity depends on spec">
<path fill="none" stroke="black" stroke-width="1.4" d="M170.52,-1446.85C216.09,-1459.4 278.39,-1476.55 326,-1489.66"/>
<polygon fill="black" stroke="black" stroke-width="1.4" points="325.12,-1492.32 333.57,-1491.75 326.6,-1486.93 325.12,-1492.32"/>
</a>
</g>
</g>
<!-- i84 -->
<g id="node32" class="node">
<title>i84</title>
<g id="a_node32"><a xlink:href="https://github.com/flyingrobots/echo/issues/84" xlink:title="Sample + tests">
<path fill="#f3f4f6" stroke="black" d="M148.9,-1502C148.9,-1502 67.75,-1502 67.75,-1502 61.75,-1502 55.75,-1496 55.75,-1490 55.75,-1490 55.75,-1478 55.75,-1478 55.75,-1472 61.75,-1466 67.75,-1466 67.75,-1466 148.9,-1466 148.9,-1466 154.9,-1466 160.9,-1472 160.9,-1478 160.9,-1478 160.9,-1490 160.9,-1490 160.9,-1496 154.9,-1502 148.9,-1502"/>
<text xml:space="preserve" text-anchor="middle" x="108.33" y="-1480.12" font-family="Helvetica,sans-Serif" font-size="10.00">#84\nSample + tests</text>
</a>
</g>
</g>
<!-- i84&#45;&gt;i25 -->
<g id="edge38" class="edge">
<title>i84&#45;&gt;i25</title>
<g id="a_edge38"><a xlink:title="sample+tests likely part of epic">
<path fill="none" stroke="#666666" stroke-width="1.2" stroke-dasharray="5,2" d="M161.3,-1482.94C182.23,-1482.56 206.58,-1482.18 228.65,-1482 378.49,-1480.74 416.22,-1473.08 565.8,-1482 605.79,-1484.39 649.57,-1489.13 687.82,-1493.99"/>
<polygon fill="#666666" stroke="#666666" stroke-width="1.2" points="687.32,-1496.75 695.61,-1495 688.04,-1491.2 687.32,-1496.75"/>
</a>
</g>
</g>
<!-- i84&#45;&gt;i80 -->
<g id="edge34" class="edge">
<title>i84&#45;&gt;i80</title>
<g id="a_edge34"><a xlink:title="sample+tests depends on spec">
<path fill="none" stroke="black" stroke-width="1.4" d="M161.28,-1488.53C207.3,-1492.54 274.89,-1498.43 325.77,-1502.86"/>
<polygon fill="black" stroke="black" stroke-width="1.4" points="325.39,-1505.64 333.6,-1503.54 325.87,-1500.06 325.39,-1505.64"/>
</a>
</g>
</g>
<!-- i23 -->
<g id="node33" class="node">
<title>i23</title>
<g id="a_node33"><a xlink:href="https://github.com/flyingrobots/echo/issues/23" xlink:title="CLI: verify/bench/inspect">
<path fill="#fef9c3" stroke="black" d="M459.18,-1805C459.18,-1805 335.28,-1805 335.28,-1805 329.28,-1805 323.28,-1799 323.28,-1793 323.28,-1793 323.28,-1781 323.28,-1781 323.28,-1775 329.28,-1769 335.28,-1769 335.28,-1769 459.18,-1769 459.18,-1769 465.18,-1769 471.18,-1775 471.18,-1781 471.18,-1781 471.18,-1793 471.18,-1793 471.18,-1799 465.18,-1805 459.18,-1805"/>
<text xml:space="preserve" text-anchor="middle" x="397.23" y="-1783.12" font-family="Helvetica,sans-Serif" font-size="10.00">#23\nCLI: verify/bench/inspect</text>
</a>
</g>
</g>
<!-- i47 -->
<g id="node34" class="node">
<title>i47</title>
<g id="a_node34"><a xlink:href="https://github.com/flyingrobots/echo/issues/47" xlink:title="Scaffold CLI subcommands">
<path fill="#fef9c3" stroke="black" d="M176.28,-1805C176.28,-1805 40.38,-1805 40.38,-1805 34.38,-1805 28.38,-1799 28.38,-1793 28.38,-1793 28.38,-1781 28.38,-1781 28.38,-1775 34.38,-1769 40.38,-1769 40.38,-1769 176.28,-1769 176.28,-1769 182.28,-1769 188.28,-1775 188.28,-1781 188.28,-1781 188.28,-1793 188.28,-1793 188.28,-1799 182.28,-1805 176.28,-1805"/>
<text xml:space="preserve" text-anchor="middle" x="108.33" y="-1783.12" font-family="Helvetica,sans-Serif" font-size="10.00">#47\nScaffold CLI subcommands</text>
</a>
</g>
</g>
<!-- i47&#45;&gt;i23 -->
<g id="edge20" class="edge">
<title>i47&#45;&gt;i23</title>
<g id="a_edge20"><a xlink:title="scaffold feeds epic">
<path fill="none" stroke="black" stroke-width="1.4" d="M188.48,-1787C227.24,-1787 273.89,-1787 313.15,-1787"/>
<polygon fill="black" stroke="black" stroke-width="1.4" points="313.11,-1789.8 321.11,-1787 313.11,-1784.2 313.11,-1789.8"/>
</a>
</g>
</g>
<!-- i48 -->
<g id="node35" class="node">
<title>i48</title>
<g id="a_node35"><a xlink:href="https://github.com/flyingrobots/echo/issues/48" xlink:title="Implement &#39;verify&#39;">
<path fill="#fef9c3" stroke="black" d="M154.15,-1859C154.15,-1859 62.5,-1859 62.5,-1859 56.5,-1859 50.5,-1853 50.5,-1847 50.5,-1847 50.5,-1835 50.5,-1835 50.5,-1829 56.5,-1823 62.5,-1823 62.5,-1823 154.15,-1823 154.15,-1823 160.15,-1823 166.15,-1829 166.15,-1835 166.15,-1835 166.15,-1847 166.15,-1847 166.15,-1853 160.15,-1859 154.15,-1859"/>
<text xml:space="preserve" text-anchor="middle" x="108.33" y="-1837.12" font-family="Helvetica,sans-Serif" font-size="10.00">#48\nImplement &#39;verify&#39;</text>
</a>
</g>
</g>
<!-- i48&#45;&gt;i23 -->
<g id="edge21" class="edge">
<title>i48&#45;&gt;i23</title>
<g id="a_edge21"><a xlink:title="verify subcommand feeds epic">
<path fill="none" stroke="black" stroke-width="1.4" d="M166.35,-1830.27C208.31,-1822.37 265.98,-1811.51 313.07,-1802.65"/>
<polygon fill="black" stroke="black" stroke-width="1.4" points="313.52,-1805.42 320.86,-1801.18 312.48,-1799.91 313.52,-1805.42"/>
</a>
</g>
</g>
<!-- i49 -->
<g id="node36" class="node">
<title>i49</title>
<g id="a_node36"><a xlink:href="https://github.com/flyingrobots/echo/issues/49" xlink:title="Implement &#39;bench&#39;">
<path fill="#fef9c3" stroke="black" d="M155.28,-1913C155.28,-1913 61.38,-1913 61.38,-1913 55.38,-1913 49.38,-1907 49.38,-1901 49.38,-1901 49.38,-1889 49.38,-1889 49.38,-1883 55.38,-1877 61.38,-1877 61.38,-1877 155.28,-1877 155.28,-1877 161.28,-1877 167.28,-1883 167.28,-1889 167.28,-1889 167.28,-1901 167.28,-1901 167.28,-1907 161.28,-1913 155.28,-1913"/>
<text xml:space="preserve" text-anchor="middle" x="108.33" y="-1891.12" font-family="Helvetica,sans-Serif" font-size="10.00">#49\nImplement &#39;bench&#39;</text>
</a>
</g>
</g>
<!-- i49&#45;&gt;i23 -->
<g id="edge22" class="edge">
<title>i49&#45;&gt;i23</title>
<g id="a_edge22"><a xlink:title="bench subcommand feeds epic">
<path fill="none" stroke="black" stroke-width="1.4" d="M167.59,-1878.77C178.64,-1875.41 190.05,-1871.75 200.65,-1868 251.01,-1850.18 307.23,-1826.49 346.42,-1809.33"/>
<polygon fill="black" stroke="black" stroke-width="1.4" points="347.37,-1811.97 353.57,-1806.19 345.12,-1806.85 347.37,-1811.97"/>
</a>
</g>
</g>
<!-- i50 -->
<g id="node37" class="node">
<title>i50</title>
<g id="a_node37"><a xlink:href="https://github.com/flyingrobots/echo/issues/50" xlink:title="Implement &#39;inspect&#39;">
<path fill="#fef9c3" stroke="black" d="M157.9,-1697C157.9,-1697 58.75,-1697 58.75,-1697 52.75,-1697 46.75,-1691 46.75,-1685 46.75,-1685 46.75,-1673 46.75,-1673 46.75,-1667 52.75,-1661 58.75,-1661 58.75,-1661 157.9,-1661 157.9,-1661 163.9,-1661 169.9,-1667 169.9,-1673 169.9,-1673 169.9,-1685 169.9,-1685 169.9,-1691 163.9,-1697 157.9,-1697"/>
<text xml:space="preserve" text-anchor="middle" x="108.33" y="-1675.12" font-family="Helvetica,sans-Serif" font-size="10.00">#50\nImplement &#39;inspect&#39;</text>
</a>
</g>
</g>
<!-- i50&#45;&gt;i23 -->
<g id="edge23" class="edge">
<title>i50&#45;&gt;i23</title>
<g id="a_edge23"><a xlink:title="inspect subcommand feeds epic">
<path fill="none" stroke="black" stroke-width="1.4" d="M170.04,-1695.98C180.31,-1699.13 190.83,-1702.53 200.65,-1706 251.01,-1723.82 307.23,-1747.51 346.42,-1764.67"/>
<polygon fill="black" stroke="black" stroke-width="1.4" points="345.12,-1767.15 353.57,-1767.81 347.37,-1762.03 345.12,-1767.15"/>
</a>
</g>
</g>
<!-- i51 -->
<g id="node38" class="node">
<title>i51</title>
<g id="a_node38"><a xlink:href="https://github.com/flyingrobots/echo/issues/51" xlink:title="Docs/man pages">
<path fill="#fef9c3" stroke="black" d="M152.65,-1751C152.65,-1751 64,-1751 64,-1751 58,-1751 52,-1745 52,-1739 52,-1739 52,-1727 52,-1727 52,-1721 58,-1715 64,-1715 64,-1715 152.65,-1715 152.65,-1715 158.65,-1715 164.65,-1721 164.65,-1727 164.65,-1727 164.65,-1739 164.65,-1739 164.65,-1745 158.65,-1751 152.65,-1751"/>
<text xml:space="preserve" text-anchor="middle" x="108.33" y="-1729.12" font-family="Helvetica,sans-Serif" font-size="10.00">#51\nDocs/man pages</text>
</a>
</g>
</g>
<!-- i51&#45;&gt;i23 -->
<g id="edge24" class="edge">
<title>i51&#45;&gt;i23</title>
<g id="a_edge24"><a xlink:title="docs/man pages feed epic">
<path fill="none" stroke="black" stroke-width="1.4" d="M164.98,-1743.48C207.06,-1751.4 265.51,-1762.4 313.12,-1771.36"/>
<polygon fill="black" stroke="black" stroke-width="1.4" points="312.33,-1774.06 320.71,-1772.79 313.37,-1768.56 312.33,-1774.06"/>
</a>
</g>
</g>
<!-- i166 -->
<g id="node40" class="node">
<title>i166</title>
<g id="a_node40"><a xlink:href="https://github.com/flyingrobots/echo/issues/166" xlink:title="TT0: Time model spec lock (TimeStreams + admission digests)">
<path fill="#dbeafe" stroke="black" d="M545.8,-182C545.8,-182 248.65,-182 248.65,-182 242.65,-182 236.65,-176 236.65,-170 236.65,-170 236.65,-158 236.65,-158 236.65,-152 242.65,-146 248.65,-146 248.65,-146 545.8,-146 545.8,-146 551.8,-146 557.8,-152 557.8,-158 557.8,-158 557.8,-170 557.8,-170 557.8,-176 551.8,-182 545.8,-182"/>
<text xml:space="preserve" text-anchor="middle" x="397.23" y="-160.12" font-family="Helvetica,sans-Serif" font-size="10.00">#166\nTT0: Time model spec lock (TimeStreams + admission digests)</text>
</a>
</g>
</g>
<!-- i166&#45;&gt;i173 -->
<g id="edge9" class="edge">
<title>i166&#45;&gt;i173</title>
<g id="a_edge9"><a xlink:title="time model spec lock likely required">
<path fill="none" stroke="#666666" stroke-width="1.2" stroke-dasharray="5,2" d="M495.42,-182.41C520.58,-190.86 546.1,-203.15 565.8,-221 581.72,-235.42 572.34,-248.26 585.8,-265 631.58,-321.96 702.98,-369.12 748.41,-395.67"/>
<polygon fill="#666666" stroke="#666666" stroke-width="1.2" points="746.96,-398.07 755.28,-399.64 749.76,-393.22 746.96,-398.07"/>
</a>
</g>
</g>
<!-- i170 -->
<g id="node41" class="node">
<title>i170</title>
<g id="a_node41"><a xlink:href="https://github.com/flyingrobots/echo/issues/170" xlink:title="TT1: StreamsFrame inspector support (backlog + cursors + admission decisions)">
<path fill="#dbeafe" stroke="black" d="M978.7,-226C978.7,-226 605.8,-226 605.8,-226 599.8,-226 593.8,-220 593.8,-214 593.8,-214 593.8,-202 593.8,-202 593.8,-196 599.8,-190 605.8,-190 605.8,-190 978.7,-190 978.7,-190 984.7,-190 990.7,-196 990.7,-202 990.7,-202 990.7,-214 990.7,-214 990.7,-220 984.7,-226 978.7,-226"/>
<text xml:space="preserve" text-anchor="middle" x="792.25" y="-204.12" font-family="Helvetica,sans-Serif" font-size="10.00">#170\nTT1: StreamsFrame inspector support (backlog + cursors + admission decisions)</text>
</a>
</g>
</g>
<!-- i166&#45;&gt;i170 -->
<g id="edge3" class="edge">
<title>i166&#45;&gt;i170</title>
<g id="a_edge3"><a xlink:title="TT0 &#45;&gt; TT1">
<path fill="none" stroke="black" stroke-width="1.4" d="M558.08,-181.9C577.26,-184.04 596.93,-186.25 616.31,-188.41"/>
<polygon fill="black" stroke="black" stroke-width="1.4" points="615.73,-191.17 624,-189.28 616.36,-185.6 615.73,-191.17"/>
</a>
</g>
</g>
<!-- i172 -->
<g id="node43" class="node">
<title>i172</title>
<g id="a_node43"><a xlink:href="https://github.com/flyingrobots/echo/issues/172" xlink:title="TT3: Rulial diff / worldline compare MVP">
<path fill="#dbeafe" stroke="black" d="M890.58,-139C890.58,-139 693.92,-139 693.92,-139 687.92,-139 681.92,-133 681.92,-127 681.92,-127 681.92,-115 681.92,-115 681.92,-109 687.92,-103 693.92,-103 693.92,-103 890.58,-103 890.58,-103 896.58,-103 902.58,-109 902.58,-115 902.58,-115 902.58,-127 902.58,-127 902.58,-133 896.58,-139 890.58,-139"/>
<text xml:space="preserve" text-anchor="middle" x="792.25" y="-117.12" font-family="Helvetica,sans-Serif" font-size="10.00">#172\nTT3: Rulial diff / worldline compare MVP</text>
</a>
</g>
</g>
<!-- i166&#45;&gt;i172 -->
<g id="edge5" class="edge">
<title>i166&#45;&gt;i172</title>
<g id="a_edge5"><a xlink:title="TT0 &#45;&gt; TT3">
<path fill="none" stroke="black" stroke-width="1.4" d="M558.08,-146.51C595.96,-142.37 635.73,-138.02 671.47,-134.1"/>
<polygon fill="black" stroke="black" stroke-width="1.4" points="671.69,-136.9 679.34,-133.24 671.08,-131.33 671.69,-136.9"/>
</a>
</g>
</g>
<!-- i171 -->
<g id="node42" class="node">
<title>i171</title>
<g id="a_node42"><a xlink:href="https://github.com/flyingrobots/echo/issues/171" xlink:title="TT2: Time Travel MVP (pause/rewind/buffer/catch&#45;up)">
<path fill="#dbeafe" stroke="black" d="M1293.1,-226C1293.1,-226 1038.7,-226 1038.7,-226 1032.7,-226 1026.7,-220 1026.7,-214 1026.7,-214 1026.7,-202 1026.7,-202 1026.7,-196 1032.7,-190 1038.7,-190 1038.7,-190 1293.1,-190 1293.1,-190 1299.1,-190 1305.1,-196 1305.1,-202 1305.1,-202 1305.1,-214 1305.1,-214 1305.1,-220 1299.1,-226 1293.1,-226"/>
<text xml:space="preserve" text-anchor="middle" x="1165.9" y="-204.12" font-family="Helvetica,sans-Serif" font-size="10.00">#171\nTT2: Time Travel MVP (pause/rewind/buffer/catch&#45;up)</text>
</a>
</g>
</g>
<!-- i170&#45;&gt;i171 -->
<g id="edge4" class="edge">
<title>i170&#45;&gt;i171</title>
<g id="a_edge4"><a xlink:title="TT1 &#45;&gt; TT2 (explicit)">
<path fill="none" stroke="black" stroke-width="1.4" d="M991.04,-208C999.49,-208 1007.9,-208 1016.2,-208"/>
<polygon fill="black" stroke="black" stroke-width="1.4" points="1016.16,-210.8 1024.16,-208 1016.16,-205.2 1016.16,-210.8"/>
</a>
</g>
</g>
<!-- i174 -->
<g id="node44" class="node">
<title>i174</title>
<g id="a_node44"><a xlink:href="https://github.com/flyingrobots/echo/issues/174" xlink:title="W1: Wesley as a boundary grammar (hashable view artifacts)">
<path fill="#ccfbf1" stroke="black" d="M541.3,-269C541.3,-269 253.15,-269 253.15,-269 247.15,-269 241.15,-263 241.15,-257 241.15,-257 241.15,-245 241.15,-245 241.15,-239 247.15,-233 253.15,-233 253.15,-233 541.3,-233 541.3,-233 547.3,-233 553.3,-239 553.3,-245 553.3,-245 553.3,-257 553.3,-257 553.3,-263 547.3,-269 541.3,-269"/>
<text xml:space="preserve" text-anchor="middle" x="397.23" y="-247.12" font-family="Helvetica,sans-Serif" font-size="10.00">#174\nW1: Wesley as a boundary grammar (hashable view artifacts)</text>
</a>
</g>
</g>
<!-- i174&#45;&gt;i173 -->
<g id="edge10" class="edge">
<title>i174&#45;&gt;i173</title>
<g id="a_edge10"><a xlink:title="Wesley grammar maybe required">
<path fill="none" stroke="#b3b3b3" stroke-width="1.2" stroke-dasharray="1,5" d="M458.64,-269.46C490.83,-279.81 530.88,-293.54 565.8,-308 631.17,-335.08 704.2,-372.4 748.95,-396.12"/>
<polygon fill="#b3b3b3" stroke="#b3b3b3" stroke-width="1.2" points="747.53,-398.53 755.91,-399.82 750.16,-393.59 747.53,-398.53"/>
</a>
</g>
</g>
</g>
</svg>
