<?xml version="1.0" encoding="UTF-8" standalone="no"?>
<!DOCTYPE svg PUBLIC "-//W3C//DTD SVG 1.1//EN"
 "http://www.w3.org/Graphics/SVG/1.1/DTD/svg11.dtd">
<!-- Generated by graphviz version 14.1.2 (20260124.0452)
 -->
<!-- Title: echo_milestone_dependencies Pages: 1 -->
<svg width="642pt" height="409pt"
 viewBox="0.00 0.00 642.00 409.00" xmlns="http://www.w3.org/2000/svg" xmlns:xlink="http://www.w3.org/1999/xlink">
<g id="graph0" class="graph" transform="scale(1 1) rotate(0) translate(4 405)">
<title>echo_milestone_dependencies</title>
<polygon fill="white" stroke="none" points="-4,4 -4,-405 638,-405 638,4 -4,4"/>
<text xml:space="preserve" text-anchor="middle" x="317" y="-379.9" font-family="Helvetica,sans-Serif" font-size="18.00">Echo — Milestone Dependency Sketch</text>
<text xml:space="preserve" text-anchor="middle" x="317" y="-361.15" font-family="Helvetica,sans-Serif" font-size="18.00">Edge direction: prerequisite → dependent (do tail before head)</text>
<text xml:space="preserve" text-anchor="middle" x="317" y="-338.65" font-family="Helvetica,sans-Serif" font-size="18.00">Edge styles encode confidence (solid=strong, dashed=medium, dotted=weak).</text>
<g id="clust1" class="cluster">
<title>cluster_legend</title>
<path fill="none" stroke="#b3b3b3" d="M113.17,-8C113.17,-8 589.53,-8 589.53,-8 595.53,-8 601.53,-14 601.53,-20 601.53,-20 601.53,-75 601.53,-75 601.53,-81 595.53,-87 589.53,-87 589.53,-87 113.17,-87 113.17,-87 107.17,-87 101.17,-81 101.17,-75 101.17,-75 101.17,-20 101.17,-20 101.17,-14 107.17,-8 113.17,-8"/>
<text xml:space="preserve" text-anchor="middle" x="351.35" y="-65.9" font-family="Helvetica,sans-Serif" font-size="18.00" fill="#4d4d4d">Legend</text>
</g>
<!-- L1 -->
<g id="node1" class="node">
<title>L1</title>
<path fill="#ffffff" stroke="black" d="M151.17,-52C151.17,-52 121.17,-52 121.17,-52 115.17,-52 109.17,-46 109.17,-40 109.17,-40 109.17,-28 109.17,-28 109.17,-22 115.17,-16 121.17,-16 121.17,-16 151.17,-16 151.17,-16 157.17,-16 163.17,-22 163.17,-28 163.17,-28 163.17,-40 163.17,-40 163.17,-46 157.17,-52 151.17,-52"/>
<text xml:space="preserve" text-anchor="middle" x="136.17" y="-28.98" font-family="Helvetica,sans-Serif" font-size="12.00">strong</text>
</g>
<!-- L2 -->
<g id="node2" class="node">
<title>L2</title>
<path fill="#ffffff" stroke="black" d="M413.16,-52C413.16,-52 374.25,-52 374.25,-52 368.25,-52 362.25,-46 362.25,-40 362.25,-40 362.25,-28 362.25,-28 362.25,-22 368.25,-16 374.25,-16 374.25,-16 413.16,-16 413.16,-16 419.16,-16 425.16,-22 425.16,-28 425.16,-28 425.16,-40 425.16,-40 425.16,-46 419.16,-52 413.16,-52"/>
<text xml:space="preserve" text-anchor="middle" x="393.7" y="-28.98" font-family="Helvetica,sans-Serif" font-size="12.00">medium</text>
</g>
<!-- L1&#45;&gt;L2 -->
<g id="edge1" class="edge">
<title>L1&#45;&gt;L2</title>
<path fill="none" stroke="black" stroke-width="1.4" d="M163.55,-34C211.25,-34 311.53,-34 362.13,-34"/>
</g>
<!-- L3 -->
<g id="node3" class="node">
<title>L3</title>
<path fill="#ffffff" stroke="black" d="M581.53,-52C581.53,-52 551.53,-52 551.53,-52 545.53,-52 539.53,-46 539.53,-40 539.53,-40 539.53,-28 539.53,-28 539.53,-22 545.53,-16 551.53,-16 551.53,-16 581.53,-16 581.53,-16 587.53,-16 593.53,-22 593.53,-28 593.53,-28 593.53,-40 593.53,-40 593.53,-46 587.53,-52 581.53,-52"/>
<text xml:space="preserve" text-anchor="middle" x="566.53" y="-28.98" font-family="Helvetica,sans-Serif" font-size="12.00">weak</text>
</g>
<!-- L2&#45;&gt;L3 -->
<g id="edge2" class="edge">
<title>L2&#45;&gt;L3</title>
<path fill="none" stroke="#666666" stroke-width="1.2" stroke-dasharray="5,2" d="M425.64,-34C458.14,-34 508.7,-34 539.31,-34"/>
</g>
<!-- m1C -->
<g id="node4" class="node">
<title>m1C</title>
<g id="a_node4"><a xlink:href="https://github.com/flyingrobots/echo/milestone/3" xlink:title="1C – Rhai/TS Bindings">
<path fill="#dcfce7" stroke="black" d="M195.75,-333C195.75,-333 76.59,-333 76.59,-333 70.59,-333 64.59,-327 64.59,-321 64.59,-321 64.59,-309 64.59,-309 64.59,-303 70.59,-297 76.59,-297 76.59,-297 195.75,-297 195.75,-297 201.75,-297 207.75,-303 207.75,-309 207.75,-309 207.75,-321 207.75,-321 207.75,-327 201.75,-333 195.75,-333"/>
<text xml:space="preserve" text-anchor="middle" x="136.17" y="-309.98" font-family="Helvetica,sans-Serif" font-size="12.00">1C – Rhai/TS Bindings</text>
</a>
</g>
</g>
<!-- mS1 -->
<g id="node6" class="node">
<title>mS1</title>
<g id="a_node6"><a xlink:href="https://github.com/flyingrobots/echo/milestone/18" xlink:title="S1 – Deterministic Rhai Surface">
<path fill="#ede9fe" stroke="black" d="M476.91,-266C476.91,-266 310.5,-266 310.5,-266 304.5,-266 298.5,-260 298.5,-254 298.5,-254 298.5,-242 298.5,-242 298.5,-236 304.5,-230 310.5,-230 310.5,-230 476.91,-230 476.91,-230 482.91,-230 488.91,-236 488.91,-242 488.91,-242 488.91,-254 488.91,-254 488.91,-260 482.91,-266 476.91,-266"/>
<text xml:space="preserve" text-anchor="middle" x="393.7" y="-242.97" font-family="Helvetica,sans-Serif" font-size="12.00">S1 – Deterministic Rhai Surface</text>
</a>
</g>
</g>
<!-- m1C&#45;&gt;mS1 -->
<g id="edge5" class="edge">
<title>m1C&#45;&gt;mS1</title>
<g id="a_edge5"><a xlink:title="bindings needed for deterministic Rhai">
<path fill="none" stroke="black" stroke-width="1.4" d="M208.12,-298.03C221.35,-294.77 235.05,-291.34 247.88,-288 270.74,-282.06 295.55,-275.31 318.07,-269.08"/>
<polygon fill="black" stroke="black" stroke-width="1.4" points="318.57,-271.84 325.53,-267.01 317.07,-266.45 318.57,-271.84"/>
</a>
</g>
</g>
<!-- m1E -->
<g id="node5" class="node">
<title>m1E</title>
<g id="a_node5"><a xlink:href="https://github.com/flyingrobots/echo/milestone/5" xlink:title="1E – Networking &amp; Confluence MVP">
<path fill="#ffedd5" stroke="black" d="M231,-279C231,-279 41.34,-279 41.34,-279 35.34,-279 29.34,-273 29.34,-267 29.34,-267 29.34,-255 29.34,-255 29.34,-249 35.34,-243 41.34,-243 41.34,-243 231,-243 231,-243 237,-243 243,-249 243,-255 243,-255 243,-267 243,-267 243,-273 237,-279 231,-279"/>
<text xml:space="preserve" text-anchor="middle" x="136.17" y="-255.97" font-family="Helvetica,sans-Serif" font-size="12.00">1E – Networking &amp; Confluence MVP</text>
</a>
</g>
</g>
<!-- m1E&#45;&gt;mS1 -->
<g id="edge6" class="edge">
<title>m1E&#45;&gt;mS1</title>
<g id="a_edge6"><a xlink:title="security contexts constrain sandbox">
<path fill="none" stroke="black" stroke-width="1.4" d="M243.32,-255.6C258.28,-254.84 273.65,-254.06 288.57,-253.3"/>
<polygon fill="black" stroke="black" stroke-width="1.4" points="288.34,-256.11 296.19,-252.91 288.06,-250.52 288.34,-256.11"/>
</a>
</g>
</g>
<!-- mTT0 -->
<g id="node7" class="node">
<title>mTT0</title>
<g id="a_node7"><a xlink:href="https://github.com/flyingrobots/echo/milestone/21" xlink:title="TT0 – Time Model Spec Lock">
<path fill="#dbeafe" stroke="black" d="M211.88,-171C211.88,-171 60.47,-171 60.47,-171 54.47,-171 48.47,-165 48.47,-159 48.47,-159 48.47,-147 48.47,-147 48.47,-141 54.47,-135 60.47,-135 60.47,-135 211.88,-135 211.88,-135 217.87,-135 223.88,-141 223.88,-147 223.88,-147 223.88,-159 223.88,-159 223.88,-165 217.88,-171 211.88,-171"/>
<text xml:space="preserve" text-anchor="middle" x="136.17" y="-147.97" font-family="Helvetica,sans-Serif" font-size="12.00">TT0 – Time Model Spec Lock</text>
</a>
</g>
</g>
<!-- mTT0&#45;&gt;mS1 -->
<g id="edge7" class="edge">
<title>mTT0&#45;&gt;mS1</title>
<g id="a_edge7"><a xlink:title="deterministic time model likely needed">
<path fill="none" stroke="#666666" stroke-width="1.2" stroke-dasharray="5,2" d="M220.52,-171.42C229.83,-174.04 239.11,-176.91 247.88,-180 283.25,-192.48 321.6,-210.71 349.95,-225.16"/>
<polygon fill="#666666" stroke="#666666" stroke-width="1.2" points="348.4,-227.51 356.79,-228.68 350.96,-222.53 348.4,-227.51"/>
</a>
</g>
</g>
<!-- mTT2 -->
<g id="node8" class="node">
<title>mTT2</title>
<g id="a_node8"><a xlink:href="https://github.com/flyingrobots/echo/milestone/16" xlink:title="TT2 – Time Travel MVP">
<path fill="#dbeafe" stroke="black" d="M454.41,-185C454.41,-185 333,-185 333,-185 327,-185 321,-179 321,-173 321,-173 321,-161 321,-161 321,-155 327,-149 333,-149 333,-149 454.41,-149 454.41,-149 460.41,-149 466.41,-155 466.41,-161 466.41,-161 466.41,-173 466.41,-173 466.41,-179 460.41,-185 454.41,-185"/>
<text xml:space="preserve" text-anchor="middle" x="393.7" y="-161.97" font-family="Helvetica,sans-Serif" font-size="12.00">TT2 – Time Travel MVP</text>
</a>
</g>
</g>
<!-- mTT0&#45;&gt;mTT2 -->
<g id="edge3" class="edge">
<title>mTT0&#45;&gt;mTT2</title>
<g id="a_edge3"><a xlink:title="time model unlocks time travel MVP">
<path fill="none" stroke="black" stroke-width="1.4" d="M224.04,-157.76C252,-159.29 282.89,-160.98 310.5,-162.5"/>
<polygon fill="black" stroke="black" stroke-width="1.4" points="310.26,-165.29 318.4,-162.93 310.57,-159.7 310.26,-165.29"/>
</a>
</g>
</g>
<!-- mTT3 -->
<g id="node9" class="node">
<title>mTT3</title>
<g id="a_node9"><a xlink:href="https://github.com/flyingrobots/echo/milestone/17" xlink:title="TT3 – Rulial Diff / Worldline Compare">
<path fill="#dbeafe" stroke="black" d="M491.53,-131C491.53,-131 295.88,-131 295.88,-131 289.88,-131 283.88,-125 283.88,-119 283.88,-119 283.88,-107 283.88,-107 283.88,-101 289.88,-95 295.88,-95 295.88,-95 491.53,-95 491.53,-95 497.53,-95 503.53,-101 503.53,-107 503.53,-107 503.53,-119 503.53,-119 503.53,-125 497.53,-131 491.53,-131"/>
<text xml:space="preserve" text-anchor="middle" x="393.7" y="-107.97" font-family="Helvetica,sans-Serif" font-size="12.00">TT3 – Rulial Diff / Worldline Compare</text>
</a>
</g>
</g>
<!-- mTT0&#45;&gt;mTT3 -->
<g id="edge4" class="edge">
<title>mTT0&#45;&gt;mTT3</title>
<g id="a_edge4"><a xlink:title="time model unlocks worldline compare">
<path fill="none" stroke="black" stroke-width="1.4" d="M224.04,-139.4C240,-136.9 256.92,-134.25 273.64,-131.64"/>
<polygon fill="black" stroke="black" stroke-width="1.4" points="273.89,-134.43 281.36,-130.43 273.02,-128.9 273.89,-134.43"/>
</a>
</g>
</g>
<!-- mW1 -->
<g id="node10" class="node">
<title>mW1</title>
<g id="a_node10"><a xlink:href="https://github.com/flyingrobots/echo/milestone/19" xlink:title="W1 – Wesley as a Boundary Grammar">
<path fill="#ccfbf1" stroke="black" d="M235.88,-225C235.88,-225 36.47,-225 36.47,-225 30.47,-225 24.47,-219 24.47,-213 24.47,-213 24.47,-201 24.47,-201 24.47,-195 30.47,-189 36.47,-189 36.47,-189 235.88,-189 235.88,-189 241.88,-189 247.88,-195 247.88,-201 247.88,-201 247.88,-213 247.88,-213 247.88,-219 241.88,-225 235.88,-225"/>
<text xml:space="preserve" text-anchor="middle" x="136.17" y="-201.97" font-family="Helvetica,sans-Serif" font-size="12.00">W1 – Wesley as a Boundary Grammar</text>
</a>
</g>
</g>
<!-- mW1&#45;&gt;mS1 -->
<g id="edge8" class="edge">
<title>mW1&#45;&gt;mS1</title>
<g id="a_edge8"><a xlink:title="boundary grammar maybe needed">
<path fill="none" stroke="#b3b3b3" stroke-width="1.2" stroke-dasharray="1,5" d="M248.14,-224.8C261.58,-226.96 275.27,-229.16 288.6,-231.3"/>
<polygon fill="#b3b3b3" stroke="#b3b3b3" stroke-width="1.2" points="288.11,-234.05 296.45,-232.56 288.99,-228.52 288.11,-234.05"/>
</a>
</g>
</g>
</g>
</svg>
