<?xml version="1.0" encoding="UTF-8" standalone="no"?>
<!DOCTYPE svg PUBLIC "-//W3C//DTD SVG 1.1//EN"
 "http://www.w3.org/Graphics/SVG/1.1/DTD/svg11.dtd">
<!-- Generated by graphviz version 14.1.1 (20251213.1925)
 -->
<!-- Title: echo_milestone_dependencies Pages: 1 -->
<svg width="668pt" height="415pt"
 viewBox="0.00 0.00 668.00 415.00" xmlns="http://www.w3.org/2000/svg" xmlns:xlink="http://www.w3.org/1999/xlink">
<g id="graph0" class="graph" transform="scale(1 1) rotate(0) translate(4 411)">
<title>echo_milestone_dependencies</title>
<polygon fill="white" stroke="none" points="-4,4 -4,-411 664.48,-411 664.48,4 -4,4"/>
<text xml:space="preserve" text-anchor="middle" x="330.24" y="-385.9" font-family="Helvetica,sans-Serif" font-size="18.00">Echo — Milestone Dependency Sketch</text>
<text xml:space="preserve" text-anchor="middle" x="330.24" y="-367.15" font-family="Helvetica,sans-Serif" font-size="18.00">Edge direction: prerequisite → dependent (do tail before head)</text>
<text xml:space="preserve" text-anchor="middle" x="330.24" y="-344.65" font-family="Helvetica,sans-Serif" font-size="18.00">Edge styles encode confidence (solid=strong, dashed=medium, dotted=weak).</text>
<g id="clust1" class="cluster">
<title>cluster_legend</title>
<path fill="none" stroke="#b3b3b3" d="M88.71,-8C88.71,-8 610.77,-8 610.77,-8 616.77,-8 622.77,-14 622.77,-20 622.77,-20 622.77,-75 622.77,-75 622.77,-81 616.77,-87 610.77,-87 610.77,-87 88.71,-87 88.71,-87 82.71,-87 76.71,-81 76.71,-75 76.71,-75 76.71,-20 76.71,-20 76.71,-14 82.71,-8 88.71,-8"/>
<text xml:space="preserve" text-anchor="middle" x="349.74" y="-65.9" font-family="Helvetica,sans-Serif" font-size="18.00" fill="#4d4d4d">Legend</text>
</g>
<!-- L1 -->
<g id="node1" class="node">
<title>L1</title>
<path fill="#ffffff" stroke="black" d="M126.71,-52C126.71,-52 96.71,-52 96.71,-52 90.71,-52 84.71,-46 84.71,-40 84.71,-40 84.71,-28 84.71,-28 84.71,-22 90.71,-16 96.71,-16 96.71,-16 126.71,-16 126.71,-16 132.71,-16 138.71,-22 138.71,-28 138.71,-28 138.71,-40 138.71,-40 138.71,-46 132.71,-52 126.71,-52"/>
<text xml:space="preserve" text-anchor="middle" x="111.71" y="-28.98" font-family="Helvetica,sans-Serif" font-size="12.00">strong</text>
</g>
<!-- L2 -->
<g id="node2" class="node">
<title>L2</title>
<path fill="#ffffff" stroke="black" d="M388.69,-52C388.69,-52 349.79,-52 349.79,-52 343.79,-52 337.79,-46 337.79,-40 337.79,-40 337.79,-28 337.79,-28 337.79,-22 343.79,-16 349.79,-16 349.79,-16 388.69,-16 388.69,-16 394.69,-16 400.69,-22 400.69,-28 400.69,-28 400.69,-40 400.69,-40 400.69,-46 394.69,-52 388.69,-52"/>
<text xml:space="preserve" text-anchor="middle" x="369.24" y="-28.98" font-family="Helvetica,sans-Serif" font-size="12.00">medium</text>
</g>
<!-- L1&#45;&gt;L2 -->
<g id="edge1" class="edge">
<title>L1&#45;&gt;L2</title>
<path fill="none" stroke="black" stroke-width="1.4" d="M139.09,-34C186.78,-34 287.07,-34 337.67,-34"/>
</g>
<!-- L3 -->
<g id="node3" class="node">
<title>L3</title>
<path fill="#ffffff" stroke="black" d="M602.77,-52C602.77,-52 572.77,-52 572.77,-52 566.77,-52 560.77,-46 560.77,-40 560.77,-40 560.77,-28 560.77,-28 560.77,-22 566.77,-16 572.77,-16 572.77,-16 602.77,-16 602.77,-16 608.77,-16 614.77,-22 614.77,-28 614.77,-28 614.77,-40 614.77,-40 614.77,-46 608.77,-52 602.77,-52"/>
<text xml:space="preserve" text-anchor="middle" x="587.77" y="-28.98" font-family="Helvetica,sans-Serif" font-size="12.00">weak</text>
</g>
<!-- L2&#45;&gt;L3 -->
<g id="edge2" class="edge">
<title>L2&#45;&gt;L3</title>
<path fill="none" stroke="#666666" stroke-width="1.2" stroke-dasharray="5,2" d="M400.8,-34C443.47,-34 520.17,-34 560.44,-34"/>
</g>
<!-- m1C -->
<g id="node4" class="node">
<title>m1C</title>
<g id="a_node4"><a xlink:href="https://github.com/flyingrobots/echo/milestone/3" xlink:title="1C – Rhai/TS Bindings">
<path fill="#dcfce7" stroke="black" d="M171.29,-339C171.29,-339 52.13,-339 52.13,-339 46.13,-339 40.13,-333 40.13,-327 40.13,-327 40.13,-315 40.13,-315 40.13,-309 46.13,-303 52.13,-303 52.13,-303 171.29,-303 171.29,-303 177.28,-303 183.29,-309 183.29,-315 183.29,-315 183.29,-327 183.29,-327 183.29,-333 177.29,-339 171.29,-339"/>
<text xml:space="preserve" text-anchor="middle" x="111.71" y="-315.98" font-family="Helvetica,sans-Serif" font-size="12.00">1C – Rhai/TS Bindings</text>
</a>
</g>
</g>
<!-- mS1 -->
<g id="node6" class="node">
<title>mS1</title>
<g id="a_node6"><a xlink:href="https://github.com/flyingrobots/echo/milestone/18" xlink:title="S1 – Deterministic Rhai Surface">
<path fill="#ede9fe" stroke="black" d="M452.44,-281C452.44,-281 286.04,-281 286.04,-281 280.04,-281 274.04,-275 274.04,-269 274.04,-269 274.04,-257 274.04,-257 274.04,-251 280.04,-245 286.04,-245 286.04,-245 452.44,-245 452.44,-245 458.44,-245 464.44,-251 464.44,-257 464.44,-257 464.44,-269 464.44,-269 464.44,-275 458.44,-281 452.44,-281"/>
<text xml:space="preserve" text-anchor="middle" x="369.24" y="-257.98" font-family="Helvetica,sans-Serif" font-size="12.00">S1 – Deterministic Rhai Surface</text>
</a>
</g>
</g>
<!-- m1C&#45;&gt;mS1 -->
<g id="edge7" class="edge">
<title>m1C&#45;&gt;mS1</title>
<g id="a_edge7"><a xlink:title="bindings needed for deterministic Rhai">
<path fill="none" stroke="black" stroke-width="1.4" d="M183.55,-304.92C212.47,-298.36 246.28,-290.68 277.01,-283.71"/>
<polygon fill="black" stroke="black" stroke-width="1.4" points="277.63,-286.44 284.81,-281.94 276.39,-280.98 277.63,-286.44"/>
</a>
</g>
</g>
<!-- m1E -->
<g id="node5" class="node">
<title>m1E</title>
<g id="a_node5"><a xlink:href="https://github.com/flyingrobots/echo/milestone/5" xlink:title="1E – Networking &amp; Confluence MVP">
<path fill="#ffedd5" stroke="black" d="M206.54,-285C206.54,-285 16.88,-285 16.88,-285 10.88,-285 4.88,-279 4.88,-273 4.88,-273 4.88,-261 4.88,-261 4.88,-255 10.88,-249 16.88,-249 16.88,-249 206.53,-249 206.53,-249 212.54,-249 218.54,-255 218.54,-261 218.54,-261 218.54,-273 218.54,-273 218.54,-279 212.54,-285 206.54,-285"/>
<text xml:space="preserve" text-anchor="middle" x="111.71" y="-261.98" font-family="Helvetica,sans-Serif" font-size="12.00">1E – Networking &amp; Confluence MVP</text>
</a>
</g>
</g>
<!-- m1E&#45;&gt;mS1 -->
<g id="edge8" class="edge">
<title>m1E&#45;&gt;mS1</title>
<g id="a_edge8"><a xlink:title="security contexts constrain sandbox">
<path fill="none" stroke="black" stroke-width="1.4" d="M218.85,-265.34C233.82,-265.1 249.18,-264.86 264.11,-264.63"/>
<polygon fill="black" stroke="black" stroke-width="1.4" points="263.76,-267.44 271.72,-264.51 263.68,-261.84 263.76,-267.44"/>
</a>
</g>
</g>
<!-- mTT0 -->
<g id="node7" class="node">
<title>mTT0</title>
<g id="a_node7"><a xlink:href="https://github.com/flyingrobots/echo/milestone/21" xlink:title="TT0 – Time Model Spec Lock">
<path fill="#dbeafe" stroke="black" d="M187.41,-177C187.41,-177 36,-177 36,-177 30,-177 24,-171 24,-165 24,-165 24,-153 24,-153 24,-147 30,-141 36,-141 36,-141 187.41,-141 187.41,-141 193.41,-141 199.41,-147 199.41,-153 199.41,-153 199.41,-165 199.41,-165 199.41,-171 193.41,-177 187.41,-177"/>
<text xml:space="preserve" text-anchor="middle" x="111.71" y="-153.97" font-family="Helvetica,sans-Serif" font-size="12.00">TT0 – Time Model Spec Lock</text>
</a>
</g>
</g>
<!-- mTT0&#45;&gt;mS1 -->
<g id="edge9" class="edge">
<title>mTT0&#45;&gt;mS1</title>
<g id="a_edge9"><a xlink:title="deterministic time model likely needed">
<path fill="none" stroke="#666666" stroke-width="1.2" stroke-dasharray="5,2" d="M199.67,-174.17C208.03,-177.39 216.1,-181.28 223.41,-186 245.22,-200.07 237.87,-217.51 259.41,-232 264.11,-235.16 269.13,-238 274.34,-240.56"/>
<polygon fill="#666666" stroke="#666666" stroke-width="1.2" points="273.17,-243.1 281.61,-243.84 275.47,-238 273.17,-243.1"/>
</a>
</g>
</g>
<!-- mTT1 -->
<g id="node8" class="node">
<title>mTT1</title>
<g id="a_node8"><a xlink:href="https://github.com/flyingrobots/echo/milestone/15" xlink:title="TT1 – Streams Inspector Frame">
<path fill="#dbeafe" stroke="black" d="M451.32,-223C451.32,-223 287.16,-223 287.16,-223 281.16,-223 275.16,-217 275.16,-211 275.16,-211 275.16,-199 275.16,-199 275.16,-193 281.16,-187 287.16,-187 287.16,-187 451.32,-187 451.32,-187 457.32,-187 463.32,-193 463.32,-199 463.32,-199 463.32,-211 463.32,-211 463.32,-217 457.32,-223 451.32,-223"/>
<text xml:space="preserve" text-anchor="middle" x="369.24" y="-199.97" font-family="Helvetica,sans-Serif" font-size="12.00">TT1 – Streams Inspector Frame</text>
</a>
</g>
</g>
<!-- mTT0&#45;&gt;mTT1 -->
<g id="edge3" class="edge">
<title>mTT0&#45;&gt;mTT1</title>
<g id="a_edge3"><a xlink:title="time model unlocks inspector frame">
<path fill="none" stroke="black" stroke-width="1.4" d="M199.57,-174.64C220.65,-178.43 243.39,-182.53 265.14,-186.44"/>
<polygon fill="black" stroke="black" stroke-width="1.4" points="264.6,-189.19 272.97,-187.85 265.59,-183.68 264.6,-189.19"/>
</a>
</g>
</g>
<!-- mTT2 -->
<g id="node9" class="node">
<title>mTT2</title>
<g id="a_node9"><a xlink:href="https://github.com/flyingrobots/echo/milestone/16" xlink:title="TT2 – Time Travel MVP">
<path fill="#dbeafe" stroke="black" d="M648.48,-200C648.48,-200 527.07,-200 527.07,-200 521.07,-200 515.07,-194 515.07,-188 515.07,-188 515.07,-176 515.07,-176 515.07,-170 521.07,-164 527.07,-164 527.07,-164 648.48,-164 648.48,-164 654.48,-164 660.48,-170 660.48,-176 660.48,-176 660.48,-188 660.48,-188 660.48,-194 654.48,-200 648.48,-200"/>
<text xml:space="preserve" text-anchor="middle" x="587.77" y="-176.97" font-family="Helvetica,sans-Serif" font-size="12.00">TT2 – Time Travel MVP</text>
</a>
</g>
</g>
<!-- mTT0&#45;&gt;mTT2 -->
<g id="edge4" class="edge">
<title>mTT0&#45;&gt;mTT2</title>
<g id="a_edge4"><a xlink:title="time model unlocks time travel MVP">
<path fill="none" stroke="black" stroke-width="1.4" d="M199.66,-163.22C286.69,-167.44 419.59,-173.89 504.82,-178.02"/>
<polygon fill="black" stroke="black" stroke-width="1.4" points="504.47,-180.81 512.6,-178.4 504.74,-175.22 504.47,-180.81"/>
</a>
</g>
</g>
<!-- mTT3 -->
<g id="node10" class="node">
<title>mTT3</title>
<g id="a_node10"><a xlink:href="https://github.com/flyingrobots/echo/milestone/17" xlink:title="TT3 – Rulial Diff / Worldline Compare">
<path fill="#dbeafe" stroke="black" d="M467.07,-131C467.07,-131 271.41,-131 271.41,-131 265.41,-131 259.41,-125 259.41,-119 259.41,-119 259.41,-107 259.41,-107 259.41,-101 265.41,-95 271.41,-95 271.41,-95 467.07,-95 467.07,-95 473.07,-95 479.07,-101 479.07,-107 479.07,-107 479.07,-119 479.07,-119 479.07,-125 473.07,-131 467.07,-131"/>
<text xml:space="preserve" text-anchor="middle" x="369.24" y="-107.97" font-family="Helvetica,sans-Serif" font-size="12.00">TT3 – Rulial Diff / Worldline Compare</text>
</a>
</g>
</g>
<!-- mTT0&#45;&gt;mTT3 -->
<g id="edge6" class="edge">
<title>mTT0&#45;&gt;mTT3</title>
<g id="a_edge6"><a xlink:title="time model unlocks worldline compare">
<path fill="none" stroke="black" stroke-width="1.4" d="M199.57,-143.36C217.69,-140.1 237.02,-136.62 255.91,-133.22"/>
<polygon fill="black" stroke="black" stroke-width="1.4" points="256.27,-136 263.64,-131.83 255.27,-130.49 256.27,-136"/>
</a>
</g>
</g>
<!-- mTT1&#45;&gt;mTT2 -->
<g id="edge5" class="edge">
<title>mTT1&#45;&gt;mTT2</title>
<g id="a_edge5"><a xlink:title="inspector frame supports time travel UX">
<path fill="none" stroke="black" stroke-width="1.4" d="M463.64,-195.08C477.37,-193.62 491.41,-192.13 504.88,-190.7"/>
<polygon fill="black" stroke="black" stroke-width="1.4" points="504.81,-193.52 512.47,-189.89 504.22,-187.95 504.81,-193.52"/>
</a>
</g>
</g>
<!-- mW1 -->
<g id="node11" class="node">
<title>mW1</title>
<g id="a_node11"><a xlink:href="https://github.com/flyingrobots/echo/milestone/19" xlink:title="W1 – Wesley as a Boundary Grammar">
<path fill="#ccfbf1" stroke="black" d="M211.41,-231C211.41,-231 12,-231 12,-231 6,-231 0,-225 0,-219 0,-219 0,-207 0,-207 0,-201 6,-195 12,-195 12,-195 211.41,-195 211.41,-195 217.41,-195 223.41,-201 223.41,-207 223.41,-207 223.41,-219 223.41,-219 223.41,-225 217.41,-231 211.41,-231"/>
<text xml:space="preserve" text-anchor="middle" x="111.71" y="-207.97" font-family="Helvetica,sans-Serif" font-size="12.00">W1 – Wesley as a Boundary Grammar</text>
</a>
</g>
</g>
<!-- mW1&#45;&gt;mS1 -->
<g id="edge10" class="edge">
<title>mW1&#45;&gt;mS1</title>
<g id="a_edge10"><a xlink:title="boundary grammar maybe needed">
<path fill="none" stroke="#b3b3b3" stroke-width="1.2" stroke-dasharray="1,5" d="M207.13,-231.48C225.74,-235.12 245.36,-238.96 264.27,-242.66"/>
<polygon fill="#b3b3b3" stroke="#b3b3b3" stroke-width="1.2" points="263.6,-245.38 271.99,-244.17 264.68,-239.88 263.6,-245.38"/>
</a>
</g>
</g>
</g>
</svg>
