<?xml version="1.0" encoding="UTF-8" standalone="no"?>
<!DOCTYPE svg PUBLIC "-//W3C//DTD SVG 1.1//EN"
 "http://www.w3.org/Graphics/SVG/1.1/DTD/svg11.dtd">
<!-- Generated by graphviz version 14.1.1 (20251213.1925)
 -->
<!-- Title: SPA Pages: 1 -->
<svg width="1535pt" height="1456pt"
 viewBox="0.00 0.00 1535.00 1456.00" xmlns="http://www.w3.org/2000/svg" xmlns:xlink="http://www.w3.org/1999/xlink">
<g id="graph0" class="graph" transform="scale(1 1) rotate(0) translate(4 1451.5)">
<title>SPA</title>
<polygon fill="white" stroke="none" points="-4,4 -4,-1451.5 1531.01,-1451.5 1531.01,4 -4,4"/>
<g id="clust1" class="cluster">
<title>cluster_phase1</title>
<polygon fill="#f1f8e9" stroke="black" points="8,-950.75 8,-1439.5 350,-1439.5 350,-950.75 8,-950.75"/>
<text xml:space="preserve" text-anchor="middle" x="179" y="-1422.2" font-family="Helvetica,sans-Serif" font-size="14.00">Phase 1: Rust Port Crate</text>
</g>
<g id="clust2" class="cluster">
<title>cluster_phase2</title>
<polygon fill="#e8f5e9" stroke="black" points="73,-393.25 73,-854 358,-854 358,-393.25 73,-393.25"/>
<text xml:space="preserve" text-anchor="middle" x="215.5" y="-836.7" font-family="Helvetica,sans-Serif" font-size="14.00">Phase 2: Rust Codec Crate</text>
</g>
<g id="clust3" class="cluster">
<title>cluster_phase3</title>
<polygon fill="#e8eaf6" stroke="black" points="383,-773.25 383,-1328.75 627,-1328.75 627,-773.25 383,-773.25"/>
<text xml:space="preserve" text-anchor="middle" x="505" y="-1311.45" font-family="Helvetica,sans-Serif" font-size="14.00">Phase 3: TS Package Bootstrap</text>
</g>
<g id="clust4" class="cluster">
<title>cluster_phase4</title>
<polygon fill="#e3f2fd" stroke="black" points="1354,-776.12 1354,-1031.5 1518,-1031.5 1518,-776.12 1354,-776.12"/>
<text xml:space="preserve" text-anchor="middle" x="1436" y="-1014.2" font-family="Helvetica,sans-Serif" font-size="14.00">Phase 4: TS SceneState</text>
</g>
<g id="clust5" class="cluster">
<title>cluster_phase5</title>
<polygon fill="#fff8e1" stroke="black" points="635,-1096.5 635,-1177.25 827,-1177.25 827,-1096.5 635,-1096.5"/>
<text xml:space="preserve" text-anchor="middle" x="731" y="-1159.95" font-family="Helvetica,sans-Serif" font-size="14.00">Phase 5: TS ShaderManager</text>
</g>
<g id="clust6" class="cluster">
<title>cluster_phase6</title>
<polygon fill="#fff8e1" stroke="black" points="903,-1096.5 903,-1177.25 1085,-1177.25 1085,-1096.5 903,-1096.5"/>
<text xml:space="preserve" text-anchor="middle" x="994" y="-1159.95" font-family="Helvetica,sans-Serif" font-size="14.00">Phase 6: TS AssetManager</text>
</g>
<g id="clust7" class="cluster">
<title>cluster_phase7</title>
<polygon fill="#fce4ec" stroke="black" points="635,-862 635,-942.75 962,-942.75 962,-862 635,-862"/>
<text xml:space="preserve" text-anchor="middle" x="798.5" y="-925.45" font-family="Helvetica,sans-Serif" font-size="14.00">Phase 7: TS RenderCore</text>
</g>
<g id="clust8" class="cluster">
<title>cluster_phase8</title>
<polygon fill="#fce4ec" stroke="black" points="830,-773.25 830,-854 1346,-854 1346,-773.25 830,-773.25"/>
<text xml:space="preserve" text-anchor="middle" x="1088" y="-836.7" font-family="Helvetica,sans-Serif" font-size="14.00">Phase 8: TS Basic Renderers</text>
</g>
<g id="clust9" class="cluster">
<title>cluster_phase9</title>
<polygon fill="#fce4ec" stroke="black" points="811,-651.62 811,-732.38 1014,-732.38 1014,-651.62 811,-651.62"/>
<text xml:space="preserve" text-anchor="middle" x="912.5" y="-715.08" font-family="Helvetica,sans-Serif" font-size="14.00">Phase 9: TS HighlightRenderer</text>
</g>
<g id="clust10" class="cluster">
<title>cluster_phase10</title>
<polygon fill="#ede7f6" stroke="black" points="816,-393.25 816,-589.88 1038,-589.88 1038,-393.25 816,-393.25"/>
<text xml:space="preserve" text-anchor="middle" x="927" y="-572.58" font-family="Helvetica,sans-Serif" font-size="14.00">Phase 10: TS ThreeSceneAdapter</text>
</g>
<g id="clust11" class="cluster">
<title>cluster_phase11</title>
<polygon fill="#fffde7" stroke="black" points="570,-256.12 570,-336.88 890,-336.88 890,-256.12 570,-256.12"/>
<text xml:space="preserve" text-anchor="middle" x="730" y="-319.57" font-family="Helvetica,sans-Serif" font-size="14.00">Phase 11: Integration Tests</text>
</g>
<g id="clust12" class="cluster">
<title>cluster_phase12</title>
<polygon fill="#fffde7" stroke="black" points="898,-134.5 898,-334 1070,-334 1070,-134.5 898,-134.5"/>
<text xml:space="preserve" text-anchor="middle" x="984" y="-316.7" font-family="Helvetica,sans-Serif" font-size="14.00">Phase 12: Documentation</text>
</g>
<!-- SPA.1.1 -->
<g id="node1" class="node">
<title>SPA.1.1</title>
<path fill="#e8f5e9" stroke="black" d="M159.12,-1408.5C159.12,-1408.5 86.88,-1408.5 86.88,-1408.5 80.88,-1408.5 74.88,-1402.5 74.88,-1396.5 74.88,-1396.5 74.88,-1378.75 74.88,-1378.75 74.88,-1372.75 80.88,-1366.75 86.88,-1366.75 86.88,-1366.75 159.12,-1366.75 159.12,-1366.75 165.12,-1366.75 171.12,-1372.75 171.12,-1378.75 171.12,-1378.75 171.12,-1396.5 171.12,-1396.5 171.12,-1402.5 165.12,-1408.5 159.12,-1408.5"/>
<text xml:space="preserve" text-anchor="middle" x="123" y="-1395" font-family="Helvetica,sans-Serif" font-size="10.00">SPA.1.1</text>
<text xml:space="preserve" text-anchor="middle" x="123" y="-1383.75" font-family="Helvetica,sans-Serif" font-size="10.00">Create Cargo.toml</text>
<text xml:space="preserve" text-anchor="middle" x="123" y="-1372.5" font-family="Helvetica,sans-Serif" font-size="10.00">&amp; lib.rs shell</text>
</g>
<!-- SPA.1.2 -->
<g id="node2" class="node">
<title>SPA.1.2</title>
<path fill="#e8f5e9" stroke="black" d="M173.38,-1297.75C173.38,-1297.75 72.62,-1297.75 72.62,-1297.75 66.62,-1297.75 60.63,-1291.75 60.63,-1285.75 60.63,-1285.75 60.63,-1268 60.63,-1268 60.63,-1262 66.62,-1256 72.62,-1256 72.62,-1256 173.38,-1256 173.38,-1256 179.38,-1256 185.38,-1262 185.38,-1268 185.38,-1268 185.38,-1285.75 185.38,-1285.75 185.38,-1291.75 179.38,-1297.75 173.38,-1297.75"/>
<text xml:space="preserve" text-anchor="middle" x="123" y="-1284.25" font-family="Helvetica,sans-Serif" font-size="10.00">SPA.1.2</text>
<text xml:space="preserve" text-anchor="middle" x="123" y="-1273" font-family="Helvetica,sans-Serif" font-size="10.00">Implement types.rs</text>
<text xml:space="preserve" text-anchor="middle" x="123" y="-1261.75" font-family="Helvetica,sans-Serif" font-size="10.00">(NodeDef, EdgeDef, etc)</text>
</g>
<!-- SPA.1.1&#45;&gt;SPA.1.2 -->
<g id="edge1" class="edge">
<title>SPA.1.1&#45;&gt;SPA.1.2</title>
<path fill="none" stroke="#666666" d="M123,-1366.42C123,-1349.56 123,-1325.33 123,-1306.47"/>
<polygon fill="#666666" stroke="#666666" points="125.45,-1306.48 123,-1299.48 120.55,-1306.48 125.45,-1306.48"/>
</g>
<!-- SPA.1.3 -->
<g id="node3" class="node">
<title>SPA.1.3</title>
<path fill="#e8f5e9" stroke="black" d="M112.12,-1227C112.12,-1227 27.88,-1227 27.88,-1227 21.88,-1227 15.88,-1221 15.88,-1215 15.88,-1215 15.88,-1197.25 15.88,-1197.25 15.88,-1191.25 21.88,-1185.25 27.88,-1185.25 27.88,-1185.25 112.12,-1185.25 112.12,-1185.25 118.12,-1185.25 124.12,-1191.25 124.12,-1197.25 124.12,-1197.25 124.12,-1215 124.12,-1215 124.12,-1221 118.12,-1227 112.12,-1227"/>
<text xml:space="preserve" text-anchor="middle" x="70" y="-1213.5" font-family="Helvetica,sans-Serif" font-size="10.00">SPA.1.3</text>
<text xml:space="preserve" text-anchor="middle" x="70" y="-1202.25" font-family="Helvetica,sans-Serif" font-size="10.00">Implement camera.rs</text>
<text xml:space="preserve" text-anchor="middle" x="70" y="-1191" font-family="Helvetica,sans-Serif" font-size="10.00">(CameraState)</text>
</g>
<!-- SPA.1.1&#45;&gt;SPA.1.3 -->
<g id="edge2" class="edge">
<title>SPA.1.1&#45;&gt;SPA.1.3</title>
<path fill="none" stroke="#666666" d="M77.5,-1366.35C62.44,-1357.18 47.4,-1344.74 39,-1328.75 23.96,-1300.13 29.98,-1287.05 39,-1256 41.18,-1248.49 44.9,-1241.03 49.03,-1234.28"/>
<polygon fill="#666666" stroke="#666666" points="51,-1235.73 52.78,-1228.53 46.9,-1233.06 51,-1235.73"/>
</g>
<!-- SPA.1.5 -->
<g id="node5" class="node">
<title>SPA.1.5</title>
<path fill="#e8f5e9" stroke="black" d="M329.75,-1297.75C329.75,-1297.75 240.25,-1297.75 240.25,-1297.75 234.25,-1297.75 228.25,-1291.75 228.25,-1285.75 228.25,-1285.75 228.25,-1268 228.25,-1268 228.25,-1262 234.25,-1256 240.25,-1256 240.25,-1256 329.75,-1256 329.75,-1256 335.75,-1256 341.75,-1262 341.75,-1268 341.75,-1268 341.75,-1285.75 341.75,-1285.75 341.75,-1291.75 335.75,-1297.75 329.75,-1297.75"/>
<text xml:space="preserve" text-anchor="middle" x="285" y="-1284.25" font-family="Helvetica,sans-Serif" font-size="10.00">SPA.1.5</text>
<text xml:space="preserve" text-anchor="middle" x="285" y="-1273" font-family="Helvetica,sans-Serif" font-size="10.00">Implement canon.rs</text>
<text xml:space="preserve" text-anchor="middle" x="285" y="-1261.75" font-family="Helvetica,sans-Serif" font-size="10.00">(float canonicalization)</text>
</g>
<!-- SPA.1.1&#45;&gt;SPA.1.5 -->
<g id="edge3" class="edge">
<title>SPA.1.1&#45;&gt;SPA.1.5</title>
<path fill="none" stroke="#666666" d="M153.09,-1366.42C179.83,-1348.47 219.02,-1322.17 247.73,-1302.89"/>
<polygon fill="#666666" stroke="#666666" points="249.09,-1304.93 253.54,-1298.99 246.36,-1300.86 249.09,-1304.93"/>
</g>
<!-- SPA.1.4 -->
<g id="node4" class="node">
<title>SPA.1.4</title>
<path fill="#e8f5e9" stroke="black" d="M270,-1146.25C270,-1146.25 182,-1146.25 182,-1146.25 176,-1146.25 170,-1140.25 170,-1134.25 170,-1134.25 170,-1116.5 170,-1116.5 170,-1110.5 176,-1104.5 182,-1104.5 182,-1104.5 270,-1104.5 270,-1104.5 276,-1104.5 282,-1110.5 282,-1116.5 282,-1116.5 282,-1134.25 282,-1134.25 282,-1140.25 276,-1146.25 270,-1146.25"/>
<text xml:space="preserve" text-anchor="middle" x="226" y="-1132.75" font-family="Helvetica,sans-Serif" font-size="10.00">SPA.1.4</text>
<text xml:space="preserve" text-anchor="middle" x="226" y="-1121.5" font-family="Helvetica,sans-Serif" font-size="10.00">Implement highlight.rs</text>
<text xml:space="preserve" text-anchor="middle" x="226" y="-1110.25" font-family="Helvetica,sans-Serif" font-size="10.00">(HighlightState)</text>
</g>
<!-- SPA.1.2&#45;&gt;SPA.1.4 -->
<g id="edge4" class="edge">
<title>SPA.1.2&#45;&gt;SPA.1.4</title>
<path fill="none" stroke="#666666" d="M136.89,-1255.71C155.09,-1229.3 187.07,-1182.88 207.36,-1153.43"/>
<polygon fill="#666666" stroke="#666666" points="209.19,-1155.1 211.14,-1147.94 205.15,-1152.32 209.19,-1155.1"/>
</g>
<!-- SPA.1.6 -->
<g id="node6" class="node">
<title>SPA.1.6</title>
<path fill="#e8f5e9" stroke="black" d="M164.25,-1000.5C164.25,-1000.5 95.75,-1000.5 95.75,-1000.5 89.75,-1000.5 83.75,-994.5 83.75,-988.5 83.75,-988.5 83.75,-970.75 83.75,-970.75 83.75,-964.75 89.75,-958.75 95.75,-958.75 95.75,-958.75 164.25,-958.75 164.25,-958.75 170.25,-958.75 176.25,-964.75 176.25,-970.75 176.25,-970.75 176.25,-988.5 176.25,-988.5 176.25,-994.5 170.25,-1000.5 164.25,-1000.5"/>
<text xml:space="preserve" text-anchor="middle" x="130" y="-987" font-family="Helvetica,sans-Serif" font-size="10.00">SPA.1.6</text>
<text xml:space="preserve" text-anchor="middle" x="130" y="-975.75" font-family="Helvetica,sans-Serif" font-size="10.00">Implement port.rs</text>
<text xml:space="preserve" text-anchor="middle" x="130" y="-964.5" font-family="Helvetica,sans-Serif" font-size="10.00">(ScenePort trait)</text>
</g>
<!-- SPA.1.2&#45;&gt;SPA.1.6 -->
<g id="edge5" class="edge">
<title>SPA.1.2&#45;&gt;SPA.1.6</title>
<path fill="none" stroke="#666666" d="M123.91,-1255.9C124.29,-1247.05 124.71,-1236.51 125,-1227 127.42,-1148.06 128.95,-1054.86 129.61,-1009.01"/>
<polygon fill="#666666" stroke="#666666" points="132.06,-1009.3 129.71,-1002.26 127.16,-1009.23 132.06,-1009.3"/>
</g>
<!-- SPA.3.2 -->
<g id="node13" class="node">
<title>SPA.3.2</title>
<path fill="#e3f2fd" stroke="black" d="M606.5,-1146.25C606.5,-1146.25 503.5,-1146.25 503.5,-1146.25 497.5,-1146.25 491.5,-1140.25 491.5,-1134.25 491.5,-1134.25 491.5,-1116.5 491.5,-1116.5 491.5,-1110.5 497.5,-1104.5 503.5,-1104.5 503.5,-1104.5 606.5,-1104.5 606.5,-1104.5 612.5,-1104.5 618.5,-1110.5 618.5,-1116.5 618.5,-1116.5 618.5,-1134.25 618.5,-1134.25 618.5,-1140.25 612.5,-1146.25 606.5,-1146.25"/>
<text xml:space="preserve" text-anchor="middle" x="555" y="-1132.75" font-family="Helvetica,sans-Serif" font-size="10.00">SPA.3.2</text>
<text xml:space="preserve" text-anchor="middle" x="555" y="-1121.5" font-family="Helvetica,sans-Serif" font-size="10.00">Implement SceneDelta.ts</text>
<text xml:space="preserve" text-anchor="middle" x="555" y="-1110.25" font-family="Helvetica,sans-Serif" font-size="10.00">(types + hashToHex)</text>
</g>
<!-- SPA.1.2&#45;&gt;SPA.3.2 -->
<g id="edge19" class="edge">
<title>SPA.1.2&#45;&gt;SPA.3.2</title>
<path fill="none" stroke="#999999" stroke-dasharray="5,2" d="M183.64,-1255.57C242.38,-1235.83 333.92,-1204.86 413,-1177.25 438.66,-1168.29 466.84,-1158.24 491.3,-1149.45"/>
<polygon fill="#999999" stroke="#999999" points="491.92,-1151.83 497.67,-1147.15 490.26,-1147.22 491.92,-1151.83"/>
<text xml:space="preserve" text-anchor="middle" x="407.18" y="-1201.08" font-family="Times,serif" font-size="14.00">mirror</text>
</g>
<!-- SPA.1.3&#45;&gt;SPA.1.6 -->
<g id="edge6" class="edge">
<title>SPA.1.3&#45;&gt;SPA.1.6</title>
<path fill="none" stroke="#666666" d="M75.43,-1184.81C86.18,-1144.57 110.21,-1054.68 122.48,-1008.77"/>
<polygon fill="#666666" stroke="#666666" points="124.79,-1009.59 124.23,-1002.2 120.06,-1008.33 124.79,-1009.59"/>
</g>
<!-- SPA.3.3 -->
<g id="node14" class="node">
<title>SPA.3.3</title>
<path fill="#e3f2fd" stroke="black" d="M593.88,-1075.5C593.88,-1075.5 484.12,-1075.5 484.12,-1075.5 478.12,-1075.5 472.12,-1069.5 472.12,-1063.5 472.12,-1063.5 472.12,-1051.5 472.12,-1051.5 472.12,-1045.5 478.12,-1039.5 484.12,-1039.5 484.12,-1039.5 593.88,-1039.5 593.88,-1039.5 599.88,-1039.5 605.88,-1045.5 605.88,-1051.5 605.88,-1051.5 605.88,-1063.5 605.88,-1063.5 605.88,-1069.5 599.88,-1075.5 593.88,-1075.5"/>
<text xml:space="preserve" text-anchor="middle" x="539" y="-1059.25" font-family="Helvetica,sans-Serif" font-size="10.00">SPA.3.3</text>
<text xml:space="preserve" text-anchor="middle" x="539" y="-1048" font-family="Helvetica,sans-Serif" font-size="10.00">Implement CameraState.ts</text>
</g>
<!-- SPA.1.3&#45;&gt;SPA.3.3 -->
<g id="edge20" class="edge">
<title>SPA.1.3&#45;&gt;SPA.3.3</title>
<path fill="none" stroke="#999999" stroke-dasharray="5,2" d="M124.6,-1202.21C183.42,-1198.45 272.77,-1190.71 304,-1177.25 355.43,-1155.08 351.12,-1122.46 400.75,-1096.5 420.21,-1086.32 442.68,-1078.65 463.77,-1072.96"/>
<polygon fill="#999999" stroke="#999999" points="464.15,-1075.39 470.31,-1071.25 462.92,-1070.65 464.15,-1075.39"/>
<text xml:space="preserve" text-anchor="middle" x="418.38" y="-1120.33" font-family="Times,serif" font-size="14.00">mirror</text>
</g>
<!-- SPA.1.4&#45;&gt;SPA.1.6 -->
<g id="edge7" class="edge">
<title>SPA.1.4&#45;&gt;SPA.1.6</title>
<path fill="none" stroke="#666666" d="M212.45,-1104.08C195.58,-1078.83 166.72,-1035.61 148.01,-1007.59"/>
<polygon fill="#666666" stroke="#666666" points="150.25,-1006.53 144.32,-1002.07 146.17,-1009.25 150.25,-1006.53"/>
</g>
<!-- SPA.3.4 -->
<g id="node15" class="node">
<title>SPA.3.4</title>
<path fill="#e3f2fd" stroke="black" d="M516.75,-997.62C516.75,-997.62 403.25,-997.62 403.25,-997.62 397.25,-997.62 391.25,-991.62 391.25,-985.62 391.25,-985.62 391.25,-973.62 391.25,-973.62 391.25,-967.62 397.25,-961.62 403.25,-961.62 403.25,-961.62 516.75,-961.62 516.75,-961.62 522.75,-961.62 528.75,-967.62 528.75,-973.62 528.75,-973.62 528.75,-985.62 528.75,-985.62 528.75,-991.62 522.75,-997.62 516.75,-997.62"/>
<text xml:space="preserve" text-anchor="middle" x="460" y="-981.38" font-family="Helvetica,sans-Serif" font-size="10.00">SPA.3.4</text>
<text xml:space="preserve" text-anchor="middle" x="460" y="-970.12" font-family="Helvetica,sans-Serif" font-size="10.00">Implement HighlightState.ts</text>
</g>
<!-- SPA.1.4&#45;&gt;SPA.3.4 -->
<g id="edge21" class="edge">
<title>SPA.1.4&#45;&gt;SPA.3.4</title>
<path fill="none" stroke="#999999" stroke-dasharray="5,2" d="M259.03,-1104.08C302.71,-1077.25 379.38,-1030.15 424.34,-1002.53"/>
<polygon fill="#999999" stroke="#999999" points="425.57,-1004.65 430.25,-998.9 423.01,-1000.48 425.57,-1004.65"/>
<text xml:space="preserve" text-anchor="middle" x="381.58" y="-1052.45" font-family="Times,serif" font-size="14.00">mirror</text>
</g>
<!-- SPA.2.1 -->
<g id="node7" class="node">
<title>SPA.2.1</title>
<path fill="#c8e6c9" stroke="black" d="M194.75,-823C194.75,-823 93.25,-823 93.25,-823 87.25,-823 81.25,-817 81.25,-811 81.25,-811 81.25,-793.25 81.25,-793.25 81.25,-787.25 87.25,-781.25 93.25,-781.25 93.25,-781.25 194.75,-781.25 194.75,-781.25 200.75,-781.25 206.75,-787.25 206.75,-793.25 206.75,-793.25 206.75,-811 206.75,-811 206.75,-817 200.75,-823 194.75,-823"/>
<text xml:space="preserve" text-anchor="middle" x="144" y="-809.5" font-family="Helvetica,sans-Serif" font-size="10.00">SPA.2.1</text>
<text xml:space="preserve" text-anchor="middle" x="144" y="-798.25" font-family="Helvetica,sans-Serif" font-size="10.00">Create codec Cargo.toml</text>
<text xml:space="preserve" text-anchor="middle" x="144" y="-787" font-family="Helvetica,sans-Serif" font-size="10.00">&amp; lib.rs</text>
</g>
<!-- SPA.1.6&#45;&gt;SPA.2.1 -->
<g id="edge12" class="edge">
<title>SPA.1.6&#45;&gt;SPA.2.1</title>
<path fill="none" stroke="#666666" d="M131.61,-958.49C134.1,-927.24 138.91,-866.93 141.75,-831.35"/>
<polygon fill="#666666" stroke="#666666" points="144.16,-831.97 142.27,-824.8 139.27,-831.58 144.16,-831.97"/>
</g>
<!-- SPA.2.2 -->
<g id="node8" class="node">
<title>SPA.2.2</title>
<path fill="#c8e6c9" stroke="black" d="M192.12,-701.38C192.12,-701.38 95.88,-701.38 95.88,-701.38 89.88,-701.38 83.88,-695.38 83.88,-689.38 83.88,-689.38 83.88,-671.62 83.88,-671.62 83.88,-665.62 89.88,-659.62 95.88,-659.62 95.88,-659.62 192.12,-659.62 192.12,-659.62 198.12,-659.62 204.12,-665.62 204.12,-671.62 204.12,-671.62 204.12,-689.38 204.12,-689.38 204.12,-695.38 198.12,-701.38 192.12,-701.38"/>
<text xml:space="preserve" text-anchor="middle" x="144" y="-687.88" font-family="Helvetica,sans-Serif" font-size="10.00">SPA.2.2</text>
<text xml:space="preserve" text-anchor="middle" x="144" y="-676.62" font-family="Helvetica,sans-Serif" font-size="10.00">Implement cbor.rs</text>
<text xml:space="preserve" text-anchor="middle" x="144" y="-665.38" font-family="Helvetica,sans-Serif" font-size="10.00">(CBOR encode/decode)</text>
</g>
<!-- SPA.2.1&#45;&gt;SPA.2.2 -->
<g id="edge8" class="edge">
<title>SPA.2.1&#45;&gt;SPA.2.2</title>
<path fill="none" stroke="#666666" d="M144,-780.83C144,-761.29 144,-731.57 144,-709.73"/>
<polygon fill="#666666" stroke="#666666" points="146.45,-710.01 144,-703.01 141.55,-710.01 146.45,-710.01"/>
</g>
<!-- SPA.2.3 -->
<g id="node9" class="node">
<title>SPA.2.3</title>
<path fill="#c8e6c9" stroke="black" d="M191.25,-558.88C191.25,-558.88 92.75,-558.88 92.75,-558.88 86.75,-558.88 80.75,-552.88 80.75,-546.88 80.75,-546.88 80.75,-529.12 80.75,-529.12 80.75,-523.12 86.75,-517.12 92.75,-517.12 92.75,-517.12 191.25,-517.12 191.25,-517.12 197.25,-517.12 203.25,-523.12 203.25,-529.12 203.25,-529.12 203.25,-546.88 203.25,-546.88 203.25,-552.88 197.25,-558.88 191.25,-558.88"/>
<text xml:space="preserve" text-anchor="middle" x="142" y="-545.38" font-family="Helvetica,sans-Serif" font-size="10.00">SPA.2.3</text>
<text xml:space="preserve" text-anchor="middle" x="142" y="-534.12" font-family="Helvetica,sans-Serif" font-size="10.00">Implement MockAdapter</text>
<text xml:space="preserve" text-anchor="middle" x="142" y="-522.88" font-family="Helvetica,sans-Serif" font-size="10.00">(headless testing)</text>
</g>
<!-- SPA.2.2&#45;&gt;SPA.2.3 -->
<g id="edge9" class="edge">
<title>SPA.2.2&#45;&gt;SPA.2.3</title>
<path fill="none" stroke="#666666" d="M143.71,-659.37C143.37,-635.27 142.79,-594.75 142.41,-567.45"/>
<polygon fill="#666666" stroke="#666666" points="144.86,-567.57 142.31,-560.61 139.96,-567.64 144.86,-567.57"/>
</g>
<!-- SPA.2.4 -->
<g id="node10" class="node">
<title>SPA.2.4</title>
<path fill="#c8e6c9" stroke="black" d="M337.88,-556C337.88,-556 258.12,-556 258.12,-556 252.12,-556 246.12,-550 246.12,-544 246.12,-544 246.12,-532 246.12,-532 246.12,-526 252.12,-520 258.12,-520 258.12,-520 337.88,-520 337.88,-520 343.88,-520 349.88,-526 349.88,-532 349.88,-532 349.88,-544 349.88,-544 349.88,-550 343.88,-556 337.88,-556"/>
<text xml:space="preserve" text-anchor="middle" x="298" y="-539.75" font-family="Helvetica,sans-Serif" font-size="10.00">SPA.2.4</text>
<text xml:space="preserve" text-anchor="middle" x="298" y="-528.5" font-family="Helvetica,sans-Serif" font-size="10.00">Write roundtrip tests</text>
</g>
<!-- SPA.2.2&#45;&gt;SPA.2.4 -->
<g id="edge10" class="edge">
<title>SPA.2.2&#45;&gt;SPA.2.4</title>
<path fill="none" stroke="#666666" d="M166.06,-659.37C194.33,-633.58 243.19,-589 272.86,-561.93"/>
<polygon fill="#666666" stroke="#666666" points="274.25,-563.98 277.77,-557.46 270.95,-560.36 274.25,-563.98"/>
</g>
<!-- SPA.2.5 -->
<g id="node11" class="node">
<title>SPA.2.5</title>
<path fill="#c8e6c9" stroke="black" d="M266,-437.25C266,-437.25 166,-437.25 166,-437.25 160,-437.25 154,-431.25 154,-425.25 154,-425.25 154,-413.25 154,-413.25 154,-407.25 160,-401.25 166,-401.25 166,-401.25 266,-401.25 266,-401.25 272,-401.25 278,-407.25 278,-413.25 278,-413.25 278,-425.25 278,-425.25 278,-431.25 272,-437.25 266,-437.25"/>
<text xml:space="preserve" text-anchor="middle" x="216" y="-421" font-family="Helvetica,sans-Serif" font-size="10.00">SPA.2.5</text>
<text xml:space="preserve" text-anchor="middle" x="216" y="-409.75" font-family="Helvetica,sans-Serif" font-size="10.00">Write MockAdapter tests</text>
</g>
<!-- SPA.2.3&#45;&gt;SPA.2.5 -->
<g id="edge11" class="edge">
<title>SPA.2.3&#45;&gt;SPA.2.5</title>
<path fill="none" stroke="#666666" d="M154.89,-516.66C167.56,-496.68 186.91,-466.15 200.43,-444.82"/>
<polygon fill="#666666" stroke="#666666" points="202.46,-446.19 204.14,-438.97 198.32,-443.57 202.46,-446.19"/>
</g>
<!-- SPA.11.2 -->
<g id="node30" class="node">
<title>SPA.11.2</title>
<path fill="#fff9c4" stroke="black" d="M723.5,-305.88C723.5,-305.88 590.5,-305.88 590.5,-305.88 584.5,-305.88 578.5,-299.88 578.5,-293.88 578.5,-293.88 578.5,-276.12 578.5,-276.12 578.5,-270.12 584.5,-264.12 590.5,-264.12 590.5,-264.12 723.5,-264.12 723.5,-264.12 729.5,-264.12 735.5,-270.12 735.5,-276.12 735.5,-276.12 735.5,-293.88 735.5,-293.88 735.5,-299.88 729.5,-305.88 723.5,-305.88"/>
<text xml:space="preserve" text-anchor="middle" x="657" y="-292.38" font-family="Helvetica,sans-Serif" font-size="10.00">SPA.11.2</text>
<text xml:space="preserve" text-anchor="middle" x="657" y="-281.12" font-family="Helvetica,sans-Serif" font-size="10.00">Write determinism.test.ts</text>
<text xml:space="preserve" text-anchor="middle" x="657" y="-269.88" font-family="Helvetica,sans-Serif" font-size="10.00">(cross&#45;check with MockAdapter)</text>
</g>
<!-- SPA.2.5&#45;&gt;SPA.11.2 -->
<g id="edge48" class="edge">
<title>SPA.2.5&#45;&gt;SPA.11.2</title>
<path fill="none" stroke="#999999" stroke-dasharray="5,2" d="M274.11,-400.82C353.04,-377.15 494.26,-334.8 581.37,-308.68"/>
<polygon fill="#999999" stroke="#999999" points="581.91,-311.08 587.92,-306.72 580.51,-306.38 581.91,-311.08"/>
<text xml:space="preserve" text-anchor="middle" x="446.9" y="-358.95" font-family="Times,serif" font-size="14.00">compare</text>
</g>
<!-- M1 -->
<g id="node33" class="node">
<title>M1</title>
<path fill="#e0e0e0" stroke="black" d="M205.82,-320.4C205.82,-320.4 159.18,-291.35 159.18,-291.35 154.09,-288.17 154.09,-281.83 159.18,-278.65 159.18,-278.65 205.82,-249.6 205.82,-249.6 210.91,-246.42 221.09,-246.42 226.18,-249.6 226.18,-249.6 272.82,-278.65 272.82,-278.65 277.91,-281.83 277.91,-288.17 272.82,-291.35 272.82,-291.35 226.18,-320.4 226.18,-320.4 221.09,-323.58 210.91,-323.58 205.82,-320.4"/>
<text xml:space="preserve" text-anchor="middle" x="216" y="-292.38" font-family="Helvetica,sans-Serif" font-size="10.00">M1</text>
<text xml:space="preserve" text-anchor="middle" x="216" y="-281.12" font-family="Helvetica,sans-Serif" font-size="10.00">Rust crates</text>
<text xml:space="preserve" text-anchor="middle" x="216" y="-269.88" font-family="Helvetica,sans-Serif" font-size="10.00">complete</text>
</g>
<!-- SPA.2.5&#45;&gt;M1 -->
<g id="edge53" class="edge">
<title>SPA.2.5&#45;&gt;M1</title>
<path fill="none" stroke="#666666" d="M216,-400.96C216,-384.37 216,-358.52 216,-335.53"/>
<polygon fill="#666666" stroke="#666666" points="218.45,-335.73 216,-328.73 213.55,-335.73 218.45,-335.73"/>
</g>
<!-- SPA.3.1 -->
<g id="node12" class="node">
<title>SPA.3.1</title>
<path fill="#e3f2fd" stroke="black" d="M607,-1297.75C607,-1297.75 525,-1297.75 525,-1297.75 519,-1297.75 513,-1291.75 513,-1285.75 513,-1285.75 513,-1268 513,-1268 513,-1262 519,-1256 525,-1256 525,-1256 607,-1256 607,-1256 613,-1256 619,-1262 619,-1268 619,-1268 619,-1285.75 619,-1285.75 619,-1291.75 613,-1297.75 607,-1297.75"/>
<text xml:space="preserve" text-anchor="middle" x="566" y="-1284.25" font-family="Helvetica,sans-Serif" font-size="10.00">SPA.3.1</text>
<text xml:space="preserve" text-anchor="middle" x="566" y="-1273" font-family="Helvetica,sans-Serif" font-size="10.00">Create package.json</text>
<text xml:space="preserve" text-anchor="middle" x="566" y="-1261.75" font-family="Helvetica,sans-Serif" font-size="10.00">tsconfig, vitest</text>
</g>
<!-- SPA.3.1&#45;&gt;SPA.3.2 -->
<g id="edge13" class="edge">
<title>SPA.3.1&#45;&gt;SPA.3.2</title>
<path fill="none" stroke="#666666" d="M564.52,-1255.71C562.61,-1229.74 559.27,-1184.45 557.1,-1154.94"/>
<polygon fill="#666666" stroke="#666666" points="559.56,-1155.01 556.61,-1148.2 554.68,-1155.37 559.56,-1155.01"/>
</g>
<!-- SPA.3.1&#45;&gt;SPA.3.3 -->
<g id="edge14" class="edge">
<title>SPA.3.1&#45;&gt;SPA.3.3</title>
<path fill="none" stroke="#666666" d="M536.27,-1255.52C513.32,-1237.86 483.31,-1210.01 470,-1177.25 456.49,-1144 451.74,-1127.4 470,-1096.5 473.65,-1090.32 478.7,-1085.08 484.43,-1080.65"/>
<polygon fill="#666666" stroke="#666666" points="485.81,-1082.67 490.17,-1076.68 483.02,-1078.65 485.81,-1082.67"/>
</g>
<!-- SPA.5.1 -->
<g id="node19" class="node">
<title>SPA.5.1</title>
<path fill="#fff3e0" stroke="black" d="M776.12,-1146.25C776.12,-1146.25 673.88,-1146.25 673.88,-1146.25 667.88,-1146.25 661.88,-1140.25 661.88,-1134.25 661.88,-1134.25 661.88,-1116.5 661.88,-1116.5 661.88,-1110.5 667.88,-1104.5 673.88,-1104.5 673.88,-1104.5 776.12,-1104.5 776.12,-1104.5 782.12,-1104.5 788.12,-1110.5 788.12,-1116.5 788.12,-1116.5 788.12,-1134.25 788.12,-1134.25 788.12,-1140.25 782.12,-1146.25 776.12,-1146.25"/>
<text xml:space="preserve" text-anchor="middle" x="725" y="-1132.75" font-family="Helvetica,sans-Serif" font-size="10.00">SPA.5.1</text>
<text xml:space="preserve" text-anchor="middle" x="725" y="-1121.5" font-family="Helvetica,sans-Serif" font-size="10.00">Port ShaderManager.ts</text>
<text xml:space="preserve" text-anchor="middle" x="725" y="-1110.25" font-family="Helvetica,sans-Serif" font-size="10.00">(no singletons, no uTime)</text>
</g>
<!-- SPA.3.1&#45;&gt;SPA.5.1 -->
<g id="edge24" class="edge">
<title>SPA.3.1&#45;&gt;SPA.5.1</title>
<path fill="none" stroke="#666666" d="M587.44,-1255.71C615.89,-1228.96 666.15,-1181.71 697.4,-1152.32"/>
<polygon fill="#666666" stroke="#666666" points="698.86,-1154.31 702.29,-1147.73 695.51,-1150.74 698.86,-1154.31"/>
</g>
<!-- SPA.6.1 -->
<g id="node20" class="node">
<title>SPA.6.1</title>
<path fill="#fff3e0" stroke="black" d="M1053.75,-1146.25C1053.75,-1146.25 934.25,-1146.25 934.25,-1146.25 928.25,-1146.25 922.25,-1140.25 922.25,-1134.25 922.25,-1134.25 922.25,-1116.5 922.25,-1116.5 922.25,-1110.5 928.25,-1104.5 934.25,-1104.5 934.25,-1104.5 1053.75,-1104.5 1053.75,-1104.5 1059.75,-1104.5 1065.75,-1110.5 1065.75,-1116.5 1065.75,-1116.5 1065.75,-1134.25 1065.75,-1134.25 1065.75,-1140.25 1059.75,-1146.25 1053.75,-1146.25"/>
<text xml:space="preserve" text-anchor="middle" x="994" y="-1132.75" font-family="Helvetica,sans-Serif" font-size="10.00">SPA.6.1</text>
<text xml:space="preserve" text-anchor="middle" x="994" y="-1121.5" font-family="Helvetica,sans-Serif" font-size="10.00">Port AssetManager.ts</text>
<text xml:space="preserve" text-anchor="middle" x="994" y="-1110.25" font-family="Helvetica,sans-Serif" font-size="10.00">(URL&#45;keyed, instance&#45;based)</text>
</g>
<!-- SPA.3.1&#45;&gt;SPA.6.1 -->
<g id="edge25" class="edge">
<title>SPA.3.1&#45;&gt;SPA.6.1</title>
<path fill="none" stroke="#666666" d="M619.43,-1271.72C698.58,-1264.91 842.63,-1249.81 889,-1227 924.05,-1209.76 955.09,-1176.6 974.16,-1153.06"/>
<polygon fill="#666666" stroke="#666666" points="976.08,-1154.59 978.51,-1147.58 972.24,-1151.54 976.08,-1154.59"/>
</g>
<!-- SPA.7.1 -->
<g id="node21" class="node">
<title>SPA.7.1</title>
<path fill="#f8bbd9" stroke="black" d="M941.62,-911.75C941.62,-911.75 812.38,-911.75 812.38,-911.75 806.38,-911.75 800.38,-905.75 800.38,-899.75 800.38,-899.75 800.38,-882 800.38,-882 800.38,-876 806.38,-870 812.38,-870 812.38,-870 941.62,-870 941.62,-870 947.62,-870 953.62,-876 953.62,-882 953.62,-882 953.62,-899.75 953.62,-899.75 953.62,-905.75 947.62,-911.75 941.62,-911.75"/>
<text xml:space="preserve" text-anchor="middle" x="877" y="-898.25" font-family="Helvetica,sans-Serif" font-size="10.00">SPA.7.1</text>
<text xml:space="preserve" text-anchor="middle" x="877" y="-887" font-family="Helvetica,sans-Serif" font-size="10.00">Implement ThreeRenderCore.ts</text>
<text xml:space="preserve" text-anchor="middle" x="877" y="-875.75" font-family="Helvetica,sans-Serif" font-size="10.00">(WebGLRenderer wrapper)</text>
</g>
<!-- SPA.3.1&#45;&gt;SPA.7.1 -->
<g id="edge26" class="edge">
<title>SPA.3.1&#45;&gt;SPA.7.1</title>
<path fill="none" stroke="#666666" d="M619.32,-1271.6C680.32,-1263.69 778.53,-1241.19 831,-1177.25 892.79,-1101.94 887.32,-976.76 881.07,-920.64"/>
<polygon fill="#666666" stroke="#666666" points="883.51,-920.41 880.25,-913.75 878.64,-920.99 883.51,-920.41"/>
</g>
<!-- SPA.3.2&#45;&gt;SPA.3.4 -->
<g id="edge15" class="edge">
<title>SPA.3.2&#45;&gt;SPA.3.4</title>
<path fill="none" stroke="#666666" d="M500.16,-1104.15C487.66,-1096.98 475.78,-1087.59 468,-1075.5 454.78,-1054.94 454.16,-1026.48 456,-1006.1"/>
<polygon fill="#666666" stroke="#666666" points="458.4,-1006.64 456.74,-999.41 453.53,-1006.1 458.4,-1006.64"/>
</g>
<!-- SPA.3.5 -->
<g id="node16" class="node">
<title>SPA.3.5</title>
<path fill="#e3f2fd" stroke="black" d="M607.12,-823C607.12,-823 504.88,-823 504.88,-823 498.88,-823 492.88,-817 492.88,-811 492.88,-811 492.88,-793.25 492.88,-793.25 492.88,-787.25 498.88,-781.25 504.88,-781.25 504.88,-781.25 607.12,-781.25 607.12,-781.25 613.12,-781.25 619.12,-787.25 619.12,-793.25 619.12,-793.25 619.12,-811 619.12,-811 619.12,-817 613.12,-823 607.12,-823"/>
<text xml:space="preserve" text-anchor="middle" x="556" y="-809.5" font-family="Helvetica,sans-Serif" font-size="10.00">SPA.3.5</text>
<text xml:space="preserve" text-anchor="middle" x="556" y="-798.25" font-family="Helvetica,sans-Serif" font-size="10.00">Implement types/index.ts</text>
<text xml:space="preserve" text-anchor="middle" x="556" y="-787" font-family="Helvetica,sans-Serif" font-size="10.00">(RenderContext, Profiler)</text>
</g>
<!-- SPA.3.2&#45;&gt;SPA.3.5 -->
<g id="edge16" class="edge">
<title>SPA.3.2&#45;&gt;SPA.3.5</title>
<path fill="none" stroke="#666666" d="M588.71,-1104.16C598.38,-1096.5 607.73,-1086.84 613,-1075.5 651.95,-991.75 600.93,-881.18 572.6,-830.56"/>
<polygon fill="#666666" stroke="#666666" points="574.78,-829.43 569.18,-824.56 570.52,-831.86 574.78,-829.43"/>
</g>
<!-- SPA.4.1 -->
<g id="node17" class="node">
<title>SPA.4.1</title>
<path fill="#bbdefb" stroke="black" d="M1477.5,-1000.5C1477.5,-1000.5 1374.5,-1000.5 1374.5,-1000.5 1368.5,-1000.5 1362.5,-994.5 1362.5,-988.5 1362.5,-988.5 1362.5,-970.75 1362.5,-970.75 1362.5,-964.75 1368.5,-958.75 1374.5,-958.75 1374.5,-958.75 1477.5,-958.75 1477.5,-958.75 1483.5,-958.75 1489.5,-964.75 1489.5,-970.75 1489.5,-970.75 1489.5,-988.5 1489.5,-988.5 1489.5,-994.5 1483.5,-1000.5 1477.5,-1000.5"/>
<text xml:space="preserve" text-anchor="middle" x="1426" y="-987" font-family="Helvetica,sans-Serif" font-size="10.00">SPA.4.1</text>
<text xml:space="preserve" text-anchor="middle" x="1426" y="-975.75" font-family="Helvetica,sans-Serif" font-size="10.00">Implement SceneState.ts</text>
<text xml:space="preserve" text-anchor="middle" x="1426" y="-964.5" font-family="Helvetica,sans-Serif" font-size="10.00">(pure state machine)</text>
</g>
<!-- SPA.3.2&#45;&gt;SPA.4.1 -->
<g id="edge22" class="edge">
<title>SPA.3.2&#45;&gt;SPA.4.1</title>
<path fill="none" stroke="#666666" d="M599.47,-1104.02C607.8,-1100.97 616.55,-1098.26 625,-1096.5 765.82,-1067.12 1134.25,-1116.95 1272,-1075.5 1319.11,-1061.32 1366.23,-1028.97 1395.71,-1006"/>
<polygon fill="#666666" stroke="#666666" points="1396.92,-1008.16 1400.9,-1001.89 1393.88,-1004.31 1396.92,-1008.16"/>
</g>
<!-- SPA.8.1 -->
<g id="node23" class="node">
<title>SPA.8.1</title>
<path fill="#f8bbd9" stroke="black" d="M1145.12,-823C1145.12,-823 1030.88,-823 1030.88,-823 1024.88,-823 1018.88,-817 1018.88,-811 1018.88,-811 1018.88,-793.25 1018.88,-793.25 1018.88,-787.25 1024.88,-781.25 1030.88,-781.25 1030.88,-781.25 1145.12,-781.25 1145.12,-781.25 1151.12,-781.25 1157.12,-787.25 1157.12,-793.25 1157.12,-793.25 1157.12,-811 1157.12,-811 1157.12,-817 1151.12,-823 1145.12,-823"/>
<text xml:space="preserve" text-anchor="middle" x="1088" y="-809.5" font-family="Helvetica,sans-Serif" font-size="10.00">SPA.8.1</text>
<text xml:space="preserve" text-anchor="middle" x="1088" y="-798.25" font-family="Helvetica,sans-Serif" font-size="10.00">Implement NodeRenderer.ts</text>
<text xml:space="preserve" text-anchor="middle" x="1088" y="-787" font-family="Helvetica,sans-Serif" font-size="10.00">(spheres/boxes)</text>
</g>
<!-- SPA.3.2&#45;&gt;SPA.8.1 -->
<g id="edge28" class="edge">
<title>SPA.3.2&#45;&gt;SPA.8.1</title>
<path fill="none" stroke="#666666" d="M601.98,-1104.11C609.59,-1101.28 617.44,-1098.62 625,-1096.5 745.9,-1062.51 789.43,-1091.06 900,-1031.5 953.5,-1002.68 964.72,-989.11 1004,-942.75 1033.88,-907.48 1059.84,-860.35 1074.71,-830.87"/>
<polygon fill="#666666" stroke="#666666" points="1076.82,-832.13 1077.75,-824.77 1072.44,-829.94 1076.82,-832.13"/>
</g>
<!-- SPA.8.2 -->
<g id="node24" class="node">
<title>SPA.8.2</title>
<path fill="#f8bbd9" stroke="black" d="M963.75,-823C963.75,-823 850.25,-823 850.25,-823 844.25,-823 838.25,-817 838.25,-811 838.25,-811 838.25,-793.25 838.25,-793.25 838.25,-787.25 844.25,-781.25 850.25,-781.25 850.25,-781.25 963.75,-781.25 963.75,-781.25 969.75,-781.25 975.75,-787.25 975.75,-793.25 975.75,-793.25 975.75,-811 975.75,-811 975.75,-817 969.75,-823 963.75,-823"/>
<text xml:space="preserve" text-anchor="middle" x="907" y="-809.5" font-family="Helvetica,sans-Serif" font-size="10.00">SPA.8.2</text>
<text xml:space="preserve" text-anchor="middle" x="907" y="-798.25" font-family="Helvetica,sans-Serif" font-size="10.00">Implement EdgeRenderer.ts</text>
<text xml:space="preserve" text-anchor="middle" x="907" y="-787" font-family="Helvetica,sans-Serif" font-size="10.00">(lines)</text>
</g>
<!-- SPA.3.2&#45;&gt;SPA.8.2 -->
<g id="edge30" class="edge">
<title>SPA.3.2&#45;&gt;SPA.8.2</title>
<path fill="none" stroke="#666666" d="M604.67,-1104.12C711.71,-1060.25 955.38,-959.05 966,-942.75 985.59,-912.68 979.75,-895.15 966,-862 960.77,-849.38 951.37,-838.06 941.59,-828.8"/>
<polygon fill="#666666" stroke="#666666" points="943.45,-827.18 936.61,-824.32 940.17,-830.82 943.45,-827.18"/>
</g>
<!-- SPA.8.3 -->
<g id="node25" class="node">
<title>SPA.8.3</title>
<path fill="#f8bbd9" stroke="black" d="M1326.12,-823C1326.12,-823 1211.88,-823 1211.88,-823 1205.88,-823 1199.88,-817 1199.88,-811 1199.88,-811 1199.88,-793.25 1199.88,-793.25 1199.88,-787.25 1205.88,-781.25 1211.88,-781.25 1211.88,-781.25 1326.12,-781.25 1326.12,-781.25 1332.12,-781.25 1338.12,-787.25 1338.12,-793.25 1338.12,-793.25 1338.12,-811 1338.12,-811 1338.12,-817 1332.12,-823 1326.12,-823"/>
<text xml:space="preserve" text-anchor="middle" x="1269" y="-809.5" font-family="Helvetica,sans-Serif" font-size="10.00">SPA.8.3</text>
<text xml:space="preserve" text-anchor="middle" x="1269" y="-798.25" font-family="Helvetica,sans-Serif" font-size="10.00">Implement LabelRenderer.ts</text>
<text xml:space="preserve" text-anchor="middle" x="1269" y="-787" font-family="Helvetica,sans-Serif" font-size="10.00">(CanvasTexture sprites)</text>
</g>
<!-- SPA.3.2&#45;&gt;SPA.8.3 -->
<g id="edge32" class="edge">
<title>SPA.3.2&#45;&gt;SPA.8.3</title>
<path fill="none" stroke="#666666" d="M600.71,-1104.03C608.68,-1101.1 616.99,-1098.43 625,-1096.5 780.94,-1058.93 838.87,-1107.73 980,-1031.5 1087.1,-973.65 1194.72,-875.56 1242.87,-829.06"/>
<polygon fill="#666666" stroke="#666666" points="1244.31,-831.07 1247.63,-824.44 1240.9,-827.56 1244.31,-831.07"/>
</g>
<!-- SPA.3.3&#45;&gt;SPA.3.5 -->
<g id="edge17" class="edge">
<title>SPA.3.3&#45;&gt;SPA.3.5</title>
<path fill="none" stroke="#666666" d="M547.69,-1039.03C548.63,-1036.56 549.44,-1034 550,-1031.5 565.78,-961.07 562.16,-875.38 558.74,-831.71"/>
<polygon fill="#666666" stroke="#666666" points="561.19,-831.58 558.17,-824.81 556.31,-831.99 561.19,-831.58"/>
</g>
<!-- SPA.7.2 -->
<g id="node22" class="node">
<title>SPA.7.2</title>
<path fill="#f8bbd9" stroke="black" d="M782.88,-908.88C782.88,-908.88 655.12,-908.88 655.12,-908.88 649.12,-908.88 643.12,-902.88 643.12,-896.88 643.12,-896.88 643.12,-884.88 643.12,-884.88 643.12,-878.88 649.12,-872.88 655.12,-872.88 655.12,-872.88 782.88,-872.88 782.88,-872.88 788.88,-872.88 794.88,-878.88 794.88,-884.88 794.88,-884.88 794.88,-896.88 794.88,-896.88 794.88,-902.88 788.88,-908.88 782.88,-908.88"/>
<text xml:space="preserve" text-anchor="middle" x="719" y="-892.62" font-family="Helvetica,sans-Serif" font-size="10.00">SPA.7.2</text>
<text xml:space="preserve" text-anchor="middle" x="719" y="-881.38" font-family="Helvetica,sans-Serif" font-size="10.00">Implement CameraController.ts</text>
</g>
<!-- SPA.3.3&#45;&gt;SPA.7.2 -->
<g id="edge27" class="edge">
<title>SPA.3.3&#45;&gt;SPA.7.2</title>
<path fill="none" stroke="#666666" d="M572.63,-1039.27C576.58,-1036.83 580.46,-1034.22 584,-1031.5 630,-996.19 675.13,-945.3 699.79,-915.71"/>
<polygon fill="#666666" stroke="#666666" points="701.49,-917.5 704.06,-910.54 697.71,-914.37 701.49,-917.5"/>
</g>
<!-- SPA.3.4&#45;&gt;SPA.3.5 -->
<g id="edge18" class="edge">
<title>SPA.3.4&#45;&gt;SPA.3.5</title>
<path fill="none" stroke="#666666" d="M469.56,-961.16C486.25,-930.64 520.84,-867.4 540.84,-830.85"/>
<polygon fill="#666666" stroke="#666666" points="542.93,-832.12 544.14,-824.8 538.63,-829.77 542.93,-832.12"/>
</g>
<!-- SPA.9.1 -->
<g id="node26" class="node">
<title>SPA.9.1</title>
<path fill="#f8bbd9" stroke="black" d="M977.62,-701.38C977.62,-701.38 848.38,-701.38 848.38,-701.38 842.38,-701.38 836.38,-695.38 836.38,-689.38 836.38,-689.38 836.38,-671.62 836.38,-671.62 836.38,-665.62 842.38,-659.62 848.38,-659.62 848.38,-659.62 977.62,-659.62 977.62,-659.62 983.62,-659.62 989.62,-665.62 989.62,-671.62 989.62,-671.62 989.62,-689.38 989.62,-689.38 989.62,-695.38 983.62,-701.38 977.62,-701.38"/>
<text xml:space="preserve" text-anchor="middle" x="913" y="-687.88" font-family="Helvetica,sans-Serif" font-size="10.00">SPA.9.1</text>
<text xml:space="preserve" text-anchor="middle" x="913" y="-676.62" font-family="Helvetica,sans-Serif" font-size="10.00">Implement HighlightRenderer.ts</text>
<text xml:space="preserve" text-anchor="middle" x="913" y="-665.38" font-family="Helvetica,sans-Serif" font-size="10.00">(color tint only)</text>
</g>
<!-- SPA.3.4&#45;&gt;SPA.9.1 -->
<g id="edge34" class="edge">
<title>SPA.3.4&#45;&gt;SPA.9.1</title>
<path fill="none" stroke="#666666" d="M454.67,-961.22C443.93,-922.3 424.46,-827.42 471,-773.25 516.51,-720.28 712.88,-696.59 828,-687.09"/>
<polygon fill="#666666" stroke="#666666" points="827.85,-689.56 834.63,-686.55 827.46,-684.68 827.85,-689.56"/>
</g>
<!-- SPA.10.1 -->
<g id="node27" class="node">
<title>SPA.10.1</title>
<path fill="#f3e5f5" stroke="black" d="M981.75,-558.88C981.75,-558.88 844.25,-558.88 844.25,-558.88 838.25,-558.88 832.25,-552.88 832.25,-546.88 832.25,-546.88 832.25,-529.12 832.25,-529.12 832.25,-523.12 838.25,-517.12 844.25,-517.12 844.25,-517.12 981.75,-517.12 981.75,-517.12 987.75,-517.12 993.75,-523.12 993.75,-529.12 993.75,-529.12 993.75,-546.88 993.75,-546.88 993.75,-552.88 987.75,-558.88 981.75,-558.88"/>
<text xml:space="preserve" text-anchor="middle" x="913" y="-545.38" font-family="Helvetica,sans-Serif" font-size="10.00">SPA.10.1</text>
<text xml:space="preserve" text-anchor="middle" x="913" y="-534.12" font-family="Helvetica,sans-Serif" font-size="10.00">Implement ThreeSceneAdapter.ts</text>
<text xml:space="preserve" text-anchor="middle" x="913" y="-522.88" font-family="Helvetica,sans-Serif" font-size="10.00">(ScenePort implementation)</text>
</g>
<!-- SPA.3.5&#45;&gt;SPA.10.1 -->
<g id="edge37" class="edge">
<title>SPA.3.5&#45;&gt;SPA.10.1</title>
<path fill="none" stroke="#666666" d="M560.29,-780.8C569.7,-741.41 595.9,-654.54 652,-608.75 700.3,-569.33 768.81,-552.04 823.52,-544.53"/>
<polygon fill="#666666" stroke="#666666" points="823.71,-546.97 830.33,-543.64 823.07,-542.12 823.71,-546.97"/>
</g>
<!-- SPA.4.2 -->
<g id="node18" class="node">
<title>SPA.4.2</title>
<path fill="#bbdefb" stroke="black" d="M1486.62,-820.12C1486.62,-820.12 1393.38,-820.12 1393.38,-820.12 1387.38,-820.12 1381.38,-814.12 1381.38,-808.12 1381.38,-808.12 1381.38,-796.12 1381.38,-796.12 1381.38,-790.12 1387.38,-784.12 1393.38,-784.12 1393.38,-784.12 1486.62,-784.12 1486.62,-784.12 1492.62,-784.12 1498.62,-790.12 1498.62,-796.12 1498.62,-796.12 1498.62,-808.12 1498.62,-808.12 1498.62,-814.12 1492.62,-820.12 1486.62,-820.12"/>
<text xml:space="preserve" text-anchor="middle" x="1440" y="-803.88" font-family="Helvetica,sans-Serif" font-size="10.00">SPA.4.2</text>
<text xml:space="preserve" text-anchor="middle" x="1440" y="-792.62" font-family="Helvetica,sans-Serif" font-size="10.00">Write SceneState tests</text>
</g>
<!-- SPA.4.1&#45;&gt;SPA.4.2 -->
<g id="edge23" class="edge">
<title>SPA.4.1&#45;&gt;SPA.4.2</title>
<path fill="none" stroke="#666666" d="M1427.61,-958.49C1430.16,-926.45 1435.15,-863.9 1437.96,-828.73"/>
<polygon fill="#666666" stroke="#666666" points="1440.39,-829.09 1438.5,-821.92 1435.5,-828.7 1440.39,-829.09"/>
</g>
<!-- SPA.4.1&#45;&gt;SPA.8.1 -->
<g id="edge29" class="edge">
<title>SPA.4.1&#45;&gt;SPA.8.1</title>
<path fill="none" stroke="#666666" d="M1362.19,-961.14C1346.16,-955.95 1329.21,-949.76 1314,-942.75 1242.38,-909.76 1165.61,-858.55 1122.52,-828.18"/>
<polygon fill="#666666" stroke="#666666" points="1124.01,-826.23 1116.88,-824.18 1121.18,-830.23 1124.01,-826.23"/>
</g>
<!-- SPA.4.1&#45;&gt;SPA.8.2 -->
<g id="edge31" class="edge">
<title>SPA.4.1&#45;&gt;SPA.8.2</title>
<path fill="none" stroke="#666666" d="M1362.08,-976C1308.79,-972.34 1231.46,-963.61 1167,-942.75 1094.22,-919.2 1083.77,-895.5 1015,-862 1007.13,-858.17 1004.82,-857.94 997,-854 980.88,-845.89 963.54,-836.3 948.42,-827.64"/>
<polygon fill="#666666" stroke="#666666" points="949.8,-825.61 942.51,-824.24 947.35,-829.85 949.8,-825.61"/>
</g>
<!-- SPA.4.1&#45;&gt;SPA.8.3 -->
<g id="edge33" class="edge">
<title>SPA.4.1&#45;&gt;SPA.8.3</title>
<path fill="none" stroke="#666666" d="M1407.99,-958.49C1379.56,-926.71 1324.25,-864.89 1292.65,-829.57"/>
<polygon fill="#666666" stroke="#666666" points="1294.54,-828 1288.05,-824.42 1290.89,-831.27 1294.54,-828"/>
</g>
<!-- SPA.4.1&#45;&gt;SPA.10.1 -->
<g id="edge38" class="edge">
<title>SPA.4.1&#45;&gt;SPA.10.1</title>
<path fill="none" stroke="#666666" d="M1447.81,-958.65C1470.86,-935.92 1505.8,-896.4 1520,-854 1530.05,-823.98 1528.95,-652.52 1517,-638.75 1451.24,-562.97 1153.94,-544.71 1002.4,-540.35"/>
<polygon fill="#666666" stroke="#666666" points="1002.54,-537.9 995.48,-540.16 1002.41,-542.8 1002.54,-537.9"/>
</g>
<!-- M2 -->
<g id="node34" class="node">
<title>M2</title>
<path fill="#e0e0e0" stroke="black" d="M1430.39,-715.06C1430.39,-715.06 1393.86,-687.69 1393.86,-687.69 1389.05,-684.1 1389.05,-676.9 1393.86,-673.31 1393.86,-673.31 1430.39,-645.94 1430.39,-645.94 1435.2,-642.35 1444.8,-642.35 1449.61,-645.94 1449.61,-645.94 1486.14,-673.31 1486.14,-673.31 1490.95,-676.9 1490.95,-684.1 1486.14,-687.69 1486.14,-687.69 1449.61,-715.06 1449.61,-715.06 1444.8,-718.65 1435.2,-718.65 1430.39,-715.06"/>
<text xml:space="preserve" text-anchor="middle" x="1440" y="-687.88" font-family="Helvetica,sans-Serif" font-size="10.00">M2</text>
<text xml:space="preserve" text-anchor="middle" x="1440" y="-676.62" font-family="Helvetica,sans-Serif" font-size="10.00">TS types</text>
<text xml:space="preserve" text-anchor="middle" x="1440" y="-665.38" font-family="Helvetica,sans-Serif" font-size="10.00">complete</text>
</g>
<!-- SPA.4.2&#45;&gt;M2 -->
<g id="edge54" class="edge">
<title>SPA.4.2&#45;&gt;M2</title>
<path fill="none" stroke="#666666" d="M1440,-783.73C1440,-769.91 1440,-749.86 1440,-731.17"/>
<polygon fill="#666666" stroke="#666666" points="1442.45,-731.21 1440,-724.21 1437.55,-731.21 1442.45,-731.21"/>
</g>
<!-- SPA.7.1&#45;&gt;SPA.10.1 -->
<g id="edge39" class="edge">
<title>SPA.7.1&#45;&gt;SPA.10.1</title>
<path fill="none" stroke="#666666" d="M834.99,-869.51C829.21,-865.11 823.92,-859.96 820,-854 767.21,-773.77 761.7,-726.38 801,-638.75 815.22,-607.04 845.05,-581.29 870.35,-563.89"/>
<polygon fill="#666666" stroke="#666666" points="871.64,-565.98 876.09,-560.05 868.91,-561.91 871.64,-565.98"/>
</g>
<!-- SPA.7.2&#45;&gt;SPA.10.1 -->
<g id="edge40" class="edge">
<title>SPA.7.2&#45;&gt;SPA.10.1</title>
<path fill="none" stroke="#666666" d="M717.81,-872.68C715.68,-829.52 715.37,-714.6 765,-638.75 787.07,-605.03 824.92,-579.82 856.82,-563.18"/>
<polygon fill="#666666" stroke="#666666" points="857.88,-565.39 863.01,-560.03 855.66,-561.02 857.88,-565.39"/>
</g>
<!-- SPA.8.1&#45;&gt;SPA.9.1 -->
<g id="edge35" class="edge">
<title>SPA.8.1&#45;&gt;SPA.9.1</title>
<path fill="none" stroke="#666666" d="M1058.31,-780.83C1028.18,-760.23 981.49,-728.31 949.2,-706.24"/>
<polygon fill="#666666" stroke="#666666" points="950.95,-704.47 943.79,-702.55 948.19,-708.52 950.95,-704.47"/>
</g>
<!-- SPA.8.1&#45;&gt;SPA.10.1 -->
<g id="edge41" class="edge">
<title>SPA.8.1&#45;&gt;SPA.10.1</title>
<path fill="none" stroke="#666666" d="M1088.3,-780.91C1088.03,-749.2 1084.52,-686.46 1063,-638.75 1046.98,-603.24 1011.03,-578.66 978.34,-562.8"/>
<polygon fill="#666666" stroke="#666666" points="979.74,-560.74 972.36,-559.99 977.65,-565.18 979.74,-560.74"/>
</g>
<!-- SPA.8.2&#45;&gt;SPA.9.1 -->
<g id="edge36" class="edge">
<title>SPA.8.2&#45;&gt;SPA.9.1</title>
<path fill="none" stroke="#666666" d="M908.02,-780.83C909,-761.29 910.49,-731.57 911.58,-709.73"/>
<polygon fill="#666666" stroke="#666666" points="914.02,-710.12 911.92,-703 909.12,-709.87 914.02,-710.12"/>
</g>
<!-- SPA.8.2&#45;&gt;SPA.10.1 -->
<g id="edge42" class="edge">
<title>SPA.8.2&#45;&gt;SPA.10.1</title>
<path fill="none" stroke="#666666" d="M966.74,-780.75C988.77,-770 1011.42,-754.36 1024,-732.38 1044.67,-696.26 1040.94,-676.76 1024,-638.75 1009.92,-607.17 980.36,-581.41 955.28,-563.98"/>
<polygon fill="#666666" stroke="#666666" points="956.76,-562.03 949.59,-560.14 954.02,-566.09 956.76,-562.03"/>
</g>
<!-- SPA.8.3&#45;&gt;SPA.10.1 -->
<g id="edge43" class="edge">
<title>SPA.8.3&#45;&gt;SPA.10.1</title>
<path fill="none" stroke="#666666" d="M1253.14,-780.83C1222.39,-742.64 1150.98,-659.38 1075,-608.75 1046.46,-589.73 1011.89,-574.01 982.02,-562.33"/>
<polygon fill="#666666" stroke="#666666" points="982.96,-560.07 975.55,-559.84 981.2,-564.64 982.96,-560.07"/>
</g>
<!-- SPA.9.1&#45;&gt;SPA.10.1 -->
<g id="edge44" class="edge">
<title>SPA.9.1&#45;&gt;SPA.10.1</title>
<path fill="none" stroke="#666666" d="M913,-659.37C913,-635.27 913,-594.75 913,-567.45"/>
<polygon fill="#666666" stroke="#666666" points="915.45,-567.61 913,-560.61 910.55,-567.61 915.45,-567.61"/>
</g>
<!-- M3 -->
<g id="node35" class="node">
<title>M3</title>
<path fill="#e0e0e0" stroke="black" d="M538.1,-572.97C538.1,-572.97 496.9,-544.78 496.9,-544.78 491.95,-541.39 491.95,-534.61 496.9,-531.22 496.9,-531.22 538.1,-503.03 538.1,-503.03 543.05,-499.64 552.95,-499.64 557.9,-503.03 557.9,-503.03 599.1,-531.22 599.1,-531.22 604.05,-534.61 604.05,-541.39 599.1,-544.78 599.1,-544.78 557.9,-572.97 557.9,-572.97 552.95,-576.36 543.05,-576.36 538.1,-572.97"/>
<text xml:space="preserve" text-anchor="middle" x="548" y="-545.38" font-family="Helvetica,sans-Serif" font-size="10.00">M3</text>
<text xml:space="preserve" text-anchor="middle" x="548" y="-534.12" font-family="Helvetica,sans-Serif" font-size="10.00">Renderers</text>
<text xml:space="preserve" text-anchor="middle" x="548" y="-522.88" font-family="Helvetica,sans-Serif" font-size="10.00">complete</text>
</g>
<!-- SPA.9.1&#45;&gt;M3 -->
<g id="edge55" class="edge">
<title>SPA.9.1&#45;&gt;M3</title>
<path fill="none" stroke="#666666" d="M860.32,-659.22C788.74,-631.67 661.95,-582.86 594.01,-556.71"/>
<polygon fill="#666666" stroke="#666666" points="595.25,-554.56 587.84,-554.34 593.49,-559.14 595.25,-554.56"/>
</g>
<!-- SPA.10.2 -->
<g id="node28" class="node">
<title>SPA.10.2</title>
<path fill="#f3e5f5" stroke="black" d="M1009.12,-437.25C1009.12,-437.25 912.88,-437.25 912.88,-437.25 906.88,-437.25 900.88,-431.25 900.88,-425.25 900.88,-425.25 900.88,-413.25 900.88,-413.25 900.88,-407.25 906.88,-401.25 912.88,-401.25 912.88,-401.25 1009.12,-401.25 1009.12,-401.25 1015.12,-401.25 1021.12,-407.25 1021.12,-413.25 1021.12,-413.25 1021.12,-425.25 1021.12,-425.25 1021.12,-431.25 1015.12,-437.25 1009.12,-437.25"/>
<text xml:space="preserve" text-anchor="middle" x="961" y="-421" font-family="Helvetica,sans-Serif" font-size="10.00">SPA.10.2</text>
<text xml:space="preserve" text-anchor="middle" x="961" y="-409.75" font-family="Helvetica,sans-Serif" font-size="10.00">Update index.ts exports</text>
</g>
<!-- SPA.10.1&#45;&gt;SPA.10.2 -->
<g id="edge45" class="edge">
<title>SPA.10.1&#45;&gt;SPA.10.2</title>
<path fill="none" stroke="#666666" d="M921.36,-516.66C929.51,-496.85 941.91,-466.68 950.67,-445.38"/>
<polygon fill="#666666" stroke="#666666" points="952.86,-446.49 953.25,-439.09 948.33,-444.63 952.86,-446.49"/>
</g>
<!-- SPA.11.1 -->
<g id="node29" class="node">
<title>SPA.11.1</title>
<path fill="#fff9c4" stroke="black" d="M869.88,-305.88C869.88,-305.88 790.12,-305.88 790.12,-305.88 784.12,-305.88 778.12,-299.88 778.12,-293.88 778.12,-293.88 778.12,-276.12 778.12,-276.12 778.12,-270.12 784.12,-264.12 790.12,-264.12 790.12,-264.12 869.88,-264.12 869.88,-264.12 875.88,-264.12 881.88,-270.12 881.88,-276.12 881.88,-276.12 881.88,-293.88 881.88,-293.88 881.88,-299.88 875.88,-305.88 869.88,-305.88"/>
<text xml:space="preserve" text-anchor="middle" x="830" y="-292.38" font-family="Helvetica,sans-Serif" font-size="10.00">SPA.11.1</text>
<text xml:space="preserve" text-anchor="middle" x="830" y="-281.12" font-family="Helvetica,sans-Serif" font-size="10.00">Write adapter.test.ts</text>
<text xml:space="preserve" text-anchor="middle" x="830" y="-269.88" font-family="Helvetica,sans-Serif" font-size="10.00">(integration tests)</text>
</g>
<!-- SPA.10.1&#45;&gt;SPA.11.1 -->
<g id="edge46" class="edge">
<title>SPA.10.1&#45;&gt;SPA.11.1</title>
<path fill="none" stroke="#666666" d="M906.01,-516.78C899.07,-496.65 888.18,-464.86 879,-437.25 864.75,-394.39 848.7,-344.53 838.97,-314.13"/>
<polygon fill="#666666" stroke="#666666" points="841.33,-313.46 836.86,-307.54 836.66,-314.95 841.33,-313.46"/>
</g>
<!-- SPA.10.1&#45;&gt;SPA.11.2 -->
<g id="edge47" class="edge">
<title>SPA.10.1&#45;&gt;SPA.11.2</title>
<path fill="none" stroke="#666666" d="M892.48,-516.88C846.42,-471.72 734.83,-362.31 683.56,-312.04"/>
<polygon fill="#666666" stroke="#666666" points="685.41,-310.42 678.7,-307.27 681.98,-313.92 685.41,-310.42"/>
</g>
<!-- SPA.12.1 -->
<g id="node31" class="node">
<title>SPA.12.1</title>
<path fill="#fff9c4" stroke="black" d="M1014.75,-303C1014.75,-303 937.25,-303 937.25,-303 931.25,-303 925.25,-297 925.25,-291 925.25,-291 925.25,-279 925.25,-279 925.25,-273 931.25,-267 937.25,-267 937.25,-267 1014.75,-267 1014.75,-267 1020.75,-267 1026.75,-273 1026.75,-279 1026.75,-279 1026.75,-291 1026.75,-291 1026.75,-297 1020.75,-303 1014.75,-303"/>
<text xml:space="preserve" text-anchor="middle" x="976" y="-286.75" font-family="Helvetica,sans-Serif" font-size="10.00">SPA.12.1</text>
<text xml:space="preserve" text-anchor="middle" x="976" y="-275.5" font-family="Helvetica,sans-Serif" font-size="10.00">Write README.md</text>
</g>
<!-- SPA.10.2&#45;&gt;SPA.12.1 -->
<g id="edge49" class="edge">
<title>SPA.10.2&#45;&gt;SPA.12.1</title>
<path fill="none" stroke="#666666" d="M962.96,-400.96C965.54,-378.19 970.11,-337.96 973.09,-311.64"/>
<polygon fill="#666666" stroke="#666666" points="975.51,-312.03 973.87,-304.8 970.64,-311.48 975.51,-312.03"/>
</g>
<!-- SPA.12.2 -->
<g id="node32" class="node">
<title>SPA.12.2</title>
<path fill="#fff9c4" stroke="black" d="M979.5,-184.25C979.5,-184.25 918.5,-184.25 918.5,-184.25 912.5,-184.25 906.5,-178.25 906.5,-172.25 906.5,-172.25 906.5,-154.5 906.5,-154.5 906.5,-148.5 912.5,-142.5 918.5,-142.5 918.5,-142.5 979.5,-142.5 979.5,-142.5 985.5,-142.5 991.5,-148.5 991.5,-154.5 991.5,-154.5 991.5,-172.25 991.5,-172.25 991.5,-178.25 985.5,-184.25 979.5,-184.25"/>
<text xml:space="preserve" text-anchor="middle" x="949" y="-170.75" font-family="Helvetica,sans-Serif" font-size="10.00">SPA.12.2</text>
<text xml:space="preserve" text-anchor="middle" x="949" y="-159.5" font-family="Helvetica,sans-Serif" font-size="10.00">Finalize exports</text>
<text xml:space="preserve" text-anchor="middle" x="949" y="-148.25" font-family="Helvetica,sans-Serif" font-size="10.00">&amp; verify build</text>
</g>
<!-- SPA.11.1&#45;&gt;SPA.12.2 -->
<g id="edge50" class="edge">
<title>SPA.11.1&#45;&gt;SPA.12.2</title>
<path fill="none" stroke="#666666" d="M850.19,-263.71C870.31,-243.48 901.29,-212.33 923.19,-190.32"/>
<polygon fill="#666666" stroke="#666666" points="924.84,-192.13 928.04,-185.44 921.37,-188.68 924.84,-192.13"/>
</g>
<!-- SPA.11.2&#45;&gt;SPA.12.2 -->
<g id="edge51" class="edge">
<title>SPA.11.2&#45;&gt;SPA.12.2</title>
<path fill="none" stroke="#666666" d="M706.53,-263.71C760.04,-241.79 844.83,-207.05 898.65,-185"/>
<polygon fill="#666666" stroke="#666666" points="899.41,-187.34 904.96,-182.42 897.55,-182.8 899.41,-187.34"/>
</g>
<!-- SPA.12.1&#45;&gt;SPA.12.2 -->
<g id="edge52" class="edge">
<title>SPA.12.1&#45;&gt;SPA.12.2</title>
<path fill="none" stroke="#666666" d="M972.07,-266.61C967.7,-247.21 960.55,-215.57 955.37,-192.62"/>
<polygon fill="#666666" stroke="#666666" points="957.83,-192.36 953.9,-186.07 953.05,-193.44 957.83,-192.36"/>
</g>
<!-- M4 -->
<g id="node36" class="node">
<title>M4</title>
<path fill="#e0e0e0" stroke="black" d="M939.22,-76.55C939.22,-76.55 900.03,-48.7 900.03,-48.7 895.14,-45.23 895.14,-38.27 900.03,-34.8 900.03,-34.8 939.22,-6.95 939.22,-6.95 944.11,-3.48 953.89,-3.48 958.78,-6.95 958.78,-6.95 997.97,-34.8 997.97,-34.8 1002.86,-38.27 1002.86,-45.23 997.97,-48.7 997.97,-48.7 958.78,-76.55 958.78,-76.55 953.89,-80.02 944.11,-80.02 939.22,-76.55"/>
<text xml:space="preserve" text-anchor="middle" x="949" y="-49.12" font-family="Helvetica,sans-Serif" font-size="10.00">M4</text>
<text xml:space="preserve" text-anchor="middle" x="949" y="-37.88" font-family="Helvetica,sans-Serif" font-size="10.00">Shippable</text>
<text xml:space="preserve" text-anchor="middle" x="949" y="-26.62" font-family="Helvetica,sans-Serif" font-size="10.00">package</text>
</g>
<!-- SPA.12.2&#45;&gt;M4 -->
<g id="edge56" class="edge">
<title>SPA.12.2&#45;&gt;M4</title>
<path fill="none" stroke="#666666" d="M949,-142.08C949,-128.45 949,-109.86 949,-92.44"/>
<polygon fill="#666666" stroke="#666666" points="951.45,-92.53 949,-85.53 946.55,-92.53 951.45,-92.53"/>
</g>
</g>
</svg>
