<?xml version="1.0" encoding="UTF-8"?>
<svg xmlns="http://www.w3.org/2000/svg" width="534" height="368" viewBox="0 0 534 368">
<style>
    .node { stroke: #333; stroke-width: 1.1; rx: 6; }
    .node-text { font: 12px Helvetica, Arial, sans-serif; fill: #111; }
    .edge { fill: none; stroke: #666; stroke-width: 1.1; }
    .title { font: 16px Helvetica, Arial, sans-serif; fill: #111; font-weight: 600; }
    .wave1 { fill: #e6f2ff; }
    .wave2 { fill: #fff2cc; }
    .wave3 { fill: #e8f7e8; }
    .wave4 { fill: #f3e8ff; }
    .wave5 { fill: #ffe6e6; }
  </style>
<defs>
    <marker id="arrow" markerWidth="8" markerHeight="8" refX="6" refY="4" orient="auto" markerUnits="strokeWidth">
      <path d="M0,0 L8,4 L0,8 z" fill="#666" />
    </marker>
  </defs>
<text class="title" x="20" y="36">Cross-Track Dependencies</text>
<path class="edge" d="M222,76 L312,76" marker-end="url(#arrow)" />
<path class="edge" d="M222,136 L312,136" marker-end="url(#arrow)" />
<path class="edge" d="M222,196 L312,196" marker-end="url(#arrow)" />
<path class="edge" d="M222,256 L312,256" marker-end="url(#arrow)" />
<path class="edge" d="M222,316 L312,316" marker-end="url(#arrow)" />
<rect class="node wave1" x="32" y="56" width="190" height="40" />
<text class="node-text" x="40" y="81">SPEC-0008.W.W1.2</text>
<rect class="node wave1" x="32" y="116" width="190" height="40" />
<text class="node-text" x="40" y="141">SPEC-0008.W.W1.4</text>
<rect class="node wave3" x="32" y="176" width="190" height="40" />
<text class="node-text" x="40" y="201">SPEC-0008.W.W3.1</text>
<rect class="node wave3" x="32" y="236" width="190" height="40" />
<text class="node-text" x="40" y="261">SPEC-0008.W.W3.3</text>
<rect class="node wave5" x="32" y="296" width="190" height="40" />
<text class="node-text" x="40" y="321">SPEC-0008.W.W5.1</text>
<rect class="node wave2" x="312" y="56" width="190" height="40" />
<text class="node-text" x="320" y="81">SPEC-0008.E.W2.1</text>
<rect class="node wave3" x="312" y="116" width="190" height="40" />
<text class="node-text" x="320" y="141">SPEC-0008.E.W3.1</text>
<rect class="node wave3" x="312" y="176" width="190" height="40" />
<text class="node-text" x="320" y="201">SPEC-0008.E.W3.2</text>
<rect class="node wave3" x="312" y="236" width="190" height="40" />
<text class="node-text" x="320" y="261">SPEC-0008.E.W3.4</text>
<rect class="node wave5" x="312" y="296" width="190" height="40" />
<text class="node-text" x="320" y="321">SPEC-0008.E.W5.1</text>
</svg>