<?xml version="1.0" encoding="UTF-8"?>
<svg xmlns="http://www.w3.org/2000/svg" width="1654" height="1029.3333333333333" viewBox="0 0 1654 1029.3333333333333">
<style>
    .group { fill: #f8f8f8; stroke: #d0d0d0; stroke-width: 1; }
    .group-title { font: 14px Helvetica, Arial, sans-serif; fill: #333; }
    .node { fill: #ffffff; stroke: #444; stroke-width: 1.2; rx: 6; }
    .node-text { font: 12px Helvetica, Arial, sans-serif; fill: #111; }
    .edge { fill: none; stroke: #555; stroke-width: 1.1; }
  </style>
<defs>
    <marker id="arrow" markerWidth="8" markerHeight="8" refX="6" refY="4" orient="auto" markerUnits="strokeWidth">
      <path d="M0,0 L8,4 L0,8 z" fill="#555" />
    </marker>
  </defs>
<path class="edge" d="M256,159.33333333333334 L266,159.33333333333331 L266,214 L276,214" marker-end="url(#arrow)" />
<path class="edge" d="M256,144 L276,144" marker-end="url(#arrow)" />
<path class="edge" d="M496,214 L506,214 L506,159.33333333333331 L516,159.33333333333334" marker-end="url(#arrow)" />
<path class="edge" d="M496,144 L516,144" marker-end="url(#arrow)" />
<path class="edge" d="M256,144 L276,144" marker-end="url(#arrow)" />
<path class="edge" d="M256,89.5 L276,89.5 L276,148 L286,148" marker-end="url(#arrow)" />
<path class="edge" d="M256,101 L266,101 L266,218 L286,218" marker-end="url(#arrow)" />
<path class="edge" d="M256,78 L286,78" marker-end="url(#arrow)" />
<path class="edge" d="M256,78 L276,78" marker-end="url(#arrow)" />
<path class="edge" d="M496,78 L516,78" marker-end="url(#arrow)" />
<path class="edge" d="M256,144 L276,144" marker-end="url(#arrow)" />
<path class="edge" d="M256,159.33333333333334 L266,159.33333333333331 L266,177 L506,177 L506,159.33333333333331 L516,159.33333333333334" marker-end="url(#arrow)" />
<path class="edge" d="M496,144 L516,144" marker-end="url(#arrow)" />
<path class="edge" d="M256,78 L276,78" marker-end="url(#arrow)" />
<path class="edge" d="M496,78 L516,78" marker-end="url(#arrow)" />
<path class="edge" d="M256,89.5 L276,89.5 L276,148 L286,148" marker-end="url(#arrow)" />
<path class="edge" d="M506,140.33333333333331 L526,140.33333333333331" marker-end="url(#arrow)" />
<path class="edge" d="M256,101 L266,101 L266,217.99999999999997 L526,217.99999999999997" marker-end="url(#arrow)" />
<path class="edge" d="M506,155.66666666666666 L516,155.66666666666666 L516,202.66666666666666 L526,202.66666666666666" marker-end="url(#arrow)" />
<path class="edge" d="M256,78 L286,78" marker-end="url(#arrow)" />
<rect class="group" x="20" y="20" width="1614" height="989.3333333333333" />
<rect class="group" x="32" y="32" width="796" height="467" />
<text class="group-title" x="40" y="52">Wesley</text>
<rect class="group" x="36" y="238" width="732" height="233" />
<text class="group-title" x="44" y="258">Wave 1</text>
<rect class="node" x="36" y="128.66666666666669" width="220" height="46" />
<text class="node-text" x="44" y="154.66666666666669">SPEC-0008.W.W1.1</text>
<rect class="node" x="276" y="191" width="220" height="46" />
<text class="node-text" x="284" y="217">SPEC-0008.W.W1.2</text>
<rect class="node" x="276" y="121" width="220" height="46" />
<text class="node-text" x="284" y="147">SPEC-0008.W.W1.3</text>
<rect class="node" x="36" y="55" width="220" height="46" />
<text class="node-text" x="44" y="81">SPEC-0008.W.W1.4</text>
<rect class="node" x="516" y="128.66666666666669" width="220" height="46" />
<text class="node-text" x="524" y="154.66666666666669">SPEC-0008.W.W1.5</text>
<rect class="group" x="308" y="55" width="492" height="163" />
<text class="group-title" x="316" y="75">Wave 3</text>
<rect class="node" x="36" y="121" width="220" height="46" />
<text class="node-text" x="44" y="147">SPEC-0008.W.W3.1</text>
<rect class="node" x="276" y="121" width="220" height="46" />
<text class="node-text" x="284" y="147">SPEC-0008.W.W3.2</text>
<rect class="node" x="36" y="55" width="220" height="46" />
<text class="node-text" x="44" y="81">SPEC-0008.W.W3.3</text>
<rect class="group" x="36" y="55" width="252" height="97" />
<text class="group-title" x="44" y="75">Wave 5</text>
<rect class="node" x="36" y="55" width="220" height="46" />
<text class="node-text" x="44" y="81">SPEC-0008.W.W5.1</text>
<rect class="group" x="848" y="32" width="774" height="965.3333333333333" />
<text class="group-title" x="856" y="52">Echo</text>
<rect class="group" x="36" y="289" width="502" height="237" />
<text class="group-title" x="44" y="309">Wave 1</text>
<rect class="node" x="36" y="66.5" width="220" height="46" />
<text class="node-text" x="44" y="92.5">SPEC-0008.E.W1.1</text>
<rect class="node" x="286" y="125" width="220" height="46" />
<text class="node-text" x="294" y="151">SPEC-0008.E.W1.2</text>
<rect class="node" x="286" y="195" width="220" height="46" />
<text class="node-text" x="294" y="221">SPEC-0008.E.W1.3</text>
<rect class="node" x="286" y="55" width="220" height="46" />
<text class="node-text" x="294" y="81">SPEC-0008.E.W1.4</text>
<rect class="group" x="36" y="55" width="732" height="97" />
<text class="group-title" x="44" y="75">Wave 2</text>
<rect class="node" x="36" y="55" width="220" height="46" />
<text class="node-text" x="44" y="81">SPEC-0008.E.W2.1</text>
<rect class="node" x="276" y="55" width="220" height="46" />
<text class="node-text" x="284" y="81">SPEC-0008.E.W2.2</text>
<rect class="node" x="516" y="55" width="220" height="46" />
<text class="node-text" x="524" y="81">SPEC-0008.E.W2.3</text>
<rect class="group" x="36" y="546" width="732" height="174" />
<text class="group-title" x="44" y="566">Wave 3</text>
<rect class="node" x="36" y="128.66666666666669" width="220" height="46" />
<text class="node-text" x="44" y="154.66666666666669">SPEC-0008.E.W3.1</text>
<rect class="node" x="276" y="121" width="220" height="46" />
<text class="node-text" x="284" y="147">SPEC-0008.E.W3.2</text>
<rect class="node" x="516" y="128.66666666666669" width="220" height="46" />
<text class="node-text" x="524" y="154.66666666666669">SPEC-0008.E.W3.3</text>
<rect class="node" x="36" y="55" width="220" height="46" />
<text class="node-text" x="44" y="81">SPEC-0008.E.W3.4</text>
<rect class="group" x="36" y="172" width="732" height="97" />
<text class="group-title" x="44" y="192">Wave 4</text>
<rect class="node" x="36" y="55" width="220" height="46" />
<text class="node-text" x="44" y="81">SPEC-0008.E.W4.1</text>
<rect class="node" x="276" y="55" width="220" height="46" />
<text class="node-text" x="284" y="81">SPEC-0008.E.W4.2</text>
<rect class="node" x="516" y="55" width="220" height="46" />
<text class="node-text" x="524" y="81">SPEC-0008.E.W4.3</text>
<rect class="group" x="36" y="740" width="742" height="229.33333333333331" />
<text class="group-title" x="44" y="760">Wave 5</text>
<rect class="node" x="36" y="66.5" width="220" height="46" />
<text class="node-text" x="44" y="92.5">SPEC-0008.E.W5.1</text>
<rect class="node" x="286" y="125" width="220" height="46" />
<text class="node-text" x="294" y="151">SPEC-0008.E.W5.2</text>
<rect class="node" x="526" y="117.33333333333333" width="220" height="46" />
<text class="node-text" x="534" y="143.33333333333331">SPEC-0008.E.W5.3</text>
<rect class="node" x="526" y="187.33333333333331" width="220" height="46" />
<text class="node-text" x="534" y="213.33333333333331">SPEC-0008.E.W5.4</text>
<rect class="node" x="286" y="55" width="220" height="46" />
<text class="node-text" x="294" y="81">SPEC-0008.E.W5.5</text>
</svg>