<?xml version="1.0" encoding="UTF-8"?>
<svg xmlns="http://www.w3.org/2000/svg" width="1094" height="352" viewBox="0 0 1094 352">
<style>
    .node { stroke: #333; stroke-width: 1.1; rx: 6; }
    .node-text { font: 12px Helvetica, Arial, sans-serif; fill: #111; }
    .edge { fill: none; stroke: #666; stroke-width: 1.1; }
    .title { font: 16px Helvetica, Arial, sans-serif; fill: #111; font-weight: 600; }
    .wave1 { fill: #e6f2ff; }
    .wave2 { fill: #fff2cc; }
    .wave3 { fill: #e8f7e8; }
    .wave4 { fill: #f3e8ff; }
    .wave5 { fill: #ffe6e6; }
  </style>
<defs>
    <marker id="arrow" markerWidth="8" markerHeight="8" refX="6" refY="4" orient="auto" markerUnits="strokeWidth">
      <path d="M0,0 L8,4 L0,8 z" fill="#666" />
    </marker>
  </defs>
<text class="title" x="20" y="36">Wesley DAG</text>
<path class="edge" d="M222,231.33333333333334 L232,231.33333333333334 L232,300 L312,300" marker-end="url(#arrow)" />
<path class="edge" d="M222,218.00000000000003 L312,218" marker-end="url(#arrow)" />
<path class="edge" d="M502,300 L512,300 L512,231.33333333333334 L592,231.33333333333334" marker-end="url(#arrow)" />
<path class="edge" d="M502,218 L592,218.00000000000003" marker-end="url(#arrow)" />
<path class="edge" d="M502,136 L592,136" marker-end="url(#arrow)" />
<path class="edge" d="M782,224.66666666666669 L792,224.66666666666669 L792,149.33333333333334 L872,149.33333333333334" marker-end="url(#arrow)" />
<path class="edge" d="M782,136 L872,136" marker-end="url(#arrow)" />
<rect class="node wave1" x="32" y="204.66666666666669" width="190" height="40" />
<text class="node-text" x="40" y="229.66666666666669">SPEC-0008.W.W1.1</text>
<rect class="node wave1" x="312" y="280" width="190" height="40" />
<text class="node-text" x="320" y="305">SPEC-0008.W.W1.2</text>
<rect class="node wave1" x="312" y="198" width="190" height="40" />
<text class="node-text" x="320" y="223">SPEC-0008.W.W1.3</text>
<rect class="node wave1" x="312" y="116" width="190" height="40" />
<text class="node-text" x="320" y="141">SPEC-0008.W.W1.4</text>
<rect class="node wave1" x="592" y="204.66666666666669" width="190" height="40" />
<text class="node-text" x="600" y="229.66666666666669">SPEC-0008.W.W1.5</text>
<rect class="node wave3" x="592" y="116" width="190" height="40" />
<text class="node-text" x="600" y="141">SPEC-0008.W.W3.1</text>
<rect class="node wave3" x="872" y="122.66666666666667" width="190" height="40" />
<text class="node-text" x="880" y="147.66666666666669">SPEC-0008.W.W3.2</text>
<rect class="node wave3" x="32" y="56" width="190" height="40" />
<text class="node-text" x="40" y="81">SPEC-0008.W.W3.3</text>
<rect class="node wave5" x="242" y="56" width="190" height="40" />
<text class="node-text" x="250" y="81">SPEC-0008.W.W5.1</text>
</svg>