<?xml version="1.0" encoding="UTF-8"?>
<svg xmlns="http://www.w3.org/2000/svg" width="1246.3333333333335" height="808" viewBox="0 0 1246.3333333333335 808">
<style>
    .group { fill: #f8f8f8; stroke: #d0d0d0; stroke-width: 1; }
    .group-title { font: 14px Helvetica, Arial, sans-serif; fill: #333; }
    .node { fill: #ffffff; stroke: #444; stroke-width: 1.2; rx: 6; }
    .node-text { font: 12px Helvetica, Arial, sans-serif; fill: #111; }
    .edge { fill: none; stroke: #555; stroke-width: 1.1; }
  </style>
<defs>
    <marker id="arrow" markerWidth="8" markerHeight="8" refX="6" refY="4" orient="auto" markerUnits="strokeWidth">
      <path d="M0,0 L8,4 L0,8 z" fill="#555" />
    </marker>
  </defs>
<path class="edge" d="M177.66666666666666,155 L177.66666666666666,165 L319,165 L319,175" marker-end="url(#arrow)" />
<path class="edge" d="M121,155 L121,175" marker-end="url(#arrow)" />
<path class="edge" d="M319,215 L319,225 L177.66666666666666,225 L177.66666666666666,235" marker-end="url(#arrow)" />
<path class="edge" d="M121,215 L121,235" marker-end="url(#arrow)" />
<path class="edge" d="M121,155 L121,175" marker-end="url(#arrow)" />
<path class="edge" d="M163.5,95 L163.5,115 L319,115 L319,125" marker-end="url(#arrow)" />
<path class="edge" d="M206,95 L206,105 L517,105 L517,125" marker-end="url(#arrow)" />
<path class="edge" d="M121,95 L121,125" marker-end="url(#arrow)" />
<path class="edge" d="M121,95 L121,115" marker-end="url(#arrow)" />
<path class="edge" d="M121,155 L121,175" marker-end="url(#arrow)" />
<path class="edge" d="M121,155 L121,175" marker-end="url(#arrow)" />
<path class="edge" d="M177.66666666666666,155 L177.66666666666666,165 L216,165 L216,225 L177.66666666666666,225 L177.66666666666666,235" marker-end="url(#arrow)" />
<path class="edge" d="M121,215 L121,235" marker-end="url(#arrow)" />
<path class="edge" d="M121,95 L121,115" marker-end="url(#arrow)" />
<path class="edge" d="M121,155 L121,175" marker-end="url(#arrow)" />
<path class="edge" d="M163.5,95 L163.5,115 L319,115 L319,125" marker-end="url(#arrow)" />
<path class="edge" d="M290.66666666666663,165 L290.66666666666663,185" marker-end="url(#arrow)" />
<path class="edge" d="M206,95 L206,105 L517,105 L517,185" marker-end="url(#arrow)" />
<path class="edge" d="M347.3333333333333,165 L347.3333333333333,175 L460.3333333333333,175 L460.3333333333333,185" marker-end="url(#arrow)" />
<path class="edge" d="M121,95 L121,125" marker-end="url(#arrow)" />
<rect class="group" x="20" y="20" width="1206.3333333333335" height="768" />
<rect class="group" x="32" y="32" width="456" height="553" />
<text class="group-title" x="40" y="52">Wesley</text>
<rect class="group" x="36" y="286" width="400" height="271" />
<text class="group-title" x="44" y="306">Wave 1</text>
<rect class="node" x="64.33333333333334" y="115" width="170" height="40" />
<text class="node-text" x="72.33333333333334" y="140">SPEC-0008.W.W1.1</text>
<rect class="node" x="234" y="175" width="170" height="40" />
<text class="node-text" x="242" y="200">SPEC-0008.W.W1.2</text>
<rect class="node" x="36" y="175" width="170" height="40" />
<text class="node-text" x="44" y="200">SPEC-0008.W.W1.3</text>
<rect class="node" x="36" y="55" width="170" height="40" />
<text class="node-text" x="44" y="80">SPEC-0008.W.W1.4</text>
<rect class="node" x="64.33333333333334" y="235" width="170" height="40" />
<text class="node-text" x="72.33333333333334" y="260">SPEC-0008.W.W1.5</text>
<rect class="group" x="258" y="55" width="202" height="211" />
<text class="group-title" x="266" y="75">Wave 3</text>
<rect class="node" x="36" y="115" width="170" height="40" />
<text class="node-text" x="44" y="140">SPEC-0008.W.W3.1</text>
<rect class="node" x="36" y="175" width="170" height="40" />
<text class="node-text" x="44" y="200">SPEC-0008.W.W3.2</text>
<rect class="node" x="36" y="55" width="170" height="40" />
<text class="node-text" x="44" y="80">SPEC-0008.W.W3.3</text>
<rect class="group" x="36" y="55" width="202" height="91" />
<text class="group-title" x="44" y="75">Wave 5</text>
<rect class="node" x="36" y="55" width="170" height="40" />
<text class="node-text" x="44" y="80">SPEC-0008.W.W5.1</text>
<rect class="group" x="508" y="32" width="706.3333333333334" height="744" />
<text class="group-title" x="516" y="52">Echo</text>
<rect class="group" x="36" y="346" width="598" height="161" />
<text class="group-title" x="44" y="366">Wave 1</text>
<rect class="node" x="78.5" y="55" width="170" height="40" />
<text class="node-text" x="86.5" y="80">SPEC-0008.E.W1.1</text>
<rect class="node" x="234" y="125" width="170" height="40" />
<text class="node-text" x="242" y="150">SPEC-0008.E.W1.2</text>
<rect class="node" x="432" y="125" width="170" height="40" />
<text class="node-text" x="440" y="150">SPEC-0008.E.W1.3</text>
<rect class="node" x="36" y="125" width="170" height="40" />
<text class="node-text" x="44" y="150">SPEC-0008.E.W1.4</text>
<rect class="group" x="36" y="55" width="202" height="211" />
<text class="group-title" x="44" y="75">Wave 2</text>
<rect class="node" x="36" y="55" width="170" height="40" />
<text class="node-text" x="44" y="80">SPEC-0008.E.W2.1</text>
<rect class="node" x="36" y="115" width="170" height="40" />
<text class="node-text" x="44" y="140">SPEC-0008.E.W2.2</text>
<rect class="node" x="36" y="175" width="170" height="40" />
<text class="node-text" x="44" y="200">SPEC-0008.E.W2.3</text>
<rect class="group" x="480" y="55" width="230.33333333333334" height="271" />
<text class="group-title" x="488" y="75">Wave 3</text>
<rect class="node" x="64.33333333333334" y="115" width="170" height="40" />
<text class="node-text" x="72.33333333333334" y="140">SPEC-0008.E.W3.1</text>
<rect class="node" x="36" y="175" width="170" height="40" />
<text class="node-text" x="44" y="200">SPEC-0008.E.W3.2</text>
<rect class="node" x="64.33333333333334" y="235" width="170" height="40" />
<text class="node-text" x="72.33333333333334" y="260">SPEC-0008.E.W3.3</text>
<rect class="node" x="36" y="55" width="170" height="40" />
<text class="node-text" x="44" y="80">SPEC-0008.E.W3.4</text>
<rect class="group" x="258" y="55" width="202" height="211" />
<text class="group-title" x="266" y="75">Wave 4</text>
<rect class="node" x="36" y="55" width="170" height="40" />
<text class="node-text" x="44" y="80">SPEC-0008.E.W4.1</text>
<rect class="node" x="36" y="115" width="170" height="40" />
<text class="node-text" x="44" y="140">SPEC-0008.E.W4.2</text>
<rect class="node" x="36" y="175" width="170" height="40" />
<text class="node-text" x="44" y="200">SPEC-0008.E.W4.3</text>
<rect class="group" x="36" y="527" width="569.6666666666666" height="221" />
<text class="group-title" x="44" y="547">Wave 5</text>
<rect class="node" x="78.5" y="55" width="170" height="40" />
<text class="node-text" x="86.5" y="80">SPEC-0008.E.W5.1</text>
<rect class="node" x="234" y="125" width="170" height="40" />
<text class="node-text" x="242" y="150">SPEC-0008.E.W5.2</text>
<rect class="node" x="205.66666666666666" y="185" width="170" height="40" />
<text class="node-text" x="213.66666666666666" y="210">SPEC-0008.E.W5.3</text>
<rect class="node" x="403.66666666666663" y="185" width="170" height="40" />
<text class="node-text" x="411.66666666666663" y="210">SPEC-0008.E.W5.4</text>
<rect class="node" x="36" y="125" width="170" height="40" />
<text class="node-text" x="44" y="150">SPEC-0008.E.W5.5</text>
</svg>