<?xml version="1.0" encoding="UTF-8" standalone="no"?>
<!DOCTYPE svg PUBLIC "-//W3C//DTD SVG 1.1//EN"
 "http://www.w3.org/Graphics/SVG/1.1/DTD/svg11.dtd">
<!-- Generated by graphviz version 14.1.2 (20260124.0452)
 -->
<!-- Title: SPEC0008 Pages: 1 -->
<svg width="962pt" height="913pt"
 viewBox="0.00 0.00 962.00 913.00" xmlns="http://www.w3.org/2000/svg" xmlns:xlink="http://www.w3.org/1999/xlink">
<g id="graph0" class="graph" transform="scale(1 1) rotate(0) translate(4 909.16)">
<title>SPEC0008</title>
<polygon fill="white" stroke="none" points="-4,4 -4,-909.16 957.5,-909.16 957.5,4 -4,4"/>
<text xml:space="preserve" text-anchor="middle" x="476.75" y="-891.66" font-family="Times,serif" font-size="10.00">SPEC&#45;0008 Task DAG (Wesley + Echo)</text>
<g id="clust1" class="cluster">
<title>cluster_wesley</title>
<polygon fill="none" stroke="#4c78a8" points="8,-584.91 8,-877.91 553.62,-877.91 553.62,-584.91 8,-584.91"/>
<text xml:space="preserve" text-anchor="middle" x="280.81" y="-864.41" font-family="Times,serif" font-size="10.00" fill="#4c78a8">Wesley</text>
</g>
<g id="clust2" class="cluster">
<title>cluster_w_w1</title>
<polygon fill="none" stroke="#9ecae9" points="16,-725.91 16,-850.91 402.88,-850.91 402.88,-725.91 16,-725.91"/>
<text xml:space="preserve" text-anchor="middle" x="209.44" y="-837.41" font-family="Times,serif" font-size="10.00" fill="#4c78a8">Wave 1</text>
</g>
<g id="clust3" class="cluster">
<title>cluster_w_w3</title>
<polygon fill="none" stroke="#9ecae9" points="290.25,-592.91 290.25,-717.91 545.62,-717.91 545.62,-592.91 290.25,-592.91"/>
<text xml:space="preserve" text-anchor="middle" x="417.94" y="-704.41" font-family="Times,serif" font-size="10.00" fill="#4c78a8">Wave 3</text>
</g>
<g id="clust4" class="cluster">
<title>cluster_w_w5</title>
<polygon fill="none" stroke="#9ecae9" points="21.25,-592.91 21.25,-663.91 138.75,-663.91 138.75,-592.91 21.25,-592.91"/>
<text xml:space="preserve" text-anchor="middle" x="80" y="-650.41" font-family="Times,serif" font-size="10.00" fill="#4c78a8">Wave 5</text>
</g>
<g id="clust5" class="cluster">
<title>cluster_echo</title>
<polygon fill="none" stroke="#f58518" points="157.12,-71.91 157.12,-576.91 945.5,-576.91 945.5,-71.91 157.12,-71.91"/>
<text xml:space="preserve" text-anchor="middle" x="551.31" y="-563.41" font-family="Times,serif" font-size="10.00" fill="#f58518">Echo</text>
</g>
<g id="clust6" class="cluster">
<title>cluster_e_w1</title>
<polygon fill="none" stroke="#fdd0a2" points="165.12,-79.91 165.12,-258.91 401.75,-258.91 401.75,-79.91 165.12,-79.91"/>
<text xml:space="preserve" text-anchor="middle" x="283.44" y="-245.41" font-family="Times,serif" font-size="10.00" fill="#f58518">Wave 1</text>
</g>
<g id="clust7" class="cluster">
<title>cluster_e_w2</title>
<polygon fill="none" stroke="#fdd0a2" points="297.75,-266.91 297.75,-337.91 673.75,-337.91 673.75,-266.91 297.75,-266.91"/>
<text xml:space="preserve" text-anchor="middle" x="485.75" y="-324.41" font-family="Times,serif" font-size="10.00" fill="#f58518">Wave 2</text>
</g>
<g id="clust8" class="cluster">
<title>cluster_e_w3</title>
<polygon fill="none" stroke="#fdd0a2" points="429.62,-424.91 429.62,-549.91 805.62,-549.91 805.62,-424.91 429.62,-424.91"/>
<text xml:space="preserve" text-anchor="middle" x="617.62" y="-536.41" font-family="Times,serif" font-size="10.00" fill="#f58518">Wave 3</text>
</g>
<g id="clust9" class="cluster">
<title>cluster_e_w4</title>
<polygon fill="none" stroke="#fdd0a2" points="569.75,-345.91 569.75,-416.91 937.5,-416.91 937.5,-345.91 569.75,-345.91"/>
<text xml:space="preserve" text-anchor="middle" x="753.62" y="-403.41" font-family="Times,serif" font-size="10.00" fill="#f58518">Wave 4</text>
</g>
<g id="clust10" class="cluster">
<title>cluster_e_w5</title>
<polygon fill="none" stroke="#fdd0a2" points="569.75,-96.91 569.75,-241.91 937.5,-241.91 937.5,-96.91 569.75,-96.91"/>
<text xml:space="preserve" text-anchor="middle" x="753.62" y="-228.41" font-family="Times,serif" font-size="10.00" fill="#f58518">Wave 5</text>
</g>
<!-- W_W1_1 -->
<g id="node1" class="node">
<title>W_W1_1</title>
<path fill="none" stroke="black" d="M124,-823.91C124,-823.91 36,-823.91 36,-823.91 30,-823.91 24,-817.91 24,-811.91 24,-811.91 24,-799.91 24,-799.91 24,-793.91 30,-787.91 36,-787.91 36,-787.91 124,-787.91 124,-787.91 130,-787.91 136,-793.91 136,-799.91 136,-799.91 136,-811.91 136,-811.91 136,-817.91 130,-823.91 124,-823.91"/>
<text xml:space="preserve" text-anchor="middle" x="80" y="-807.86" font-family="Times,serif" font-size="9.00">SPEC&#45;0008.W.W1.1</text>
<text xml:space="preserve" text-anchor="middle" x="80" y="-797.36" font-family="Times,serif" font-size="9.00">Schema IR + schema_hash</text>
</g>
<!-- W_W1_2 -->
<g id="node2" class="node">
<title>W_W1_2</title>
<path fill="none" stroke="black" d="M250.25,-769.91C250.25,-769.91 184,-769.91 184,-769.91 178,-769.91 172,-763.91 172,-757.91 172,-757.91 172,-745.91 172,-745.91 172,-739.91 178,-733.91 184,-733.91 184,-733.91 250.25,-733.91 250.25,-733.91 256.25,-733.91 262.25,-739.91 262.25,-745.91 262.25,-745.91 262.25,-757.91 262.25,-757.91 262.25,-763.91 256.25,-769.91 250.25,-769.91"/>
<text xml:space="preserve" text-anchor="middle" x="217.12" y="-753.86" font-family="Times,serif" font-size="9.00">SPEC&#45;0008.W.W1.2</text>
<text xml:space="preserve" text-anchor="middle" x="217.12" y="-743.36" font-family="Times,serif" font-size="9.00">raw_le codecs</text>
</g>
<!-- W_W1_1&#45;&gt;W_W1_2 -->
<g id="edge1" class="edge">
<title>W_W1_1&#45;&gt;W_W1_2</title>
<path fill="none" stroke="black" d="M127.12,-787.47C138.02,-783.12 149.74,-778.44 160.98,-773.94"/>
<polygon fill="black" stroke="black" points="162.19,-777.23 170.17,-770.27 159.59,-770.73 162.19,-777.23"/>
</g>
<!-- W_W1_3 -->
<g id="node3" class="node">
<title>W_W1_3</title>
<path fill="none" stroke="black" d="M250.25,-823.91C250.25,-823.91 184,-823.91 184,-823.91 178,-823.91 172,-817.91 172,-811.91 172,-811.91 172,-799.91 172,-799.91 172,-793.91 178,-787.91 184,-787.91 184,-787.91 250.25,-787.91 250.25,-787.91 256.25,-787.91 262.25,-793.91 262.25,-799.91 262.25,-799.91 262.25,-811.91 262.25,-811.91 262.25,-817.91 256.25,-823.91 250.25,-823.91"/>
<text xml:space="preserve" text-anchor="middle" x="217.12" y="-807.86" font-family="Times,serif" font-size="9.00">SPEC&#45;0008.W.W1.3</text>
<text xml:space="preserve" text-anchor="middle" x="217.12" y="-797.36" font-family="Times,serif" font-size="9.00">Option encoding</text>
</g>
<!-- W_W1_1&#45;&gt;W_W1_3 -->
<g id="edge2" class="edge">
<title>W_W1_1&#45;&gt;W_W1_3</title>
<path fill="none" stroke="black" d="M136.35,-805.91C144.28,-805.91 152.45,-805.91 160.39,-805.91"/>
<polygon fill="black" stroke="black" points="160.29,-809.41 170.29,-805.91 160.29,-802.41 160.29,-809.41"/>
</g>
<!-- W_W1_5 -->
<g id="node5" class="node">
<title>W_W1_5</title>
<path fill="none" stroke="black" d="M382.88,-769.91C382.88,-769.91 316.62,-769.91 316.62,-769.91 310.62,-769.91 304.62,-763.91 304.62,-757.91 304.62,-757.91 304.62,-745.91 304.62,-745.91 304.62,-739.91 310.62,-733.91 316.62,-733.91 316.62,-733.91 382.88,-733.91 382.88,-733.91 388.88,-733.91 394.88,-739.91 394.88,-745.91 394.88,-745.91 394.88,-757.91 394.88,-757.91 394.88,-763.91 388.88,-769.91 382.88,-769.91"/>
<text xml:space="preserve" text-anchor="middle" x="349.75" y="-753.86" font-family="Times,serif" font-size="9.00">SPEC&#45;0008.W.W1.5</text>
<text xml:space="preserve" text-anchor="middle" x="349.75" y="-743.36" font-family="Times,serif" font-size="9.00">Golden vectors</text>
</g>
<!-- W_W1_2&#45;&gt;W_W1_5 -->
<g id="edge3" class="edge">
<title>W_W1_2&#45;&gt;W_W1_5</title>
<path fill="none" stroke="black" d="M262.71,-751.91C272.49,-751.91 282.95,-751.91 293.1,-751.91"/>
<polygon fill="black" stroke="black" points="292.85,-755.41 302.85,-751.91 292.85,-748.41 292.85,-755.41"/>
</g>
<!-- E_W2_1 -->
<g id="node14" class="node">
<title>E_W2_1</title>
<path fill="none" stroke="black" d="M381.75,-310.91C381.75,-310.91 317.75,-310.91 317.75,-310.91 311.75,-310.91 305.75,-304.91 305.75,-298.91 305.75,-298.91 305.75,-286.91 305.75,-286.91 305.75,-280.91 311.75,-274.91 317.75,-274.91 317.75,-274.91 381.75,-274.91 381.75,-274.91 387.75,-274.91 393.75,-280.91 393.75,-286.91 393.75,-286.91 393.75,-298.91 393.75,-298.91 393.75,-304.91 387.75,-310.91 381.75,-310.91"/>
<text xml:space="preserve" text-anchor="middle" x="349.75" y="-294.86" font-family="Times,serif" font-size="9.00">SPEC&#45;0008.E.W2.1</text>
<text xml:space="preserve" text-anchor="middle" x="349.75" y="-284.36" font-family="Times,serif" font-size="9.00">Patch blobs</text>
</g>
<!-- W_W1_2&#45;&gt;E_W2_1 -->
<g id="edge28" class="edge">
<title>W_W1_2&#45;&gt;E_W2_1</title>
<path fill="none" stroke="black" d="M223.33,-733.63C243.38,-663.17 315.77,-408.8 340.44,-322.09"/>
<polygon fill="black" stroke="black" points="343.75,-323.27 343.12,-312.69 337.02,-321.35 343.75,-323.27"/>
</g>
<!-- W_W1_3&#45;&gt;W_W1_5 -->
<g id="edge4" class="edge">
<title>W_W1_3&#45;&gt;W_W1_5</title>
<path fill="none" stroke="black" d="M262.71,-787.47C272.7,-783.35 283.4,-778.92 293.75,-774.64"/>
<polygon fill="black" stroke="black" points="295.06,-777.89 302.96,-770.83 292.39,-771.42 295.06,-777.89"/>
</g>
<!-- W_W1_4 -->
<g id="node4" class="node">
<title>W_W1_4</title>
<path fill="none" stroke="black" d="M113.12,-769.91C113.12,-769.91 46.88,-769.91 46.88,-769.91 40.88,-769.91 34.88,-763.91 34.88,-757.91 34.88,-757.91 34.88,-745.91 34.88,-745.91 34.88,-739.91 40.88,-733.91 46.88,-733.91 46.88,-733.91 113.12,-733.91 113.12,-733.91 119.12,-733.91 125.12,-739.91 125.12,-745.91 125.12,-745.91 125.12,-757.91 125.12,-757.91 125.12,-763.91 119.12,-769.91 113.12,-769.91"/>
<text xml:space="preserve" text-anchor="middle" x="80" y="-753.86" font-family="Times,serif" font-size="9.00">SPEC&#45;0008.W.W1.4</text>
<text xml:space="preserve" text-anchor="middle" x="80" y="-743.36" font-family="Times,serif" font-size="9.00">IDs + registry.blob</text>
</g>
<!-- W_W3_1 -->
<g id="node6" class="node">
<title>W_W3_1</title>
<path fill="none" stroke="black" d="M389.25,-690.91C389.25,-690.91 310.25,-690.91 310.25,-690.91 304.25,-690.91 298.25,-684.91 298.25,-678.91 298.25,-678.91 298.25,-666.91 298.25,-666.91 298.25,-660.91 304.25,-654.91 310.25,-654.91 310.25,-654.91 389.25,-654.91 389.25,-654.91 395.25,-654.91 401.25,-660.91 401.25,-666.91 401.25,-666.91 401.25,-678.91 401.25,-678.91 401.25,-684.91 395.25,-690.91 389.25,-690.91"/>
<text xml:space="preserve" text-anchor="middle" x="349.75" y="-674.86" font-family="Times,serif" font-size="9.00">SPEC&#45;0008.W.W3.1</text>
<text xml:space="preserve" text-anchor="middle" x="349.75" y="-664.36" font-family="Times,serif" font-size="9.00">Schema/registry artifacts</text>
</g>
<!-- W_W1_4&#45;&gt;W_W3_1 -->
<g id="edge5" class="edge">
<title>W_W1_4&#45;&gt;W_W3_1</title>
<path fill="none" stroke="black" d="M125.49,-735.49C135.83,-731.85 146.82,-728.13 157.12,-724.91 200.25,-711.43 249.44,-698.12 287.19,-688.34"/>
<polygon fill="black" stroke="black" points="287.74,-691.82 296.55,-685.93 285.99,-685.04 287.74,-691.82"/>
</g>
<!-- E_W3_1 -->
<g id="node17" class="node">
<title>E_W3_1</title>
<path fill="none" stroke="black" d="M521.5,-468.91C521.5,-468.91 457.5,-468.91 457.5,-468.91 451.5,-468.91 445.5,-462.91 445.5,-456.91 445.5,-456.91 445.5,-444.91 445.5,-444.91 445.5,-438.91 451.5,-432.91 457.5,-432.91 457.5,-432.91 521.5,-432.91 521.5,-432.91 527.5,-432.91 533.5,-438.91 533.5,-444.91 533.5,-444.91 533.5,-456.91 533.5,-456.91 533.5,-462.91 527.5,-468.91 521.5,-468.91"/>
<text xml:space="preserve" text-anchor="middle" x="489.5" y="-452.86" font-family="Times,serif" font-size="9.00">SPEC&#45;0008.E.W3.1</text>
<text xml:space="preserve" text-anchor="middle" x="489.5" y="-442.36" font-family="Times,serif" font-size="9.00">TypedRef gating</text>
</g>
<!-- W_W1_4&#45;&gt;E_W3_1 -->
<g id="edge29" class="edge">
<title>W_W1_4&#45;&gt;E_W3_1</title>
<path fill="none" stroke="black" d="M98.25,-733.6C112.08,-717.64 130.48,-693.13 138.75,-667.91 149,-636.64 133.5,-98.81 157.12,-75.91 196.34,-37.89 362.37,-39.27 402.88,-75.91 446.94,-115.76 412.2,-285.11 429.62,-341.91 438.63,-371.24 455.88,-401.73 469.39,-422.98"/>
<polygon fill="black" stroke="black" points="466.45,-424.88 474.84,-431.35 472.32,-421.06 466.45,-424.88"/>
</g>
<!-- W_W3_2 -->
<g id="node7" class="node">
<title>W_W3_2</title>
<path fill="none" stroke="black" d="M525.62,-690.91C525.62,-690.91 453.38,-690.91 453.38,-690.91 447.38,-690.91 441.38,-684.91 441.38,-678.91 441.38,-678.91 441.38,-666.91 441.38,-666.91 441.38,-660.91 447.38,-654.91 453.38,-654.91 453.38,-654.91 525.62,-654.91 525.62,-654.91 531.62,-654.91 537.62,-660.91 537.62,-666.91 537.62,-666.91 537.62,-678.91 537.62,-678.91 537.62,-684.91 531.62,-690.91 525.62,-690.91"/>
<text xml:space="preserve" text-anchor="middle" x="489.5" y="-674.86" font-family="Times,serif" font-size="9.00">SPEC&#45;0008.W.W3.2</text>
<text xml:space="preserve" text-anchor="middle" x="489.5" y="-664.36" font-family="Times,serif" font-size="9.00">Golden coverage (full)</text>
</g>
<!-- W_W1_5&#45;&gt;W_W3_2 -->
<g id="edge6" class="edge">
<title>W_W1_5&#45;&gt;W_W3_2</title>
<path fill="none" stroke="black" d="M382.7,-733.58C401.69,-722.69 425.99,-708.76 446.51,-696.98"/>
<polygon fill="black" stroke="black" points="448,-700.17 454.93,-692.16 444.52,-694.1 448,-700.17"/>
</g>
<!-- W_W3_1&#45;&gt;W_W3_2 -->
<g id="edge7" class="edge">
<title>W_W3_1&#45;&gt;W_W3_2</title>
<path fill="none" stroke="black" d="M401.65,-672.91C410.81,-672.91 420.41,-672.91 429.77,-672.91"/>
<polygon fill="black" stroke="black" points="429.49,-676.41 439.49,-672.91 429.49,-669.41 429.49,-676.41"/>
</g>
<!-- E_W3_2 -->
<g id="node18" class="node">
<title>E_W3_2</title>
<path fill="none" stroke="black" d="M653.75,-505.91C653.75,-505.91 589.75,-505.91 589.75,-505.91 583.75,-505.91 577.75,-499.91 577.75,-493.91 577.75,-493.91 577.75,-481.91 577.75,-481.91 577.75,-475.91 583.75,-469.91 589.75,-469.91 589.75,-469.91 653.75,-469.91 653.75,-469.91 659.75,-469.91 665.75,-475.91 665.75,-481.91 665.75,-481.91 665.75,-493.91 665.75,-493.91 665.75,-499.91 659.75,-505.91 653.75,-505.91"/>
<text xml:space="preserve" text-anchor="middle" x="621.75" y="-489.86" font-family="Times,serif" font-size="9.00">SPEC&#45;0008.E.W3.2</text>
<text xml:space="preserve" text-anchor="middle" x="621.75" y="-479.36" font-family="Times,serif" font-size="9.00">Schema dist + pin</text>
</g>
<!-- W_W3_1&#45;&gt;E_W3_2 -->
<g id="edge30" class="edge">
<title>W_W3_1&#45;&gt;E_W3_2</title>
<path fill="none" stroke="black" d="M387.87,-654.55C392.98,-651.77 398.1,-648.85 402.88,-645.91 471.83,-603.38 547.32,-545.98 588.87,-513.36"/>
<polygon fill="black" stroke="black" points="590.82,-516.28 596.51,-507.34 586.49,-510.78 590.82,-516.28"/>
</g>
<!-- W_W3_3 -->
<g id="node8" class="node">
<title>W_W3_3</title>
<path fill="none" stroke="black" d="M382.88,-636.91C382.88,-636.91 316.62,-636.91 316.62,-636.91 310.62,-636.91 304.62,-630.91 304.62,-624.91 304.62,-624.91 304.62,-612.91 304.62,-612.91 304.62,-606.91 310.62,-600.91 316.62,-600.91 316.62,-600.91 382.88,-600.91 382.88,-600.91 388.88,-600.91 394.88,-606.91 394.88,-612.91 394.88,-612.91 394.88,-624.91 394.88,-624.91 394.88,-630.91 388.88,-636.91 382.88,-636.91"/>
<text xml:space="preserve" text-anchor="middle" x="349.75" y="-620.86" font-family="Times,serif" font-size="9.00">SPEC&#45;0008.W.W3.3</text>
<text xml:space="preserve" text-anchor="middle" x="349.75" y="-610.36" font-family="Times,serif" font-size="9.00">GuardedView gen</text>
</g>
<!-- E_W3_4 -->
<g id="node20" class="node">
<title>E_W3_4</title>
<path fill="none" stroke="black" d="M529.38,-522.91C529.38,-522.91 449.62,-522.91 449.62,-522.91 443.62,-522.91 437.62,-516.91 437.62,-510.91 437.62,-510.91 437.62,-498.91 437.62,-498.91 437.62,-492.91 443.62,-486.91 449.62,-486.91 449.62,-486.91 529.38,-486.91 529.38,-486.91 535.38,-486.91 541.38,-492.91 541.38,-498.91 541.38,-498.91 541.38,-510.91 541.38,-510.91 541.38,-516.91 535.38,-522.91 529.38,-522.91"/>
<text xml:space="preserve" text-anchor="middle" x="489.5" y="-506.86" font-family="Times,serif" font-size="9.00">SPEC&#45;0008.E.W3.4</text>
<text xml:space="preserve" text-anchor="middle" x="489.5" y="-496.36" font-family="Times,serif" font-size="9.00">Runtime FootprintGuard</text>
</g>
<!-- W_W3_3&#45;&gt;E_W3_4 -->
<g id="edge31" class="edge">
<title>W_W3_3&#45;&gt;E_W3_4</title>
<path fill="none" stroke="black" d="M372.88,-600.59C395.88,-581.56 432.03,-551.64 457.79,-530.32"/>
<polygon fill="black" stroke="black" points="459.78,-533.21 465.26,-524.14 455.32,-527.82 459.78,-533.21"/>
</g>
<!-- W_W5_1 -->
<g id="node9" class="node">
<title>W_W5_1</title>
<path fill="none" stroke="black" d="M118.75,-636.91C118.75,-636.91 41.25,-636.91 41.25,-636.91 35.25,-636.91 29.25,-630.91 29.25,-624.91 29.25,-624.91 29.25,-612.91 29.25,-612.91 29.25,-606.91 35.25,-600.91 41.25,-600.91 41.25,-600.91 118.75,-600.91 118.75,-600.91 124.75,-600.91 130.75,-606.91 130.75,-612.91 130.75,-612.91 130.75,-624.91 130.75,-624.91 130.75,-630.91 124.75,-636.91 118.75,-636.91"/>
<text xml:space="preserve" text-anchor="middle" x="80" y="-620.86" font-family="Times,serif" font-size="9.00">SPEC&#45;0008.W.W5.1</text>
<text xml:space="preserve" text-anchor="middle" x="80" y="-610.36" font-family="Times,serif" font-size="9.00">Privacy types in schema</text>
</g>
<!-- E_W5_1 -->
<g id="node24" class="node">
<title>E_W5_1</title>
<path fill="none" stroke="black" d="M653.75,-158.91C653.75,-158.91 589.75,-158.91 589.75,-158.91 583.75,-158.91 577.75,-152.91 577.75,-146.91 577.75,-146.91 577.75,-134.91 577.75,-134.91 577.75,-128.91 583.75,-122.91 589.75,-122.91 589.75,-122.91 653.75,-122.91 653.75,-122.91 659.75,-122.91 665.75,-128.91 665.75,-134.91 665.75,-134.91 665.75,-146.91 665.75,-146.91 665.75,-152.91 659.75,-158.91 653.75,-158.91"/>
<text xml:space="preserve" text-anchor="middle" x="621.75" y="-142.86" font-family="Times,serif" font-size="9.00">SPEC&#45;0008.E.W5.1</text>
<text xml:space="preserve" text-anchor="middle" x="621.75" y="-132.36" font-family="Times,serif" font-size="9.00">ClaimRecord ledger</text>
</g>
<!-- W_W5_1&#45;&gt;E_W5_1 -->
<g id="edge32" class="edge">
<title>W_W5_1&#45;&gt;E_W5_1</title>
<path fill="none" stroke="black" d="M82.02,-600.52C87.42,-506.41 114.05,-81.65 157.12,-43.91 282.8,66.23 501.08,-59.6 585.76,-116.18"/>
<polygon fill="black" stroke="black" points="583.68,-119 593.93,-121.71 587.61,-113.2 583.68,-119"/>
</g>
<!-- E_W1_1 -->
<g id="node10" class="node">
<title>E_W1_1</title>
<path fill="none" stroke="black" d="M249.12,-204.91C249.12,-204.91 185.12,-204.91 185.12,-204.91 179.12,-204.91 173.12,-198.91 173.12,-192.91 173.12,-192.91 173.12,-180.91 173.12,-180.91 173.12,-174.91 179.12,-168.91 185.12,-168.91 185.12,-168.91 249.12,-168.91 249.12,-168.91 255.12,-168.91 261.12,-174.91 261.12,-180.91 261.12,-180.91 261.12,-192.91 261.12,-192.91 261.12,-198.91 255.12,-204.91 249.12,-204.91"/>
<text xml:space="preserve" text-anchor="middle" x="217.12" y="-188.86" font-family="Times,serif" font-size="9.00">SPEC&#45;0008.E.W1.1</text>
<text xml:space="preserve" text-anchor="middle" x="217.12" y="-178.36" font-family="Times,serif" font-size="9.00">BlobStore trait</text>
</g>
<!-- E_W1_2 -->
<g id="node11" class="node">
<title>E_W1_2</title>
<path fill="none" stroke="black" d="M381.75,-123.91C381.75,-123.91 317.75,-123.91 317.75,-123.91 311.75,-123.91 305.75,-117.91 305.75,-111.91 305.75,-111.91 305.75,-99.91 305.75,-99.91 305.75,-93.91 311.75,-87.91 317.75,-87.91 317.75,-87.91 381.75,-87.91 381.75,-87.91 387.75,-87.91 393.75,-93.91 393.75,-99.91 393.75,-99.91 393.75,-111.91 393.75,-111.91 393.75,-117.91 387.75,-123.91 381.75,-123.91"/>
<text xml:space="preserve" text-anchor="middle" x="349.75" y="-107.86" font-family="Times,serif" font-size="9.00">SPEC&#45;0008.E.W1.2</text>
<text xml:space="preserve" text-anchor="middle" x="349.75" y="-97.36" font-family="Times,serif" font-size="9.00">Memory BlobStore</text>
</g>
<!-- E_W1_1&#45;&gt;E_W1_2 -->
<g id="edge8" class="edge">
<title>E_W1_1&#45;&gt;E_W1_2</title>
<path fill="none" stroke="black" d="M240.01,-168.61C253.89,-157.5 272.51,-143.48 290.25,-132.91 292.12,-131.79 294.05,-130.69 296.01,-129.6"/>
<polygon fill="black" stroke="black" points="297.46,-132.79 304.69,-125.05 294.21,-126.6 297.46,-132.79"/>
</g>
<!-- E_W1_3 -->
<g id="node12" class="node">
<title>E_W1_3</title>
<path fill="none" stroke="black" d="M381.75,-177.91C381.75,-177.91 317.75,-177.91 317.75,-177.91 311.75,-177.91 305.75,-171.91 305.75,-165.91 305.75,-165.91 305.75,-153.91 305.75,-153.91 305.75,-147.91 311.75,-141.91 317.75,-141.91 317.75,-141.91 381.75,-141.91 381.75,-141.91 387.75,-141.91 393.75,-147.91 393.75,-153.91 393.75,-153.91 393.75,-165.91 393.75,-165.91 393.75,-171.91 387.75,-177.91 381.75,-177.91"/>
<text xml:space="preserve" text-anchor="middle" x="349.75" y="-161.86" font-family="Times,serif" font-size="9.00">SPEC&#45;0008.E.W1.3</text>
<text xml:space="preserve" text-anchor="middle" x="349.75" y="-151.36" font-family="Times,serif" font-size="9.00">CAS wire v1</text>
</g>
<!-- E_W1_1&#45;&gt;E_W1_3 -->
<g id="edge9" class="edge">
<title>E_W1_1&#45;&gt;E_W1_3</title>
<path fill="none" stroke="black" d="M261.62,-177.92C272.09,-175.75 283.4,-173.41 294.29,-171.16"/>
<polygon fill="black" stroke="black" points="294.88,-174.62 303.96,-169.16 293.46,-167.76 294.88,-174.62"/>
</g>
<!-- E_W1_4 -->
<g id="node13" class="node">
<title>E_W1_4</title>
<path fill="none" stroke="black" d="M381.75,-231.91C381.75,-231.91 317.75,-231.91 317.75,-231.91 311.75,-231.91 305.75,-225.91 305.75,-219.91 305.75,-219.91 305.75,-207.91 305.75,-207.91 305.75,-201.91 311.75,-195.91 317.75,-195.91 317.75,-195.91 381.75,-195.91 381.75,-195.91 387.75,-195.91 393.75,-201.91 393.75,-207.91 393.75,-207.91 393.75,-219.91 393.75,-219.91 393.75,-225.91 387.75,-231.91 381.75,-231.91"/>
<text xml:space="preserve" text-anchor="middle" x="349.75" y="-215.86" font-family="Times,serif" font-size="9.00">SPEC&#45;0008.E.W1.4</text>
<text xml:space="preserve" text-anchor="middle" x="349.75" y="-205.36" font-family="Times,serif" font-size="9.00">SchemaUniverse</text>
</g>
<!-- E_W1_1&#45;&gt;E_W1_4 -->
<g id="edge10" class="edge">
<title>E_W1_1&#45;&gt;E_W1_4</title>
<path fill="none" stroke="black" d="M261.62,-195.9C272.09,-198.06 283.4,-200.4 294.29,-202.65"/>
<polygon fill="black" stroke="black" points="293.46,-206.05 303.96,-204.65 294.88,-199.2 293.46,-206.05"/>
</g>
<!-- E_W1_1&#45;&gt;E_W2_1 -->
<g id="edge11" class="edge">
<title>E_W1_1&#45;&gt;E_W2_1</title>
<path fill="none" stroke="black" d="M232.41,-205.17C246,-221.71 267.68,-246.01 290.25,-262.91 292.86,-264.86 295.62,-266.76 298.46,-268.58"/>
<polygon fill="black" stroke="black" points="296.65,-271.57 307.03,-273.69 300.24,-265.56 296.65,-271.57"/>
</g>
<!-- E_W2_3 -->
<g id="node16" class="node">
<title>E_W2_3</title>
<path fill="none" stroke="black" d="M653.75,-310.91C653.75,-310.91 589.75,-310.91 589.75,-310.91 583.75,-310.91 577.75,-304.91 577.75,-298.91 577.75,-298.91 577.75,-286.91 577.75,-286.91 577.75,-280.91 583.75,-274.91 589.75,-274.91 589.75,-274.91 653.75,-274.91 653.75,-274.91 659.75,-274.91 665.75,-280.91 665.75,-286.91 665.75,-286.91 665.75,-298.91 665.75,-298.91 665.75,-304.91 659.75,-310.91 653.75,-310.91"/>
<text xml:space="preserve" text-anchor="middle" x="621.75" y="-294.86" font-family="Times,serif" font-size="9.00">SPEC&#45;0008.E.W2.3</text>
<text xml:space="preserve" text-anchor="middle" x="621.75" y="-284.36" font-family="Times,serif" font-size="9.00">Patch fetch</text>
</g>
<!-- E_W1_3&#45;&gt;E_W2_3 -->
<g id="edge14" class="edge">
<title>E_W1_3&#45;&gt;E_W2_3</title>
<path fill="none" stroke="black" d="M388.29,-178.4C436.65,-202.22 520.74,-243.64 573.43,-269.6"/>
<polygon fill="black" stroke="black" points="571.65,-272.62 582.17,-273.9 574.74,-266.34 571.65,-272.62"/>
</g>
<!-- E_W1_4&#45;&gt;E_W3_1 -->
<g id="edge15" class="edge">
<title>E_W1_4&#45;&gt;E_W3_1</title>
<path fill="none" stroke="black" d="M375.06,-232.33C384.82,-240.75 395.49,-251.41 402.88,-262.91 422.92,-294.09 414.82,-307.92 429.62,-341.91 441.95,-370.2 458.96,-401.03 471.53,-422.66"/>
<polygon fill="black" stroke="black" points="468.45,-424.33 476.54,-431.18 474.49,-420.78 468.45,-424.33"/>
</g>
<!-- E_W2_2 -->
<g id="node15" class="node">
<title>E_W2_2</title>
<path fill="none" stroke="black" d="M529.75,-310.91C529.75,-310.91 449.25,-310.91 449.25,-310.91 443.25,-310.91 437.25,-304.91 437.25,-298.91 437.25,-298.91 437.25,-286.91 437.25,-286.91 437.25,-280.91 443.25,-274.91 449.25,-274.91 449.25,-274.91 529.75,-274.91 529.75,-274.91 535.75,-274.91 541.75,-280.91 541.75,-286.91 541.75,-286.91 541.75,-298.91 541.75,-298.91 541.75,-304.91 535.75,-310.91 529.75,-310.91"/>
<text xml:space="preserve" text-anchor="middle" x="489.5" y="-294.86" font-family="Times,serif" font-size="9.00">SPEC&#45;0008.E.W2.2</text>
<text xml:space="preserve" text-anchor="middle" x="489.5" y="-284.36" font-family="Times,serif" font-size="9.00">PROOF/LIGHT receipts</text>
</g>
<!-- E_W2_1&#45;&gt;E_W2_2 -->
<g id="edge12" class="edge">
<title>E_W2_1&#45;&gt;E_W2_2</title>
<path fill="none" stroke="black" d="M393.96,-292.91C403.92,-292.91 414.73,-292.91 425.35,-292.91"/>
<polygon fill="black" stroke="black" points="425.24,-296.41 435.24,-292.91 425.24,-289.41 425.24,-296.41"/>
</g>
<!-- E_W2_2&#45;&gt;E_W2_3 -->
<g id="edge13" class="edge">
<title>E_W2_2&#45;&gt;E_W2_3</title>
<path fill="none" stroke="black" d="M541.98,-292.91C549.91,-292.91 558.12,-292.91 566.12,-292.91"/>
<polygon fill="black" stroke="black" points="566.11,-296.41 576.11,-292.91 566.11,-289.41 566.11,-296.41"/>
</g>
<!-- E_W3_1&#45;&gt;E_W3_2 -->
<g id="edge16" class="edge">
<title>E_W3_1&#45;&gt;E_W3_2</title>
<path fill="none" stroke="black" d="M533.87,-463.23C544.42,-466.22 555.82,-469.46 566.79,-472.58"/>
<polygon fill="black" stroke="black" points="565.54,-475.86 576.11,-475.23 567.45,-469.13 565.54,-475.86"/>
</g>
<!-- E_W3_3 -->
<g id="node19" class="node">
<title>E_W3_3</title>
<path fill="none" stroke="black" d="M785.62,-486.91C785.62,-486.91 721.62,-486.91 721.62,-486.91 715.62,-486.91 709.62,-480.91 709.62,-474.91 709.62,-474.91 709.62,-462.91 709.62,-462.91 709.62,-456.91 715.62,-450.91 721.62,-450.91 721.62,-450.91 785.62,-450.91 785.62,-450.91 791.62,-450.91 797.62,-456.91 797.62,-462.91 797.62,-462.91 797.62,-474.91 797.62,-474.91 797.62,-480.91 791.62,-486.91 785.62,-486.91"/>
<text xml:space="preserve" text-anchor="middle" x="753.62" y="-470.86" font-family="Times,serif" font-size="9.00">SPEC&#45;0008.E.W3.3</text>
<text xml:space="preserve" text-anchor="middle" x="753.62" y="-460.36" font-family="Times,serif" font-size="9.00">CasObjectStore</text>
</g>
<!-- E_W3_1&#45;&gt;E_W3_3 -->
<g id="edge17" class="edge">
<title>E_W3_1&#45;&gt;E_W3_3</title>
<path fill="none" stroke="black" d="M533.86,-452.7C571.01,-454.38 625.94,-457.18 673.75,-460.91 681.58,-461.52 689.85,-462.25 697.96,-463.03"/>
<polygon fill="black" stroke="black" points="697.46,-466.5 707.76,-463.99 698.15,-459.53 697.46,-466.5"/>
</g>
<!-- E_W4_1 -->
<g id="node21" class="node">
<title>E_W4_1</title>
<path fill="none" stroke="black" d="M653.75,-389.91C653.75,-389.91 589.75,-389.91 589.75,-389.91 583.75,-389.91 577.75,-383.91 577.75,-377.91 577.75,-377.91 577.75,-365.91 577.75,-365.91 577.75,-359.91 583.75,-353.91 589.75,-353.91 589.75,-353.91 653.75,-353.91 653.75,-353.91 659.75,-353.91 665.75,-359.91 665.75,-365.91 665.75,-365.91 665.75,-377.91 665.75,-377.91 665.75,-383.91 659.75,-389.91 653.75,-389.91"/>
<text xml:space="preserve" text-anchor="middle" x="621.75" y="-373.86" font-family="Times,serif" font-size="9.00">SPEC&#45;0008.E.W4.1</text>
<text xml:space="preserve" text-anchor="middle" x="621.75" y="-363.36" font-family="Times,serif" font-size="9.00">SnapshotManifest</text>
</g>
<!-- E_W3_1&#45;&gt;E_W4_1 -->
<g id="edge19" class="edge">
<title>E_W3_1&#45;&gt;E_W4_1</title>
<path fill="none" stroke="black" d="M520.71,-432.58C538.5,-421.79 561.23,-408.01 580.52,-396.31"/>
<polygon fill="black" stroke="black" points="582.22,-399.37 588.96,-391.19 578.59,-393.38 582.22,-399.37"/>
</g>
<!-- E_W3_2&#45;&gt;E_W3_3 -->
<g id="edge18" class="edge">
<title>E_W3_2&#45;&gt;E_W3_3</title>
<path fill="none" stroke="black" d="M666,-481.58C676.4,-480.06 687.65,-478.41 698.48,-476.83"/>
<polygon fill="black" stroke="black" points="698.68,-480.34 708.07,-475.42 697.67,-473.41 698.68,-480.34"/>
</g>
<!-- E_W4_2 -->
<g id="node22" class="node">
<title>E_W4_2</title>
<path fill="none" stroke="black" d="M790.88,-389.91C790.88,-389.91 716.38,-389.91 716.38,-389.91 710.38,-389.91 704.38,-383.91 704.38,-377.91 704.38,-377.91 704.38,-365.91 704.38,-365.91 704.38,-359.91 710.38,-353.91 716.38,-353.91 716.38,-353.91 790.88,-353.91 790.88,-353.91 796.88,-353.91 802.88,-359.91 802.88,-365.91 802.88,-365.91 802.88,-377.91 802.88,-377.91 802.88,-383.91 796.88,-389.91 790.88,-389.91"/>
<text xml:space="preserve" text-anchor="middle" x="753.62" y="-373.86" font-family="Times,serif" font-size="9.00">SPEC&#45;0008.E.W4.2</text>
<text xml:space="preserve" text-anchor="middle" x="753.62" y="-363.36" font-family="Times,serif" font-size="9.00">Deterministic segments</text>
</g>
<!-- E_W4_1&#45;&gt;E_W4_2 -->
<g id="edge20" class="edge">
<title>E_W4_1&#45;&gt;E_W4_2</title>
<path fill="none" stroke="black" d="M666,-371.91C674.61,-371.91 683.8,-371.91 692.85,-371.91"/>
<polygon fill="black" stroke="black" points="692.68,-375.41 702.68,-371.91 692.68,-368.41 692.68,-375.41"/>
</g>
<!-- E_W5_5 -->
<g id="node28" class="node">
<title>E_W5_5</title>
<path fill="none" stroke="black" d="M785.62,-214.91C785.62,-214.91 721.62,-214.91 721.62,-214.91 715.62,-214.91 709.62,-208.91 709.62,-202.91 709.62,-202.91 709.62,-190.91 709.62,-190.91 709.62,-184.91 715.62,-178.91 721.62,-178.91 721.62,-178.91 785.62,-178.91 785.62,-178.91 791.62,-178.91 797.62,-184.91 797.62,-190.91 797.62,-190.91 797.62,-202.91 797.62,-202.91 797.62,-208.91 791.62,-214.91 785.62,-214.91"/>
<text xml:space="preserve" text-anchor="middle" x="753.62" y="-198.86" font-family="Times,serif" font-size="9.00">SPEC&#45;0008.E.W5.5</text>
<text xml:space="preserve" text-anchor="middle" x="753.62" y="-188.36" font-family="Times,serif" font-size="9.00">GC proof retention</text>
</g>
<!-- E_W4_1&#45;&gt;E_W5_5 -->
<g id="edge27" class="edge">
<title>E_W4_1&#45;&gt;E_W5_5</title>
<path fill="none" stroke="black" d="M659.65,-353.51C664.73,-350.07 669.61,-346.19 673.75,-341.91 706.57,-307.96 729.82,-257.65 742.22,-226.1"/>
<polygon fill="black" stroke="black" points="745.47,-227.39 745.76,-216.8 738.93,-224.9 745.47,-227.39"/>
</g>
<!-- E_W4_3 -->
<g id="node23" class="node">
<title>E_W4_3</title>
<path fill="none" stroke="black" d="M917.5,-389.91C917.5,-389.91 853.5,-389.91 853.5,-389.91 847.5,-389.91 841.5,-383.91 841.5,-377.91 841.5,-377.91 841.5,-365.91 841.5,-365.91 841.5,-359.91 847.5,-353.91 853.5,-353.91 853.5,-353.91 917.5,-353.91 917.5,-353.91 923.5,-353.91 929.5,-359.91 929.5,-365.91 929.5,-365.91 929.5,-377.91 929.5,-377.91 929.5,-383.91 923.5,-389.91 917.5,-389.91"/>
<text xml:space="preserve" text-anchor="middle" x="885.5" y="-373.86" font-family="Times,serif" font-size="9.00">SPEC&#45;0008.E.W4.3</text>
<text xml:space="preserve" text-anchor="middle" x="885.5" y="-363.36" font-family="Times,serif" font-size="9.00">WSC pack/unpack</text>
</g>
<!-- E_W4_2&#45;&gt;E_W4_3 -->
<g id="edge21" class="edge">
<title>E_W4_2&#45;&gt;E_W4_3</title>
<path fill="none" stroke="black" d="M803.36,-371.91C811.96,-371.91 820.98,-371.91 829.74,-371.91"/>
<polygon fill="black" stroke="black" points="829.54,-375.41 839.54,-371.91 829.54,-368.41 829.54,-375.41"/>
</g>
<!-- E_W5_2 -->
<g id="node25" class="node">
<title>E_W5_2</title>
<path fill="none" stroke="black" d="M793.5,-140.91C793.5,-140.91 713.75,-140.91 713.75,-140.91 707.75,-140.91 701.75,-134.91 701.75,-128.91 701.75,-128.91 701.75,-116.91 701.75,-116.91 701.75,-110.91 707.75,-104.91 713.75,-104.91 713.75,-104.91 793.5,-104.91 793.5,-104.91 799.5,-104.91 805.5,-110.91 805.5,-116.91 805.5,-116.91 805.5,-128.91 805.5,-128.91 805.5,-134.91 799.5,-140.91 793.5,-140.91"/>
<text xml:space="preserve" text-anchor="middle" x="753.62" y="-124.86" font-family="Times,serif" font-size="9.00">SPEC&#45;0008.E.W5.2</text>
<text xml:space="preserve" text-anchor="middle" x="753.62" y="-114.36" font-family="Times,serif" font-size="9.00">PrivateAtom/OpaqueRef</text>
</g>
<!-- E_W5_1&#45;&gt;E_W5_2 -->
<g id="edge22" class="edge">
<title>E_W5_1&#45;&gt;E_W5_2</title>
<path fill="none" stroke="black" d="M666,-134.91C673.81,-133.83 682.09,-132.68 690.32,-131.54"/>
<polygon fill="black" stroke="black" points="690.54,-135.04 699.96,-130.21 689.58,-128.11 690.54,-135.04"/>
</g>
<!-- E_W5_4 -->
<g id="node27" class="node">
<title>E_W5_4</title>
<path fill="none" stroke="black" d="M917.5,-194.91C917.5,-194.91 853.5,-194.91 853.5,-194.91 847.5,-194.91 841.5,-188.91 841.5,-182.91 841.5,-182.91 841.5,-170.91 841.5,-170.91 841.5,-164.91 847.5,-158.91 853.5,-158.91 853.5,-158.91 917.5,-158.91 917.5,-158.91 923.5,-158.91 929.5,-164.91 929.5,-170.91 929.5,-170.91 929.5,-182.91 929.5,-182.91 929.5,-188.91 923.5,-194.91 917.5,-194.91"/>
<text xml:space="preserve" text-anchor="middle" x="885.5" y="-178.86" font-family="Times,serif" font-size="9.00">SPEC&#45;0008.E.W5.4</text>
<text xml:space="preserve" text-anchor="middle" x="885.5" y="-168.36" font-family="Times,serif" font-size="9.00">Mind mode</text>
</g>
<!-- E_W5_1&#45;&gt;E_W5_4 -->
<g id="edge24" class="edge">
<title>E_W5_1&#45;&gt;E_W5_4</title>
<path fill="none" stroke="black" d="M665.97,-146.85C710.87,-153.03 781.24,-162.7 829.94,-169.4"/>
<polygon fill="black" stroke="black" points="829.33,-172.85 839.71,-170.75 830.28,-165.92 829.33,-172.85"/>
</g>
<!-- E_W5_1&#45;&gt;E_W5_5 -->
<g id="edge26" class="edge">
<title>E_W5_1&#45;&gt;E_W5_5</title>
<path fill="none" stroke="black" d="M665.64,-159.4C676.39,-164.03 688.05,-169.06 699.24,-173.89"/>
<polygon fill="black" stroke="black" points="697.83,-177.09 708.39,-177.83 700.6,-170.66 697.83,-177.09"/>
</g>
<!-- E_W5_3 -->
<g id="node26" class="node">
<title>E_W5_3</title>
<path fill="none" stroke="black" d="M917.5,-140.91C917.5,-140.91 853.5,-140.91 853.5,-140.91 847.5,-140.91 841.5,-134.91 841.5,-128.91 841.5,-128.91 841.5,-116.91 841.5,-116.91 841.5,-110.91 847.5,-104.91 853.5,-104.91 853.5,-104.91 917.5,-104.91 917.5,-104.91 923.5,-104.91 929.5,-110.91 929.5,-116.91 929.5,-116.91 929.5,-128.91 929.5,-128.91 929.5,-134.91 923.5,-140.91 917.5,-140.91"/>
<text xml:space="preserve" text-anchor="middle" x="885.5" y="-124.86" font-family="Times,serif" font-size="9.00">SPEC&#45;0008.E.W5.3</text>
<text xml:space="preserve" text-anchor="middle" x="885.5" y="-114.36" font-family="Times,serif" font-size="9.00">VaultResolver</text>
</g>
<!-- E_W5_2&#45;&gt;E_W5_3 -->
<g id="edge23" class="edge">
<title>E_W5_2&#45;&gt;E_W5_3</title>
<path fill="none" stroke="black" d="M805.96,-122.91C813.77,-122.91 821.86,-122.91 829.74,-122.91"/>
<polygon fill="black" stroke="black" points="829.57,-126.41 839.57,-122.91 829.57,-119.41 829.57,-126.41"/>
</g>
<!-- E_W5_2&#45;&gt;E_W5_4 -->
<g id="edge25" class="edge">
<title>E_W5_2&#45;&gt;E_W5_4</title>
<path fill="none" stroke="black" d="M798.96,-141.34C809.21,-145.6 820.22,-150.18 830.83,-154.59"/>
<polygon fill="black" stroke="black" points="829.27,-157.73 839.85,-158.34 831.96,-151.27 829.27,-157.73"/>
</g>
</g>
</svg>
