<svg width="745.522" height="214.244" viewBox="0 0 745.522 214.244" xmlns="http://www.w3.org/2000/svg"><g id="svgGroup" stroke-linecap="round" fill-rule="evenodd" font-size="9pt" stroke="#000" stroke-width="1" fill="#ffffff" style="stroke:#000;stroke-width:1;fill:#ffffff"><path d="M 164.71 199.531 L 156.91 130.531 C 128.11 141.031 102.01 145.831 85.51 145.831 C 54.31 145.831 14.71 129.331 7.51 99.031 C 24.91 114.031 56.41 122.731 87.31 122.731 C 132.91 122.731 177.91 104.431 177.91 62.431 C 177.91 24.631 141.01 0.031 89.71 0.031 C 14.11 0.031 0.01 52.531 0.01 99.031 C 0.01 172.531 34.51 214.231 90.91 214.231 C 105.91 214.231 131.71 211.231 164.71 199.531 Z M 6.31 91.231 L 6.31 89.431 C 6.31 61.531 31.81 39.031 60.61 39.031 C 75.91 39.031 97.51 45.331 97.51 73.831 C 97.51 97.831 81.91 106.231 62.11 106.231 C 44.11 106.231 22.81 99.331 6.31 91.231 Z" id="1"/><path d="M 367.81 139.231 L 290.11 90.031 C 290.41 147.331 262.81 175.231 239.71 175.231 C 218.71 175.231 192.91 152.731 192.91 125.131 C 192.91 88.531 237.91 68.431 272.41 68.431 C 288.91 68.431 315.01 73.231 343.51 83.731 L 351.61 14.731 C 318.61 3.031 292.81 0.031 277.51 0.031 C 221.41 0.031 186.91 41.731 186.91 115.231 C 186.91 161.731 201.01 214.231 272.41 214.231 C 306.91 214.231 353.41 201.931 367.81 139.231 Z" id="2"/><path d="M 454.21 211.231 L 543.31 211.231 C 549.31 112.231 468.01 133.831 543.31 3.031 L 454.21 3.031 C 476.41 57.631 496.21 83.731 449.71 95.731 C 442.21 97.831 435.91 98.431 430.81 98.431 C 417.61 98.431 410.71 93.331 406.51 88.531 C 400.51 81.331 385.81 69.331 449.41 3.031 L 360.01 3.031 C 354.31 102.031 435.31 80.431 360.01 211.231 L 449.41 211.231 C 447.91 171.931 388.21 112.231 455.41 101.731 C 459.91 101.131 464.11 100.531 468.01 100.531 C 482.11 100.531 492.01 105.331 496.81 113.731 C 508.51 132.931 492.01 171.031 454.21 211.231 Z" id="3"/><path d="M 745.51 107.131 C 745.51 44.731 704.71 0.031 643.81 0.031 C 582.61 0.031 541.81 44.731 541.81 107.131 C 541.81 169.531 582.61 214.231 643.81 214.231 C 704.71 214.231 745.51 169.531 745.51 107.131 Z M 629.41 130.231 C 603.31 88.831 576.01 30.031 590.11 21.331 C 591.31 20.731 592.51 20.431 593.71 20.431 C 610.21 20.431 646.81 65.731 670.81 104.131 C 697.21 145.831 711.61 183.931 698.11 192.631 C 696.31 193.531 694.51 194.131 692.41 194.131 C 677.41 194.131 652.51 166.831 629.41 130.231 Z" id="4"/></g></svg>