<svg viewBox="0 0 1920 1080" xmlns="http://www.w3.org/2000/svg">
  <rect width="1920" height="1080" fill="#1a1a2e" />

  <rect width="1920" height="48" fill="#16213e" />
  <text x="16" y="30" font-family="system-ui" font-size="18" font-weight="600" fill="#f39c12">ECHO</text>
  <text x="100" y="30" font-family="system-ui" font-size="14" fill="#7f8c8d">/ Temporal Meta-Graph Explorer</text>

  <g transform="translate(1600, 12)">
    <rect width="140" height="24" rx="4" fill="#f39c12" stroke="#e67e22" stroke-width="1" />
    <text x="70" y="17" text-anchor="middle" font-family="system-ui" font-size="12" fill="#16213e" font-weight="600">🕐 Time Graph</text>
    <rect x="148" width="140" height="24" rx="4" fill="#0f3460" stroke="#34495e" stroke-width="1" />
    <text x="218" y="17" text-anchor="middle" font-family="system-ui" font-size="12" fill="#7f8c8d">🎮 State Graph</text>
  </g>

  <rect x="20" y="68" width="1880" height="520" fill="#16213e" rx="8" />

  <g transform="translate(40, 88)">
    <text y="0" font-family="system-ui" font-size="18" font-weight="600" fill="#f39c12">Execution History DAG</text>
    <text y="20" font-family="system-ui" font-size="12" fill="#7f8c8d">Time is a graph: branching represents independent rule orderings, convergence proves confluence</text>
  </g>

  <g transform="translate(80, 150)">
    <g id="tick0">
      <circle cx="0" cy="0" r="30" fill="#2ecc71" stroke="#27ae60" stroke-width="3" />
      <text x="0" y="-45" text-anchor="middle" font-family="system-ui" font-size="11" fill="#7f8c8d">T:0</text>
      <text x="0" y="5" text-anchor="middle" font-family="system-ui" font-size="13" font-weight="600" fill="#fff">Init</text>
      <text x="0" y="50" text-anchor="middle" font-family="monospace" font-size="9" fill="#7f8c8d">2 entities</text>
    </g>

    <g transform="translate(180, 0)">
      <circle cx="0" cy="0" r="30" fill="#3498db" stroke="#2c3e50" stroke-width="3" />
      <text x="0" y="-45" text-anchor="middle" font-family="system-ui" font-size="11" fill="#7f8c8d">T:1</text>
      <text x="0" y="5" text-anchor="middle" font-family="monospace" font-size="10" fill="#fff">σ₁</text>
      <text x="0" y="50" text-anchor="middle" font-family="monospace" font-size="9" fill="#7f8c8d">Movement</text>
    </g>

    <g transform="translate(360, 0)">
      <circle cx="0" cy="0" r="30" fill="#f39c12" stroke="#e67e22" stroke-width="3" />
      <text x="0" y="-45" text-anchor="middle" font-family="system-ui" font-size="11" fill="#7f8c8d">T:2</text>
      <text x="0" y="5" text-anchor="middle" font-family="monospace" font-size="10" fill="#fff">σ₂</text>
      <text x="0" y="50" text-anchor="middle" font-family="monospace" font-size="9" fill="#f39c12" font-weight="600">⑂ BRANCH</text>

      <circle cx="0" cy="-35" r="6" fill="#f39c12" opacity="0.8" />
      <text x="0" y="-70" text-anchor="middle" font-family="system-ui" font-size="10" fill="#f39c12">2 independent rules:</text>
      <text x="0" y="-58" text-anchor="middle" font-family="system-ui" font-size="9" fill="#ecf0f1">CollisionCheck ⊥ HealthRegen</text>
    </g>

    <g transform="translate(540, -100)">
      <circle cx="0" cy="0" r="30" fill="#9b59b6" stroke="#8e44ad" stroke-width="3" />
      <text x="0" y="-45" text-anchor="middle" font-family="system-ui" font-size="11" fill="#7f8c8d">T:3a</text>
      <text x="0" y="5" text-anchor="middle" font-family="monospace" font-size="10" fill="#fff">σ₃ᵃ</text>
      <text x="0" y="50" text-anchor="middle" font-family="monospace" font-size="9" fill="#9b59b6">Collision → Regen</text>
    </g>

    <g transform="translate(540, 100)">
      <circle cx="0" cy="0" r="30" fill="#9b59b6" stroke="#8e44ad" stroke-width="3" />
      <text x="0" y="-45" text-anchor="middle" font-family="system-ui" font-size="11" fill="#7f8c8d">T:3b</text>
      <text x="0" y="5" text-anchor="middle" font-family="monospace" font-size="10" fill="#fff">σ₃ᵇ</text>
      <text x="0" y="50" text-anchor="middle" font-family="monospace" font-size="9" fill="#9b59b6">Regen → Collision</text>
    </g>

    <g transform="translate(720, -100)">
      <circle cx="0" cy="0" r="30" fill="#3498db" stroke="#2c3e50" stroke-width="3" />
      <text x="0" y="-45" text-anchor="middle" font-family="system-ui" font-size="11" fill="#7f8c8d">T:4a</text>
      <text x="0" y="5" text-anchor="middle" font-family="monospace" font-size="10" fill="#fff">σ₄ᵃ</text>
    </g>

    <g transform="translate(720, 100)">
      <circle cx="0" cy="0" r="30" fill="#3498db" stroke="#2c3e50" stroke-width="3" />
      <text x="0" y="-45" text-anchor="middle" font-family="system-ui" font-size="11" fill="#7f8c8d">T:4b</text>
      <text x="0" y="5" text-anchor="middle" font-family="monospace" font-size="10" fill="#fff">σ₄ᵇ</text>
    </g>

    <g transform="translate(900, 0)">
      <circle cx="0" cy="0" r="35" fill="#2ecc71" stroke="#27ae60" stroke-width="4" />
      <text x="0" y="-50" text-anchor="middle" font-family="system-ui" font-size="11" fill="#7f8c8d">T:5</text>
      <text x="0" y="5" text-anchor="middle" font-family="monospace" font-size="11" fill="#fff">σ₅</text>
      <text x="0" y="55" text-anchor="middle" font-family="monospace" font-size="9" fill="#2ecc71" font-weight="600">✓ CONFLUENT</text>

      <circle cx="0" cy="-40" r="8" fill="#2ecc71" opacity="0.8" />
      <text x="0" y="-38" text-anchor="middle" font-family="system-ui" font-size="12" fill="#fff" font-weight="600">≅</text>
      <text x="0" y="-75" text-anchor="middle" font-family="system-ui" font-size="10" fill="#2ecc71">Graph isomorphic!</text>
      <text x="0" y="-63" text-anchor="middle" font-family="system-ui" font-size="9" fill="#ecf0f1">σ₄ᵃ ≅ σ₄ᵇ (up to IDs)</text>
    </g>

    <g transform="translate(1080, 0)">
      <circle cx="0" cy="0" r="30" fill="#3498db" stroke="#2c3e50" stroke-width="3" />
      <text x="0" y="-45" text-anchor="middle" font-family="system-ui" font-size="11" fill="#7f8c8d">T:6</text>
      <text x="0" y="5" text-anchor="middle" font-family="monospace" font-size="10" fill="#fff">σ₆</text>
    </g>

    <g transform="translate(1260, 0)">
      <circle cx="0" cy="0" r="30" fill="#f39c12" stroke="#e67e22" stroke-width="3" />
      <text x="0" y="-45" text-anchor="middle" font-family="system-ui" font-size="11" fill="#7f8c8d">T:7</text>
      <text x="0" y="5" text-anchor="middle" font-family="monospace" font-size="10" fill="#fff">σ₇</text>
      <text x="0" y="50" text-anchor="middle" font-family="monospace" font-size="9" fill="#f39c12" font-weight="600">⑂ BRANCH</text>
      <circle cx="0" cy="-35" r="6" fill="#f39c12" opacity="0.8" />
    </g>

    <g transform="translate(1440, -80)">
      <circle cx="0" cy="0" r="30" fill="#9b59b6" stroke="#8e44ad" stroke-width="3" />
      <text x="0" y="5" text-anchor="middle" font-family="monospace" font-size="10" fill="#fff">σ₈ᵃ</text>
    </g>

    <g transform="translate(1440, 80)">
      <circle cx="0" cy="0" r="30" fill="#9b59b6" stroke="#8e44ad" stroke-width="3" />
      <text x="0" y="5" text-anchor="middle" font-family="monospace" font-size="10" fill="#fff">σ₈ᵇ</text>
    </g>

    <g transform="translate(1620, -40)">
      <circle cx="0" cy="0" r="30" fill="#3498db" stroke="#2c3e50" stroke-width="3" />
      <text x="0" y="5" text-anchor="middle" font-family="monospace" font-size="10" fill="#fff">σ₉</text>
    </g>

    <g transform="translate(1620, 40)">
      <circle cx="0" cy="0" r="30" fill="#3498db" stroke="#2c3e50" stroke-width="3" />
      <text x="0" y="5" text-anchor="middle" font-family="monospace" font-size="10" fill="#fff">σ₉'</text>
    </g>

    <defs>
      <marker id="arrow-time" markerWidth="10" markerHeight="10" refX="9" refY="3" orient="auto">
        <polygon points="0 0, 10 3, 0 6" fill="#7f8c8d" />
      </marker>
      <marker id="arrow-branch" markerWidth="10" markerHeight="10" refX="9" refY="3" orient="auto">
        <polygon points="0 0, 10 3, 0 6" fill="#f39c12" />
      </marker>
      <marker id="arrow-converge" markerWidth="10" markerHeight="10" refX="9" refY="3" orient="auto">
        <polygon points="0 0, 10 3, 0 6" fill="#2ecc71" />
      </marker>
    </defs>

    <line x1="30" y1="0" x2="150" y2="0" stroke="#7f8c8d" stroke-width="3" marker-end="url(#arrow-time)" />
    <line x1="210" y1="0" x2="330" y2="0" stroke="#7f8c8d" stroke-width="3" marker-end="url(#arrow-time)" />

    <path d="M 390,0 Q 450,-40 510,-100" fill="none" stroke="#f39c12" stroke-width="3" marker-end="url(#arrow-branch)" />
    <path d="M 390,0 Q 450,40 510,100" fill="none" stroke="#f39c12" stroke-width="3" marker-end="url(#arrow-branch)" />

    <line x1="570" y1="-100" x2="690" y2="-100" stroke="#9b59b6" stroke-width="3" marker-end="url(#arrow-time)" />
    <line x1="570" y1="100" x2="690" y2="100" stroke="#9b59b6" stroke-width="3" marker-end="url(#arrow-time)" />

    <path d="M 750,-100 Q 810,-60 870,-10" fill="none" stroke="#2ecc71" stroke-width="3" marker-end="url(#arrow-converge)" />
    <path d="M 750,100 Q 810,60 870,10" fill="none" stroke="#2ecc71" stroke-width="3" marker-end="url(#arrow-converge)" />

    <line x1="935" y1="0" x2="1050" y2="0" stroke="#7f8c8d" stroke-width="3" marker-end="url(#arrow-time)" />
    <line x1="1110" y1="0" x2="1230" y2="0" stroke="#7f8c8d" stroke-width="3" marker-end="url(#arrow-time)" />

    <path d="M 1290,0 Q 1350,-35 1410,-80" fill="none" stroke="#f39c12" stroke-width="3" marker-end="url(#arrow-branch)" />
    <path d="M 1290,0 Q 1350,35 1410,80" fill="none" stroke="#f39c12" stroke-width="3" marker-end="url(#arrow-branch)" />

    <path d="M 1470,-80 Q 1530,-65 1590,-40" fill="none" stroke="#9b59b6" stroke-width="3" marker-end="url(#arrow-time)" />
    <path d="M 1470,80 Q 1530,65 1590,40" fill="none" stroke="#9b59b6" stroke-width="3" marker-end="url(#arrow-time)" />

    <text x="90" y="-12" font-family="system-ui" font-size="9" fill="#ecf0f1">Movement</text>
    <text x="270" y="-12" font-family="system-ui" font-size="9" fill="#ecf0f1">Input</text>
    <text x="430" y="-60" font-family="system-ui" font-size="9" fill="#f39c12">Collision</text>
    <text x="430" y="70" font-family="system-ui" font-size="9" fill="#f39c12">HealthRegen</text>
    <text x="630" y="-112" font-family="system-ui" font-size="9" fill="#9b59b6">HealthRegen</text>
    <text x="630" y="112" font-family="system-ui" font-size="9" fill="#9b59b6">Collision</text>
  </g>

  <g transform="translate(1520, 150)" font-family="system-ui" font-size="11">
    <text x="0" y="0" fill="#f39c12" font-weight="600">Legend:</text>

    <circle cx="8" cy="24" r="8" fill="#2ecc71" />
    <text x="24" y="28" fill="#ecf0f1">Init / Confluence</text>

    <circle cx="8" cy="52" r="8" fill="#f39c12" />
    <text x="24" y="56" fill="#ecf0f1">Branch Point</text>

    <circle cx="8" cy="80" r="8" fill="#9b59b6" />
    <text x="24" y="84" fill="#ecf0f1">Branch State</text>

    <circle cx="8" cy="108" r="8" fill="#3498db" />
    <text x="24" y="112" fill="#ecf0f1">Regular State</text>

    <rect x="0" y="130" width="200" height="1" fill="#34495e" />

    <text x="0" y="152" fill="#7f8c8d" font-size="9">⊥ = Independent rules</text>
    <text x="0" y="168" fill="#7f8c8d" font-size="9">≅ = Graph isomorphism</text>
    <text x="0" y="184" fill="#7f8c8d" font-size="9">σ = Game state at tick</text>
  </g>

  <rect x="20" y="608" width="1880" height="452" fill="#16213e" rx="8" />

  <g transform="translate(40, 628)">
    <text y="0" font-family="system-ui" font-size="18" font-weight="600" fill="#f39c12">State Graph Comparison</text>
    <text y="20" font-family="system-ui" font-size="12" fill="#7f8c8d">Comparing: T:4a (σ₄ᵃ) vs T:4b (σ₄ᵇ) - Verifying confluence...</text>
  </g>

  <g transform="translate(40, 680)">

    <g>
      <rect width="880" height="360" rx="4" fill="#0f3460" stroke="#9b59b6" stroke-width="2" />
      <text x="440" y="24" text-anchor="middle" font-family="system-ui" font-size="14" font-weight="600" fill="#9b59b6">Branch A: Collision → Regen</text>

      <g transform="translate(100, 80)">
        <circle cx="0" cy="0" r="25" fill="#3498db" stroke="#2c3e50" stroke-width="2" />
        <text x="0" y="5" text-anchor="middle" font-family="system-ui" font-size="10" fill="#fff">Player</text>
        <text x="0" y="-40" text-anchor="middle" font-family="monospace" font-size="9" fill="#ecf0f1">ID: e1</text>

        <circle cx="250" cy="0" r="25" fill="#e74c3c" stroke="#2c3e50" stroke-width="2" />
        <text x="250" y="5" text-anchor="middle" font-family="system-ui" font-size="10" fill="#fff">Enemy</text>
        <text x="250" y="-40" text-anchor="middle" font-family="monospace" font-size="9" fill="#ecf0f1">ID: e2</text>

        <rect x="-60" y="80" width="120" height="50" rx="4" fill="#9b59b6" stroke="#2c3e50" stroke-width="2" />
        <text x="0" y="100" text-anchor="middle" font-family="system-ui" font-size="10" fill="#fff">Health</text>
        <text x="0" y="115" text-anchor="middle" font-family="monospace" font-size="9" fill="#2ecc71">72/100</text>

        <rect x="190" y="80" width="120" height="50" rx="4" fill="#9b59b6" stroke="#2c3e50" stroke-width="2" />
        <text x="250" y="100" text-anchor="middle" font-family="system-ui" font-size="10" fill="#fff">Health</text>
        <text x="250" y="115" text-anchor="middle" font-family="monospace" font-size="9" fill="#2ecc71">100/100</text>
        
        <line x1="0" y1="25" x2="0" y2="80" stroke="#7f8c8d" stroke-width="2" marker-end="url(#arrow-time)"/>
        <text x="0" y="55" text-anchor="middle" font-family="system-ui" font-size="8" fill="#7f8c8d">has</text>
        <line x1="250" y1="25" x2="250" y2="80" stroke="#7f8c8d" stroke-width="2" marker-end="url(#arrow-time)"/>
        <text x="250" y="55" text-anchor="middle" font-family="system-ui" font-size="8" fill="#7f8c8d">has</text>

        <path d="M 25,0 Q 125, -50 225,0" fill="none" stroke="#e74c3c" stroke-width="2" marker-end="url(#arrow-time)"/>
        <text x="125" y="-30" text-anchor="middle" font-family="system-ui" font-size="9" fill="#e74c3c">CollidedWith</text>
      </g>
    </g>
    
    <g transform="translate(900, 0)">
      <rect width="880" height="360" rx="4" fill="#0f3460" stroke="#9b59b6" stroke-width="2" />
      <text x="440" y="24" text-anchor="middle" font-family="system-ui" font-size="14" font-weight="600" fill="#9b59b6">Branch B: Regen → Collision</text>
      
      <g transform="translate(100, 80)">
        <circle cx="0" cy="0" r="25" fill="#3498db" stroke="#2c3e50" stroke-width="2" />
        <text x="0" y="5" text-anchor="middle" font-family="system-ui" font-size="10" fill="#fff">Player</text>
        <text x="0" y="-40" text-anchor="middle" font-family="monospace" font-size="9" fill="#ecf0f1">ID: e1</text>

        <circle cx="250" cy="0" r="25" fill="#e74c3c" stroke="#2c3e50" stroke-width="2" />
        <text x="250" y="5" text-anchor="middle" font-family="system-ui" font-size="10" fill="#fff">Enemy</text>
        <text x="250" y="-40" text-anchor="middle" font-family="monospace" font-size="9" fill="#ecf0f1">ID: e2</text>

        <rect x="-60" y="80" width="120" height="50" rx="4" fill="#9b59b6" stroke="#2c3e50" stroke-width="2" />
        <text x="0" y="100" text-anchor="middle" font-family="system-ui" font-size="10" fill="#fff">Health</text>
        <text x="0" y="115" text-anchor="middle" font-family="monospace" font-size="9" fill="#2ecc71">72/100</text>

        <rect x="190" y="80" width="120" height="50" rx="4" fill="#9b59b6" stroke="#2c3e50" stroke-width="2" />
        <text x="250" y="100" text-anchor="middle" font-family="system-ui" font-size="10" fill="#fff">Health</text>
        <text x="250" y="115" text-anchor="middle" font-family="monospace" font-size="9" fill="#2ecc71">100/100</text>
        
        <line x1="0" y1="25" x2="0" y2="80" stroke="#7f8c8d" stroke-width="2" marker-end="url(#arrow-time)"/>
        <text x="0" y="55" text-anchor="middle" font-family="system-ui" font-size="8" fill="#7f8c8d">has</text>
        <line x1="250" y1="25" x2="250" y2="80" stroke="#7f8c8d" stroke-width="2" marker-end="url(#arrow-time)"/>
        <text x="250" y="55" text-anchor="middle" font-family="system-ui" font-size="8" fill="#7f8c8d">has</text>

        <path d="M 25,0 Q 125, -50 225,0" fill="none" stroke="#e74c3c" stroke-width="2" marker-end="url(#arrow-time)"/>
        <text x="125" y="-30" text-anchor="middle" font-family="system-ui" font-size="9" fill="#e74c3c">CollidedWith</text>
      </g>
    </g>

  </g>
  </svg>