<svg width="602.49" height="205.811" viewBox="0 0 602.49 205.811" xmlns="http://www.w3.org/2000/svg"><g id="svgGroup" stroke-linecap="round" fill-rule="evenodd" font-size="9pt" stroke="#ffffff" stroke-width="0.25mm" fill="#222222" style="stroke:#ffffff;stroke-width:0.25mm;fill:#222222"><path d="M 31.055 141.211 L 31.494 142.09 Q 36.328 150.732 42.773 150.732 Q 43.799 150.732 48.12 149.927 Q 52.441 149.121 60.352 143.994 Q 61.084 143.701 61.816 143.262 L 63.867 142.09 Q 70.752 138.135 80.859 133.228 Q 90.967 128.32 97.778 126.782 Q 104.59 125.244 107.813 125.244 Q 113.379 125.244 117.627 127.734 Q 122.315 131.543 123.926 137.256 Q 125.537 142.09 125.537 147.949 Q 125.537 148.242 125.464 151.538 Q 125.391 154.834 123.779 159.814 Q 118.359 175.781 105.835 184.57 Q 93.311 193.359 77.637 197.461 Q 59.326 202.881 40.576 202.881 Q 36.621 202.881 32.813 202.588 Q 20.068 201.416 11.279 193.359 Q 1.611 184.57 0.293 167.578 Q 0 165.234 0 162.744 Q 0 157.764 1.172 150.439 Q 2.344 143.115 6.885 126.27 Q 10.986 111.182 12.085 99.683 Q 13.184 88.184 13.184 83.203 Q 13.184 70.898 10.107 60.059 Q 7.91 53.174 5.127 46.729 Q 4.102 44.385 3.223 42.041 L 1.904 38.525 Q 0.586 33.984 0.586 29.883 Q 0.586 20.947 6.738 14.355 Q 18.604 2.49 35.303 2.49 L 35.742 2.49 L 37.647 2.49 Q 42.773 2.49 46.948 3.223 Q 51.123 3.955 55.811 5.127 Q 59.473 6.152 64.307 7.031 Q 73.096 8.789 79.541 8.789 Q 80.713 8.789 84.815 8.569 Q 88.916 8.35 96.24 6.738 Q 101.66 5.713 108.984 4.688 Q 111.914 4.248 114.697 4.248 Q 118.359 4.248 122.827 5.493 Q 127.295 6.738 129.346 14.209 Q 129.492 15.674 129.492 16.992 Q 129.492 25.488 123.779 35.156 Q 118.066 44.824 110.01 50.244 Q 100.928 55.957 95.801 56.25 Q 90.674 56.543 88.623 56.543 Q 82.178 56.543 75.293 55.371 Q 70.313 54.639 64.746 54.199 Q 63.428 54.053 62.256 54.053 Q 53.174 54.053 46.289 60.791 Q 37.94 68.994 37.94 80.273 Q 37.94 81.445 38.086 82.764 Q 39.111 88.33 41.235 88.916 Q 43.359 89.502 44.531 89.502 Q 46.875 89.502 50.171 88.184 Q 53.467 86.865 56.982 84.961 Q 58.154 84.375 59.18 83.789 Q 65.039 80.859 69.873 79.541 Q 74.707 78.223 79.102 78.223 Q 81.006 78.223 83.203 78.516 Q 89.648 79.688 92.505 83.789 Q 95.361 87.891 95.361 92.725 Q 95.361 94.043 95.215 95.361 Q 90.527 111.768 73.535 113.379 Q 66.65 113.379 59.473 111.914 Q 53.467 110.596 47.9 110.596 Q 44.092 110.596 40.576 111.182 Q 39.258 111.475 38.159 112.061 Q 37.061 112.647 35.889 113.379 Q 29.883 118.213 29.37 123.267 Q 28.857 128.32 28.857 130.078 Q 28.857 136.084 31.055 141.211 Z" id="0"/><path d="M 141.211 155.859 L 141.211 155.127 Q 141.211 150.147 141.724 146.338 Q 142.236 142.529 143.408 137.842 Q 146.631 125.684 151.758 115.43 Q 153.955 110.303 156.299 104.736 Q 159.229 97.266 159.229 92.139 Q 159.229 91.113 158.789 87.744 Q 158.35 84.375 155.42 77.637 Q 154.395 74.854 153.223 71.631 Q 150 61.963 150 53.174 Q 150 32.52 167.578 16.553 Q 172.266 12.305 177.686 8.789 Q 188.965 2.197 198.047 1.099 Q 207.129 0 211.67 0 Q 220.313 0 228.662 2.051 Q 240.527 5.127 249.023 12.817 Q 257.52 20.508 258.398 33.252 L 258.398 35.889 Q 258.398 47.168 254.004 58.447 Q 249.609 69.727 237.305 75 Q 234.082 76.465 230.859 76.465 Q 225.879 76.465 221.631 72.949 Q 218.408 69.434 216.87 65.405 Q 215.332 61.377 214.307 57.422 Q 213.867 55.518 213.867 51.563 Q 213.867 47.461 214.307 41.162 Q 214.453 39.258 214.453 37.5 Q 214.453 28.125 210.352 25.928 Q 208.447 25.195 206.69 25.195 Q 201.563 25.195 198.779 31.787 Q 194.092 45.264 193.945 66.65 Q 193.945 69.58 194.531 74.561 Q 195.264 79.541 196.729 86.426 Q 197.607 90.381 198.193 94.189 Q 200.391 105.762 200.464 110.01 Q 200.537 114.258 200.537 114.99 Q 200.537 122.461 199.658 132.715 Q 199.512 133.301 199.512 134.033 Q 199.365 136.084 199.365 137.842 Q 199.365 142.529 200.757 147.949 Q 202.148 153.369 209.326 155.713 Q 210.645 156.006 211.963 156.006 Q 216.065 156.006 218.921 152.49 Q 221.777 148.975 222.803 143.555 Q 223.242 140.479 223.242 137.402 Q 223.242 131.104 221.484 125.684 Q 220.02 120.703 220.02 115.576 Q 220.02 112.354 220.606 108.838 Q 222.949 101.953 228.735 97.632 Q 234.522 93.311 241.553 91.846 Q 244.922 91.26 248.145 91.26 Q 257.52 91.26 265.21 97.266 Q 272.9 103.272 277.441 114.844 Q 281.982 126.416 282.422 137.842 Q 282.568 139.6 282.568 141.211 Q 282.568 154.395 276.709 166.113 Q 266.016 186.182 247.632 195.996 Q 229.248 205.811 209.912 205.811 Q 206.982 205.811 204.053 205.664 Q 190.723 204.785 179.224 202.075 Q 167.725 199.365 156.592 191.602 Q 147.656 185.01 144.434 175.635 Q 141.211 166.26 141.211 155.859 Z" id="1"/><path d="M 296.924 136.67 Q 298.096 130.518 300.22 122.974 Q 302.344 115.43 306.152 103.418 Q 309.522 93.018 311.133 87.305 Q 312.744 81.592 313.403 78.076 Q 314.063 74.561 314.209 70.752 L 314.209 68.408 Q 314.209 64.6 313.403 59.766 Q 312.598 54.932 309.668 46.582 Q 307.324 39.258 306.519 35.742 Q 305.713 32.227 305.713 28.272 Q 305.713 22.266 307.617 18.018 Q 309.522 13.77 314.356 10.254 Q 321.973 5.127 330.176 5.127 Q 332.52 5.127 339.258 6.372 Q 345.996 7.617 350.684 19.189 Q 352.734 27.246 352.734 35.449 Q 352.734 38.379 352.441 41.455 L 352.441 42.188 Q 352.148 48.779 351.27 55.518 Q 350.098 63.281 350.098 70.752 Q 350.098 73.096 350.244 75.293 Q 352.441 97.266 367.676 97.266 Q 377.344 96.094 381.006 84.375 Q 382.178 80.273 382.178 75.293 Q 382.178 66.943 378.809 55.957 Q 376.611 48.34 375.659 43.799 Q 374.707 39.258 374.707 35.303 Q 375.732 17.725 386.646 9.155 Q 397.559 0.586 410.303 0.586 Q 413.525 0.586 416.895 1.025 Q 430.811 3.662 436.011 12.891 Q 441.211 22.119 441.211 32.52 Q 441.211 35.01 440.918 37.5 Q 440.625 39.404 440.332 41.455 Q 439.6 45.85 437.183 53.613 Q 434.766 61.377 429.492 76.025 Q 426.563 84.082 425.171 88.55 Q 423.779 93.018 423.34 95.874 Q 422.9 98.73 422.9 101.807 Q 423.779 116.016 429.053 129.053 Q 433.154 139.893 434.106 146.558 Q 435.059 153.223 435.059 155.42 Q 435.059 164.502 430.078 174.17 L 427.734 178.272 Q 419.971 190.43 405.908 192.188 Q 393.75 192.041 389.356 183.325 Q 384.961 174.609 384.815 164.063 Q 384.522 158.936 384.522 153.369 Q 384.522 143.115 383.35 134.18 Q 382.91 130.078 381.006 126.27 Q 376.758 118.506 372.876 117.993 Q 368.994 117.48 368.262 117.48 Q 362.402 117.48 358.887 123.34 Q 357.422 126.27 357.349 128.174 Q 357.275 130.078 357.275 130.518 Q 357.275 133.887 358.154 140.479 Q 359.619 149.121 359.619 159.229 Q 359.619 163.916 358.96 174.17 Q 358.301 184.424 349.805 194.824 Q 344.678 200.244 337.793 202.881 Q 332.52 204.785 327.246 204.785 Q 322.998 204.785 316.113 202.808 Q 309.229 200.83 303.076 193.066 Q 294.873 181.201 294.653 172.412 Q 294.434 163.623 294.434 161.719 Q 294.434 148.389 296.924 136.67 Z" id="2"/><path d="M 464.941 100.488 Q 468.164 92.725 469.629 88.477 Q 471.094 84.229 471.387 80.933 Q 471.68 77.637 471.68 73.389 L 471.68 69.727 Q 471.826 66.797 471.826 62.988 Q 471.826 52.441 473.95 44.971 Q 476.074 37.5 482.227 29.004 Q 487.5 21.826 495.41 15.894 Q 503.32 9.961 511.084 7.324 Q 517.822 5.273 524.268 5.273 Q 537.451 5.273 549.17 13.916 Q 555.176 18.897 557.739 25.269 Q 560.303 31.641 561.768 38.818 Q 562.94 43.213 564.258 47.9 Q 567.188 56.543 570.996 63.208 Q 574.805 69.873 579.785 76.758 Q 581.104 78.662 582.422 80.713 Q 589.307 90.967 595.532 105.981 Q 601.758 120.996 602.49 133.154 Q 602.49 143.408 599.121 153.076 Q 591.943 174.463 572.754 186.768 Q 557.52 196.875 539.209 199.365 Q 534.082 200.098 527.271 200.098 Q 520.459 200.098 515.039 199.951 Q 505.225 199.805 494.824 197.022 Q 484.424 194.238 476.074 188.818 Q 462.598 179.883 457.764 169.775 Q 452.93 159.668 452.93 143.555 Q 453.076 132.422 456.372 122.388 Q 459.668 112.354 464.063 102.393 Q 464.502 101.514 464.941 100.488 Z M 523.242 141.65 Q 529.541 140.625 534.815 135.352 Q 540.967 129.346 544.482 117.92 Q 547.412 107.666 547.852 99.976 Q 548.291 92.285 548.291 89.941 Q 548.291 79.541 545.361 68.481 Q 542.432 57.422 533.789 49.951 Q 528.662 46.143 524.121 46.143 Q 518.115 46.143 512.988 52.881 Q 510.352 57.129 508.301 62.109 Q 507.568 64.014 506.69 65.772 Q 504.785 69.873 502.881 73.682 Q 498.193 82.764 495.41 90.82 Q 492.627 98.877 492.627 107.813 Q 492.627 109.863 492.773 112.061 Q 493.945 125.391 502.295 133.74 Q 510.498 141.943 519.873 141.943 Q 521.484 141.943 523.242 141.65 Z" id="3"/></g></svg>