<svg width="950.707" height="232.516" viewBox="0 0 950.707 232.516" xmlns="http://www.w3.org/2000/svg"><g id="svgGroup" stroke-linecap="round" fill-rule="evenodd" font-size="9pt" stroke="#ffffff" stroke-width="0.25mm" fill="#222222" style="stroke:#ffffff;stroke-width:0.25mm;fill:#222222"><path d="M 187.5 38.103 L 187.5 0.003 L 38.1 0.003 L 0 34.203 L 0 232.503 L 149.4 232.503 L 187.5 198.303 L 187.5 160.203 L 80.1 160.203 L 80.1 152.403 L 149.4 152.403 L 187.5 118.203 L 187.5 80.103 L 80.1 80.103 L 80.1 72.303 L 149.4 72.303 L 187.5 38.103 Z M 36 120.303 L 143.4 120.303 L 143.4 144.303 L 36 144.303 L 36 200.403 L 143.4 200.403 L 143.4 224.403 L 8.1 224.403 L 8.1 38.103 L 36 13.203 L 36 120.303 Z M 179.4 12.603 L 52.2 14.403 L 48.9 101.103 L 45.9 9.903 L 179.4 11.403 L 179.4 12.603 Z M 179.4 20.703 L 61.2 21.903 L 58.2 92.703 L 55.2 17.403 L 179.4 19.203 L 179.4 20.703 Z M 146.1 112.203 L 110.7 112.203 L 57.3 108.003 L 104.7 103.503 L 66.3 99.603 L 98.7 95.103 L 75.9 91.503 L 92.7 88.203 L 172.5 88.203 L 146.1 112.203 Z M 179.4 27.003 L 179.4 28.503 L 70.2 29.703 L 67.5 84.303 L 64.5 24.903 L 179.4 27.003 Z M 166.5 174.003 L 75.6 172.203 L 170.4 170.403 L 166.5 174.003 Z M 57.6 188.103 L 152.1 186.903 L 148.8 189.903 L 57.6 188.103 Z M 66.9 180.003 L 161.1 178.803 L 157.5 182.103 L 66.9 180.003 Z M 82.2 44.103 L 169.5 42.903 L 166.8 45.303 L 82.2 44.103 Z M 157.8 53.403 L 82.2 51.903 L 160.2 51.303 L 157.8 53.403 Z M 149.1 61.203 L 82.2 60.003 L 151.2 59.403 L 149.1 61.203 Z M 48.9 153.603 L 49.5 182.403 L 48.6 183.303 L 48.9 153.603 Z M 155.7 114.603 L 156.6 113.703 L 156.6 135.003 L 155.7 135.603 L 155.7 114.603 Z M 155.7 194.703 L 156.6 193.803 L 156.6 214.803 L 155.7 215.703 L 155.7 194.703 Z M 165 207.303 L 165 186.303 L 165.9 185.703 L 165.9 206.703 L 165 207.303 Z M 165 127.203 L 165 106.203 L 165.9 105.603 L 165.9 126.603 L 165 127.203 Z M 174.3 198.903 L 174.3 178.203 L 175.2 177.303 L 175.2 198.303 L 174.3 198.903 Z M 175.2 117.903 L 174.3 118.803 L 174.3 98.103 L 175.2 97.203 L 175.2 117.903 Z M 58.2 153.603 L 58.8 174.003 L 57.9 174.903 L 58.2 153.603 Z M 67.5 153.603 L 68.1 165.603 L 67.2 166.503 L 67.5 153.603 Z" id="0"/><path d="M 345.3 0.003 L 312.3 0.003 C 260.1 0.003 207.9 41.103 207.9 113.403 C 207.9 182.103 253.8 232.503 315.3 232.503 L 346.5 232.503 C 392.1 232.503 430.5 205.803 446.7 156.903 L 414.6 128.103 L 372.6 128.103 C 369.9 149.703 360.6 166.203 348.9 176.703 L 346.8 176.703 C 316.5 176.703 288 151.203 288 109.503 C 288 85.803 297.3 67.503 310.5 56.103 L 314.7 56.103 C 346.2 56.103 366.3 78.903 371.1 104.403 L 416.4 104.403 L 447 76.803 C 433.8 31.203 393.9 0.003 345.3 0.003 Z M 378.3 139.203 L 401.1 159.903 C 386.7 198.903 351 224.403 315 224.403 C 256.5 224.403 216 174.603 216 113.403 C 216 47.403 262.5 9.603 308.7 7.503 C 273.3 22.503 243.9 59.103 243.9 111.303 C 243.9 161.703 276 198.603 315 198.603 C 342.6 198.603 369.9 176.403 378.3 139.203 Z M 435.6 75.903 L 431.7 79.203 C 419.7 41.103 390.3 13.503 346.5 13.503 C 297.9 13.503 259.2 51.603 259.2 111.003 C 259.2 131.703 266.7 167.703 296.4 187.203 C 291.9 185.403 287.4 183.003 283.2 180.003 C 262.2 162.303 254.1 132.303 254.1 111.003 C 254.1 53.103 297 11.403 346.5 11.403 C 392.1 11.403 422.4 40.503 435.6 75.903 Z M 428.1 82.503 L 423.9 86.403 C 413.7 49.803 387 22.203 346.2 22.203 C 300.3 22.203 268.5 61.203 268.5 110.403 C 268.5 132.903 277.5 178.803 323.1 189.903 C 321 190.203 318.9 190.503 317.1 190.503 C 274.8 179.403 263.4 136.803 263.4 110.403 C 263.4 59.703 301.5 20.103 346.2 20.103 C 389.7 20.103 417 48.303 428.1 82.503 Z M 420.3 89.403 L 415.8 93.603 C 408 60.003 384.6 30.903 345.9 30.903 C 306.3 30.903 277.5 66.603 277.5 109.503 C 277.5 128.703 283.2 180.303 336.6 185.403 C 335.4 186.003 334.2 186.903 332.7 187.203 C 282 180.303 272.7 134.403 272.7 109.503 C 272.7 66.303 306 28.803 345.9 28.803 C 384.9 28.803 410.4 56.103 420.3 89.403 Z M 408.3 162.603 L 436.2 162.603 C 429.3 179.403 417 192.903 403.5 202.203 C 415.2 190.803 422.4 179.703 426.3 164.103 C 419.4 179.703 409.2 192.303 395.4 202.503 C 406.8 191.403 413.4 178.803 417 164.103 C 409.8 178.503 401.4 191.703 387.3 202.503 C 397.8 190.503 404.1 177.003 408.3 162.603 Z M 402.9 96.303 L 401.7 96.303 C 397.2 72.003 378.9 53.103 362.7 47.703 C 380.4 52.503 397.2 70.503 402.9 96.303 Z M 392.7 96.303 L 391.5 96.303 C 388.2 77.403 373.5 56.703 354.6 49.503 C 372.9 55.203 387.6 73.203 392.7 96.303 Z M 383.1 96.303 L 381.9 96.303 C 378 79.503 365.7 59.403 345.9 51.903 C 363.9 57.603 377.7 74.403 383.1 96.303 Z M 431.4 154.503 L 408 154.503 L 387.6 136.203 L 411 136.203 L 431.4 154.503 Z" id="1"/><path d="M 647.1 232.503 L 685.2 198.303 L 685.2 0.003 L 643.2 0.003 L 605.1 34.203 L 605.1 80.103 L 546.9 80.103 L 546.9 0.003 L 504.9 0.003 L 466.8 34.203 L 466.8 232.503 L 508.8 232.503 L 546.9 198.303 L 546.9 152.403 L 605.1 152.403 L 605.1 232.503 L 647.1 232.503 Z M 613.2 120.303 L 613.2 38.103 L 641.1 13.203 L 641.1 194.403 L 613.2 219.303 L 613.2 144.303 L 502.8 144.303 L 502.8 224.403 L 474.9 224.403 L 474.9 40.203 L 502.8 40.203 L 502.8 120.303 L 613.2 120.303 Z M 666.6 8.103 L 664.2 192.303 L 671.4 192.303 L 669 8.103 L 675.9 8.103 L 673.5 192.303 L 662.1 192.303 L 659.7 8.103 L 666.6 8.103 Z M 652.8 192.303 L 650.4 8.103 L 657.3 8.103 L 654.9 192.303 L 652.8 192.303 Z M 605.1 88.203 L 605.1 112.203 L 580.5 112.203 L 524.1 108.003 L 580.5 104.103 L 532.8 100.203 L 580.5 96.303 L 542.1 92.103 L 580.5 88.203 L 605.1 88.203 Z M 524.4 92.103 L 521.7 28.503 L 528.3 22.503 L 524.4 92.103 Z M 530.7 20.403 L 537.6 14.403 L 533.7 83.703 L 530.7 20.403 Z M 512.7 36.603 L 518.7 31.203 L 515.1 100.503 L 512.7 36.603 Z M 515.7 153.603 L 517.5 213.603 L 513.6 216.903 L 515.7 153.603 Z M 508.5 8.103 L 531.9 8.103 L 505.2 32.103 L 481.5 32.103 L 508.5 8.103 Z M 525 153.603 L 527.1 204.903 L 523.5 208.203 L 525 153.603 Z M 534.3 153.603 L 536.1 196.803 L 532.8 199.803 L 534.3 153.603 Z" id="2"/><path d="M 906.6 119.103 L 906.6 121.203 C 906.6 186.003 863.1 224.403 812.7 224.403 C 756 224.403 713.7 177.003 713.7 113.103 C 713.7 49.503 757.2 10.203 805.2 7.803 C 769.5 22.803 741.6 59.103 741.6 111.303 C 741.6 161.403 773.4 198.603 812.7 198.603 C 846.9 198.603 878.7 171.603 878.7 123.303 C 878.4 89.703 866.1 64.503 842.7 51.903 C 871.2 60.903 885.6 92.703 888 122.403 C 889.2 93.903 876.6 63.303 851.4 49.803 C 880.5 59.103 895.8 92.403 897.3 121.803 C 898.5 92.703 885.9 61.503 859.5 47.103 C 887.7 56.703 905.4 90.003 906.6 119.103 Z M 909.9 195.903 C 927.9 174.603 936.9 146.103 936.9 120.003 C 936.9 68.403 902.4 13.503 844.2 13.503 C 786.6 13.503 756.6 51.603 756.6 111.003 C 756.6 130.503 761.7 150.903 774.3 168.903 C 761.4 155.103 751.5 131.703 751.5 111.003 C 751.5 53.103 788.1 11.403 844.2 11.403 C 908.1 11.403 938.7 66.603 938.7 119.403 C 938.7 146.103 929.4 175.803 909.9 195.903 Z M 901.8 195.903 C 918.3 173.703 927.6 146.103 927.6 120.603 C 927.6 74.403 896.7 22.203 843.9 22.203 C 789.3 22.203 765.9 61.203 765.9 110.403 C 765.9 131.703 771.3 150.003 783.6 167.103 C 769.5 151.503 760.8 132.303 760.8 110.403 C 760.8 59.703 792 20.103 843.9 20.103 C 902.7 20.103 929.4 69.903 929.4 120.003 C 929.4 146.103 919.5 176.103 901.8 195.903 Z M 894 195.903 C 910.8 173.403 918.3 146.103 918.3 121.203 C 918.3 82.503 892.8 30.903 843.6 30.903 C 795 30.903 774.9 66.603 774.9 109.503 C 774.9 132.003 780.9 148.803 793.2 165.603 C 780.3 152.703 770.1 132.903 770.1 109.503 C 770.1 66.303 796.2 28.803 843.6 28.803 C 894.3 28.803 920.1 73.803 920.1 120.603 C 920.1 146.103 912 175.503 894 195.903 Z M 843 0.003 L 810 0.003 C 754.8 0.003 705.6 42.603 705.6 113.103 C 705.6 183.903 753.6 232.503 813 232.503 L 846.3 232.503 C 901.5 232.503 950.7 189.903 950.7 119.403 C 950.7 45.003 899.1 0.003 843 0.003 Z M 870.6 123.003 C 870.6 146.703 862.2 165.003 849.3 176.703 C 817.5 179.403 785.7 153.303 785.7 109.503 C 785.7 85.803 794.1 67.503 806.7 56.103 C 838.8 53.403 870.6 79.503 870.6 123.003 Z" id="3"/></g></svg>